G75*
%MOIN*%
%OFA0B0*%
%FSLAX25Y25*%
%IPPOS*%
%LPD*%
%AMOC8*
5,1,8,0,0,1.08239X$1,22.5*
%
%ADD10C,0.00100*%
%ADD11C,0.00800*%
%ADD12C,0.02000*%
%ADD13C,0.00394*%
%ADD14C,0.00500*%
%ADD15R,0.00157X0.12520*%
%ADD16R,0.00118X0.12520*%
%ADD17R,0.00118X0.02480*%
%ADD18R,0.00118X0.06220*%
%ADD19R,0.00157X0.02047*%
%ADD20R,0.00157X0.00945*%
%ADD21R,0.00118X0.01929*%
%ADD22R,0.00118X0.00709*%
%ADD23R,0.00118X0.02047*%
%ADD24R,0.00157X0.01772*%
%ADD25R,0.00157X0.00551*%
%ADD26R,0.00157X0.01811*%
%ADD27R,0.00118X0.01654*%
%ADD28R,0.00118X0.00433*%
%ADD29R,0.00118X0.01811*%
%ADD30R,0.00157X0.01654*%
%ADD31R,0.00118X0.00276*%
%ADD32R,0.00118X0.00394*%
%ADD33R,0.00118X0.01496*%
%ADD34R,0.00118X0.00551*%
%ADD35R,0.00157X0.00669*%
%ADD36R,0.00157X0.01378*%
%ADD37R,0.00157X0.00709*%
%ADD38R,0.00157X0.01496*%
%ADD39R,0.00118X0.00984*%
%ADD40R,0.00118X0.01260*%
%ADD41R,0.00157X0.01929*%
%ADD42R,0.00157X0.01102*%
%ADD43R,0.00118X0.00827*%
%ADD44R,0.00118X0.00945*%
%ADD45R,0.00157X0.02480*%
%ADD46R,0.00157X0.00984*%
%ADD47R,0.00118X0.01102*%
%ADD48R,0.00118X0.01772*%
%ADD49R,0.00157X0.01260*%
%ADD50R,0.00157X0.00394*%
%ADD51R,0.00157X0.02087*%
%ADD52R,0.00118X0.03031*%
%ADD53R,0.00118X0.00157*%
%ADD54R,0.00118X0.02638*%
%ADD55R,0.00157X0.01220*%
%ADD56R,0.00157X0.00157*%
%ADD57R,0.00118X0.01220*%
%ADD58R,0.00118X0.00669*%
%ADD59R,0.00118X0.01378*%
%ADD60R,0.00157X0.02205*%
%ADD61R,0.00118X0.02205*%
%ADD62R,0.00118X0.10394*%
%ADD63R,0.00118X0.10748*%
%ADD64R,0.00079X0.10984*%
%ADD65R,0.00157X0.11220*%
%ADD66R,0.00118X0.11339*%
%ADD67R,0.00118X0.11457*%
%ADD68R,0.00079X0.11575*%
%ADD69R,0.00118X0.02126*%
%ADD70R,0.00118X0.08976*%
%ADD71R,0.00157X0.01890*%
%ADD72R,0.00157X0.00827*%
%ADD73R,0.00157X0.02362*%
%ADD74R,0.00157X0.03425*%
%ADD75R,0.00118X0.00591*%
%ADD76R,0.00118X0.02008*%
%ADD77R,0.00118X0.03307*%
%ADD78R,0.00118X0.01535*%
%ADD79R,0.00118X0.00472*%
%ADD80R,0.00118X0.03425*%
%ADD81R,0.00157X0.01417*%
%ADD82R,0.00157X0.00472*%
%ADD83R,0.00157X0.01299*%
%ADD84R,0.00118X0.01417*%
%ADD85R,0.00118X0.01181*%
%ADD86R,0.00157X0.01063*%
%ADD87R,0.00157X0.03307*%
%ADD88R,0.00118X0.03189*%
%ADD89R,0.00118X0.01299*%
%ADD90R,0.00118X0.00236*%
%ADD91R,0.00157X0.00591*%
%ADD92R,0.00157X0.00236*%
%ADD93R,0.00157X0.03071*%
%ADD94R,0.00118X0.00354*%
%ADD95R,0.00118X0.03071*%
%ADD96R,0.00118X0.02953*%
%ADD97R,0.00157X0.02835*%
%ADD98R,0.00157X0.00354*%
%ADD99R,0.00157X0.01181*%
%ADD100R,0.00118X0.01063*%
%ADD101R,0.00118X0.02835*%
%ADD102R,0.00118X0.02598*%
%ADD103R,0.00118X0.02362*%
%ADD104R,0.00118X0.02244*%
%ADD105R,0.00157X0.02126*%
%ADD106R,0.00118X0.11575*%
%ADD107R,0.00118X0.11220*%
%ADD108R,0.00118X0.10984*%
%ADD109R,0.00118X0.09685*%
%ADD110R,0.00118X0.10039*%
%ADD111R,0.00079X0.10276*%
%ADD112R,0.00157X0.10512*%
%ADD113R,0.00118X0.10630*%
%ADD114R,0.00079X0.10866*%
%ADD115R,0.00118X0.05315*%
%ADD116R,0.00157X0.03661*%
%ADD117R,0.00118X0.03661*%
%ADD118R,0.00157X0.03780*%
%ADD119R,0.00118X0.03780*%
%ADD120R,0.00118X0.03898*%
%ADD121R,0.00157X0.02008*%
%ADD122R,0.00157X0.03898*%
%ADD123R,0.00157X0.02717*%
%ADD124R,0.00118X0.01890*%
%ADD125R,0.00118X0.10866*%
%ADD126R,0.00118X0.10512*%
%ADD127R,0.00118X0.10276*%
%ADD128R,0.00079X0.11457*%
%ADD129R,0.00157X0.11457*%
%ADD130R,0.00118X0.08268*%
%ADD131R,0.00157X0.02244*%
%ADD132R,0.00157X0.00118*%
%ADD133R,0.00118X0.00118*%
%ADD134R,0.00157X0.01535*%
%ADD135C,0.00591*%
%ADD136C,0.00300*%
%ADD137R,0.00079X0.11220*%
%ADD138R,0.00157X0.11102*%
%ADD139R,0.00079X0.10748*%
%ADD140R,0.00118X0.07795*%
%ADD141R,0.00118X0.11102*%
%ADD142R,0.00118X0.16063*%
%ADD143R,0.00118X0.16181*%
%ADD144R,0.00079X0.16417*%
%ADD145R,0.00157X0.16535*%
%ADD146R,0.00079X0.01181*%
%ADD147R,0.00079X0.01299*%
%ADD148R,0.00118X0.17362*%
%ADD149R,0.00118X0.17480*%
%ADD150R,0.00157X0.17598*%
%ADD151R,0.00118X0.17717*%
%ADD152R,0.00118X0.02717*%
%ADD153R,0.00157X0.02598*%
%ADD154R,0.00118X0.16654*%
%ADD155R,0.00118X0.16535*%
%ADD156R,0.00118X0.16417*%
%ADD157R,0.10748X0.00118*%
%ADD158R,0.11457X0.00118*%
%ADD159R,0.11929X0.00079*%
%ADD160R,0.12402X0.00157*%
%ADD161R,0.12638X0.00118*%
%ADD162R,0.12874X0.00118*%
%ADD163R,0.13110X0.00079*%
%ADD164R,0.04961X0.00118*%
%ADD165R,0.03071X0.00118*%
%ADD166R,0.05079X0.00118*%
%ADD167R,0.02244X0.00157*%
%ADD168R,0.00945X0.00157*%
%ADD169R,0.01181X0.00157*%
%ADD170R,0.00472X0.00157*%
%ADD171R,0.02835X0.00157*%
%ADD172R,0.02244X0.00118*%
%ADD173R,0.00591X0.00118*%
%ADD174R,0.00945X0.00118*%
%ADD175R,0.00354X0.00118*%
%ADD176R,0.02598X0.00118*%
%ADD177R,0.02362X0.00118*%
%ADD178R,0.00472X0.00118*%
%ADD179R,0.00827X0.00118*%
%ADD180R,0.02480X0.00118*%
%ADD181R,0.02480X0.00157*%
%ADD182R,0.00236X0.00157*%
%ADD183R,0.00709X0.00157*%
%ADD184R,0.00354X0.00157*%
%ADD185R,0.00709X0.00118*%
%ADD186R,0.00236X0.00118*%
%ADD187R,0.02598X0.00157*%
%ADD188R,0.00591X0.00157*%
%ADD189R,0.02717X0.00118*%
%ADD190R,0.02835X0.00118*%
%ADD191R,0.00827X0.00157*%
%ADD192R,0.01299X0.00118*%
%ADD193R,0.01654X0.00118*%
%ADD194R,0.01063X0.00118*%
%ADD195R,0.01063X0.00157*%
%ADD196R,0.01181X0.00118*%
%ADD197R,0.02126X0.00118*%
%ADD198R,0.02126X0.00157*%
%ADD199R,0.01417X0.00118*%
%ADD200R,0.13110X0.00118*%
%ADD201R,0.12402X0.00118*%
%ADD202R,0.11929X0.00118*%
%ADD203R,0.00079X0.11693*%
%ADD204R,0.00157X0.11929*%
%ADD205R,0.00118X0.12047*%
%ADD206R,0.00118X0.12165*%
%ADD207R,0.00079X0.12283*%
%ADD208R,0.00118X0.04606*%
%ADD209R,0.00157X0.02953*%
%ADD210R,0.00118X0.12283*%
%ADD211R,0.00118X0.11929*%
%ADD212R,0.00118X0.11693*%
%ADD213R,0.00118X0.08740*%
%ADD214R,0.00118X0.09094*%
%ADD215R,0.00079X0.09331*%
%ADD216R,0.00157X0.09567*%
%ADD217R,0.00118X0.09803*%
%ADD218R,0.00079X0.09921*%
%ADD219R,0.00118X0.04252*%
%ADD220R,0.00118X0.09921*%
%ADD221R,0.00118X0.09567*%
%ADD222R,0.00118X0.09331*%
%ADD223R,0.12165X0.00118*%
%ADD224R,0.12165X0.00079*%
%ADD225R,0.12165X0.00157*%
%ADD226R,0.01417X0.00157*%
%ADD227R,0.01299X0.00157*%
%ADD228R,0.03071X0.00157*%
%ADD229R,0.02953X0.00118*%
%ADD230R,0.01890X0.00118*%
%ADD231R,0.01890X0.00157*%
%ADD232R,0.03307X0.00118*%
%ADD233R,0.01535X0.00118*%
%ADD234R,0.08858X0.00118*%
%ADD235R,0.08858X0.00079*%
%ADD236R,0.08858X0.00157*%
%ADD237R,0.03189X0.00118*%
%ADD238R,0.01654X0.00157*%
%ADD239R,0.01535X0.00157*%
%ADD240R,0.03189X0.00157*%
%ADD241R,0.01772X0.00118*%
%ADD242R,0.00197X0.03346*%
%ADD243R,0.00197X0.01181*%
%ADD244R,0.00197X0.03150*%
%ADD245R,0.00197X0.00197*%
%ADD246R,0.00197X0.00394*%
%ADD247R,0.00197X0.03937*%
%ADD248R,0.00197X0.02362*%
%ADD249R,0.00197X0.01969*%
%ADD250R,0.00197X0.02165*%
%ADD251R,0.00197X0.04134*%
%ADD252R,0.00197X0.02953*%
%ADD253R,0.00197X0.01378*%
%ADD254R,0.00197X0.01575*%
%ADD255R,0.00197X0.02756*%
%ADD256R,0.00197X0.03740*%
%ADD257R,0.00197X0.01772*%
%ADD258R,0.00197X0.04331*%
%ADD259R,0.00197X0.04528*%
%ADD260R,0.00197X0.02559*%
%ADD261R,0.00197X0.05512*%
%ADD262R,0.00236X0.01575*%
%ADD263R,0.00236X0.01181*%
%ADD264R,0.00236X0.01378*%
%ADD265R,0.00236X0.03346*%
%ADD266R,0.00236X0.01969*%
%ADD267R,0.00236X0.03543*%
%ADD268R,0.00197X0.00787*%
%ADD269R,0.00236X0.01772*%
%ADD270R,0.00236X0.03740*%
%ADD271R,0.00236X0.02756*%
%ADD272R,0.00197X0.03543*%
%ADD273R,0.00197X0.05118*%
%ADD274R,0.00197X0.04921*%
%ADD275R,0.00197X0.04724*%
%ADD276R,0.00236X0.04134*%
%ADD277R,0.00236X0.02362*%
%ADD278R,0.00197X0.00984*%
%ADD279R,0.00197X0.00591*%
%ADD280R,0.02362X0.00157*%
%ADD281R,0.01772X0.00157*%
%ADD282R,0.02008X0.00157*%
%ADD283R,0.02008X0.00118*%
%ADD284R,0.00118X0.07559*%
%ADD285R,0.00118X0.07677*%
%ADD286R,0.00079X0.07913*%
%ADD287R,0.00157X0.08031*%
%ADD288R,0.00118X0.08858*%
%ADD289R,0.00157X0.09094*%
%ADD290R,0.00118X0.09213*%
%ADD291R,0.00118X0.08150*%
%ADD292R,0.00118X0.08031*%
%ADD293R,0.00118X0.07913*%
%ADD294R,0.00118X0.08386*%
%ADD295R,0.00079X0.08622*%
%ADD296R,0.00157X0.08740*%
%ADD297R,0.00157X0.09803*%
%ADD298R,0.00118X0.08622*%
D10*
X0120793Y0077030D02*
X0120793Y0081750D01*
X0142733Y0081750D01*
X0142733Y0077030D01*
X0120793Y0077030D01*
X0120793Y0077067D02*
X0142733Y0077067D01*
X0142733Y0077165D02*
X0120793Y0077165D01*
X0120793Y0077264D02*
X0142733Y0077264D01*
X0142733Y0077362D02*
X0120793Y0077362D01*
X0120793Y0077461D02*
X0142733Y0077461D01*
X0142733Y0077559D02*
X0120793Y0077559D01*
X0120793Y0077658D02*
X0142733Y0077658D01*
X0142733Y0077756D02*
X0120793Y0077756D01*
X0120793Y0077855D02*
X0142733Y0077855D01*
X0142733Y0077953D02*
X0120793Y0077953D01*
X0120793Y0078052D02*
X0142733Y0078052D01*
X0142733Y0078150D02*
X0120793Y0078150D01*
X0120793Y0078249D02*
X0142733Y0078249D01*
X0142733Y0078347D02*
X0120793Y0078347D01*
X0120793Y0078446D02*
X0142733Y0078446D01*
X0142733Y0078544D02*
X0120793Y0078544D01*
X0120793Y0078643D02*
X0142733Y0078643D01*
X0142733Y0078741D02*
X0120793Y0078741D01*
X0120793Y0078840D02*
X0142733Y0078840D01*
X0142733Y0078938D02*
X0120793Y0078938D01*
X0120793Y0079037D02*
X0142733Y0079037D01*
X0142733Y0079135D02*
X0120793Y0079135D01*
X0120793Y0079234D02*
X0142733Y0079234D01*
X0142733Y0079332D02*
X0120793Y0079332D01*
X0120793Y0079431D02*
X0142733Y0079431D01*
X0142733Y0079529D02*
X0120793Y0079529D01*
X0120793Y0079628D02*
X0142733Y0079628D01*
X0142733Y0079726D02*
X0120793Y0079726D01*
X0120793Y0079825D02*
X0142733Y0079825D01*
X0142733Y0079923D02*
X0120793Y0079923D01*
X0120793Y0080022D02*
X0142733Y0080022D01*
X0142733Y0080120D02*
X0120793Y0080120D01*
X0120793Y0080219D02*
X0142733Y0080219D01*
X0142733Y0080317D02*
X0120793Y0080317D01*
X0120793Y0080416D02*
X0142733Y0080416D01*
X0142733Y0080514D02*
X0120793Y0080514D01*
X0120793Y0080613D02*
X0142733Y0080613D01*
X0142733Y0080711D02*
X0120793Y0080711D01*
X0120793Y0080810D02*
X0142733Y0080810D01*
X0142733Y0080908D02*
X0120793Y0080908D01*
X0120793Y0081007D02*
X0142733Y0081007D01*
X0142733Y0081105D02*
X0120793Y0081105D01*
X0120793Y0081204D02*
X0142733Y0081204D01*
X0142733Y0081303D02*
X0120793Y0081303D01*
X0120793Y0081401D02*
X0142733Y0081401D01*
X0142733Y0081500D02*
X0120793Y0081500D01*
X0120793Y0081598D02*
X0142733Y0081598D01*
X0142733Y0081697D02*
X0120793Y0081697D01*
X0154983Y0081697D02*
X0171637Y0081697D01*
X0171583Y0081750D02*
X0154983Y0081750D01*
X0154983Y0077040D01*
X0176293Y0077040D01*
X0171583Y0081750D01*
X0171735Y0081598D02*
X0154983Y0081598D01*
X0154983Y0081500D02*
X0171834Y0081500D01*
X0171932Y0081401D02*
X0154983Y0081401D01*
X0154983Y0081303D02*
X0172031Y0081303D01*
X0172129Y0081204D02*
X0154983Y0081204D01*
X0154983Y0081105D02*
X0172228Y0081105D01*
X0172326Y0081007D02*
X0154983Y0081007D01*
X0154983Y0080908D02*
X0172425Y0080908D01*
X0172523Y0080810D02*
X0154983Y0080810D01*
X0154983Y0080711D02*
X0172622Y0080711D01*
X0172720Y0080613D02*
X0154983Y0080613D01*
X0154983Y0080514D02*
X0172819Y0080514D01*
X0172917Y0080416D02*
X0154983Y0080416D01*
X0154983Y0080317D02*
X0173016Y0080317D01*
X0173114Y0080219D02*
X0154983Y0080219D01*
X0154983Y0080120D02*
X0173213Y0080120D01*
X0173311Y0080022D02*
X0154983Y0080022D01*
X0154983Y0079923D02*
X0173410Y0079923D01*
X0173508Y0079825D02*
X0154983Y0079825D01*
X0154983Y0079726D02*
X0173607Y0079726D01*
X0173705Y0079628D02*
X0154983Y0079628D01*
X0154983Y0079529D02*
X0173804Y0079529D01*
X0173903Y0079431D02*
X0154983Y0079431D01*
X0154983Y0079332D02*
X0174001Y0079332D01*
X0174100Y0079234D02*
X0154983Y0079234D01*
X0154983Y0079135D02*
X0174198Y0079135D01*
X0174297Y0079037D02*
X0154983Y0079037D01*
X0154983Y0078938D02*
X0174395Y0078938D01*
X0174494Y0078840D02*
X0154983Y0078840D01*
X0154983Y0078741D02*
X0174592Y0078741D01*
X0174691Y0078643D02*
X0154983Y0078643D01*
X0154983Y0078544D02*
X0174789Y0078544D01*
X0174888Y0078446D02*
X0154983Y0078446D01*
X0154983Y0078347D02*
X0174986Y0078347D01*
X0175085Y0078249D02*
X0154983Y0078249D01*
X0154983Y0078150D02*
X0175183Y0078150D01*
X0175282Y0078052D02*
X0154983Y0078052D01*
X0154983Y0077953D02*
X0175380Y0077953D01*
X0175479Y0077855D02*
X0154983Y0077855D01*
X0154983Y0077756D02*
X0175577Y0077756D01*
X0175676Y0077658D02*
X0154983Y0077658D01*
X0154983Y0077559D02*
X0175774Y0077559D01*
X0175873Y0077461D02*
X0154983Y0077461D01*
X0154983Y0077362D02*
X0175971Y0077362D01*
X0176070Y0077264D02*
X0154983Y0077264D01*
X0154983Y0077165D02*
X0176168Y0077165D01*
X0176267Y0077067D02*
X0154983Y0077067D01*
X0182381Y0077240D02*
X0190373Y0077240D01*
X0190373Y0081950D01*
X0186502Y0081950D01*
X0182381Y0077240D01*
X0182401Y0077264D02*
X0190373Y0077264D01*
X0190373Y0077362D02*
X0182488Y0077362D01*
X0182574Y0077461D02*
X0190373Y0077461D01*
X0190373Y0077559D02*
X0182660Y0077559D01*
X0182746Y0077658D02*
X0190373Y0077658D01*
X0190373Y0077756D02*
X0182832Y0077756D01*
X0182919Y0077855D02*
X0190373Y0077855D01*
X0190373Y0077953D02*
X0183005Y0077953D01*
X0183091Y0078052D02*
X0190373Y0078052D01*
X0190373Y0078150D02*
X0183177Y0078150D01*
X0183263Y0078249D02*
X0190373Y0078249D01*
X0190373Y0078347D02*
X0183350Y0078347D01*
X0183436Y0078446D02*
X0190373Y0078446D01*
X0190373Y0078544D02*
X0183522Y0078544D01*
X0183608Y0078643D02*
X0190373Y0078643D01*
X0190373Y0078741D02*
X0183694Y0078741D01*
X0183781Y0078840D02*
X0190373Y0078840D01*
X0190373Y0078938D02*
X0183867Y0078938D01*
X0183953Y0079037D02*
X0190373Y0079037D01*
X0190373Y0079135D02*
X0184039Y0079135D01*
X0184125Y0079234D02*
X0190373Y0079234D01*
X0190373Y0079332D02*
X0184212Y0079332D01*
X0184298Y0079431D02*
X0190373Y0079431D01*
X0190373Y0079529D02*
X0184384Y0079529D01*
X0184470Y0079628D02*
X0190373Y0079628D01*
X0190373Y0079726D02*
X0184556Y0079726D01*
X0184643Y0079825D02*
X0190373Y0079825D01*
X0190373Y0079923D02*
X0184729Y0079923D01*
X0184815Y0080022D02*
X0190373Y0080022D01*
X0190373Y0080120D02*
X0184901Y0080120D01*
X0184987Y0080219D02*
X0190373Y0080219D01*
X0190373Y0080317D02*
X0185074Y0080317D01*
X0185160Y0080416D02*
X0190373Y0080416D01*
X0190373Y0080514D02*
X0185246Y0080514D01*
X0185332Y0080613D02*
X0190373Y0080613D01*
X0190373Y0080711D02*
X0185418Y0080711D01*
X0185505Y0080810D02*
X0190373Y0080810D01*
X0190373Y0080908D02*
X0185591Y0080908D01*
X0185677Y0081007D02*
X0190373Y0081007D01*
X0190373Y0081105D02*
X0185763Y0081105D01*
X0185849Y0081204D02*
X0190373Y0081204D01*
X0190373Y0081303D02*
X0185936Y0081303D01*
X0186022Y0081401D02*
X0190373Y0081401D01*
X0190373Y0081500D02*
X0186108Y0081500D01*
X0186194Y0081598D02*
X0190373Y0081598D01*
X0190373Y0081697D02*
X0186280Y0081697D01*
X0186367Y0081795D02*
X0190373Y0081795D01*
X0190373Y0081894D02*
X0186453Y0081894D01*
X0199263Y0081894D02*
X0199833Y0081894D01*
X0199833Y0081940D02*
X0199263Y0081940D01*
X0199263Y0077240D01*
X0199833Y0077240D01*
X0199833Y0081940D01*
X0199833Y0081795D02*
X0199263Y0081795D01*
X0199263Y0081697D02*
X0199833Y0081697D01*
X0199833Y0081598D02*
X0199263Y0081598D01*
X0199263Y0081500D02*
X0199833Y0081500D01*
X0199833Y0081401D02*
X0199263Y0081401D01*
X0199263Y0081303D02*
X0199833Y0081303D01*
X0199833Y0081204D02*
X0199263Y0081204D01*
X0199263Y0081105D02*
X0199833Y0081105D01*
X0199833Y0081007D02*
X0199263Y0081007D01*
X0199263Y0080908D02*
X0199833Y0080908D01*
X0199833Y0080810D02*
X0199263Y0080810D01*
X0199263Y0080711D02*
X0199833Y0080711D01*
X0199833Y0080613D02*
X0199263Y0080613D01*
X0199263Y0080514D02*
X0199833Y0080514D01*
X0199833Y0080416D02*
X0199263Y0080416D01*
X0199263Y0080317D02*
X0199833Y0080317D01*
X0199833Y0080219D02*
X0199263Y0080219D01*
X0199263Y0080120D02*
X0199833Y0080120D01*
X0199833Y0080022D02*
X0199263Y0080022D01*
X0199263Y0079923D02*
X0199833Y0079923D01*
X0199833Y0079825D02*
X0199263Y0079825D01*
X0199263Y0079726D02*
X0199833Y0079726D01*
X0199833Y0079628D02*
X0199263Y0079628D01*
X0199263Y0079529D02*
X0199833Y0079529D01*
X0199833Y0079431D02*
X0199263Y0079431D01*
X0199263Y0079332D02*
X0199833Y0079332D01*
X0199833Y0079234D02*
X0199263Y0079234D01*
X0199263Y0079135D02*
X0199833Y0079135D01*
X0199833Y0079037D02*
X0199263Y0079037D01*
X0199263Y0078938D02*
X0199833Y0078938D01*
X0199833Y0078840D02*
X0199263Y0078840D01*
X0199263Y0078741D02*
X0199833Y0078741D01*
X0199833Y0078643D02*
X0199263Y0078643D01*
X0199263Y0078544D02*
X0199833Y0078544D01*
X0199833Y0078446D02*
X0199263Y0078446D01*
X0199263Y0078347D02*
X0199833Y0078347D01*
X0199833Y0078249D02*
X0199263Y0078249D01*
X0199263Y0078150D02*
X0199833Y0078150D01*
X0199833Y0078052D02*
X0199263Y0078052D01*
X0199263Y0077953D02*
X0199833Y0077953D01*
X0199833Y0077855D02*
X0199263Y0077855D01*
X0199263Y0077756D02*
X0199833Y0077756D01*
X0199833Y0077658D02*
X0199263Y0077658D01*
X0199263Y0077559D02*
X0199833Y0077559D01*
X0199833Y0077461D02*
X0199263Y0077461D01*
X0199263Y0077362D02*
X0199833Y0077362D01*
X0199833Y0077264D02*
X0199263Y0077264D01*
D11*
X0184333Y0082000D02*
X0180333Y0078000D01*
X0180333Y0072958D01*
X0178333Y0072958D02*
X0178333Y0078000D01*
X0174333Y0082000D01*
X0171502Y0083354D02*
X0167565Y0083354D01*
X0167565Y0090046D02*
X0171502Y0090046D01*
X0185073Y0101357D02*
X0185073Y0108443D01*
X0185073Y0111869D02*
X0189994Y0111869D01*
X0189994Y0108443D02*
X0189994Y0101357D01*
X0135114Y0114843D02*
X0135116Y0114883D01*
X0135122Y0114922D01*
X0135132Y0114961D01*
X0135145Y0114998D01*
X0135163Y0115034D01*
X0135184Y0115068D01*
X0135208Y0115100D01*
X0135235Y0115129D01*
X0135265Y0115156D01*
X0135297Y0115179D01*
X0135332Y0115199D01*
X0135368Y0115215D01*
X0135406Y0115228D01*
X0135445Y0115237D01*
X0135484Y0115242D01*
X0135524Y0115243D01*
X0135564Y0115240D01*
X0135603Y0115233D01*
X0135641Y0115222D01*
X0135679Y0115208D01*
X0135714Y0115189D01*
X0135747Y0115168D01*
X0135779Y0115143D01*
X0135807Y0115115D01*
X0135833Y0115085D01*
X0135855Y0115052D01*
X0135874Y0115017D01*
X0135890Y0114980D01*
X0135902Y0114942D01*
X0135910Y0114903D01*
X0135914Y0114863D01*
X0135914Y0114823D01*
X0135910Y0114783D01*
X0135902Y0114744D01*
X0135890Y0114706D01*
X0135874Y0114669D01*
X0135855Y0114634D01*
X0135833Y0114601D01*
X0135807Y0114571D01*
X0135779Y0114543D01*
X0135747Y0114518D01*
X0135714Y0114497D01*
X0135679Y0114478D01*
X0135641Y0114464D01*
X0135603Y0114453D01*
X0135564Y0114446D01*
X0135524Y0114443D01*
X0135484Y0114444D01*
X0135445Y0114449D01*
X0135406Y0114458D01*
X0135368Y0114471D01*
X0135332Y0114487D01*
X0135297Y0114507D01*
X0135265Y0114530D01*
X0135235Y0114557D01*
X0135208Y0114586D01*
X0135184Y0114618D01*
X0135163Y0114652D01*
X0135145Y0114688D01*
X0135132Y0114725D01*
X0135122Y0114764D01*
X0135116Y0114803D01*
X0135114Y0114843D01*
X0132955Y0113858D02*
X0132955Y0116811D01*
X0126459Y0116811D01*
X0116223Y0110906D02*
X0116223Y0099094D01*
X0126459Y0093189D02*
X0132955Y0093189D01*
X0132955Y0096142D01*
X0178333Y0069021D02*
X0178333Y0063979D01*
X0180333Y0063979D02*
X0180333Y0069021D01*
X0180333Y0060042D02*
X0180333Y0055000D01*
X0178333Y0055000D02*
X0178333Y0060042D01*
X0128583Y0126125D02*
X0128583Y0129875D01*
D12*
X0153554Y0115843D03*
D13*
X0157459Y0114268D02*
X0171239Y0114268D01*
X0173601Y0111906D02*
X0173601Y0098126D01*
X0171239Y0095764D02*
X0157459Y0095764D01*
X0155097Y0098126D02*
X0155097Y0111906D01*
D14*
X0154559Y0123594D02*
X0154559Y0124382D01*
X0159677Y0124382D01*
X0159677Y0123594D01*
X0154559Y0123594D01*
X0154559Y0123988D02*
X0159677Y0123988D01*
X0154559Y0124382D02*
X0154559Y0134618D01*
X0159677Y0134618D01*
X0165189Y0134618D02*
X0170307Y0134618D01*
X0170307Y0124382D01*
X0170307Y0123594D01*
X0165189Y0123594D01*
X0165189Y0124382D01*
X0170307Y0124382D01*
X0170307Y0123988D02*
X0165189Y0123988D01*
D15*
X0157089Y0069271D03*
X0156814Y0069271D03*
X0156538Y0069271D03*
X0156262Y0069271D03*
X0152404Y0069271D03*
X0152129Y0069271D03*
X0151853Y0069271D03*
X0151577Y0069271D03*
D16*
X0151715Y0069271D03*
X0151991Y0069271D03*
X0152266Y0069271D03*
X0156400Y0069271D03*
X0156676Y0069271D03*
X0156951Y0069271D03*
D17*
X0154471Y0064251D03*
X0154196Y0064251D03*
X0153920Y0064251D03*
X0152542Y0064251D03*
X0135888Y0064276D03*
X0143526Y0072271D03*
X0143605Y0072271D03*
X0145062Y0072271D03*
X0145140Y0072271D03*
X0152542Y0074291D03*
X0135140Y0074551D03*
X0135062Y0074551D03*
X0134668Y0074669D03*
X0134550Y0074669D03*
X0134471Y0074669D03*
X0134196Y0074669D03*
X0134117Y0074669D03*
X0133999Y0074669D03*
X0133605Y0074551D03*
X0172878Y0064357D03*
X0182778Y0066974D03*
X0184668Y0064257D03*
X0194768Y0064357D03*
X0175988Y0073334D03*
X0144668Y0138667D03*
X0144550Y0138667D03*
X0144471Y0138667D03*
X0144196Y0138667D03*
X0144117Y0138667D03*
X0143999Y0138667D03*
X0163999Y0145753D03*
D18*
X0152542Y0069271D03*
D19*
X0152680Y0069271D03*
X0152680Y0074507D03*
X0152680Y0064035D03*
D20*
X0153782Y0065688D03*
X0152680Y0067066D03*
X0154058Y0069271D03*
X0152680Y0071476D03*
X0153782Y0072578D03*
X0142916Y0066779D03*
X0143861Y0065716D03*
X0145751Y0065716D03*
X0135751Y0070713D03*
X0134333Y0069886D03*
X0173016Y0067133D03*
X0173488Y0069023D03*
X0173961Y0071857D03*
X0193961Y0070086D03*
X0173861Y0138003D03*
X0174333Y0139302D03*
X0174333Y0142019D03*
X0174333Y0143672D03*
X0175278Y0143672D03*
X0163861Y0142032D03*
X0163861Y0139316D03*
X0155751Y0143677D03*
X0155278Y0143677D03*
X0143861Y0142033D03*
D21*
X0152818Y0074566D03*
X0154471Y0071417D03*
X0155849Y0070708D03*
X0155849Y0067834D03*
X0152818Y0063976D03*
D22*
X0152818Y0067066D03*
X0154196Y0069271D03*
X0153644Y0071200D03*
X0152818Y0071476D03*
X0144944Y0069968D03*
X0143723Y0069968D03*
X0145062Y0067133D03*
X0145140Y0065598D03*
X0143605Y0065598D03*
X0143054Y0066779D03*
X0133605Y0071894D03*
X0133054Y0070713D03*
X0173705Y0071739D03*
X0173705Y0069141D03*
X0173823Y0069141D03*
X0175240Y0068669D03*
X0174650Y0065480D03*
X0174571Y0065480D03*
X0174296Y0065480D03*
X0183526Y0066679D03*
X0183605Y0065498D03*
X0185140Y0065498D03*
X0193705Y0065598D03*
X0193705Y0066661D03*
X0193705Y0068078D03*
X0194099Y0070086D03*
X0194217Y0070086D03*
X0195713Y0069377D03*
X0195240Y0065598D03*
X0175416Y0132334D03*
X0174196Y0136704D03*
X0173999Y0138003D03*
X0163605Y0139198D03*
X0163133Y0140497D03*
X0163605Y0141914D03*
X0155888Y0140252D03*
X0154668Y0140252D03*
X0154550Y0140252D03*
X0154471Y0140252D03*
X0155416Y0142260D03*
X0145613Y0141797D03*
X0144196Y0142151D03*
D23*
X0152818Y0069271D03*
D24*
X0152955Y0074645D03*
X0133861Y0066992D03*
X0152955Y0063897D03*
X0182916Y0063903D03*
X0185751Y0063903D03*
X0182916Y0066974D03*
X0195851Y0064003D03*
X0165751Y0146107D03*
X0162916Y0146107D03*
D25*
X0152955Y0071397D03*
X0153231Y0071279D03*
X0153507Y0067420D03*
X0153231Y0067263D03*
X0152955Y0067145D03*
D26*
X0152955Y0069271D03*
X0154058Y0071476D03*
X0155711Y0070649D03*
X0155711Y0067893D03*
D27*
X0153920Y0071554D03*
X0153920Y0074704D03*
X0154471Y0074704D03*
X0153093Y0074704D03*
X0135888Y0066815D03*
X0135062Y0066933D03*
X0133723Y0066933D03*
X0133605Y0066933D03*
X0153093Y0063838D03*
X0153369Y0063838D03*
X0153644Y0063838D03*
X0173351Y0063944D03*
X0175516Y0063944D03*
X0183054Y0063844D03*
X0193154Y0063944D03*
X0193233Y0069968D03*
X0175516Y0073747D03*
X0175613Y0130562D03*
X0176007Y0130917D03*
X0176125Y0131035D03*
X0173054Y0130562D03*
X0174471Y0134932D03*
X0175416Y0134932D03*
X0175495Y0134932D03*
X0175613Y0134932D03*
X0175888Y0134932D03*
X0176007Y0134932D03*
X0164668Y0143686D03*
X0164196Y0146166D03*
X0163526Y0146166D03*
X0163054Y0146166D03*
X0153054Y0138362D03*
X0145613Y0139080D03*
X0143054Y0139080D03*
D28*
X0153093Y0071338D03*
X0153093Y0067204D03*
D29*
X0153093Y0069271D03*
X0154196Y0071476D03*
D30*
X0153231Y0069350D03*
X0153231Y0074704D03*
X0154058Y0074704D03*
X0154609Y0074704D03*
X0155711Y0074704D03*
X0173488Y0073747D03*
X0183861Y0066088D03*
X0184333Y0063844D03*
X0193961Y0066188D03*
X0194433Y0063944D03*
X0195851Y0071267D03*
X0173488Y0063944D03*
X0155711Y0063838D03*
X0154885Y0063838D03*
X0153507Y0063838D03*
X0153231Y0063838D03*
X0175751Y0130680D03*
X0175751Y0134932D03*
X0175278Y0134932D03*
X0174333Y0134932D03*
X0165751Y0137308D03*
X0162916Y0137308D03*
X0155751Y0138480D03*
D31*
X0153369Y0072794D03*
X0153369Y0065905D03*
D32*
X0153369Y0067342D03*
X0154471Y0069271D03*
D33*
X0153369Y0069271D03*
X0155573Y0070649D03*
X0155573Y0067893D03*
X0155573Y0063759D03*
X0155298Y0063759D03*
X0155022Y0063759D03*
X0155022Y0074783D03*
X0154747Y0074783D03*
X0155298Y0074783D03*
X0155573Y0074783D03*
X0153644Y0074783D03*
X0153369Y0074783D03*
D34*
X0153369Y0071279D03*
X0153644Y0067420D03*
D35*
X0153782Y0067480D03*
X0153507Y0065826D03*
X0153507Y0072716D03*
D36*
X0154885Y0070865D03*
X0155160Y0070708D03*
X0153507Y0069330D03*
X0154333Y0067401D03*
X0155160Y0067834D03*
D37*
X0154333Y0069271D03*
X0153507Y0071200D03*
X0145278Y0068550D03*
X0143861Y0067251D03*
X0135278Y0068823D03*
X0134806Y0070122D03*
X0133861Y0070122D03*
X0174433Y0065480D03*
X0175851Y0067251D03*
X0185751Y0069513D03*
X0195851Y0066661D03*
X0175751Y0138003D03*
X0164806Y0137780D03*
X0163861Y0137780D03*
X0164806Y0140497D03*
X0155751Y0140252D03*
X0154333Y0140252D03*
D38*
X0154885Y0074783D03*
X0155160Y0074783D03*
X0155436Y0074783D03*
X0153782Y0074783D03*
X0153507Y0074783D03*
X0155436Y0070649D03*
X0155436Y0067893D03*
X0155436Y0063759D03*
X0155160Y0063759D03*
D39*
X0155022Y0065826D03*
X0153644Y0065826D03*
X0153644Y0072716D03*
X0155022Y0072716D03*
D40*
X0153644Y0069271D03*
D41*
X0154333Y0071417D03*
X0154333Y0074566D03*
X0155987Y0074566D03*
X0155987Y0063976D03*
X0153782Y0063976D03*
D42*
X0154885Y0065767D03*
X0153782Y0069350D03*
X0153782Y0071279D03*
X0154885Y0072657D03*
D43*
X0153920Y0067401D03*
X0145416Y0065657D03*
X0144196Y0065657D03*
X0143999Y0067310D03*
X0134668Y0070063D03*
X0134550Y0069945D03*
X0134196Y0069945D03*
X0134117Y0070063D03*
X0133999Y0070063D03*
X0173626Y0069082D03*
X0173823Y0071798D03*
X0175162Y0071798D03*
X0183605Y0068391D03*
X0183251Y0066856D03*
X0183605Y0066620D03*
X0184117Y0066383D03*
X0185062Y0065439D03*
X0185495Y0066856D03*
X0195162Y0065539D03*
X0174217Y0065539D03*
X0173705Y0066011D03*
X0173605Y0133220D03*
X0174550Y0135346D03*
X0175140Y0135346D03*
X0175140Y0136763D03*
X0175416Y0136763D03*
X0174471Y0136763D03*
X0175888Y0138062D03*
X0173999Y0140661D03*
X0173605Y0142905D03*
X0174550Y0143731D03*
X0174668Y0143731D03*
X0174944Y0143731D03*
X0175062Y0143731D03*
X0175140Y0143731D03*
X0165062Y0144572D03*
X0164471Y0143509D03*
X0163133Y0143272D03*
X0163723Y0141973D03*
X0164117Y0141973D03*
X0164196Y0141973D03*
X0163054Y0140438D03*
X0164196Y0139257D03*
X0163723Y0137721D03*
X0164944Y0137721D03*
X0156007Y0140311D03*
X0156125Y0141492D03*
X0153723Y0141256D03*
X0144117Y0142092D03*
X0143999Y0142092D03*
X0176125Y0133220D03*
D44*
X0175416Y0139302D03*
X0175416Y0142019D03*
X0175416Y0143672D03*
X0175495Y0143672D03*
X0174471Y0143672D03*
X0174196Y0143672D03*
X0164944Y0140379D03*
X0164117Y0139316D03*
X0163999Y0139316D03*
X0163723Y0139316D03*
X0163605Y0137662D03*
X0165062Y0137662D03*
X0163999Y0142032D03*
X0156125Y0140252D03*
X0155062Y0141551D03*
X0155062Y0143677D03*
X0155140Y0143677D03*
X0154944Y0143677D03*
X0155416Y0143677D03*
X0155495Y0143677D03*
X0155613Y0143677D03*
X0146007Y0141915D03*
X0145888Y0141915D03*
X0175044Y0071857D03*
X0175516Y0068787D03*
X0175595Y0068787D03*
X0175988Y0067133D03*
X0175162Y0065952D03*
X0183133Y0066915D03*
X0184944Y0065380D03*
X0185888Y0069395D03*
X0193823Y0070086D03*
X0193823Y0068196D03*
X0195162Y0068196D03*
X0194217Y0066543D03*
X0195044Y0065480D03*
X0153920Y0069271D03*
X0145416Y0068550D03*
X0144944Y0067133D03*
X0144117Y0067369D03*
X0144117Y0065716D03*
X0143999Y0065716D03*
X0143723Y0065716D03*
X0145495Y0065716D03*
X0145613Y0065716D03*
X0144668Y0069850D03*
X0144117Y0069850D03*
X0143999Y0069850D03*
X0135416Y0068823D03*
X0134471Y0069886D03*
D45*
X0134333Y0074669D03*
X0133861Y0074669D03*
X0134806Y0074669D03*
X0143388Y0072271D03*
X0145278Y0072271D03*
X0154058Y0064251D03*
X0154333Y0064251D03*
X0154609Y0064251D03*
X0195378Y0073924D03*
X0154806Y0138067D03*
X0153861Y0138067D03*
X0144333Y0138667D03*
D46*
X0155160Y0072716D03*
X0154058Y0067480D03*
X0155160Y0065826D03*
D47*
X0154471Y0067539D03*
X0154196Y0067420D03*
X0154747Y0067696D03*
D48*
X0155849Y0063897D03*
X0145888Y0068609D03*
X0142778Y0068609D03*
X0135888Y0068882D03*
X0134944Y0066992D03*
X0132778Y0068882D03*
X0154196Y0074645D03*
X0155849Y0074645D03*
X0173351Y0073688D03*
X0175595Y0073688D03*
X0183723Y0066029D03*
X0184471Y0063903D03*
X0193823Y0066129D03*
X0194571Y0064003D03*
X0195988Y0071208D03*
X0175595Y0064003D03*
X0175495Y0130503D03*
X0176125Y0134991D03*
X0176125Y0140661D03*
X0173605Y0140661D03*
X0176125Y0143377D03*
X0163605Y0146107D03*
X0154550Y0143264D03*
X0155613Y0138421D03*
X0145495Y0139021D03*
D49*
X0154609Y0067617D03*
D50*
X0154609Y0069271D03*
D51*
X0154609Y0071338D03*
D52*
X0154747Y0064527D03*
D53*
X0154747Y0069271D03*
X0121770Y0133000D03*
D54*
X0154747Y0071613D03*
X0156125Y0070787D03*
X0156125Y0067755D03*
D55*
X0154885Y0067755D03*
D56*
X0154885Y0069271D03*
D57*
X0155022Y0070787D03*
X0155022Y0067755D03*
D58*
X0155298Y0065826D03*
X0155298Y0072716D03*
D59*
X0155298Y0070708D03*
X0155298Y0067834D03*
D60*
X0155987Y0067814D03*
X0155987Y0070728D03*
D61*
X0156125Y0074428D03*
X0156125Y0064113D03*
D62*
X0192091Y0068314D03*
X0196776Y0068314D03*
D63*
X0196658Y0068491D03*
X0192209Y0068491D03*
X0186125Y0068391D03*
X0182581Y0068391D03*
X0166007Y0141619D03*
D64*
X0192307Y0068609D03*
D65*
X0192425Y0068728D03*
D66*
X0192563Y0068787D03*
X0196343Y0068787D03*
X0166558Y0141324D03*
X0162109Y0141324D03*
D67*
X0161991Y0141265D03*
X0166676Y0141265D03*
X0172091Y0068846D03*
X0172209Y0068846D03*
X0172563Y0068846D03*
X0172681Y0068846D03*
X0176107Y0068846D03*
X0176225Y0068846D03*
X0176343Y0068846D03*
X0176422Y0068846D03*
X0176540Y0068846D03*
X0176658Y0068846D03*
X0176776Y0068846D03*
X0192681Y0068846D03*
X0196225Y0068846D03*
X0136558Y0068764D03*
X0132109Y0068764D03*
D68*
X0192780Y0068905D03*
D69*
X0195713Y0073865D03*
X0185888Y0072939D03*
X0185613Y0073057D03*
X0184668Y0068687D03*
X0184550Y0068687D03*
X0184471Y0068687D03*
X0184196Y0068687D03*
X0184117Y0068687D03*
X0183999Y0068687D03*
X0182778Y0064080D03*
X0173823Y0066424D03*
X0192878Y0064180D03*
X0194650Y0064180D03*
X0134471Y0067169D03*
X0134196Y0067169D03*
X0145140Y0138844D03*
X0145140Y0145931D03*
X0145062Y0145931D03*
X0144944Y0145931D03*
X0144668Y0145931D03*
X0144550Y0145931D03*
X0144471Y0145931D03*
X0144196Y0145931D03*
X0144117Y0145931D03*
X0145416Y0145931D03*
X0145495Y0145931D03*
X0145613Y0145931D03*
X0145888Y0145931D03*
X0146007Y0145931D03*
X0154117Y0145921D03*
X0162778Y0145930D03*
X0165613Y0142623D03*
X0174117Y0145917D03*
D70*
X0143251Y0142506D03*
X0192878Y0070322D03*
D71*
X0193016Y0064062D03*
X0134806Y0067051D03*
X0165278Y0142505D03*
D72*
X0174806Y0143731D03*
X0175751Y0140661D03*
X0175278Y0136763D03*
X0174333Y0136763D03*
X0145751Y0141856D03*
X0144806Y0069909D03*
X0143861Y0069909D03*
X0143388Y0068609D03*
X0145278Y0065657D03*
X0133388Y0068882D03*
X0175378Y0068728D03*
X0182916Y0069454D03*
X0183388Y0066738D03*
X0193016Y0066602D03*
X0195851Y0069318D03*
D73*
X0193016Y0069850D03*
X0135751Y0064217D03*
X0135278Y0064217D03*
X0134806Y0064217D03*
X0134333Y0064217D03*
X0133861Y0064217D03*
X0143861Y0138726D03*
X0144806Y0138726D03*
D74*
X0193016Y0073216D03*
X0193488Y0073452D03*
D75*
X0194296Y0070027D03*
X0194296Y0066720D03*
X0193626Y0066720D03*
X0193154Y0066720D03*
X0195713Y0066720D03*
X0185416Y0066856D03*
X0184196Y0066502D03*
X0185140Y0068391D03*
X0183723Y0069454D03*
X0175988Y0070381D03*
X0175162Y0068609D03*
X0175044Y0068609D03*
X0173705Y0067192D03*
X0173154Y0067192D03*
X0175240Y0066011D03*
X0145888Y0067074D03*
X0145140Y0067074D03*
X0143723Y0067192D03*
X0143605Y0067192D03*
X0143526Y0067074D03*
X0143133Y0066838D03*
X0143526Y0068609D03*
X0143605Y0070027D03*
X0145062Y0070027D03*
X0145888Y0070145D03*
X0145140Y0068609D03*
X0135613Y0070654D03*
X0134944Y0070181D03*
X0133723Y0070181D03*
X0133605Y0070299D03*
X0133133Y0070654D03*
X0133526Y0068882D03*
X0135140Y0068882D03*
X0135140Y0071953D03*
X0174196Y0133220D03*
X0174668Y0133220D03*
X0176007Y0133220D03*
X0175062Y0135464D03*
X0174944Y0135464D03*
X0174668Y0135464D03*
X0175495Y0136763D03*
X0174117Y0137944D03*
X0174117Y0140661D03*
X0174196Y0140661D03*
X0175495Y0140661D03*
X0175613Y0140661D03*
X0175495Y0142078D03*
X0173723Y0143023D03*
X0165140Y0144572D03*
X0163605Y0144572D03*
X0163251Y0143272D03*
X0163251Y0140556D03*
X0164668Y0140556D03*
X0164668Y0137839D03*
X0164550Y0137839D03*
X0164471Y0137839D03*
X0164196Y0137839D03*
X0164117Y0137839D03*
X0163999Y0137839D03*
X0155613Y0140193D03*
X0155495Y0140193D03*
X0154196Y0140193D03*
X0154944Y0141492D03*
X0155495Y0142319D03*
X0154196Y0142319D03*
X0145495Y0141738D03*
X0145416Y0141738D03*
D76*
X0154471Y0143146D03*
X0155416Y0138303D03*
X0165140Y0139847D03*
X0165416Y0139847D03*
X0165495Y0139847D03*
X0165613Y0139847D03*
X0165495Y0142564D03*
X0165888Y0145989D03*
X0164117Y0145989D03*
X0175416Y0130503D03*
X0173154Y0073570D03*
X0184944Y0068746D03*
X0193154Y0069909D03*
X0195988Y0064121D03*
X0184550Y0064021D03*
X0173154Y0064121D03*
X0134668Y0067110D03*
X0134550Y0067110D03*
X0134117Y0067110D03*
D77*
X0132778Y0073783D03*
X0142778Y0071503D03*
X0193154Y0073275D03*
X0193351Y0073393D03*
X0193626Y0073511D03*
X0193705Y0073511D03*
X0194099Y0073629D03*
D78*
X0195713Y0071208D03*
X0193351Y0070027D03*
X0193351Y0063885D03*
X0193233Y0063885D03*
X0194217Y0063885D03*
X0194296Y0063885D03*
X0195044Y0063885D03*
X0195595Y0063885D03*
X0195713Y0063885D03*
X0185613Y0063785D03*
X0184944Y0063785D03*
X0184196Y0063785D03*
X0183251Y0063785D03*
X0183133Y0063785D03*
X0175240Y0063885D03*
X0173626Y0063885D03*
X0173626Y0073806D03*
X0175240Y0073806D03*
X0145888Y0063885D03*
X0135140Y0066874D03*
X0133526Y0066874D03*
X0132778Y0070890D03*
X0134117Y0071953D03*
X0134196Y0071953D03*
X0134471Y0071953D03*
X0134550Y0071953D03*
X0134668Y0071953D03*
X0175888Y0130739D03*
X0174196Y0134991D03*
X0173605Y0138062D03*
X0176125Y0138062D03*
X0176007Y0143495D03*
X0165613Y0146225D03*
X0165495Y0146225D03*
X0163251Y0146225D03*
X0163133Y0146225D03*
X0156125Y0143500D03*
X0155140Y0141728D03*
X0155888Y0138539D03*
X0163054Y0137367D03*
X0165613Y0137367D03*
D79*
X0164550Y0140615D03*
X0164471Y0140615D03*
X0163526Y0140615D03*
X0164196Y0143450D03*
X0163526Y0144513D03*
X0155416Y0141315D03*
X0153999Y0141315D03*
X0153605Y0143087D03*
X0144550Y0142269D03*
X0144471Y0142269D03*
X0143605Y0140734D03*
X0173605Y0135641D03*
X0174550Y0136586D03*
X0175062Y0136586D03*
X0175613Y0138003D03*
X0175495Y0139302D03*
X0174196Y0139302D03*
X0174196Y0138003D03*
X0174196Y0142019D03*
X0174117Y0133279D03*
X0173723Y0133279D03*
X0174196Y0132334D03*
X0175495Y0132334D03*
X0175240Y0071621D03*
X0174099Y0069259D03*
X0174217Y0067251D03*
X0173626Y0067251D03*
X0173351Y0067251D03*
X0173233Y0067251D03*
X0175713Y0067251D03*
X0183054Y0069513D03*
X0183605Y0069513D03*
X0185062Y0069513D03*
X0185062Y0066797D03*
X0185140Y0066797D03*
X0183526Y0065498D03*
X0193233Y0066779D03*
X0193351Y0066779D03*
X0193626Y0065598D03*
X0195595Y0066779D03*
X0195240Y0068078D03*
X0195516Y0069495D03*
X0195595Y0069495D03*
X0194650Y0069968D03*
X0194571Y0069968D03*
X0194650Y0071267D03*
X0145140Y0070086D03*
X0143526Y0070086D03*
X0143251Y0066897D03*
X0135495Y0070594D03*
X0135140Y0070358D03*
X0135062Y0070240D03*
X0133526Y0070358D03*
X0133251Y0070594D03*
D80*
X0193233Y0073334D03*
X0193823Y0073570D03*
D81*
X0185751Y0066915D03*
X0183861Y0063726D03*
X0183388Y0063726D03*
X0174906Y0063826D03*
X0173961Y0063826D03*
X0173016Y0068905D03*
X0193488Y0063826D03*
X0193961Y0063826D03*
X0195378Y0063826D03*
X0145751Y0063826D03*
X0145278Y0063826D03*
X0144806Y0063826D03*
X0144333Y0063826D03*
X0143861Y0063826D03*
X0143388Y0063826D03*
X0142916Y0063826D03*
X0135278Y0066815D03*
X0134806Y0071894D03*
X0172916Y0130562D03*
X0174333Y0132806D03*
X0174806Y0139302D03*
X0174806Y0142019D03*
X0165278Y0146284D03*
X0162916Y0143213D03*
X0152916Y0138362D03*
X0142916Y0139080D03*
D82*
X0145278Y0141679D03*
X0154806Y0141433D03*
X0163388Y0140615D03*
X0163388Y0143331D03*
X0173861Y0143082D03*
X0174806Y0133279D03*
X0175851Y0070440D03*
X0174906Y0068550D03*
X0173488Y0067251D03*
X0173016Y0070440D03*
X0193488Y0066779D03*
X0194433Y0066779D03*
X0195378Y0069613D03*
X0194906Y0069850D03*
X0145278Y0067015D03*
X0143388Y0067015D03*
X0135278Y0070476D03*
X0133388Y0070476D03*
D83*
X0133861Y0071953D03*
X0135751Y0066756D03*
X0133388Y0063685D03*
X0132916Y0063685D03*
X0174433Y0063767D03*
X0175851Y0068846D03*
X0174906Y0073924D03*
X0174433Y0073924D03*
X0173961Y0073924D03*
X0185278Y0063667D03*
X0194433Y0068373D03*
X0193488Y0070027D03*
X0173861Y0146330D03*
X0172916Y0146330D03*
X0164806Y0146343D03*
X0153861Y0146335D03*
X0152916Y0146335D03*
X0142916Y0146344D03*
D84*
X0143054Y0146285D03*
X0142463Y0146285D03*
X0152463Y0146276D03*
X0153054Y0146276D03*
X0164471Y0146284D03*
X0164550Y0146284D03*
X0165416Y0146284D03*
X0172463Y0146271D03*
X0173054Y0146271D03*
X0174944Y0142019D03*
X0174944Y0139302D03*
X0165495Y0137426D03*
X0163133Y0137426D03*
X0156007Y0138598D03*
X0145888Y0139198D03*
X0174471Y0132806D03*
X0175044Y0073865D03*
X0175162Y0073865D03*
X0173823Y0073865D03*
X0173705Y0073865D03*
X0175988Y0068905D03*
X0183999Y0066206D03*
X0183999Y0063726D03*
X0184117Y0063726D03*
X0183723Y0063726D03*
X0183605Y0063726D03*
X0183526Y0063726D03*
X0185062Y0063726D03*
X0185140Y0063726D03*
X0185416Y0063726D03*
X0185495Y0063726D03*
X0193626Y0063826D03*
X0193705Y0063826D03*
X0193823Y0063826D03*
X0194099Y0063826D03*
X0195162Y0063826D03*
X0195240Y0063826D03*
X0195516Y0063826D03*
X0194099Y0066306D03*
X0195595Y0071267D03*
X0175162Y0063826D03*
X0175044Y0063826D03*
X0173823Y0063826D03*
X0173705Y0063826D03*
X0145613Y0063826D03*
X0145495Y0063826D03*
X0145416Y0063826D03*
X0145140Y0063826D03*
X0145062Y0063826D03*
X0144944Y0063826D03*
X0144668Y0063826D03*
X0144550Y0063826D03*
X0144471Y0063826D03*
X0144196Y0063826D03*
X0144117Y0063826D03*
X0143999Y0063826D03*
X0143723Y0063826D03*
X0143605Y0063826D03*
X0143526Y0063826D03*
X0143251Y0063826D03*
X0143133Y0063826D03*
X0143054Y0063826D03*
X0143054Y0068550D03*
X0133999Y0071894D03*
X0133054Y0068823D03*
D85*
X0133133Y0068823D03*
X0133133Y0063626D03*
X0133054Y0063626D03*
X0143133Y0068550D03*
X0144471Y0067369D03*
X0144668Y0067251D03*
X0145888Y0065716D03*
X0144471Y0069731D03*
X0173154Y0068905D03*
X0174217Y0071976D03*
X0174296Y0071976D03*
X0174571Y0071976D03*
X0174650Y0071976D03*
X0183723Y0068450D03*
X0185613Y0066915D03*
X0194099Y0068314D03*
X0194217Y0068314D03*
X0194650Y0068314D03*
X0194768Y0068314D03*
X0193705Y0070086D03*
X0193626Y0070086D03*
X0174768Y0065834D03*
X0173723Y0138003D03*
X0174471Y0139302D03*
X0174550Y0139302D03*
X0175140Y0139302D03*
X0175140Y0142019D03*
X0174550Y0142019D03*
X0164550Y0143568D03*
X0156007Y0143559D03*
X0154196Y0143559D03*
X0146125Y0141915D03*
X0146007Y0143687D03*
X0145888Y0143687D03*
X0145613Y0143687D03*
X0145495Y0143687D03*
X0145416Y0143687D03*
X0145140Y0143687D03*
X0145062Y0143687D03*
X0144944Y0143687D03*
X0144668Y0143687D03*
X0144550Y0143687D03*
X0144471Y0143687D03*
X0144196Y0143687D03*
X0143605Y0141915D03*
X0143723Y0146403D03*
X0143999Y0146403D03*
X0142778Y0146403D03*
D86*
X0154806Y0143618D03*
X0162916Y0140320D03*
X0173861Y0140661D03*
X0174906Y0071917D03*
X0193961Y0068255D03*
X0144806Y0067192D03*
X0132916Y0070772D03*
D87*
X0193961Y0073629D03*
X0175278Y0131035D03*
D88*
X0175140Y0130857D03*
X0194217Y0073688D03*
X0194296Y0073688D03*
D89*
X0195516Y0071208D03*
X0195988Y0069200D03*
X0194571Y0068373D03*
X0194296Y0068373D03*
X0183054Y0066974D03*
X0174768Y0063767D03*
X0174650Y0063767D03*
X0174571Y0063767D03*
X0174296Y0063767D03*
X0174217Y0063767D03*
X0174099Y0063767D03*
X0174099Y0073924D03*
X0174217Y0073924D03*
X0174296Y0073924D03*
X0174571Y0073924D03*
X0174650Y0073924D03*
X0174768Y0073924D03*
X0145613Y0068609D03*
X0135888Y0070772D03*
X0134944Y0071953D03*
X0135613Y0068882D03*
X0135613Y0066756D03*
X0135495Y0066756D03*
X0135416Y0066756D03*
X0133251Y0063685D03*
X0172778Y0130621D03*
X0165416Y0137485D03*
X0163251Y0137485D03*
X0165062Y0140202D03*
X0165062Y0142918D03*
X0165062Y0146343D03*
X0165140Y0146343D03*
X0164944Y0146343D03*
X0164668Y0146343D03*
X0172581Y0146330D03*
X0172778Y0146330D03*
X0173605Y0146330D03*
X0173723Y0146330D03*
X0173999Y0146330D03*
X0175888Y0143495D03*
X0175062Y0142078D03*
X0174668Y0142078D03*
X0173723Y0140661D03*
X0174668Y0139243D03*
X0175062Y0139243D03*
X0176007Y0140661D03*
X0156125Y0138657D03*
X0152778Y0138421D03*
X0146125Y0139376D03*
X0146007Y0139257D03*
X0142778Y0139139D03*
X0146125Y0143628D03*
X0143605Y0146344D03*
X0142581Y0146344D03*
X0152581Y0146335D03*
X0152778Y0146335D03*
X0153605Y0146335D03*
X0153723Y0146335D03*
X0153999Y0146335D03*
X0154668Y0143500D03*
X0153605Y0141256D03*
D90*
X0154117Y0141315D03*
X0154196Y0141315D03*
X0154471Y0141315D03*
X0154550Y0141315D03*
X0155495Y0141315D03*
X0155613Y0141315D03*
X0155888Y0141433D03*
X0153999Y0143205D03*
X0153723Y0143087D03*
X0145062Y0141561D03*
X0144944Y0141561D03*
X0143999Y0143214D03*
X0143723Y0143214D03*
X0163723Y0143331D03*
X0174550Y0140720D03*
X0174944Y0137885D03*
X0175062Y0137885D03*
X0175140Y0137885D03*
X0174117Y0135641D03*
X0173999Y0135641D03*
X0173723Y0135641D03*
X0175062Y0133397D03*
X0175140Y0133397D03*
X0175416Y0133397D03*
X0175495Y0133397D03*
X0175613Y0133397D03*
X0194296Y0071267D03*
X0195044Y0066897D03*
X0185495Y0069631D03*
X0185416Y0069631D03*
X0183251Y0069631D03*
X0184550Y0066679D03*
X0174650Y0068432D03*
X0174571Y0068432D03*
X0145613Y0067015D03*
X0145495Y0067015D03*
X0145416Y0067015D03*
X0145416Y0070204D03*
X0145495Y0070204D03*
X0145613Y0070204D03*
X0143251Y0070204D03*
X0143133Y0070204D03*
X0143054Y0070204D03*
X0133251Y0067287D03*
D91*
X0173961Y0069200D03*
X0185278Y0066856D03*
X0194433Y0070027D03*
X0174806Y0135464D03*
X0164333Y0137839D03*
X0164333Y0143391D03*
X0154806Y0140193D03*
X0153861Y0141256D03*
X0144333Y0142210D03*
D92*
X0144806Y0142387D03*
X0143861Y0143214D03*
X0154333Y0141315D03*
X0155751Y0141315D03*
X0163861Y0143331D03*
X0173861Y0135641D03*
X0175278Y0133397D03*
X0194433Y0071267D03*
X0183388Y0069631D03*
X0174433Y0069377D03*
X0145751Y0067015D03*
D93*
X0194433Y0073747D03*
D94*
X0194571Y0071208D03*
X0194768Y0069909D03*
X0195044Y0069791D03*
X0195162Y0069791D03*
X0195240Y0069672D03*
X0195240Y0066838D03*
X0195162Y0066838D03*
X0195516Y0066838D03*
X0194768Y0066838D03*
X0194650Y0066838D03*
X0194571Y0066838D03*
X0185613Y0069572D03*
X0185140Y0069572D03*
X0183526Y0069572D03*
X0183133Y0069572D03*
X0184668Y0066738D03*
X0184471Y0066620D03*
X0184944Y0066738D03*
X0175595Y0067310D03*
X0175516Y0067310D03*
X0175240Y0067310D03*
X0175162Y0067310D03*
X0175044Y0067310D03*
X0174768Y0067310D03*
X0174650Y0067310D03*
X0174571Y0067310D03*
X0174296Y0067310D03*
X0174768Y0068491D03*
X0174296Y0069318D03*
X0174217Y0069318D03*
X0174217Y0070381D03*
X0174296Y0070381D03*
X0174099Y0070381D03*
X0173823Y0070381D03*
X0173705Y0070381D03*
X0173626Y0070381D03*
X0173351Y0070381D03*
X0173233Y0070381D03*
X0173154Y0070381D03*
X0174571Y0070381D03*
X0174650Y0070381D03*
X0174768Y0070381D03*
X0175044Y0070381D03*
X0175162Y0070381D03*
X0175240Y0070381D03*
X0175516Y0070381D03*
X0175595Y0070381D03*
X0175713Y0070381D03*
X0145062Y0068609D03*
X0143605Y0068609D03*
X0135416Y0070535D03*
X0135062Y0068882D03*
X0133605Y0068882D03*
X0173999Y0133338D03*
X0174944Y0133338D03*
X0175888Y0133338D03*
X0174944Y0136527D03*
X0174668Y0136527D03*
X0174668Y0137826D03*
X0174550Y0137826D03*
X0174471Y0137944D03*
X0175416Y0137944D03*
X0175495Y0137944D03*
X0175416Y0140661D03*
X0175140Y0140661D03*
X0174471Y0140661D03*
X0173999Y0143141D03*
X0164117Y0143391D03*
X0163999Y0143391D03*
X0163605Y0143272D03*
X0163526Y0143272D03*
X0163605Y0140674D03*
X0163723Y0140674D03*
X0163999Y0140674D03*
X0164117Y0140674D03*
X0164196Y0140674D03*
X0156007Y0141492D03*
X0154668Y0141374D03*
X0146125Y0140675D03*
X0146007Y0140675D03*
X0145888Y0140675D03*
X0145613Y0140675D03*
X0145495Y0140675D03*
X0145416Y0140675D03*
X0145140Y0140675D03*
X0145062Y0140675D03*
X0144944Y0140675D03*
X0144668Y0140675D03*
X0144550Y0140675D03*
X0144471Y0140675D03*
X0144196Y0140675D03*
X0144117Y0140675D03*
X0143999Y0140675D03*
X0143723Y0140675D03*
X0145140Y0141620D03*
X0144668Y0142328D03*
X0143605Y0143155D03*
D95*
X0194571Y0073747D03*
D96*
X0194650Y0073806D03*
X0194768Y0073806D03*
X0135888Y0073961D03*
D97*
X0135751Y0074138D03*
X0194906Y0073865D03*
X0194906Y0064535D03*
D98*
X0194906Y0066838D03*
X0195378Y0066838D03*
X0185278Y0069572D03*
X0184806Y0066738D03*
X0184333Y0066620D03*
X0175378Y0067310D03*
X0174906Y0067310D03*
X0174433Y0067310D03*
X0174433Y0070381D03*
X0173961Y0070381D03*
X0173488Y0070381D03*
X0174906Y0070381D03*
X0175378Y0070381D03*
X0145751Y0070145D03*
X0145278Y0070145D03*
X0143388Y0070145D03*
X0142916Y0070145D03*
X0133388Y0067346D03*
X0132916Y0067346D03*
X0173861Y0133338D03*
X0175751Y0133338D03*
X0174806Y0136527D03*
X0174806Y0137826D03*
X0175278Y0137944D03*
X0174333Y0137944D03*
X0174333Y0140661D03*
X0175278Y0140661D03*
X0164333Y0140674D03*
X0163861Y0140674D03*
X0145751Y0140675D03*
X0145278Y0140675D03*
X0144806Y0140675D03*
X0144333Y0140675D03*
X0143861Y0140675D03*
D99*
X0144333Y0143687D03*
X0144806Y0143687D03*
X0145278Y0143687D03*
X0145751Y0143687D03*
X0143861Y0146403D03*
X0163388Y0137544D03*
X0165278Y0137544D03*
X0175278Y0139302D03*
X0175278Y0142019D03*
X0175751Y0143554D03*
X0174433Y0071976D03*
X0174906Y0065834D03*
X0194906Y0068314D03*
X0195378Y0071267D03*
X0144333Y0069731D03*
X0144333Y0067487D03*
D100*
X0144196Y0067428D03*
X0144550Y0067310D03*
X0145495Y0068609D03*
X0144550Y0069791D03*
X0144196Y0069791D03*
X0143251Y0068609D03*
X0135495Y0068882D03*
X0133251Y0068882D03*
X0133723Y0071953D03*
X0135062Y0071953D03*
X0173233Y0068964D03*
X0173351Y0068964D03*
X0175713Y0068846D03*
X0174768Y0071917D03*
X0174099Y0071917D03*
X0175044Y0065893D03*
X0185062Y0068391D03*
X0195044Y0068255D03*
X0195988Y0066602D03*
X0172581Y0130739D03*
X0172463Y0130857D03*
X0174550Y0132983D03*
X0176007Y0138062D03*
X0175888Y0140661D03*
X0174471Y0142078D03*
X0174117Y0143613D03*
X0175613Y0143613D03*
X0164944Y0143154D03*
X0164944Y0144454D03*
X0163054Y0143272D03*
X0155888Y0143618D03*
X0154117Y0143618D03*
X0152463Y0138657D03*
X0152581Y0138539D03*
X0143723Y0141974D03*
X0144117Y0143628D03*
X0142463Y0139376D03*
X0142581Y0139257D03*
X0163526Y0137603D03*
X0165140Y0137603D03*
D101*
X0163723Y0145576D03*
X0175062Y0130562D03*
X0133054Y0074138D03*
X0195044Y0073865D03*
D102*
X0195162Y0073865D03*
X0195240Y0073865D03*
X0144944Y0072330D03*
X0144668Y0072330D03*
X0144550Y0072330D03*
X0144471Y0072330D03*
X0144196Y0072330D03*
X0144117Y0072330D03*
X0143999Y0072330D03*
X0143723Y0072330D03*
X0135416Y0074374D03*
X0134944Y0074610D03*
X0133723Y0074610D03*
X0133526Y0074492D03*
X0133251Y0074374D03*
X0173999Y0130208D03*
X0174117Y0130208D03*
X0174196Y0130208D03*
X0174471Y0130208D03*
X0174550Y0130208D03*
X0174668Y0130208D03*
X0174944Y0130444D03*
X0173723Y0130444D03*
X0154668Y0138008D03*
X0154550Y0138008D03*
X0154471Y0138008D03*
X0154196Y0138008D03*
X0154117Y0138008D03*
X0153999Y0138008D03*
X0165888Y0142741D03*
D103*
X0155062Y0138126D03*
X0154944Y0138126D03*
X0153723Y0138126D03*
X0153605Y0138126D03*
X0143605Y0138844D03*
X0143251Y0072212D03*
X0143133Y0072212D03*
X0145416Y0072212D03*
X0145495Y0072212D03*
X0135613Y0064217D03*
X0135495Y0064217D03*
X0135416Y0064217D03*
X0135140Y0064217D03*
X0135062Y0064217D03*
X0134944Y0064217D03*
X0134668Y0064217D03*
X0134550Y0064217D03*
X0134471Y0064217D03*
X0134196Y0064217D03*
X0134117Y0064217D03*
X0133999Y0064217D03*
X0133723Y0064217D03*
X0133605Y0064217D03*
X0133526Y0064217D03*
X0175988Y0064298D03*
X0195516Y0073865D03*
D104*
X0195595Y0073924D03*
X0195988Y0073688D03*
X0185495Y0073116D03*
X0185416Y0073116D03*
X0174099Y0066365D03*
X0145888Y0072035D03*
X0145613Y0072153D03*
X0143054Y0072153D03*
X0155140Y0138185D03*
X0145062Y0138785D03*
X0144944Y0138785D03*
X0143723Y0138785D03*
X0146125Y0145872D03*
X0154196Y0145862D03*
X0154471Y0145862D03*
X0154550Y0145862D03*
X0154668Y0145862D03*
X0154944Y0145862D03*
X0155062Y0145862D03*
X0155140Y0145862D03*
X0155416Y0145862D03*
X0155495Y0145862D03*
X0155613Y0145862D03*
X0155888Y0145862D03*
X0156007Y0145862D03*
X0156125Y0145862D03*
X0165888Y0139847D03*
X0174196Y0145857D03*
X0174471Y0145857D03*
X0174550Y0145857D03*
X0174668Y0145857D03*
X0174944Y0145857D03*
X0175062Y0145857D03*
X0175140Y0145857D03*
X0175416Y0145857D03*
X0175495Y0145857D03*
X0175613Y0145857D03*
X0175888Y0145857D03*
X0176007Y0145857D03*
X0176125Y0145857D03*
D105*
X0164806Y0143804D03*
X0154333Y0143087D03*
X0155278Y0138244D03*
X0145751Y0145931D03*
X0145278Y0145931D03*
X0144806Y0145931D03*
X0144333Y0145931D03*
X0175851Y0073511D03*
X0184333Y0068687D03*
X0184806Y0068687D03*
X0185751Y0073057D03*
X0195851Y0073865D03*
X0175851Y0064180D03*
D106*
X0196107Y0068905D03*
D107*
X0196422Y0068728D03*
X0166440Y0141383D03*
D108*
X0166243Y0141501D03*
X0162463Y0141501D03*
X0196540Y0068609D03*
D109*
X0186676Y0067860D03*
X0181991Y0067860D03*
X0146243Y0067960D03*
X0142463Y0067960D03*
X0153251Y0142142D03*
D110*
X0182109Y0068037D03*
X0186558Y0068037D03*
D111*
X0182207Y0068155D03*
D112*
X0182325Y0068273D03*
D113*
X0182463Y0068332D03*
X0186243Y0068332D03*
D114*
X0182680Y0068450D03*
D115*
X0182778Y0071344D03*
D116*
X0182916Y0072289D03*
D117*
X0183054Y0072289D03*
X0183133Y0072407D03*
X0183251Y0072407D03*
D118*
X0183388Y0072466D03*
X0185278Y0072466D03*
D119*
X0185140Y0072466D03*
X0185062Y0072466D03*
X0183605Y0072466D03*
X0183526Y0072466D03*
D120*
X0183723Y0072525D03*
X0183999Y0072525D03*
X0184117Y0072525D03*
X0184196Y0072525D03*
X0184471Y0072525D03*
X0184550Y0072525D03*
X0184668Y0072525D03*
X0184944Y0072525D03*
D121*
X0183861Y0068746D03*
X0165751Y0139847D03*
X0165278Y0139847D03*
X0145278Y0138903D03*
D122*
X0183861Y0072525D03*
X0184333Y0072525D03*
X0184806Y0072525D03*
D123*
X0184806Y0064376D03*
X0163861Y0145635D03*
D124*
X0165140Y0142505D03*
X0165416Y0142505D03*
X0165888Y0137308D03*
X0155495Y0138362D03*
X0145416Y0138962D03*
X0173233Y0073629D03*
X0175713Y0073629D03*
X0185888Y0066915D03*
X0185888Y0063962D03*
X0175713Y0064062D03*
X0173233Y0064062D03*
X0133999Y0067051D03*
D125*
X0186007Y0068450D03*
X0166125Y0141560D03*
X0162581Y0141560D03*
D126*
X0186322Y0068273D03*
D127*
X0186440Y0068155D03*
D128*
X0172780Y0068846D03*
X0172307Y0068846D03*
D129*
X0172425Y0068846D03*
D130*
X0172878Y0070440D03*
X0156676Y0142850D03*
X0151991Y0142850D03*
D131*
X0154333Y0145862D03*
X0154806Y0145862D03*
X0155278Y0145862D03*
X0155751Y0145862D03*
X0165751Y0142682D03*
X0174333Y0145857D03*
X0174806Y0145857D03*
X0175278Y0145857D03*
X0175751Y0145857D03*
X0173016Y0073452D03*
X0173961Y0066365D03*
X0173016Y0064239D03*
X0145751Y0072153D03*
X0142916Y0072153D03*
X0134333Y0067228D03*
D132*
X0174433Y0068373D03*
X0174806Y0140661D03*
X0153861Y0143146D03*
X0144806Y0141502D03*
D133*
X0144944Y0142446D03*
X0174668Y0140661D03*
X0174944Y0140661D03*
X0175062Y0140661D03*
X0167148Y0074825D03*
X0174571Y0069436D03*
X0144944Y0068609D03*
X0143723Y0068609D03*
X0134944Y0068882D03*
X0133723Y0068882D03*
X0133133Y0067346D03*
X0133054Y0067346D03*
X0123749Y0074735D03*
X0121741Y0074735D03*
X0117843Y0073790D03*
D134*
X0132916Y0068882D03*
X0135751Y0068882D03*
X0134333Y0071953D03*
X0142916Y0068609D03*
X0145751Y0068609D03*
X0175378Y0063885D03*
X0175378Y0073806D03*
X0145751Y0139139D03*
X0155278Y0141846D03*
X0163388Y0146225D03*
X0164333Y0146225D03*
D135*
X0201660Y0126406D02*
X0202870Y0124922D01*
X0202562Y0124324D01*
X0202357Y0123683D01*
X0200452Y0123490D01*
X0200452Y0122050D01*
X0202357Y0121857D01*
X0202562Y0121216D01*
X0202870Y0120618D01*
X0201660Y0119134D01*
X0202678Y0118116D01*
X0204162Y0119327D01*
X0204759Y0119019D01*
X0205607Y0121065D01*
X0205228Y0121277D01*
X0204910Y0121571D01*
X0204669Y0121932D01*
X0204519Y0122339D01*
X0204468Y0122770D01*
X0204521Y0123209D01*
X0204676Y0123622D01*
X0204926Y0123987D01*
X0205255Y0124281D01*
X0205644Y0124490D01*
X0206072Y0124599D01*
X0206514Y0124604D01*
X0206944Y0124504D01*
X0207338Y0124304D01*
X0207674Y0124016D01*
X0207931Y0123657D01*
X0208095Y0123247D01*
X0208158Y0122810D01*
X0208115Y0122370D01*
X0207968Y0121954D01*
X0207727Y0121584D01*
X0207405Y0121282D01*
X0207020Y0121065D01*
X0207867Y0119019D01*
X0208465Y0119327D01*
X0209949Y0118116D01*
X0210967Y0119134D01*
X0209757Y0120618D01*
X0210065Y0121216D01*
X0210270Y0121857D01*
X0212175Y0122050D01*
X0212175Y0123490D01*
X0210270Y0123683D01*
X0210065Y0124324D01*
X0209757Y0124922D01*
X0210967Y0126406D01*
X0209949Y0127424D01*
X0208465Y0126213D01*
X0207867Y0126521D01*
X0207227Y0126726D01*
X0207033Y0128631D01*
X0205594Y0128631D01*
X0205400Y0126726D01*
X0204760Y0126521D01*
X0204162Y0126213D01*
X0202678Y0127424D01*
X0201660Y0126406D01*
X0201765Y0126277D02*
X0204084Y0126277D01*
X0204285Y0126277D02*
X0208342Y0126277D01*
X0208543Y0126277D02*
X0210861Y0126277D01*
X0210507Y0126866D02*
X0209265Y0126866D01*
X0210381Y0125687D02*
X0202245Y0125687D01*
X0202726Y0125098D02*
X0209901Y0125098D01*
X0209969Y0124509D02*
X0206920Y0124509D01*
X0207742Y0123920D02*
X0210194Y0123920D01*
X0212175Y0123331D02*
X0208062Y0123331D01*
X0208151Y0122742D02*
X0212175Y0122742D01*
X0212175Y0122153D02*
X0208038Y0122153D01*
X0207706Y0121564D02*
X0210176Y0121564D01*
X0209940Y0120975D02*
X0207057Y0120975D01*
X0207301Y0120386D02*
X0209946Y0120386D01*
X0210427Y0119797D02*
X0207545Y0119797D01*
X0207789Y0119208D02*
X0208234Y0119208D01*
X0208611Y0119208D02*
X0210907Y0119208D01*
X0210451Y0118619D02*
X0209333Y0118619D01*
X0205326Y0120386D02*
X0202680Y0120386D01*
X0202686Y0120975D02*
X0205570Y0120975D01*
X0204918Y0121564D02*
X0202451Y0121564D01*
X0202200Y0119797D02*
X0205082Y0119797D01*
X0204838Y0119208D02*
X0204393Y0119208D01*
X0204016Y0119208D02*
X0201720Y0119208D01*
X0202175Y0118619D02*
X0203294Y0118619D01*
X0204587Y0122153D02*
X0200452Y0122153D01*
X0200452Y0122742D02*
X0204471Y0122742D01*
X0204567Y0123331D02*
X0200452Y0123331D01*
X0202433Y0123920D02*
X0204880Y0123920D01*
X0205722Y0124509D02*
X0202658Y0124509D01*
X0202120Y0126866D02*
X0203362Y0126866D01*
X0205414Y0126866D02*
X0207213Y0126866D01*
X0207153Y0127455D02*
X0205474Y0127455D01*
X0205534Y0128044D02*
X0207093Y0128044D01*
D136*
X0122512Y0087279D02*
X0122236Y0087712D01*
X0121921Y0088066D01*
X0121606Y0088263D01*
X0121606Y0087909D01*
X0121567Y0087791D01*
X0121527Y0087712D01*
X0121409Y0087594D01*
X0121291Y0087554D01*
X0121173Y0087554D01*
X0120858Y0087633D01*
X0120701Y0087712D01*
X0120583Y0087791D01*
X0120425Y0087909D01*
X0120189Y0088145D01*
X0120031Y0088381D01*
X0119992Y0088539D01*
X0119992Y0088775D01*
X0120031Y0088893D01*
X0120071Y0088972D01*
X0120150Y0089090D01*
X0120307Y0089208D01*
X0120464Y0089287D01*
X0120661Y0089326D01*
X0120819Y0089366D01*
X0121055Y0089366D01*
X0121134Y0089326D01*
X0121173Y0089326D01*
X0121134Y0089366D01*
X0120976Y0089484D01*
X0120425Y0089759D01*
X0120071Y0089838D01*
X0119677Y0089838D01*
X0119244Y0089759D01*
X0118811Y0089523D01*
X0118457Y0089247D01*
X0118260Y0088932D01*
X0118142Y0088578D01*
X0118142Y0088263D01*
X0118220Y0087909D01*
X0118417Y0087554D01*
X0118693Y0087240D01*
X0119008Y0086885D01*
X0119283Y0086610D01*
X0119402Y0086295D01*
X0119402Y0086019D01*
X0119323Y0085783D01*
X0119165Y0085586D01*
X0118929Y0085429D01*
X0118614Y0085350D01*
X0118299Y0085350D01*
X0118102Y0085389D01*
X0117905Y0085468D01*
X0117669Y0085704D01*
X0117590Y0085822D01*
X0117551Y0085940D01*
X0117551Y0086098D01*
X0117590Y0086216D01*
X0117827Y0086452D01*
X0117945Y0086491D01*
X0118102Y0086570D01*
X0118142Y0086610D01*
X0117984Y0086688D01*
X0117512Y0086688D01*
X0117276Y0086649D01*
X0117079Y0086610D01*
X0116882Y0086531D01*
X0116724Y0086413D01*
X0116527Y0086255D01*
X0116291Y0085862D01*
X0116213Y0085586D01*
X0116173Y0085271D01*
X0116173Y0079877D01*
X0116370Y0080074D01*
X0116488Y0080271D01*
X0116685Y0080468D01*
X0116882Y0080704D01*
X0117354Y0081177D01*
X0117827Y0081728D01*
X0118220Y0082121D01*
X0118614Y0082358D01*
X0118850Y0082397D01*
X0119598Y0082397D01*
X0120071Y0082476D01*
X0120504Y0082594D01*
X0120898Y0082751D01*
X0121291Y0082988D01*
X0121606Y0083263D01*
X0121921Y0083578D01*
X0122197Y0083932D01*
X0122590Y0084641D01*
X0122787Y0085389D01*
X0122827Y0086058D01*
X0122709Y0086688D01*
X0122512Y0087279D01*
X0122525Y0087239D02*
X0118693Y0087239D01*
X0118432Y0087538D02*
X0122347Y0087538D01*
X0122126Y0087836D02*
X0121582Y0087836D01*
X0121606Y0088135D02*
X0121812Y0088135D01*
X0120522Y0087836D02*
X0118261Y0087836D01*
X0118170Y0088135D02*
X0120199Y0088135D01*
X0120018Y0088433D02*
X0118142Y0088433D01*
X0118193Y0088732D02*
X0119992Y0088732D01*
X0120110Y0089030D02*
X0118321Y0089030D01*
X0118561Y0089329D02*
X0120672Y0089329D01*
X0120689Y0089627D02*
X0119002Y0089627D01*
X0121128Y0089329D02*
X0121170Y0089329D01*
X0122624Y0086941D02*
X0118958Y0086941D01*
X0119251Y0086642D02*
X0122717Y0086642D01*
X0122773Y0086344D02*
X0119383Y0086344D01*
X0119402Y0086045D02*
X0122826Y0086045D01*
X0122808Y0085747D02*
X0119294Y0085747D01*
X0118959Y0085448D02*
X0122791Y0085448D01*
X0122724Y0085150D02*
X0116173Y0085150D01*
X0116173Y0084851D02*
X0122646Y0084851D01*
X0122541Y0084553D02*
X0116173Y0084553D01*
X0116173Y0084254D02*
X0122375Y0084254D01*
X0122210Y0083956D02*
X0116173Y0083956D01*
X0116173Y0083657D02*
X0121983Y0083657D01*
X0121702Y0083359D02*
X0116173Y0083359D01*
X0116173Y0083060D02*
X0121374Y0083060D01*
X0120915Y0082762D02*
X0116173Y0082762D01*
X0116173Y0082463D02*
X0119995Y0082463D01*
X0118292Y0082165D02*
X0116173Y0082165D01*
X0116173Y0081866D02*
X0117965Y0081866D01*
X0117689Y0081568D02*
X0116173Y0081568D01*
X0116173Y0081269D02*
X0117434Y0081269D01*
X0117148Y0080970D02*
X0116173Y0080970D01*
X0116173Y0080672D02*
X0116855Y0080672D01*
X0116591Y0080373D02*
X0116173Y0080373D01*
X0116173Y0080075D02*
X0116370Y0080075D01*
X0116195Y0085448D02*
X0117955Y0085448D01*
X0117641Y0085747D02*
X0116258Y0085747D01*
X0116401Y0086045D02*
X0117551Y0086045D01*
X0117718Y0086344D02*
X0116638Y0086344D01*
X0117242Y0086642D02*
X0118076Y0086642D01*
D137*
X0162207Y0141383D03*
D138*
X0162325Y0141442D03*
D139*
X0162680Y0141619D03*
D140*
X0162778Y0140261D03*
D141*
X0166322Y0141442D03*
X0136676Y0068587D03*
X0131991Y0068587D03*
D142*
X0171991Y0138948D03*
X0176676Y0138948D03*
D143*
X0176558Y0138889D03*
X0172109Y0138889D03*
D144*
X0172207Y0138771D03*
D145*
X0172325Y0138712D03*
D146*
X0172680Y0130680D03*
X0152680Y0138480D03*
X0142680Y0139198D03*
X0142680Y0146403D03*
D147*
X0152680Y0146335D03*
X0172680Y0146330D03*
D148*
X0173133Y0138298D03*
D149*
X0173251Y0138239D03*
D150*
X0173388Y0138180D03*
D151*
X0173526Y0138121D03*
D152*
X0173605Y0130503D03*
X0135495Y0074315D03*
X0135613Y0074197D03*
X0133133Y0074315D03*
D153*
X0133388Y0074492D03*
X0135278Y0074492D03*
X0143861Y0072330D03*
X0144333Y0072330D03*
X0144806Y0072330D03*
X0173861Y0130326D03*
X0174333Y0130208D03*
X0174806Y0130326D03*
X0154333Y0138008D03*
D154*
X0176243Y0138653D03*
D155*
X0176322Y0138712D03*
D156*
X0176440Y0138771D03*
D157*
X0122715Y0135343D03*
X0122715Y0130657D03*
D158*
X0122715Y0130776D03*
X0122715Y0135224D03*
D159*
X0122715Y0135126D03*
D160*
X0122715Y0135008D03*
D161*
X0122715Y0134870D03*
X0122715Y0131091D03*
D162*
X0122715Y0131209D03*
X0122715Y0134752D03*
D163*
X0122715Y0134654D03*
D164*
X0118522Y0134555D03*
D165*
X0122656Y0134555D03*
X0146312Y0080128D03*
X0146312Y0080010D03*
X0146312Y0078790D03*
X0146312Y0078672D03*
X0146312Y0078593D03*
X0146312Y0078317D03*
X0146312Y0078239D03*
X0146312Y0078120D03*
X0197692Y0079935D03*
D166*
X0126849Y0134555D03*
D167*
X0117046Y0134417D03*
X0117046Y0131583D03*
X0119733Y0072708D03*
X0167857Y0071853D03*
D168*
X0151155Y0079872D03*
X0192849Y0081017D03*
X0126199Y0131583D03*
X0126199Y0133472D03*
X0120648Y0132528D03*
X0119349Y0133472D03*
X0120294Y0134417D03*
D169*
X0121829Y0134417D03*
X0123483Y0134417D03*
X0124428Y0131583D03*
X0151273Y0079400D03*
X0152336Y0077983D03*
X0123571Y0072235D03*
D170*
X0195329Y0078655D03*
X0122656Y0132528D03*
X0121829Y0133472D03*
X0120766Y0133000D03*
X0123483Y0133472D03*
X0124782Y0134417D03*
D171*
X0128089Y0134417D03*
X0128444Y0132528D03*
D172*
X0128503Y0131917D03*
X0128503Y0131839D03*
X0128266Y0131445D03*
X0117164Y0131445D03*
X0117046Y0131720D03*
X0117046Y0134280D03*
X0117134Y0074263D03*
X0119733Y0074263D03*
X0119733Y0072845D03*
X0119733Y0072570D03*
X0119733Y0072452D03*
X0117134Y0072019D03*
X0165140Y0071990D03*
X0167857Y0071990D03*
X0167857Y0072109D03*
X0167857Y0072187D03*
X0165140Y0074471D03*
D173*
X0169628Y0071715D03*
X0152631Y0078593D03*
X0152631Y0080207D03*
X0123749Y0071625D03*
X0121741Y0071625D03*
X0120678Y0071625D03*
X0119024Y0071625D03*
X0192790Y0078990D03*
X0193853Y0080328D03*
X0195270Y0080407D03*
X0195034Y0079383D03*
X0195034Y0079265D03*
X0195388Y0078517D03*
X0196924Y0078793D03*
X0120707Y0132862D03*
X0121770Y0133728D03*
X0120353Y0134280D03*
X0124723Y0133335D03*
X0124723Y0133217D03*
D174*
X0124546Y0132390D03*
X0124546Y0132272D03*
X0126199Y0131720D03*
X0126199Y0133335D03*
X0123483Y0134201D03*
X0123483Y0134280D03*
X0121829Y0134280D03*
X0121829Y0134201D03*
X0122656Y0131839D03*
X0122656Y0131720D03*
X0119349Y0133217D03*
X0119349Y0133335D03*
X0119349Y0133610D03*
X0152454Y0080601D03*
X0151155Y0078790D03*
X0152454Y0078120D03*
X0166026Y0073998D03*
X0165908Y0073605D03*
X0171223Y0074471D03*
X0171223Y0072109D03*
X0192967Y0079265D03*
X0123689Y0071900D03*
X0122745Y0073042D03*
X0121800Y0074381D03*
X0120619Y0073908D03*
X0120619Y0073318D03*
X0120619Y0072097D03*
X0117902Y0072373D03*
X0116130Y0072570D03*
X0116130Y0073790D03*
D175*
X0152749Y0079065D03*
X0152749Y0079183D03*
X0152749Y0079262D03*
X0152749Y0079538D03*
X0152749Y0079617D03*
X0152749Y0079735D03*
X0171282Y0074825D03*
X0192672Y0078793D03*
X0192672Y0079738D03*
X0192672Y0080407D03*
X0195152Y0079935D03*
X0195152Y0079817D03*
X0195152Y0079738D03*
X0124841Y0134083D03*
X0124841Y0134201D03*
X0124841Y0134280D03*
X0121770Y0133335D03*
X0120707Y0133335D03*
X0120707Y0133217D03*
X0120589Y0133807D03*
X0120471Y0134083D03*
D176*
X0120176Y0131839D03*
X0120176Y0131720D03*
X0116869Y0132390D03*
X0116869Y0132665D03*
X0116869Y0132783D03*
X0116869Y0132862D03*
X0116869Y0133138D03*
X0116869Y0133217D03*
X0116869Y0133335D03*
X0116869Y0133610D03*
X0128207Y0134280D03*
X0128325Y0134201D03*
X0128562Y0132862D03*
X0128444Y0132272D03*
X0195448Y0081155D03*
D177*
X0165199Y0074353D03*
X0165199Y0074077D03*
X0165199Y0072187D03*
X0165199Y0072109D03*
X0119792Y0072963D03*
X0119792Y0073042D03*
X0119792Y0073987D03*
X0116957Y0073987D03*
X0116987Y0131839D03*
X0116987Y0131917D03*
X0116987Y0134083D03*
X0116987Y0134201D03*
X0120058Y0132193D03*
D178*
X0120766Y0133138D03*
X0120412Y0134201D03*
X0121829Y0133610D03*
X0122656Y0132390D03*
X0122656Y0132272D03*
X0123483Y0133335D03*
X0123483Y0133610D03*
X0124782Y0133610D03*
X0124782Y0133728D03*
X0124782Y0133807D03*
X0152690Y0080128D03*
X0152690Y0080010D03*
X0152690Y0078790D03*
X0152690Y0078672D03*
X0150918Y0078593D03*
X0171223Y0071715D03*
X0192613Y0078045D03*
X0192731Y0078872D03*
X0192731Y0080683D03*
X0192731Y0080801D03*
X0195211Y0080328D03*
X0195211Y0080210D03*
X0195093Y0079462D03*
X0117784Y0073908D03*
D179*
X0117134Y0074735D03*
X0115953Y0073515D03*
X0115953Y0073397D03*
X0115953Y0073318D03*
X0115953Y0073042D03*
X0115953Y0072963D03*
X0115953Y0072845D03*
X0117961Y0072570D03*
X0117961Y0072452D03*
X0119024Y0072373D03*
X0119024Y0072097D03*
X0119024Y0072019D03*
X0119024Y0071900D03*
X0119024Y0073318D03*
X0119024Y0073397D03*
X0119024Y0073515D03*
X0119024Y0073790D03*
X0119024Y0073908D03*
X0120678Y0073790D03*
X0120678Y0073515D03*
X0120678Y0073397D03*
X0120560Y0072373D03*
X0120678Y0072019D03*
X0120678Y0071900D03*
X0121741Y0071900D03*
X0121741Y0072019D03*
X0121741Y0072097D03*
X0121741Y0072373D03*
X0121741Y0072452D03*
X0121741Y0072570D03*
X0121741Y0072845D03*
X0121741Y0072963D03*
X0121741Y0073042D03*
X0121741Y0074460D03*
X0123749Y0074381D03*
X0123749Y0074263D03*
X0123749Y0073987D03*
X0123749Y0073908D03*
X0123749Y0073790D03*
X0123749Y0073515D03*
X0123749Y0073397D03*
X0123749Y0073318D03*
X0123749Y0073042D03*
X0151096Y0078672D03*
X0151096Y0080010D03*
X0152513Y0080483D03*
X0152513Y0078239D03*
X0164431Y0073998D03*
X0164431Y0073880D03*
X0164431Y0073605D03*
X0164431Y0073487D03*
X0164431Y0073408D03*
X0164431Y0073132D03*
X0164431Y0073053D03*
X0164431Y0072935D03*
X0164431Y0072660D03*
X0164431Y0072542D03*
X0166085Y0072542D03*
X0166085Y0072935D03*
X0166085Y0073880D03*
X0167148Y0073880D03*
X0167148Y0073998D03*
X0167148Y0074077D03*
X0167148Y0074353D03*
X0167148Y0074471D03*
X0167148Y0074550D03*
X0167148Y0073605D03*
X0167148Y0073487D03*
X0167148Y0073408D03*
X0167148Y0073132D03*
X0167148Y0073053D03*
X0167148Y0072935D03*
X0167148Y0072660D03*
X0167148Y0072542D03*
X0167148Y0072463D03*
X0171282Y0071990D03*
X0171282Y0074550D03*
X0193853Y0079935D03*
X0195270Y0080683D03*
X0196924Y0080328D03*
X0195507Y0078320D03*
X0126140Y0131839D03*
X0126140Y0131917D03*
X0126140Y0133138D03*
X0126140Y0133217D03*
X0126140Y0133610D03*
X0124605Y0132783D03*
X0124605Y0132665D03*
X0123424Y0134083D03*
X0121770Y0134083D03*
X0120707Y0132665D03*
X0119290Y0133138D03*
D180*
X0120117Y0131917D03*
X0116928Y0132193D03*
X0116928Y0132272D03*
X0116928Y0133728D03*
X0116928Y0133807D03*
X0128385Y0134083D03*
X0128503Y0133807D03*
X0128503Y0133728D03*
X0128621Y0133610D03*
X0128621Y0133335D03*
X0128621Y0133217D03*
X0128621Y0133138D03*
X0128503Y0132193D03*
X0165258Y0072463D03*
X0117134Y0072097D03*
D181*
X0119851Y0073180D03*
X0165258Y0072325D03*
X0128503Y0132055D03*
X0128621Y0133472D03*
X0128503Y0133945D03*
X0120117Y0132055D03*
X0116928Y0132055D03*
X0116928Y0133945D03*
D182*
X0120530Y0133945D03*
X0123483Y0133000D03*
X0146548Y0080817D03*
X0192613Y0080072D03*
D183*
X0192849Y0079128D03*
X0194975Y0079128D03*
X0171341Y0071853D03*
X0169687Y0071853D03*
X0169687Y0072325D03*
X0169687Y0073742D03*
X0169687Y0074215D03*
X0169687Y0074687D03*
X0167207Y0074687D03*
X0166144Y0072798D03*
X0152572Y0080345D03*
X0123689Y0074597D03*
X0123689Y0071763D03*
X0120737Y0071763D03*
X0122656Y0132055D03*
X0121829Y0133945D03*
X0123483Y0133945D03*
X0124664Y0133000D03*
X0126081Y0132055D03*
D184*
X0124841Y0133945D03*
X0120707Y0133472D03*
X0146607Y0080345D03*
X0149678Y0080345D03*
X0149796Y0080817D03*
X0152749Y0079872D03*
X0152749Y0079400D03*
X0152749Y0078928D03*
X0192554Y0078183D03*
X0192672Y0078655D03*
X0192672Y0080545D03*
X0195152Y0080072D03*
X0195152Y0079600D03*
D185*
X0195448Y0078439D03*
X0193794Y0079738D03*
X0193794Y0079817D03*
X0193912Y0080210D03*
X0192731Y0080880D03*
X0169687Y0074550D03*
X0169687Y0074471D03*
X0169687Y0074353D03*
X0169687Y0074077D03*
X0169687Y0073998D03*
X0169687Y0073880D03*
X0169687Y0072660D03*
X0169687Y0072542D03*
X0169687Y0072463D03*
X0169687Y0072187D03*
X0169687Y0072109D03*
X0169687Y0071990D03*
X0166144Y0072660D03*
X0152572Y0078317D03*
X0151036Y0080128D03*
X0123689Y0074460D03*
X0122656Y0131917D03*
X0122656Y0132193D03*
X0123483Y0133728D03*
X0123483Y0133807D03*
X0124664Y0133138D03*
X0124664Y0132862D03*
X0126081Y0132193D03*
X0126081Y0133728D03*
X0121829Y0133807D03*
X0120766Y0132783D03*
X0119231Y0133728D03*
D186*
X0117193Y0071507D03*
X0146548Y0080483D03*
X0146548Y0080601D03*
X0146548Y0080680D03*
X0149737Y0080680D03*
X0149737Y0080601D03*
X0149737Y0080483D03*
X0169687Y0074825D03*
X0192613Y0078320D03*
X0192613Y0078439D03*
X0192613Y0078517D03*
X0192613Y0079817D03*
X0192613Y0079935D03*
X0192613Y0080210D03*
X0192613Y0080328D03*
X0122656Y0132665D03*
X0122656Y0132783D03*
X0122656Y0132862D03*
X0121829Y0133138D03*
X0121829Y0133217D03*
X0120648Y0133610D03*
X0120648Y0133728D03*
X0123483Y0133217D03*
X0123483Y0133138D03*
D187*
X0120176Y0131583D03*
X0116869Y0132528D03*
X0116869Y0133000D03*
X0116869Y0133472D03*
X0128562Y0133000D03*
X0117075Y0072235D03*
D188*
X0121741Y0074597D03*
X0152631Y0078455D03*
X0171282Y0074687D03*
X0124723Y0133472D03*
D189*
X0128503Y0132783D03*
X0128503Y0132390D03*
D190*
X0128444Y0132665D03*
X0120176Y0131445D03*
D191*
X0124605Y0132528D03*
X0193853Y0080072D03*
X0195270Y0080545D03*
X0167148Y0074215D03*
X0167148Y0073742D03*
X0167148Y0073270D03*
X0167148Y0072798D03*
X0166085Y0073742D03*
X0164431Y0073742D03*
X0164431Y0073270D03*
X0164431Y0072798D03*
X0123749Y0073180D03*
X0123749Y0073652D03*
X0123749Y0074125D03*
X0122686Y0073180D03*
X0121741Y0073180D03*
X0121741Y0072708D03*
X0121741Y0072235D03*
X0121741Y0071763D03*
X0120560Y0072235D03*
X0120678Y0073652D03*
X0119024Y0073652D03*
X0119024Y0072235D03*
X0119024Y0071763D03*
X0117961Y0072708D03*
X0116071Y0072708D03*
X0115953Y0073180D03*
X0116071Y0073652D03*
D192*
X0121977Y0073908D03*
X0123512Y0072373D03*
X0143418Y0078120D03*
X0143418Y0078239D03*
X0143418Y0078317D03*
X0143418Y0078593D03*
X0143418Y0078672D03*
X0143418Y0078790D03*
X0143418Y0079065D03*
X0143418Y0079183D03*
X0143418Y0079262D03*
X0143418Y0079538D03*
X0143418Y0079617D03*
X0143418Y0079735D03*
X0143418Y0080010D03*
X0143418Y0080128D03*
X0143418Y0080207D03*
X0143418Y0080483D03*
X0143418Y0080601D03*
X0143418Y0080680D03*
X0149206Y0080207D03*
X0149206Y0080128D03*
X0149206Y0080010D03*
X0149206Y0079735D03*
X0149206Y0079617D03*
X0149206Y0079538D03*
X0149206Y0079262D03*
X0149206Y0079183D03*
X0149206Y0079065D03*
X0149206Y0078790D03*
X0149206Y0078672D03*
X0149206Y0078593D03*
X0149206Y0078317D03*
X0149206Y0078239D03*
X0149206Y0078120D03*
X0154285Y0078120D03*
X0154285Y0078239D03*
X0154285Y0078317D03*
X0154285Y0078593D03*
X0154285Y0078672D03*
X0154285Y0078790D03*
X0154285Y0079065D03*
X0154285Y0079183D03*
X0154285Y0079262D03*
X0154285Y0079538D03*
X0154285Y0079617D03*
X0154285Y0079735D03*
X0154285Y0080010D03*
X0154285Y0080128D03*
X0154285Y0080207D03*
X0154285Y0080483D03*
X0154285Y0080601D03*
X0154285Y0080680D03*
X0165022Y0074825D03*
X0165731Y0073408D03*
X0165731Y0073132D03*
X0165849Y0073053D03*
X0191018Y0078320D03*
X0191018Y0078439D03*
X0191018Y0078517D03*
X0191018Y0078793D03*
X0191018Y0078872D03*
X0191018Y0078990D03*
X0191018Y0079265D03*
X0191018Y0079383D03*
X0191018Y0079462D03*
X0191018Y0079738D03*
X0191018Y0079817D03*
X0191018Y0079935D03*
X0191018Y0080210D03*
X0191018Y0080328D03*
X0191018Y0080407D03*
X0191018Y0080683D03*
X0191018Y0080801D03*
X0191018Y0080880D03*
X0193144Y0079462D03*
X0198577Y0078517D03*
X0198577Y0078439D03*
X0198577Y0080407D03*
X0198577Y0080683D03*
X0198577Y0080801D03*
X0122597Y0131445D03*
X0120589Y0132390D03*
D193*
X0120412Y0132272D03*
X0152218Y0077845D03*
X0170160Y0073487D03*
X0170160Y0072935D03*
X0123335Y0072845D03*
X0122154Y0073397D03*
D194*
X0121859Y0074263D03*
X0119497Y0074735D03*
X0116189Y0073908D03*
X0116189Y0072452D03*
X0123630Y0072019D03*
X0151214Y0079065D03*
X0151214Y0079735D03*
X0152395Y0080680D03*
X0170809Y0073880D03*
X0170927Y0073998D03*
X0171046Y0074077D03*
X0171164Y0074353D03*
X0170691Y0072660D03*
X0170809Y0072542D03*
X0170927Y0072463D03*
X0171164Y0072187D03*
X0194916Y0078990D03*
X0196924Y0078872D03*
X0124487Y0131917D03*
X0124487Y0132193D03*
D195*
X0124487Y0132055D03*
X0122597Y0131583D03*
X0151214Y0078928D03*
X0170691Y0073742D03*
X0171046Y0074215D03*
X0171046Y0072325D03*
X0195625Y0078183D03*
X0121859Y0074125D03*
D196*
X0121918Y0073987D03*
X0123571Y0072097D03*
X0117784Y0072845D03*
X0117666Y0073397D03*
X0116367Y0072373D03*
X0117193Y0071625D03*
X0151273Y0079183D03*
X0151273Y0079262D03*
X0151273Y0079538D03*
X0151273Y0079617D03*
X0165790Y0073487D03*
X0193085Y0079383D03*
X0194857Y0078872D03*
X0195329Y0080801D03*
X0196865Y0080210D03*
X0126199Y0131445D03*
X0124428Y0131720D03*
X0124428Y0131839D03*
D197*
X0128444Y0131720D03*
X0198164Y0081155D03*
X0167916Y0071715D03*
X0165081Y0074550D03*
X0119674Y0074381D03*
X0117193Y0074381D03*
X0117193Y0071900D03*
D198*
X0165081Y0071853D03*
X0128444Y0131583D03*
D199*
X0124428Y0131445D03*
X0147139Y0080207D03*
X0143477Y0077845D03*
X0154225Y0077845D03*
X0170042Y0073132D03*
X0191077Y0078045D03*
X0195684Y0078045D03*
X0198518Y0078320D03*
X0198518Y0078793D03*
X0198518Y0080328D03*
X0195329Y0080880D03*
X0123453Y0072452D03*
X0122036Y0073790D03*
X0117666Y0073318D03*
X0117666Y0073042D03*
X0117666Y0072963D03*
D200*
X0122715Y0131327D03*
D201*
X0122715Y0131012D03*
D202*
X0122715Y0130894D03*
D203*
X0132207Y0068882D03*
D204*
X0132325Y0069000D03*
D205*
X0132463Y0069059D03*
X0136243Y0069059D03*
D206*
X0136125Y0069118D03*
X0132581Y0069118D03*
D207*
X0132680Y0069177D03*
D208*
X0132778Y0065339D03*
D209*
X0132916Y0074079D03*
D210*
X0136007Y0069177D03*
D211*
X0136322Y0069000D03*
D212*
X0136440Y0068882D03*
D213*
X0141991Y0067487D03*
X0146676Y0067487D03*
X0156322Y0142614D03*
D214*
X0146558Y0067665D03*
X0142109Y0067665D03*
D215*
X0142207Y0067783D03*
D216*
X0142325Y0067901D03*
D217*
X0142581Y0068019D03*
X0146125Y0068019D03*
D218*
X0142680Y0068078D03*
D219*
X0142778Y0065243D03*
D220*
X0146007Y0068078D03*
X0153526Y0142024D03*
D221*
X0153133Y0142201D03*
X0146322Y0067901D03*
D222*
X0146440Y0067783D03*
D223*
X0148851Y0077057D03*
X0148851Y0077176D03*
X0148851Y0077294D03*
X0148851Y0077412D03*
X0148851Y0077491D03*
X0148851Y0077609D03*
X0148851Y0077727D03*
X0148851Y0080955D03*
X0148851Y0081152D03*
X0148851Y0081270D03*
X0148851Y0081624D03*
X0148851Y0081743D03*
D224*
X0148851Y0081526D03*
X0148851Y0081054D03*
D225*
X0148851Y0081408D03*
D226*
X0149265Y0077983D03*
X0143477Y0080817D03*
X0122036Y0073652D03*
X0117666Y0073180D03*
X0170042Y0073270D03*
X0191077Y0078183D03*
X0191077Y0081017D03*
D227*
X0191018Y0080545D03*
X0191018Y0080072D03*
X0191018Y0079600D03*
X0191018Y0079128D03*
X0191018Y0078655D03*
X0198577Y0078655D03*
X0198577Y0080545D03*
X0165731Y0073270D03*
X0154285Y0077983D03*
X0154285Y0078455D03*
X0154285Y0078928D03*
X0154285Y0079400D03*
X0154285Y0079872D03*
X0154285Y0080345D03*
X0154285Y0080817D03*
X0152277Y0080817D03*
X0149206Y0079872D03*
X0149206Y0079400D03*
X0149206Y0078928D03*
X0149206Y0078455D03*
X0143418Y0078455D03*
X0143418Y0077983D03*
X0143418Y0078928D03*
X0143418Y0079400D03*
X0143418Y0079872D03*
X0143418Y0080345D03*
D228*
X0146312Y0079872D03*
X0146312Y0078928D03*
X0146312Y0078455D03*
X0146312Y0077983D03*
X0197692Y0079128D03*
X0197692Y0080072D03*
D229*
X0197751Y0078990D03*
X0146371Y0079735D03*
D230*
X0146903Y0079617D03*
X0146903Y0079538D03*
X0146903Y0079262D03*
X0146903Y0079183D03*
X0146903Y0079065D03*
D231*
X0146903Y0079400D03*
X0165081Y0074687D03*
X0195329Y0081017D03*
D232*
X0146312Y0077845D03*
D233*
X0149206Y0077845D03*
X0170101Y0073408D03*
X0170101Y0073053D03*
X0194798Y0078793D03*
X0198459Y0078872D03*
X0198459Y0080210D03*
X0198459Y0080880D03*
X0123394Y0072570D03*
X0122095Y0073515D03*
D234*
X0194798Y0077257D03*
X0194798Y0077376D03*
X0194798Y0077494D03*
X0194798Y0077612D03*
X0194798Y0077691D03*
X0194798Y0077809D03*
X0194798Y0077927D03*
X0194798Y0081352D03*
X0194798Y0081470D03*
X0194798Y0081824D03*
X0194798Y0081943D03*
D235*
X0194798Y0081726D03*
X0194798Y0081254D03*
D236*
X0194798Y0081608D03*
D237*
X0191963Y0081155D03*
X0197633Y0079817D03*
X0197633Y0079738D03*
X0197633Y0079462D03*
X0197633Y0079383D03*
X0197633Y0079265D03*
D238*
X0198400Y0081017D03*
X0117193Y0071763D03*
D239*
X0117134Y0074597D03*
X0123394Y0072708D03*
X0193262Y0079600D03*
X0198459Y0078183D03*
D240*
X0197633Y0079600D03*
D241*
X0198341Y0078045D03*
X0170219Y0073605D03*
X0165022Y0071715D03*
X0123276Y0072963D03*
X0122213Y0073318D03*
X0117134Y0074460D03*
D242*
X0203345Y0064713D03*
X0207479Y0064713D03*
X0205510Y0069437D03*
X0205314Y0069437D03*
X0205117Y0069437D03*
X0204920Y0069437D03*
X0202755Y0059594D03*
X0203739Y0083217D03*
X0203345Y0088138D03*
D243*
X0202755Y0088039D03*
X0205944Y0090008D03*
X0202755Y0083315D03*
X0202951Y0080362D03*
X0205314Y0080362D03*
X0205510Y0080362D03*
X0205944Y0080362D03*
X0206140Y0080362D03*
X0206298Y0080362D03*
X0206495Y0080362D03*
X0206928Y0080362D03*
X0207125Y0080362D03*
X0207282Y0080362D03*
X0207479Y0080362D03*
X0206298Y0078197D03*
X0206298Y0076031D03*
X0206140Y0076031D03*
X0205944Y0076031D03*
X0205510Y0076031D03*
X0205314Y0076031D03*
X0206495Y0076031D03*
X0206928Y0076031D03*
X0207125Y0076031D03*
X0207282Y0076031D03*
X0207479Y0076031D03*
X0202951Y0076031D03*
X0202755Y0064811D03*
X0205117Y0062843D03*
X0205314Y0062843D03*
X0205510Y0062843D03*
D244*
X0205944Y0069339D03*
X0202755Y0069929D03*
X0203542Y0083315D03*
X0204723Y0083315D03*
X0204920Y0083315D03*
X0205314Y0083315D03*
X0205510Y0083315D03*
X0207282Y0083315D03*
D245*
X0202755Y0075933D03*
D246*
X0202755Y0080362D03*
D247*
X0202951Y0069929D03*
X0203936Y0069732D03*
X0202951Y0059693D03*
X0206928Y0059693D03*
D248*
X0202951Y0064811D03*
X0205944Y0073669D03*
X0204526Y0076622D03*
X0205510Y0078197D03*
X0204526Y0079772D03*
X0203148Y0083315D03*
D249*
X0202951Y0083315D03*
X0203936Y0079969D03*
X0205944Y0078197D03*
X0203936Y0076425D03*
X0207912Y0083315D03*
X0207912Y0064811D03*
D250*
X0204329Y0076524D03*
X0204133Y0076524D03*
X0204133Y0079870D03*
X0204329Y0079870D03*
X0202951Y0088138D03*
X0207912Y0088138D03*
D251*
X0203739Y0088138D03*
X0203739Y0069831D03*
X0203542Y0069831D03*
X0203345Y0069831D03*
X0203148Y0069831D03*
X0206928Y0069831D03*
X0207125Y0069831D03*
X0207282Y0069831D03*
X0207479Y0069831D03*
X0207125Y0064713D03*
X0203739Y0064713D03*
X0203739Y0059594D03*
X0203542Y0059594D03*
X0203345Y0059594D03*
X0203148Y0059594D03*
X0207125Y0059791D03*
D252*
X0203148Y0064713D03*
X0204723Y0069240D03*
X0203148Y0088138D03*
D253*
X0204526Y0089909D03*
X0204723Y0089909D03*
X0204920Y0090106D03*
X0205117Y0090106D03*
X0205314Y0090106D03*
X0205510Y0090106D03*
X0206140Y0089909D03*
X0206140Y0086366D03*
X0205944Y0086169D03*
X0205510Y0086169D03*
X0205314Y0086169D03*
X0205117Y0086169D03*
X0204920Y0086169D03*
X0204723Y0086366D03*
X0204526Y0086366D03*
X0204526Y0084398D03*
X0204329Y0084398D03*
X0204133Y0084398D03*
X0205944Y0084398D03*
X0206140Y0084594D03*
X0206298Y0084594D03*
X0206495Y0084594D03*
X0205944Y0082232D03*
X0206140Y0082035D03*
X0206298Y0082035D03*
X0206495Y0082035D03*
X0204526Y0082232D03*
X0204329Y0082232D03*
X0204133Y0082232D03*
X0203148Y0080264D03*
X0203148Y0076130D03*
X0203345Y0076130D03*
X0204133Y0068453D03*
X0204329Y0068453D03*
X0204526Y0068453D03*
X0206140Y0068453D03*
X0206298Y0068453D03*
X0206495Y0068453D03*
X0205944Y0066681D03*
X0206298Y0066484D03*
X0205510Y0066681D03*
X0205314Y0066681D03*
X0205117Y0066681D03*
X0204920Y0066681D03*
X0204723Y0066681D03*
X0204526Y0066484D03*
X0204723Y0062941D03*
X0204920Y0062941D03*
X0205944Y0062941D03*
X0206140Y0062941D03*
D254*
X0206298Y0063039D03*
X0206495Y0063236D03*
X0204526Y0063039D03*
X0204329Y0063236D03*
X0204329Y0066386D03*
X0206140Y0066583D03*
X0206495Y0066386D03*
X0204329Y0060480D03*
X0204526Y0060283D03*
X0204723Y0060087D03*
X0205117Y0059890D03*
X0205314Y0059693D03*
X0205510Y0059496D03*
X0205944Y0059299D03*
X0206140Y0059102D03*
X0206495Y0058906D03*
X0203542Y0076228D03*
X0206140Y0078197D03*
X0203542Y0080165D03*
X0203345Y0080165D03*
X0203936Y0082331D03*
X0203936Y0084299D03*
X0204329Y0086465D03*
X0206298Y0086465D03*
X0206495Y0089614D03*
X0206298Y0089811D03*
X0204329Y0089811D03*
D255*
X0205117Y0083315D03*
X0203345Y0083315D03*
X0207479Y0083315D03*
X0205314Y0078197D03*
X0206298Y0073669D03*
X0206495Y0073669D03*
D256*
X0207912Y0069831D03*
X0207282Y0064713D03*
X0203542Y0064713D03*
X0203936Y0059594D03*
X0207912Y0059791D03*
X0203542Y0088138D03*
D257*
X0204133Y0089516D03*
X0204133Y0086760D03*
X0206495Y0086563D03*
X0203739Y0080067D03*
X0203739Y0076327D03*
X0204133Y0066287D03*
X0204133Y0063335D03*
X0204133Y0060579D03*
X0204920Y0059988D03*
X0206298Y0059004D03*
D258*
X0207282Y0059693D03*
X0207479Y0059693D03*
X0206928Y0064811D03*
X0203936Y0064811D03*
D259*
X0203936Y0088138D03*
D260*
X0204723Y0079673D03*
X0204723Y0076720D03*
X0206140Y0073571D03*
X0206928Y0073571D03*
D261*
X0205117Y0078197D03*
X0204920Y0078197D03*
D262*
X0206711Y0082134D03*
X0206711Y0084496D03*
X0205727Y0059496D03*
X0206711Y0058709D03*
D263*
X0205727Y0062843D03*
X0205727Y0076031D03*
X0206711Y0076031D03*
X0207696Y0076031D03*
X0207696Y0080362D03*
X0206711Y0080362D03*
X0205727Y0080362D03*
X0207696Y0090402D03*
D264*
X0205727Y0090106D03*
X0205727Y0086169D03*
X0205727Y0066681D03*
D265*
X0205727Y0069437D03*
D266*
X0206711Y0063433D03*
X0205727Y0078197D03*
X0206711Y0089614D03*
D267*
X0205727Y0083315D03*
D268*
X0208109Y0083315D03*
X0207912Y0080362D03*
X0206495Y0078197D03*
X0207912Y0090402D03*
D269*
X0206711Y0086760D03*
X0206711Y0066091D03*
D270*
X0206711Y0069634D03*
D271*
X0206711Y0073669D03*
X0207696Y0064811D03*
X0207696Y0088039D03*
D272*
X0207125Y0083315D03*
X0206928Y0083315D03*
D273*
X0206928Y0088433D03*
X0207125Y0088630D03*
D274*
X0207282Y0088728D03*
D275*
X0207479Y0088827D03*
D276*
X0207696Y0069831D03*
X0207696Y0059791D03*
D277*
X0207696Y0083315D03*
D278*
X0207912Y0075933D03*
D279*
X0208109Y0064713D03*
X0208109Y0088138D03*
D280*
X0165199Y0074215D03*
X0119792Y0074125D03*
X0117075Y0074125D03*
D281*
X0119615Y0074597D03*
X0170219Y0072798D03*
D282*
X0167738Y0072325D03*
D283*
X0119615Y0074460D03*
D284*
X0141991Y0143214D03*
X0146676Y0143214D03*
D285*
X0146558Y0143155D03*
X0142109Y0143155D03*
D286*
X0142207Y0143037D03*
D287*
X0142325Y0142978D03*
D288*
X0143133Y0142565D03*
X0156243Y0142555D03*
D289*
X0143388Y0142446D03*
D290*
X0143526Y0142387D03*
D291*
X0146243Y0142919D03*
D292*
X0146322Y0142978D03*
D293*
X0146440Y0143037D03*
D294*
X0152109Y0142791D03*
X0156558Y0142791D03*
D295*
X0152207Y0142673D03*
D296*
X0152325Y0142614D03*
D297*
X0153388Y0142083D03*
D298*
X0156440Y0142673D03*
M02*
