G75*
%MOIN*%
%OFA0B0*%
%FSLAX25Y25*%
%IPPOS*%
%LPD*%
%AMOC8*
5,1,8,0,0,1.08239X$1,22.5*
%
%ADD10C,0.00800*%
%ADD11C,0.00000*%
D10*
X0114333Y0055000D02*
X0114333Y0155000D01*
X0214333Y0155000D01*
X0214333Y0055000D01*
X0114333Y0055000D01*
D11*
X0118333Y0145000D02*
X0118335Y0145154D01*
X0118341Y0145309D01*
X0118351Y0145463D01*
X0118365Y0145617D01*
X0118383Y0145770D01*
X0118404Y0145923D01*
X0118430Y0146076D01*
X0118460Y0146227D01*
X0118493Y0146378D01*
X0118531Y0146528D01*
X0118572Y0146677D01*
X0118617Y0146825D01*
X0118666Y0146971D01*
X0118719Y0147117D01*
X0118775Y0147260D01*
X0118835Y0147403D01*
X0118899Y0147543D01*
X0118966Y0147683D01*
X0119037Y0147820D01*
X0119111Y0147955D01*
X0119189Y0148089D01*
X0119270Y0148220D01*
X0119355Y0148349D01*
X0119443Y0148477D01*
X0119534Y0148601D01*
X0119628Y0148724D01*
X0119726Y0148844D01*
X0119826Y0148961D01*
X0119930Y0149076D01*
X0120036Y0149188D01*
X0120145Y0149297D01*
X0120257Y0149403D01*
X0120372Y0149507D01*
X0120489Y0149607D01*
X0120609Y0149705D01*
X0120732Y0149799D01*
X0120856Y0149890D01*
X0120984Y0149978D01*
X0121113Y0150063D01*
X0121244Y0150144D01*
X0121378Y0150222D01*
X0121513Y0150296D01*
X0121650Y0150367D01*
X0121790Y0150434D01*
X0121930Y0150498D01*
X0122073Y0150558D01*
X0122216Y0150614D01*
X0122362Y0150667D01*
X0122508Y0150716D01*
X0122656Y0150761D01*
X0122805Y0150802D01*
X0122955Y0150840D01*
X0123106Y0150873D01*
X0123257Y0150903D01*
X0123410Y0150929D01*
X0123563Y0150950D01*
X0123716Y0150968D01*
X0123870Y0150982D01*
X0124024Y0150992D01*
X0124179Y0150998D01*
X0124333Y0151000D01*
X0124487Y0150998D01*
X0124642Y0150992D01*
X0124796Y0150982D01*
X0124950Y0150968D01*
X0125103Y0150950D01*
X0125256Y0150929D01*
X0125409Y0150903D01*
X0125560Y0150873D01*
X0125711Y0150840D01*
X0125861Y0150802D01*
X0126010Y0150761D01*
X0126158Y0150716D01*
X0126304Y0150667D01*
X0126450Y0150614D01*
X0126593Y0150558D01*
X0126736Y0150498D01*
X0126876Y0150434D01*
X0127016Y0150367D01*
X0127153Y0150296D01*
X0127288Y0150222D01*
X0127422Y0150144D01*
X0127553Y0150063D01*
X0127682Y0149978D01*
X0127810Y0149890D01*
X0127934Y0149799D01*
X0128057Y0149705D01*
X0128177Y0149607D01*
X0128294Y0149507D01*
X0128409Y0149403D01*
X0128521Y0149297D01*
X0128630Y0149188D01*
X0128736Y0149076D01*
X0128840Y0148961D01*
X0128940Y0148844D01*
X0129038Y0148724D01*
X0129132Y0148601D01*
X0129223Y0148477D01*
X0129311Y0148349D01*
X0129396Y0148220D01*
X0129477Y0148089D01*
X0129555Y0147955D01*
X0129629Y0147820D01*
X0129700Y0147683D01*
X0129767Y0147543D01*
X0129831Y0147403D01*
X0129891Y0147260D01*
X0129947Y0147117D01*
X0130000Y0146971D01*
X0130049Y0146825D01*
X0130094Y0146677D01*
X0130135Y0146528D01*
X0130173Y0146378D01*
X0130206Y0146227D01*
X0130236Y0146076D01*
X0130262Y0145923D01*
X0130283Y0145770D01*
X0130301Y0145617D01*
X0130315Y0145463D01*
X0130325Y0145309D01*
X0130331Y0145154D01*
X0130333Y0145000D01*
X0130331Y0144846D01*
X0130325Y0144691D01*
X0130315Y0144537D01*
X0130301Y0144383D01*
X0130283Y0144230D01*
X0130262Y0144077D01*
X0130236Y0143924D01*
X0130206Y0143773D01*
X0130173Y0143622D01*
X0130135Y0143472D01*
X0130094Y0143323D01*
X0130049Y0143175D01*
X0130000Y0143029D01*
X0129947Y0142883D01*
X0129891Y0142740D01*
X0129831Y0142597D01*
X0129767Y0142457D01*
X0129700Y0142317D01*
X0129629Y0142180D01*
X0129555Y0142045D01*
X0129477Y0141911D01*
X0129396Y0141780D01*
X0129311Y0141651D01*
X0129223Y0141523D01*
X0129132Y0141399D01*
X0129038Y0141276D01*
X0128940Y0141156D01*
X0128840Y0141039D01*
X0128736Y0140924D01*
X0128630Y0140812D01*
X0128521Y0140703D01*
X0128409Y0140597D01*
X0128294Y0140493D01*
X0128177Y0140393D01*
X0128057Y0140295D01*
X0127934Y0140201D01*
X0127810Y0140110D01*
X0127682Y0140022D01*
X0127553Y0139937D01*
X0127422Y0139856D01*
X0127288Y0139778D01*
X0127153Y0139704D01*
X0127016Y0139633D01*
X0126876Y0139566D01*
X0126736Y0139502D01*
X0126593Y0139442D01*
X0126450Y0139386D01*
X0126304Y0139333D01*
X0126158Y0139284D01*
X0126010Y0139239D01*
X0125861Y0139198D01*
X0125711Y0139160D01*
X0125560Y0139127D01*
X0125409Y0139097D01*
X0125256Y0139071D01*
X0125103Y0139050D01*
X0124950Y0139032D01*
X0124796Y0139018D01*
X0124642Y0139008D01*
X0124487Y0139002D01*
X0124333Y0139000D01*
X0124179Y0139002D01*
X0124024Y0139008D01*
X0123870Y0139018D01*
X0123716Y0139032D01*
X0123563Y0139050D01*
X0123410Y0139071D01*
X0123257Y0139097D01*
X0123106Y0139127D01*
X0122955Y0139160D01*
X0122805Y0139198D01*
X0122656Y0139239D01*
X0122508Y0139284D01*
X0122362Y0139333D01*
X0122216Y0139386D01*
X0122073Y0139442D01*
X0121930Y0139502D01*
X0121790Y0139566D01*
X0121650Y0139633D01*
X0121513Y0139704D01*
X0121378Y0139778D01*
X0121244Y0139856D01*
X0121113Y0139937D01*
X0120984Y0140022D01*
X0120856Y0140110D01*
X0120732Y0140201D01*
X0120609Y0140295D01*
X0120489Y0140393D01*
X0120372Y0140493D01*
X0120257Y0140597D01*
X0120145Y0140703D01*
X0120036Y0140812D01*
X0119930Y0140924D01*
X0119826Y0141039D01*
X0119726Y0141156D01*
X0119628Y0141276D01*
X0119534Y0141399D01*
X0119443Y0141523D01*
X0119355Y0141651D01*
X0119270Y0141780D01*
X0119189Y0141911D01*
X0119111Y0142045D01*
X0119037Y0142180D01*
X0118966Y0142317D01*
X0118899Y0142457D01*
X0118835Y0142597D01*
X0118775Y0142740D01*
X0118719Y0142883D01*
X0118666Y0143029D01*
X0118617Y0143175D01*
X0118572Y0143323D01*
X0118531Y0143472D01*
X0118493Y0143622D01*
X0118460Y0143773D01*
X0118430Y0143924D01*
X0118404Y0144077D01*
X0118383Y0144230D01*
X0118365Y0144383D01*
X0118351Y0144537D01*
X0118341Y0144691D01*
X0118335Y0144846D01*
X0118333Y0145000D01*
X0198333Y0145000D02*
X0198335Y0145154D01*
X0198341Y0145309D01*
X0198351Y0145463D01*
X0198365Y0145617D01*
X0198383Y0145770D01*
X0198404Y0145923D01*
X0198430Y0146076D01*
X0198460Y0146227D01*
X0198493Y0146378D01*
X0198531Y0146528D01*
X0198572Y0146677D01*
X0198617Y0146825D01*
X0198666Y0146971D01*
X0198719Y0147117D01*
X0198775Y0147260D01*
X0198835Y0147403D01*
X0198899Y0147543D01*
X0198966Y0147683D01*
X0199037Y0147820D01*
X0199111Y0147955D01*
X0199189Y0148089D01*
X0199270Y0148220D01*
X0199355Y0148349D01*
X0199443Y0148477D01*
X0199534Y0148601D01*
X0199628Y0148724D01*
X0199726Y0148844D01*
X0199826Y0148961D01*
X0199930Y0149076D01*
X0200036Y0149188D01*
X0200145Y0149297D01*
X0200257Y0149403D01*
X0200372Y0149507D01*
X0200489Y0149607D01*
X0200609Y0149705D01*
X0200732Y0149799D01*
X0200856Y0149890D01*
X0200984Y0149978D01*
X0201113Y0150063D01*
X0201244Y0150144D01*
X0201378Y0150222D01*
X0201513Y0150296D01*
X0201650Y0150367D01*
X0201790Y0150434D01*
X0201930Y0150498D01*
X0202073Y0150558D01*
X0202216Y0150614D01*
X0202362Y0150667D01*
X0202508Y0150716D01*
X0202656Y0150761D01*
X0202805Y0150802D01*
X0202955Y0150840D01*
X0203106Y0150873D01*
X0203257Y0150903D01*
X0203410Y0150929D01*
X0203563Y0150950D01*
X0203716Y0150968D01*
X0203870Y0150982D01*
X0204024Y0150992D01*
X0204179Y0150998D01*
X0204333Y0151000D01*
X0204487Y0150998D01*
X0204642Y0150992D01*
X0204796Y0150982D01*
X0204950Y0150968D01*
X0205103Y0150950D01*
X0205256Y0150929D01*
X0205409Y0150903D01*
X0205560Y0150873D01*
X0205711Y0150840D01*
X0205861Y0150802D01*
X0206010Y0150761D01*
X0206158Y0150716D01*
X0206304Y0150667D01*
X0206450Y0150614D01*
X0206593Y0150558D01*
X0206736Y0150498D01*
X0206876Y0150434D01*
X0207016Y0150367D01*
X0207153Y0150296D01*
X0207288Y0150222D01*
X0207422Y0150144D01*
X0207553Y0150063D01*
X0207682Y0149978D01*
X0207810Y0149890D01*
X0207934Y0149799D01*
X0208057Y0149705D01*
X0208177Y0149607D01*
X0208294Y0149507D01*
X0208409Y0149403D01*
X0208521Y0149297D01*
X0208630Y0149188D01*
X0208736Y0149076D01*
X0208840Y0148961D01*
X0208940Y0148844D01*
X0209038Y0148724D01*
X0209132Y0148601D01*
X0209223Y0148477D01*
X0209311Y0148349D01*
X0209396Y0148220D01*
X0209477Y0148089D01*
X0209555Y0147955D01*
X0209629Y0147820D01*
X0209700Y0147683D01*
X0209767Y0147543D01*
X0209831Y0147403D01*
X0209891Y0147260D01*
X0209947Y0147117D01*
X0210000Y0146971D01*
X0210049Y0146825D01*
X0210094Y0146677D01*
X0210135Y0146528D01*
X0210173Y0146378D01*
X0210206Y0146227D01*
X0210236Y0146076D01*
X0210262Y0145923D01*
X0210283Y0145770D01*
X0210301Y0145617D01*
X0210315Y0145463D01*
X0210325Y0145309D01*
X0210331Y0145154D01*
X0210333Y0145000D01*
X0210331Y0144846D01*
X0210325Y0144691D01*
X0210315Y0144537D01*
X0210301Y0144383D01*
X0210283Y0144230D01*
X0210262Y0144077D01*
X0210236Y0143924D01*
X0210206Y0143773D01*
X0210173Y0143622D01*
X0210135Y0143472D01*
X0210094Y0143323D01*
X0210049Y0143175D01*
X0210000Y0143029D01*
X0209947Y0142883D01*
X0209891Y0142740D01*
X0209831Y0142597D01*
X0209767Y0142457D01*
X0209700Y0142317D01*
X0209629Y0142180D01*
X0209555Y0142045D01*
X0209477Y0141911D01*
X0209396Y0141780D01*
X0209311Y0141651D01*
X0209223Y0141523D01*
X0209132Y0141399D01*
X0209038Y0141276D01*
X0208940Y0141156D01*
X0208840Y0141039D01*
X0208736Y0140924D01*
X0208630Y0140812D01*
X0208521Y0140703D01*
X0208409Y0140597D01*
X0208294Y0140493D01*
X0208177Y0140393D01*
X0208057Y0140295D01*
X0207934Y0140201D01*
X0207810Y0140110D01*
X0207682Y0140022D01*
X0207553Y0139937D01*
X0207422Y0139856D01*
X0207288Y0139778D01*
X0207153Y0139704D01*
X0207016Y0139633D01*
X0206876Y0139566D01*
X0206736Y0139502D01*
X0206593Y0139442D01*
X0206450Y0139386D01*
X0206304Y0139333D01*
X0206158Y0139284D01*
X0206010Y0139239D01*
X0205861Y0139198D01*
X0205711Y0139160D01*
X0205560Y0139127D01*
X0205409Y0139097D01*
X0205256Y0139071D01*
X0205103Y0139050D01*
X0204950Y0139032D01*
X0204796Y0139018D01*
X0204642Y0139008D01*
X0204487Y0139002D01*
X0204333Y0139000D01*
X0204179Y0139002D01*
X0204024Y0139008D01*
X0203870Y0139018D01*
X0203716Y0139032D01*
X0203563Y0139050D01*
X0203410Y0139071D01*
X0203257Y0139097D01*
X0203106Y0139127D01*
X0202955Y0139160D01*
X0202805Y0139198D01*
X0202656Y0139239D01*
X0202508Y0139284D01*
X0202362Y0139333D01*
X0202216Y0139386D01*
X0202073Y0139442D01*
X0201930Y0139502D01*
X0201790Y0139566D01*
X0201650Y0139633D01*
X0201513Y0139704D01*
X0201378Y0139778D01*
X0201244Y0139856D01*
X0201113Y0139937D01*
X0200984Y0140022D01*
X0200856Y0140110D01*
X0200732Y0140201D01*
X0200609Y0140295D01*
X0200489Y0140393D01*
X0200372Y0140493D01*
X0200257Y0140597D01*
X0200145Y0140703D01*
X0200036Y0140812D01*
X0199930Y0140924D01*
X0199826Y0141039D01*
X0199726Y0141156D01*
X0199628Y0141276D01*
X0199534Y0141399D01*
X0199443Y0141523D01*
X0199355Y0141651D01*
X0199270Y0141780D01*
X0199189Y0141911D01*
X0199111Y0142045D01*
X0199037Y0142180D01*
X0198966Y0142317D01*
X0198899Y0142457D01*
X0198835Y0142597D01*
X0198775Y0142740D01*
X0198719Y0142883D01*
X0198666Y0143029D01*
X0198617Y0143175D01*
X0198572Y0143323D01*
X0198531Y0143472D01*
X0198493Y0143622D01*
X0198460Y0143773D01*
X0198430Y0143924D01*
X0198404Y0144077D01*
X0198383Y0144230D01*
X0198365Y0144383D01*
X0198351Y0144537D01*
X0198341Y0144691D01*
X0198335Y0144846D01*
X0198333Y0145000D01*
M02*
