G75*
%MOIN*%
%OFA0B0*%
%FSLAX25Y25*%
%IPPOS*%
%LPD*%
%AMOC8*
5,1,8,0,0,1.08239X$1,22.5*
%
%ADD10C,0.00984*%
%ADD11R,0.07874X0.04724*%
%ADD12R,0.05315X0.02362*%
%ADD13R,0.03937X0.04331*%
%ADD14R,0.03346X0.08661*%
%ADD15R,0.03937X0.04134*%
%ADD16R,0.03937X0.07087*%
%ADD17C,0.07400*%
%ADD18R,0.03268X0.02480*%
%ADD19C,0.02500*%
%ADD20C,0.01181*%
%ADD21R,0.04331X0.03937*%
%ADD22R,0.03346X0.03543*%
%ADD23R,0.16535X0.06693*%
%ADD24C,0.00197*%
%ADD25R,0.03937X0.03937*%
%ADD26R,0.07087X0.03150*%
%ADD27C,0.01000*%
%ADD28C,0.02400*%
%ADD29C,0.00800*%
%ADD30C,0.02200*%
%ADD31C,0.02000*%
%ADD32C,0.00600*%
%ADD33C,0.01800*%
D10*
X0156475Y0097142D03*
X0156475Y0099110D03*
X0156475Y0101079D03*
X0156475Y0103047D03*
X0156475Y0105016D03*
X0156475Y0106984D03*
X0156475Y0108953D03*
X0156475Y0110921D03*
X0156475Y0112890D03*
X0158444Y0112890D03*
X0160412Y0112890D03*
X0162381Y0112890D03*
X0164349Y0112890D03*
X0166318Y0112890D03*
X0168286Y0112890D03*
X0170255Y0112890D03*
X0172223Y0112890D03*
X0172223Y0110921D03*
X0172223Y0108953D03*
X0172223Y0106984D03*
X0172223Y0105016D03*
X0172223Y0103047D03*
X0172223Y0101079D03*
X0172223Y0099110D03*
X0172223Y0097142D03*
X0170255Y0097142D03*
X0168286Y0097142D03*
X0166318Y0097142D03*
X0164349Y0097142D03*
X0162381Y0097142D03*
X0160412Y0097142D03*
X0158444Y0097142D03*
X0160412Y0101079D03*
X0160412Y0103047D03*
X0162381Y0103047D03*
X0162381Y0101079D03*
X0164349Y0101079D03*
X0166318Y0101079D03*
X0168286Y0101079D03*
X0168286Y0103047D03*
X0166318Y0103047D03*
X0168286Y0105016D03*
X0166318Y0106984D03*
X0166318Y0108953D03*
X0168286Y0108953D03*
X0164349Y0108953D03*
X0162381Y0108953D03*
X0162381Y0106984D03*
X0160412Y0106984D03*
X0160412Y0105016D03*
X0160412Y0108953D03*
D11*
X0119865Y0116024D03*
X0119865Y0093976D03*
D12*
X0134333Y0099094D03*
X0134333Y0103031D03*
X0134333Y0106969D03*
X0134333Y0110906D03*
D13*
X0149333Y0108346D03*
X0149333Y0101654D03*
X0150233Y0091046D03*
X0150233Y0084354D03*
X0181233Y0101654D03*
X0181233Y0108346D03*
X0173433Y0118654D03*
X0173433Y0125346D03*
X0190833Y0124254D03*
X0196933Y0124254D03*
X0196933Y0130946D03*
X0190833Y0130946D03*
D14*
X0167847Y0129500D03*
X0157020Y0129500D03*
D15*
X0162433Y0123496D03*
X0162433Y0135504D03*
D16*
X0164612Y0086700D03*
X0174455Y0086700D03*
D17*
X0174333Y0060000D03*
X0164333Y0060000D03*
X0154333Y0060000D03*
X0144333Y0060000D03*
X0134333Y0060000D03*
X0124333Y0060000D03*
X0184333Y0060000D03*
X0194333Y0060000D03*
X0174333Y0150000D03*
X0164333Y0150000D03*
X0154333Y0150000D03*
X0144333Y0150000D03*
D18*
X0187533Y0109428D03*
X0187533Y0100372D03*
D19*
X0211133Y0058400D03*
X0116933Y0152500D03*
D20*
X0117503Y0129378D02*
X0117503Y0126622D01*
X0117503Y0129378D02*
X0120259Y0129378D01*
X0120259Y0126622D01*
X0117503Y0126622D01*
X0117503Y0127744D02*
X0120259Y0127744D01*
X0120259Y0128866D02*
X0117503Y0128866D01*
X0124408Y0129378D02*
X0124408Y0126622D01*
X0124408Y0129378D02*
X0127164Y0129378D01*
X0127164Y0126622D01*
X0124408Y0126622D01*
X0124408Y0127744D02*
X0127164Y0127744D01*
X0127164Y0128866D02*
X0124408Y0128866D01*
D21*
X0125680Y0123000D03*
X0118987Y0123000D03*
X0180987Y0116000D03*
X0187680Y0116000D03*
D22*
X0167417Y0118800D03*
X0162850Y0118800D03*
D23*
X0200971Y0108783D03*
D24*
X0192782Y0100398D02*
X0202231Y0090949D01*
X0192782Y0090949D01*
X0192782Y0100398D01*
X0192782Y0100324D02*
X0192856Y0100324D01*
X0192782Y0100129D02*
X0193051Y0100129D01*
X0193247Y0099933D02*
X0192782Y0099933D01*
X0192782Y0099738D02*
X0193442Y0099738D01*
X0193637Y0099542D02*
X0192782Y0099542D01*
X0192782Y0099347D02*
X0193833Y0099347D01*
X0194028Y0099152D02*
X0192782Y0099152D01*
X0192782Y0098956D02*
X0194223Y0098956D01*
X0194419Y0098761D02*
X0192782Y0098761D01*
X0192782Y0098566D02*
X0194614Y0098566D01*
X0194809Y0098370D02*
X0192782Y0098370D01*
X0192782Y0098175D02*
X0195005Y0098175D01*
X0195200Y0097980D02*
X0192782Y0097980D01*
X0192782Y0097784D02*
X0195396Y0097784D01*
X0195591Y0097589D02*
X0192782Y0097589D01*
X0192782Y0097393D02*
X0195786Y0097393D01*
X0195982Y0097198D02*
X0192782Y0097198D01*
X0192782Y0097003D02*
X0196177Y0097003D01*
X0196372Y0096807D02*
X0192782Y0096807D01*
X0192782Y0096612D02*
X0196568Y0096612D01*
X0196763Y0096417D02*
X0192782Y0096417D01*
X0192782Y0096221D02*
X0196958Y0096221D01*
X0197154Y0096026D02*
X0192782Y0096026D01*
X0192782Y0095831D02*
X0197349Y0095831D01*
X0197545Y0095635D02*
X0192782Y0095635D01*
X0192782Y0095440D02*
X0197740Y0095440D01*
X0197935Y0095245D02*
X0192782Y0095245D01*
X0192782Y0095049D02*
X0198131Y0095049D01*
X0198326Y0094854D02*
X0192782Y0094854D01*
X0192782Y0094658D02*
X0198521Y0094658D01*
X0198717Y0094463D02*
X0192782Y0094463D01*
X0192782Y0094268D02*
X0198912Y0094268D01*
X0199107Y0094072D02*
X0192782Y0094072D01*
X0192782Y0093877D02*
X0199303Y0093877D01*
X0199498Y0093682D02*
X0192782Y0093682D01*
X0192782Y0093486D02*
X0199694Y0093486D01*
X0199889Y0093291D02*
X0192782Y0093291D01*
X0192782Y0093096D02*
X0200084Y0093096D01*
X0200280Y0092900D02*
X0192782Y0092900D01*
X0192782Y0092705D02*
X0200475Y0092705D01*
X0200670Y0092509D02*
X0192782Y0092509D01*
X0192782Y0092314D02*
X0200866Y0092314D01*
X0201061Y0092119D02*
X0192782Y0092119D01*
X0192782Y0091923D02*
X0201256Y0091923D01*
X0201452Y0091728D02*
X0192782Y0091728D01*
X0192782Y0091533D02*
X0201647Y0091533D01*
X0201843Y0091337D02*
X0192782Y0091337D01*
X0192782Y0091142D02*
X0202038Y0091142D01*
D25*
X0195373Y0093500D03*
D26*
X0141833Y0091118D03*
X0141833Y0084031D03*
D27*
X0115933Y0090514D02*
X0115933Y0056600D01*
X0120945Y0056600D01*
X0120264Y0057281D01*
X0119533Y0059045D01*
X0119533Y0060955D01*
X0120264Y0062719D01*
X0121614Y0064069D01*
X0123379Y0064800D01*
X0125288Y0064800D01*
X0127052Y0064069D01*
X0128403Y0062719D01*
X0129133Y0060955D01*
X0129133Y0059045D01*
X0128403Y0057281D01*
X0127722Y0056600D01*
X0130945Y0056600D01*
X0130264Y0057281D01*
X0129533Y0059045D01*
X0129533Y0060955D01*
X0130264Y0062719D01*
X0131614Y0064069D01*
X0133379Y0064800D01*
X0135288Y0064800D01*
X0137052Y0064069D01*
X0138403Y0062719D01*
X0139133Y0060955D01*
X0139133Y0059045D01*
X0138403Y0057281D01*
X0137722Y0056600D01*
X0140945Y0056600D01*
X0140264Y0057281D01*
X0139533Y0059045D01*
X0139533Y0060955D01*
X0140264Y0062719D01*
X0141614Y0064069D01*
X0143379Y0064800D01*
X0145288Y0064800D01*
X0147052Y0064069D01*
X0148403Y0062719D01*
X0149133Y0060955D01*
X0149133Y0059045D01*
X0148403Y0057281D01*
X0147722Y0056600D01*
X0150945Y0056600D01*
X0150264Y0057281D01*
X0149533Y0059045D01*
X0149533Y0060955D01*
X0150264Y0062719D01*
X0151614Y0064069D01*
X0152233Y0064326D01*
X0152233Y0080688D01*
X0150718Y0080688D01*
X0150718Y0083869D01*
X0149749Y0083869D01*
X0149749Y0080688D01*
X0148067Y0080688D01*
X0147686Y0080790D01*
X0147344Y0080988D01*
X0147065Y0081267D01*
X0146867Y0081609D01*
X0146765Y0081991D01*
X0146765Y0083869D01*
X0149749Y0083869D01*
X0149749Y0084838D01*
X0146765Y0084838D01*
X0146765Y0085069D01*
X0146477Y0084781D01*
X0146477Y0082001D01*
X0145832Y0081357D01*
X0137834Y0081357D01*
X0137190Y0082001D01*
X0137190Y0086062D01*
X0137834Y0086706D01*
X0143877Y0086706D01*
X0145133Y0087963D01*
X0145133Y0088443D01*
X0137834Y0088443D01*
X0137190Y0089088D01*
X0137190Y0093149D01*
X0137834Y0093793D01*
X0140233Y0093793D01*
X0140233Y0094816D01*
X0141171Y0095754D01*
X0146265Y0100848D01*
X0146265Y0104275D01*
X0146778Y0104788D01*
X0146444Y0104981D01*
X0146165Y0105260D01*
X0145967Y0105602D01*
X0145865Y0105984D01*
X0145865Y0107862D01*
X0148849Y0107862D01*
X0148849Y0108831D01*
X0145865Y0108831D01*
X0145865Y0110200D01*
X0145633Y0110200D01*
X0145633Y0101679D01*
X0143228Y0099273D01*
X0143228Y0098142D01*
X0141880Y0096794D01*
X0139975Y0096794D01*
X0139175Y0097594D01*
X0138091Y0097594D01*
X0138091Y0097458D01*
X0137446Y0096813D01*
X0131220Y0096813D01*
X0130576Y0097458D01*
X0130576Y0100731D01*
X0130908Y0101063D01*
X0130576Y0101395D01*
X0130576Y0104668D01*
X0130908Y0105000D01*
X0130576Y0105332D01*
X0130576Y0106363D01*
X0128671Y0108269D01*
X0127733Y0109206D01*
X0127733Y0119931D01*
X0123059Y0119931D01*
X0122414Y0120576D01*
X0122414Y0125424D01*
X0122815Y0125825D01*
X0122718Y0125922D01*
X0122718Y0130078D01*
X0123708Y0131068D01*
X0127864Y0131068D01*
X0128357Y0130576D01*
X0129481Y0131700D01*
X0131386Y0131700D01*
X0132733Y0130353D01*
X0132733Y0130263D01*
X0148771Y0146300D01*
X0151245Y0146300D01*
X0150264Y0147281D01*
X0149533Y0149045D01*
X0149533Y0150955D01*
X0150264Y0152719D01*
X0150945Y0153400D01*
X0147722Y0153400D01*
X0148403Y0152719D01*
X0149133Y0150955D01*
X0149133Y0149045D01*
X0148403Y0147281D01*
X0147052Y0145931D01*
X0145288Y0145200D01*
X0143379Y0145200D01*
X0141614Y0145931D01*
X0140264Y0147281D01*
X0139533Y0149045D01*
X0139533Y0150955D01*
X0140264Y0152719D01*
X0140945Y0153400D01*
X0127049Y0153400D01*
X0129318Y0152460D01*
X0129318Y0152460D01*
X0131794Y0149985D01*
X0131794Y0149985D01*
X0133133Y0146750D01*
X0133133Y0143250D01*
X0131794Y0140015D01*
X0131794Y0140015D01*
X0129318Y0137540D01*
X0129318Y0137540D01*
X0126084Y0136200D01*
X0122583Y0136200D01*
X0119349Y0137540D01*
X0119349Y0137540D01*
X0116873Y0140015D01*
X0116873Y0140015D01*
X0115933Y0142284D01*
X0115933Y0130199D01*
X0116802Y0131068D01*
X0120959Y0131068D01*
X0121949Y0130078D01*
X0121949Y0125922D01*
X0121852Y0125825D01*
X0122252Y0125424D01*
X0122252Y0120576D01*
X0121608Y0119931D01*
X0116366Y0119931D01*
X0115933Y0120364D01*
X0115933Y0119486D01*
X0124257Y0119486D01*
X0124902Y0118841D01*
X0124902Y0113206D01*
X0124257Y0112561D01*
X0115933Y0112561D01*
X0115933Y0097439D01*
X0124257Y0097439D01*
X0124902Y0096794D01*
X0124902Y0091159D01*
X0124257Y0090514D01*
X0115933Y0090514D01*
X0115933Y0089948D02*
X0137190Y0089948D01*
X0137190Y0090946D02*
X0124690Y0090946D01*
X0124902Y0091945D02*
X0137190Y0091945D01*
X0137190Y0092943D02*
X0124902Y0092943D01*
X0124902Y0093942D02*
X0140233Y0093942D01*
X0140358Y0094940D02*
X0124902Y0094940D01*
X0124902Y0095939D02*
X0141356Y0095939D01*
X0142023Y0096937D02*
X0142355Y0096937D01*
X0143022Y0097936D02*
X0143353Y0097936D01*
X0143228Y0098934D02*
X0144352Y0098934D01*
X0143888Y0099933D02*
X0145350Y0099933D01*
X0144886Y0100932D02*
X0146265Y0100932D01*
X0146265Y0101930D02*
X0145633Y0101930D01*
X0145633Y0102929D02*
X0146265Y0102929D01*
X0146265Y0103927D02*
X0145633Y0103927D01*
X0145633Y0104926D02*
X0146539Y0104926D01*
X0145881Y0105924D02*
X0145633Y0105924D01*
X0145633Y0106923D02*
X0145865Y0106923D01*
X0145633Y0107921D02*
X0148849Y0107921D01*
X0149818Y0107921D02*
X0154770Y0107921D01*
X0154881Y0107730D02*
X0154925Y0107686D01*
X0154883Y0107644D01*
X0154883Y0106325D01*
X0154925Y0106283D01*
X0154881Y0106239D01*
X0154619Y0105785D01*
X0154483Y0105278D01*
X0154483Y0105016D01*
X0156475Y0105016D01*
X0156475Y0105016D01*
X0160061Y0105016D01*
X0160062Y0105016D01*
X0158420Y0105016D01*
X0156475Y0105016D01*
X0156475Y0105016D01*
X0154483Y0105016D01*
X0154483Y0104753D01*
X0154619Y0104247D01*
X0154881Y0103793D01*
X0154925Y0103749D01*
X0154883Y0103707D01*
X0154883Y0102579D01*
X0152402Y0102579D01*
X0152402Y0104275D01*
X0151889Y0104788D01*
X0152223Y0104981D01*
X0152502Y0105260D01*
X0152700Y0105602D01*
X0152802Y0105984D01*
X0152802Y0107862D01*
X0149818Y0107862D01*
X0149818Y0108831D01*
X0152802Y0108831D01*
X0152802Y0110200D01*
X0154512Y0110200D01*
X0154755Y0109957D01*
X0154619Y0109722D01*
X0154483Y0109215D01*
X0154483Y0108953D01*
X0156475Y0108953D01*
X0156475Y0108953D01*
X0157411Y0108953D01*
X0156475Y0108953D01*
X0156475Y0108953D01*
X0154483Y0108953D01*
X0154483Y0108690D01*
X0154619Y0108184D01*
X0154881Y0107730D01*
X0154883Y0106923D02*
X0152802Y0106923D01*
X0152786Y0105924D02*
X0154699Y0105924D01*
X0154483Y0104926D02*
X0152127Y0104926D01*
X0152402Y0103927D02*
X0154803Y0103927D01*
X0154883Y0102929D02*
X0152402Y0102929D01*
X0149333Y0101654D02*
X0141833Y0094154D01*
X0141833Y0093000D01*
X0141833Y0091118D01*
X0145121Y0087951D02*
X0115933Y0087951D01*
X0115933Y0088949D02*
X0137328Y0088949D01*
X0137190Y0085954D02*
X0115933Y0085954D01*
X0115933Y0086952D02*
X0144123Y0086952D01*
X0146733Y0087300D02*
X0143465Y0084031D01*
X0141833Y0084031D01*
X0137190Y0083957D02*
X0115933Y0083957D01*
X0115933Y0084955D02*
X0137190Y0084955D01*
X0137190Y0082958D02*
X0115933Y0082958D01*
X0115933Y0081960D02*
X0137231Y0081960D01*
X0146435Y0081960D02*
X0146773Y0081960D01*
X0146765Y0082958D02*
X0146477Y0082958D01*
X0146477Y0083957D02*
X0149749Y0083957D01*
X0149749Y0082958D02*
X0150718Y0082958D01*
X0150718Y0081960D02*
X0149749Y0081960D01*
X0149749Y0080961D02*
X0150718Y0080961D01*
X0152233Y0079963D02*
X0115933Y0079963D01*
X0115933Y0080961D02*
X0147390Y0080961D01*
X0152233Y0078964D02*
X0115933Y0078964D01*
X0115933Y0077966D02*
X0152233Y0077966D01*
X0152233Y0076967D02*
X0115933Y0076967D01*
X0115933Y0075969D02*
X0152233Y0075969D01*
X0152233Y0074970D02*
X0115933Y0074970D01*
X0115933Y0073972D02*
X0152233Y0073972D01*
X0152233Y0072973D02*
X0115933Y0072973D01*
X0115933Y0071975D02*
X0152233Y0071975D01*
X0152233Y0070976D02*
X0115933Y0070976D01*
X0115933Y0069978D02*
X0152233Y0069978D01*
X0152233Y0068979D02*
X0115933Y0068979D01*
X0115933Y0067981D02*
X0152233Y0067981D01*
X0152233Y0066982D02*
X0115933Y0066982D01*
X0115933Y0065984D02*
X0152233Y0065984D01*
X0152233Y0064985D02*
X0115933Y0064985D01*
X0115933Y0063987D02*
X0121532Y0063987D01*
X0120533Y0062988D02*
X0115933Y0062988D01*
X0115933Y0061990D02*
X0119962Y0061990D01*
X0119548Y0060991D02*
X0115933Y0060991D01*
X0115933Y0059993D02*
X0119533Y0059993D01*
X0119555Y0058994D02*
X0115933Y0058994D01*
X0115933Y0057996D02*
X0119968Y0057996D01*
X0120548Y0056997D02*
X0115933Y0056997D01*
X0128119Y0056997D02*
X0130548Y0056997D01*
X0129968Y0057996D02*
X0128699Y0057996D01*
X0129112Y0058994D02*
X0129555Y0058994D01*
X0129533Y0059993D02*
X0129133Y0059993D01*
X0129118Y0060991D02*
X0129548Y0060991D01*
X0129962Y0061990D02*
X0128705Y0061990D01*
X0128133Y0062988D02*
X0130533Y0062988D01*
X0131532Y0063987D02*
X0127135Y0063987D01*
X0137135Y0063987D02*
X0141532Y0063987D01*
X0140533Y0062988D02*
X0138133Y0062988D01*
X0138705Y0061990D02*
X0139962Y0061990D01*
X0139548Y0060991D02*
X0139118Y0060991D01*
X0139133Y0059993D02*
X0139533Y0059993D01*
X0139555Y0058994D02*
X0139112Y0058994D01*
X0138699Y0057996D02*
X0139968Y0057996D01*
X0140548Y0056997D02*
X0138119Y0056997D01*
X0148119Y0056997D02*
X0150548Y0056997D01*
X0149968Y0057996D02*
X0148699Y0057996D01*
X0149112Y0058994D02*
X0149555Y0058994D01*
X0149533Y0059993D02*
X0149133Y0059993D01*
X0149118Y0060991D02*
X0149548Y0060991D01*
X0149962Y0061990D02*
X0148705Y0061990D01*
X0148133Y0062988D02*
X0150533Y0062988D01*
X0151532Y0063987D02*
X0147135Y0063987D01*
X0153833Y0060500D02*
X0154333Y0060000D01*
X0153833Y0060500D02*
X0153833Y0091000D01*
X0150280Y0091000D01*
X0150233Y0091046D01*
X0153833Y0091000D02*
X0153833Y0094600D01*
X0154083Y0094850D01*
X0156375Y0097142D01*
X0156475Y0097142D01*
X0158444Y0097142D01*
X0158075Y0098742D02*
X0158075Y0099773D01*
X0157748Y0100100D01*
X0158067Y0100419D01*
X0158067Y0101738D01*
X0157742Y0102063D01*
X0158067Y0102388D01*
X0158067Y0103707D01*
X0158025Y0103749D01*
X0158069Y0103793D01*
X0158331Y0104247D01*
X0158444Y0104665D01*
X0158556Y0104247D01*
X0158818Y0103793D01*
X0158862Y0103749D01*
X0158820Y0103707D01*
X0158820Y0102388D01*
X0158862Y0102346D01*
X0158818Y0102302D01*
X0158556Y0101848D01*
X0158420Y0101341D01*
X0158420Y0101079D01*
X0160412Y0101079D01*
X0160412Y0101079D01*
X0158420Y0101079D01*
X0158420Y0100816D01*
X0158556Y0100310D01*
X0158818Y0099856D01*
X0159189Y0099485D01*
X0159333Y0099401D01*
X0159333Y0098819D01*
X0159189Y0098736D01*
X0159151Y0098697D01*
X0159106Y0098742D01*
X0158075Y0098742D01*
X0158075Y0098934D02*
X0159333Y0098934D01*
X0158773Y0099933D02*
X0157915Y0099933D01*
X0158067Y0100932D02*
X0158420Y0100932D01*
X0158603Y0101930D02*
X0157875Y0101930D01*
X0158067Y0102929D02*
X0158820Y0102929D01*
X0158740Y0103927D02*
X0158147Y0103927D01*
X0158444Y0105366D02*
X0158331Y0105785D01*
X0158069Y0106239D01*
X0158025Y0106283D01*
X0158067Y0106325D01*
X0158067Y0107644D01*
X0158025Y0107686D01*
X0158069Y0107730D01*
X0158331Y0108184D01*
X0158389Y0108400D01*
X0158820Y0108400D01*
X0158820Y0108293D01*
X0158862Y0108251D01*
X0158818Y0108207D01*
X0158556Y0107753D01*
X0158420Y0107247D01*
X0158420Y0106984D01*
X0158420Y0106722D01*
X0158556Y0106215D01*
X0158680Y0106000D01*
X0158556Y0105785D01*
X0158444Y0105366D01*
X0158251Y0105924D02*
X0158636Y0105924D01*
X0158420Y0106923D02*
X0158067Y0106923D01*
X0158420Y0106984D02*
X0160061Y0106984D01*
X0160062Y0106984D01*
X0158420Y0106984D01*
X0158653Y0107921D02*
X0158180Y0107921D01*
X0157411Y0108953D02*
X0157411Y0108953D01*
X0154732Y0109918D02*
X0152802Y0109918D01*
X0152802Y0108920D02*
X0154483Y0108920D01*
X0154496Y0113200D02*
X0145633Y0113200D01*
X0145633Y0128679D01*
X0154155Y0137200D01*
X0159365Y0137200D01*
X0159365Y0135175D01*
X0159272Y0135228D01*
X0158891Y0135331D01*
X0157357Y0135331D01*
X0157357Y0129837D01*
X0156683Y0129837D01*
X0156683Y0135331D01*
X0155149Y0135331D01*
X0154768Y0135228D01*
X0154426Y0135031D01*
X0154146Y0134752D01*
X0153949Y0134410D01*
X0153847Y0134028D01*
X0153847Y0129837D01*
X0156683Y0129837D01*
X0156683Y0129163D01*
X0157357Y0129163D01*
X0157357Y0129837D01*
X0160193Y0129837D01*
X0160193Y0132337D01*
X0164673Y0132337D01*
X0164673Y0129837D01*
X0167510Y0129837D01*
X0167510Y0135331D01*
X0165976Y0135331D01*
X0165595Y0135228D01*
X0165502Y0135175D01*
X0165502Y0137600D01*
X0187212Y0137600D01*
X0189333Y0135479D01*
X0189333Y0134212D01*
X0188409Y0134212D01*
X0187765Y0133567D01*
X0187765Y0128325D01*
X0188409Y0127681D01*
X0193257Y0127681D01*
X0193883Y0128307D01*
X0194509Y0127681D01*
X0199357Y0127681D01*
X0200002Y0128325D01*
X0200002Y0133567D01*
X0199357Y0134212D01*
X0198833Y0134212D01*
X0198833Y0135621D01*
X0191955Y0142500D01*
X0187633Y0142500D01*
X0187633Y0144353D01*
X0186286Y0145700D01*
X0185296Y0145700D01*
X0184696Y0146300D01*
X0177422Y0146300D01*
X0178403Y0147281D01*
X0179133Y0149045D01*
X0179133Y0150955D01*
X0178403Y0152719D01*
X0177722Y0153400D01*
X0201617Y0153400D01*
X0199349Y0152460D01*
X0199349Y0152460D01*
X0196873Y0149985D01*
X0196873Y0149985D01*
X0196873Y0149985D01*
X0195533Y0146750D01*
X0195533Y0143250D01*
X0196873Y0140015D01*
X0199349Y0137540D01*
X0202583Y0136200D01*
X0206084Y0136200D01*
X0209318Y0137540D01*
X0209318Y0137540D01*
X0211794Y0140015D01*
X0211794Y0140015D01*
X0212733Y0142284D01*
X0212733Y0060123D01*
X0212107Y0060750D01*
X0210160Y0060750D01*
X0208783Y0059373D01*
X0208783Y0057427D01*
X0209610Y0056600D01*
X0197722Y0056600D01*
X0198403Y0057281D01*
X0199133Y0059045D01*
X0199133Y0060955D01*
X0198403Y0062719D01*
X0197052Y0064069D01*
X0195288Y0064800D01*
X0193655Y0064800D01*
X0179833Y0078621D01*
X0178955Y0079500D01*
X0161955Y0079500D01*
X0159833Y0081621D01*
X0159833Y0085921D01*
X0158955Y0086800D01*
X0158433Y0087321D01*
X0158433Y0088311D01*
X0157145Y0089600D01*
X0155433Y0089600D01*
X0155433Y0092947D01*
X0156383Y0093897D01*
X0156383Y0094887D01*
X0157038Y0095542D01*
X0159106Y0095542D01*
X0159151Y0095586D01*
X0159189Y0095548D01*
X0159643Y0095285D01*
X0160150Y0095150D01*
X0160412Y0095150D01*
X0160412Y0097142D01*
X0160412Y0097142D01*
X0160412Y0095150D01*
X0160674Y0095150D01*
X0160881Y0095205D01*
X0160881Y0094269D01*
X0160112Y0093500D01*
X0159233Y0092621D01*
X0159233Y0092353D01*
X0158433Y0091553D01*
X0158433Y0089647D01*
X0159781Y0088300D01*
X0160883Y0088300D01*
X0160883Y0082241D01*
X0161674Y0081450D01*
X0177393Y0081450D01*
X0178183Y0082241D01*
X0178183Y0091159D01*
X0177393Y0091950D01*
X0172283Y0091950D01*
X0172283Y0095150D01*
X0172485Y0095150D01*
X0172992Y0095285D01*
X0173446Y0095548D01*
X0173817Y0095919D01*
X0174079Y0096373D01*
X0174215Y0096879D01*
X0174215Y0097142D01*
X0174215Y0097404D01*
X0174133Y0097710D01*
X0176553Y0097710D01*
X0177543Y0098700D01*
X0178497Y0098700D01*
X0178809Y0098388D01*
X0179633Y0098388D01*
X0179633Y0092837D01*
X0182133Y0090337D01*
X0183071Y0089400D01*
X0193535Y0089400D01*
X0193886Y0089750D01*
X0202727Y0089750D01*
X0203429Y0090452D01*
X0203429Y0091445D01*
X0193279Y0101596D01*
X0192286Y0101596D01*
X0191584Y0100894D01*
X0191584Y0092600D01*
X0185286Y0092600D01*
X0186133Y0093447D01*
X0186133Y0094437D01*
X0188196Y0096500D01*
X0188196Y0096500D01*
X0189133Y0097437D01*
X0189133Y0098032D01*
X0189623Y0098032D01*
X0190267Y0098677D01*
X0190267Y0102068D01*
X0189623Y0102713D01*
X0185444Y0102713D01*
X0184799Y0102068D01*
X0184799Y0098677D01*
X0185323Y0098153D01*
X0183871Y0096700D01*
X0182881Y0096700D01*
X0182833Y0096653D01*
X0182833Y0098388D01*
X0183657Y0098388D01*
X0184302Y0099033D01*
X0184302Y0104275D01*
X0183657Y0104919D01*
X0178809Y0104919D01*
X0178165Y0104275D01*
X0178165Y0101900D01*
X0176217Y0101900D01*
X0175280Y0100963D01*
X0175227Y0100910D01*
X0173815Y0100910D01*
X0173815Y0101738D01*
X0173490Y0102063D01*
X0173815Y0102388D01*
X0173815Y0103707D01*
X0173490Y0104031D01*
X0173815Y0104356D01*
X0173815Y0105675D01*
X0173773Y0105717D01*
X0173817Y0105761D01*
X0174079Y0106215D01*
X0174215Y0106722D01*
X0174215Y0106984D01*
X0172573Y0106984D01*
X0172574Y0106984D01*
X0174215Y0106984D01*
X0174215Y0107247D01*
X0174079Y0107753D01*
X0173955Y0107969D01*
X0174079Y0108184D01*
X0174215Y0108690D01*
X0174215Y0108953D01*
X0174215Y0109215D01*
X0174079Y0109722D01*
X0173955Y0109937D01*
X0174079Y0110152D01*
X0174215Y0110659D01*
X0174215Y0110921D01*
X0172574Y0110921D01*
X0172573Y0110921D01*
X0172574Y0110921D01*
X0174215Y0110921D01*
X0174215Y0111184D01*
X0174079Y0111690D01*
X0173955Y0111906D01*
X0174079Y0112121D01*
X0174215Y0112627D01*
X0174215Y0112890D01*
X0174215Y0113152D01*
X0174079Y0113659D01*
X0173817Y0114113D01*
X0173446Y0114484D01*
X0172992Y0114746D01*
X0172485Y0114882D01*
X0172223Y0114882D01*
X0171961Y0114882D01*
X0171454Y0114746D01*
X0171239Y0114622D01*
X0171024Y0114746D01*
X0170517Y0114882D01*
X0170255Y0114882D01*
X0170255Y0113240D01*
X0170255Y0113240D01*
X0170255Y0113240D01*
X0170255Y0114882D01*
X0169992Y0114882D01*
X0169486Y0114746D01*
X0169270Y0114622D01*
X0169055Y0114746D01*
X0168548Y0114882D01*
X0168286Y0114882D01*
X0168024Y0114882D01*
X0167517Y0114746D01*
X0167063Y0114484D01*
X0167019Y0114440D01*
X0166977Y0114482D01*
X0165658Y0114482D01*
X0165616Y0114440D01*
X0165572Y0114484D01*
X0165461Y0114548D01*
X0165833Y0114920D01*
X0165833Y0115928D01*
X0169546Y0115928D01*
X0170190Y0116573D01*
X0170190Y0116800D01*
X0170365Y0116800D01*
X0170365Y0116033D01*
X0171009Y0115388D01*
X0173317Y0115388D01*
X0174705Y0114000D01*
X0177722Y0114000D01*
X0177722Y0113576D01*
X0178366Y0112931D01*
X0183608Y0112931D01*
X0184252Y0113576D01*
X0184252Y0117306D01*
X0184414Y0117144D01*
X0184414Y0113576D01*
X0185059Y0112931D01*
X0190301Y0112931D01*
X0190945Y0113576D01*
X0190945Y0118159D01*
X0191833Y0119047D01*
X0191833Y0120179D01*
X0192333Y0120679D01*
X0192333Y0120988D01*
X0193257Y0120988D01*
X0193883Y0121614D01*
X0194289Y0121208D01*
X0193933Y0120853D01*
X0193933Y0118947D01*
X0195281Y0117600D01*
X0197186Y0117600D01*
X0198533Y0118947D01*
X0198533Y0120853D01*
X0198433Y0120953D01*
X0198433Y0120988D01*
X0199357Y0120988D01*
X0200002Y0121633D01*
X0200002Y0126875D01*
X0199357Y0127519D01*
X0194509Y0127519D01*
X0193883Y0126893D01*
X0193257Y0127519D01*
X0188409Y0127519D01*
X0187765Y0126875D01*
X0187765Y0121633D01*
X0187839Y0121558D01*
X0187233Y0120953D01*
X0187233Y0119068D01*
X0186833Y0119068D01*
X0186833Y0130389D01*
X0187533Y0131089D01*
X0187533Y0132911D01*
X0186245Y0134200D01*
X0184422Y0134200D01*
X0183133Y0132911D01*
X0183133Y0131089D01*
X0183833Y0130389D01*
X0183833Y0118843D01*
X0183608Y0119068D01*
X0178366Y0119068D01*
X0177722Y0118424D01*
X0177722Y0118000D01*
X0176502Y0118000D01*
X0176502Y0121275D01*
X0175989Y0121788D01*
X0176323Y0121981D01*
X0176602Y0122260D01*
X0176800Y0122602D01*
X0176902Y0122984D01*
X0176902Y0124862D01*
X0173918Y0124862D01*
X0173918Y0125831D01*
X0176902Y0125831D01*
X0176902Y0127709D01*
X0176800Y0128091D01*
X0176602Y0128433D01*
X0176323Y0128712D01*
X0175981Y0128910D01*
X0175599Y0129012D01*
X0173918Y0129012D01*
X0173918Y0125831D01*
X0172949Y0125831D01*
X0172949Y0129012D01*
X0171267Y0129012D01*
X0171020Y0128945D01*
X0171020Y0129163D01*
X0168183Y0129163D01*
X0168183Y0123669D01*
X0169717Y0123669D01*
X0169965Y0123736D01*
X0169965Y0122984D01*
X0170067Y0122602D01*
X0170265Y0122260D01*
X0170544Y0121981D01*
X0170878Y0121788D01*
X0170365Y0121275D01*
X0170365Y0120800D01*
X0170190Y0120800D01*
X0170190Y0121027D01*
X0169546Y0121672D01*
X0165833Y0121672D01*
X0165833Y0123708D01*
X0165976Y0123669D01*
X0167510Y0123669D01*
X0167510Y0129163D01*
X0168183Y0129163D01*
X0168183Y0129837D01*
X0167510Y0129837D01*
X0167510Y0129163D01*
X0164673Y0129163D01*
X0164673Y0127200D01*
X0160193Y0127200D01*
X0160193Y0129163D01*
X0157357Y0129163D01*
X0157357Y0123669D01*
X0158891Y0123669D01*
X0158933Y0123681D01*
X0158933Y0114821D01*
X0157433Y0116321D01*
X0157433Y0117053D01*
X0156086Y0118400D01*
X0154181Y0118400D01*
X0152833Y0117053D01*
X0152833Y0115147D01*
X0154181Y0113800D01*
X0154700Y0113800D01*
X0154619Y0113659D01*
X0154496Y0113200D01*
X0154339Y0113500D02*
X0153639Y0114200D01*
X0152433Y0114200D01*
X0153070Y0114911D02*
X0145633Y0114911D01*
X0145633Y0115909D02*
X0152833Y0115909D01*
X0152833Y0116908D02*
X0145633Y0116908D01*
X0145633Y0117906D02*
X0153687Y0117906D01*
X0156580Y0117906D02*
X0158933Y0117906D01*
X0158933Y0116908D02*
X0157433Y0116908D01*
X0157845Y0115909D02*
X0158933Y0115909D01*
X0158933Y0114911D02*
X0158844Y0114911D01*
X0156475Y0112890D02*
X0155865Y0113500D01*
X0154339Y0113500D01*
X0154068Y0113912D02*
X0145633Y0113912D01*
X0140233Y0113912D02*
X0130933Y0113912D01*
X0131097Y0113484D02*
X0130933Y0113390D01*
X0130933Y0123937D01*
X0150096Y0143100D01*
X0159181Y0143100D01*
X0158581Y0142500D01*
X0154155Y0142500D01*
X0152912Y0142500D01*
X0140233Y0129821D01*
X0140233Y0109300D01*
X0138430Y0109300D01*
X0138491Y0109527D01*
X0138491Y0110815D01*
X0134424Y0110815D01*
X0134424Y0110996D01*
X0138491Y0110996D01*
X0138491Y0112284D01*
X0138389Y0112666D01*
X0138191Y0113008D01*
X0137912Y0113287D01*
X0137570Y0113484D01*
X0137188Y0113587D01*
X0134424Y0113587D01*
X0134424Y0110996D01*
X0134243Y0110996D01*
X0134243Y0113587D01*
X0131478Y0113587D01*
X0131097Y0113484D01*
X0130933Y0114911D02*
X0140233Y0114911D01*
X0140233Y0115909D02*
X0130933Y0115909D01*
X0130933Y0116908D02*
X0140233Y0116908D01*
X0140233Y0117906D02*
X0130933Y0117906D01*
X0130933Y0118905D02*
X0140233Y0118905D01*
X0140233Y0119903D02*
X0130933Y0119903D01*
X0130933Y0120902D02*
X0140233Y0120902D01*
X0140233Y0121900D02*
X0130933Y0121900D01*
X0130933Y0122899D02*
X0140233Y0122899D01*
X0140233Y0123897D02*
X0130933Y0123897D01*
X0131892Y0124896D02*
X0140233Y0124896D01*
X0140233Y0125894D02*
X0132890Y0125894D01*
X0133889Y0126893D02*
X0140233Y0126893D01*
X0140233Y0127891D02*
X0134887Y0127891D01*
X0135886Y0128890D02*
X0140233Y0128890D01*
X0140300Y0129888D02*
X0136884Y0129888D01*
X0137883Y0130887D02*
X0141299Y0130887D01*
X0142297Y0131885D02*
X0138881Y0131885D01*
X0139880Y0132884D02*
X0143296Y0132884D01*
X0144294Y0133882D02*
X0140878Y0133882D01*
X0141877Y0134881D02*
X0145293Y0134881D01*
X0146291Y0135879D02*
X0142875Y0135879D01*
X0143874Y0136878D02*
X0147290Y0136878D01*
X0148288Y0137876D02*
X0144873Y0137876D01*
X0145871Y0138875D02*
X0149287Y0138875D01*
X0150285Y0139873D02*
X0146870Y0139873D01*
X0147868Y0140872D02*
X0151284Y0140872D01*
X0152282Y0141870D02*
X0148867Y0141870D01*
X0149865Y0142869D02*
X0158950Y0142869D01*
X0150682Y0146863D02*
X0147985Y0146863D01*
X0148335Y0145865D02*
X0146892Y0145865D01*
X0147337Y0144866D02*
X0133133Y0144866D01*
X0133133Y0143868D02*
X0146338Y0143868D01*
X0145340Y0142869D02*
X0132976Y0142869D01*
X0132562Y0141870D02*
X0144341Y0141870D01*
X0143343Y0140872D02*
X0132148Y0140872D01*
X0131652Y0139873D02*
X0142344Y0139873D01*
X0141346Y0138875D02*
X0130653Y0138875D01*
X0129655Y0137876D02*
X0140347Y0137876D01*
X0139349Y0136878D02*
X0127720Y0136878D01*
X0120946Y0136878D02*
X0115933Y0136878D01*
X0115933Y0137876D02*
X0119012Y0137876D01*
X0118013Y0138875D02*
X0115933Y0138875D01*
X0115933Y0139873D02*
X0117015Y0139873D01*
X0116518Y0140872D02*
X0115933Y0140872D01*
X0115933Y0141870D02*
X0116105Y0141870D01*
X0115933Y0135879D02*
X0138350Y0135879D01*
X0137352Y0134881D02*
X0115933Y0134881D01*
X0115933Y0133882D02*
X0136353Y0133882D01*
X0135354Y0132884D02*
X0115933Y0132884D01*
X0115933Y0131885D02*
X0134356Y0131885D01*
X0133357Y0130887D02*
X0132199Y0130887D01*
X0130433Y0129400D02*
X0129033Y0128000D01*
X0125786Y0128000D01*
X0122718Y0127891D02*
X0121949Y0127891D01*
X0121949Y0126893D02*
X0122718Y0126893D01*
X0122745Y0125894D02*
X0121922Y0125894D01*
X0122252Y0124896D02*
X0122414Y0124896D01*
X0122414Y0123897D02*
X0122252Y0123897D01*
X0122252Y0122899D02*
X0122414Y0122899D01*
X0122414Y0121900D02*
X0122252Y0121900D01*
X0122252Y0120902D02*
X0122414Y0120902D01*
X0124839Y0118905D02*
X0127733Y0118905D01*
X0127733Y0119903D02*
X0115933Y0119903D01*
X0124902Y0117906D02*
X0127733Y0117906D01*
X0127733Y0116908D02*
X0124902Y0116908D01*
X0124902Y0115909D02*
X0127733Y0115909D01*
X0127733Y0114911D02*
X0124902Y0114911D01*
X0124902Y0113912D02*
X0127733Y0113912D01*
X0127733Y0112914D02*
X0124610Y0112914D01*
X0127733Y0111915D02*
X0115933Y0111915D01*
X0115933Y0110917D02*
X0127733Y0110917D01*
X0127733Y0109918D02*
X0115933Y0109918D01*
X0115933Y0108920D02*
X0128019Y0108920D01*
X0129018Y0107921D02*
X0115933Y0107921D01*
X0115933Y0106923D02*
X0130016Y0106923D01*
X0130576Y0105924D02*
X0115933Y0105924D01*
X0115933Y0104926D02*
X0130833Y0104926D01*
X0130576Y0103927D02*
X0115933Y0103927D01*
X0115933Y0102929D02*
X0130576Y0102929D01*
X0130576Y0101930D02*
X0115933Y0101930D01*
X0115933Y0100932D02*
X0130776Y0100932D01*
X0130576Y0099933D02*
X0115933Y0099933D01*
X0115933Y0098934D02*
X0130576Y0098934D01*
X0130576Y0097936D02*
X0115933Y0097936D01*
X0124759Y0096937D02*
X0131096Y0096937D01*
X0137571Y0096937D02*
X0139832Y0096937D01*
X0146733Y0094077D02*
X0147768Y0095112D01*
X0149245Y0095112D01*
X0153244Y0099110D01*
X0156475Y0099110D01*
X0160412Y0096937D02*
X0160412Y0096937D01*
X0160412Y0095939D02*
X0160412Y0095939D01*
X0160881Y0094940D02*
X0156437Y0094940D01*
X0156383Y0093942D02*
X0160554Y0093942D01*
X0159555Y0092943D02*
X0155433Y0092943D01*
X0155433Y0091945D02*
X0158826Y0091945D01*
X0158433Y0090946D02*
X0155433Y0090946D01*
X0155433Y0089948D02*
X0158433Y0089948D01*
X0157795Y0088949D02*
X0159131Y0088949D01*
X0158433Y0087951D02*
X0160883Y0087951D01*
X0160883Y0086952D02*
X0158802Y0086952D01*
X0159801Y0085954D02*
X0160883Y0085954D01*
X0160883Y0084955D02*
X0159833Y0084955D01*
X0159833Y0083957D02*
X0160883Y0083957D01*
X0160883Y0082958D02*
X0159833Y0082958D01*
X0159833Y0081960D02*
X0161164Y0081960D01*
X0160493Y0080961D02*
X0212733Y0080961D01*
X0212733Y0079963D02*
X0161492Y0079963D01*
X0157056Y0077966D02*
X0155433Y0077966D01*
X0155433Y0078964D02*
X0156058Y0078964D01*
X0155512Y0079510D02*
X0160522Y0074500D01*
X0177512Y0074500D01*
X0182833Y0069179D01*
X0182833Y0064574D01*
X0181614Y0064069D01*
X0180264Y0062719D01*
X0179533Y0060955D01*
X0179533Y0059045D01*
X0180264Y0057281D01*
X0180945Y0056600D01*
X0178287Y0056600D01*
X0178300Y0056612D01*
X0178781Y0057275D01*
X0179152Y0058004D01*
X0179405Y0058782D01*
X0179519Y0059500D01*
X0174833Y0059500D01*
X0174833Y0060500D01*
X0173833Y0060500D01*
X0173833Y0059500D01*
X0169148Y0059500D01*
X0169261Y0058782D01*
X0169514Y0058004D01*
X0169886Y0057275D01*
X0170367Y0056612D01*
X0170379Y0056600D01*
X0167722Y0056600D01*
X0168403Y0057281D01*
X0169133Y0059045D01*
X0169133Y0060955D01*
X0168403Y0062719D01*
X0167052Y0064069D01*
X0165288Y0064800D01*
X0163379Y0064800D01*
X0161614Y0064069D01*
X0160264Y0062719D01*
X0159533Y0060955D01*
X0159533Y0059045D01*
X0160264Y0057281D01*
X0160945Y0056600D01*
X0157722Y0056600D01*
X0158403Y0057281D01*
X0159133Y0059045D01*
X0159133Y0060955D01*
X0158403Y0062719D01*
X0157052Y0064069D01*
X0155433Y0064740D01*
X0155433Y0079589D01*
X0155512Y0079510D01*
X0155433Y0076967D02*
X0158055Y0076967D01*
X0159053Y0075969D02*
X0155433Y0075969D01*
X0155433Y0074970D02*
X0160052Y0074970D01*
X0155433Y0073972D02*
X0178040Y0073972D01*
X0179039Y0072973D02*
X0155433Y0072973D01*
X0155433Y0071975D02*
X0180037Y0071975D01*
X0181036Y0070976D02*
X0155433Y0070976D01*
X0155433Y0069978D02*
X0182034Y0069978D01*
X0182833Y0068979D02*
X0155433Y0068979D01*
X0155433Y0067981D02*
X0182833Y0067981D01*
X0182833Y0066982D02*
X0155433Y0066982D01*
X0155433Y0065984D02*
X0182833Y0065984D01*
X0182833Y0064985D02*
X0175818Y0064985D01*
X0175551Y0065072D02*
X0174833Y0065186D01*
X0174833Y0060500D01*
X0179519Y0060500D01*
X0179405Y0061218D01*
X0179152Y0061996D01*
X0178781Y0062725D01*
X0178300Y0063388D01*
X0177721Y0063966D01*
X0177059Y0064447D01*
X0176329Y0064819D01*
X0175551Y0065072D01*
X0174833Y0064985D02*
X0173833Y0064985D01*
X0173833Y0065186D02*
X0173116Y0065072D01*
X0172337Y0064819D01*
X0171608Y0064447D01*
X0170946Y0063966D01*
X0170367Y0063388D01*
X0169886Y0062725D01*
X0169514Y0061996D01*
X0169261Y0061218D01*
X0169148Y0060500D01*
X0173833Y0060500D01*
X0173833Y0065186D01*
X0172848Y0064985D02*
X0155433Y0064985D01*
X0157135Y0063987D02*
X0161532Y0063987D01*
X0160533Y0062988D02*
X0158133Y0062988D01*
X0158705Y0061990D02*
X0159962Y0061990D01*
X0159548Y0060991D02*
X0159118Y0060991D01*
X0159133Y0059993D02*
X0159533Y0059993D01*
X0159555Y0058994D02*
X0159112Y0058994D01*
X0158699Y0057996D02*
X0159968Y0057996D01*
X0160548Y0056997D02*
X0158119Y0056997D01*
X0168119Y0056997D02*
X0170088Y0056997D01*
X0169519Y0057996D02*
X0168699Y0057996D01*
X0169112Y0058994D02*
X0169228Y0058994D01*
X0169133Y0059993D02*
X0173833Y0059993D01*
X0173833Y0060991D02*
X0174833Y0060991D01*
X0174833Y0059993D02*
X0179533Y0059993D01*
X0179548Y0060991D02*
X0179441Y0060991D01*
X0179154Y0061990D02*
X0179962Y0061990D01*
X0180533Y0062988D02*
X0178590Y0062988D01*
X0177693Y0063987D02*
X0181532Y0063987D01*
X0179555Y0058994D02*
X0179439Y0058994D01*
X0179148Y0057996D02*
X0179968Y0057996D01*
X0180548Y0056997D02*
X0178579Y0056997D01*
X0174833Y0061990D02*
X0173833Y0061990D01*
X0173833Y0062988D02*
X0174833Y0062988D01*
X0174833Y0063987D02*
X0173833Y0063987D01*
X0170974Y0063987D02*
X0167135Y0063987D01*
X0168133Y0062988D02*
X0170077Y0062988D01*
X0169512Y0061990D02*
X0168705Y0061990D01*
X0169118Y0060991D02*
X0169225Y0060991D01*
X0186480Y0071975D02*
X0212733Y0071975D01*
X0212733Y0072973D02*
X0185481Y0072973D01*
X0184483Y0073972D02*
X0212733Y0073972D01*
X0212733Y0074970D02*
X0183484Y0074970D01*
X0182486Y0075969D02*
X0212733Y0075969D01*
X0212733Y0076967D02*
X0181487Y0076967D01*
X0180489Y0077966D02*
X0212733Y0077966D01*
X0212733Y0078964D02*
X0179490Y0078964D01*
X0179833Y0078621D02*
X0179833Y0078621D01*
X0177902Y0081960D02*
X0212733Y0081960D01*
X0212733Y0082958D02*
X0178183Y0082958D01*
X0178183Y0083957D02*
X0212733Y0083957D01*
X0212733Y0084955D02*
X0178183Y0084955D01*
X0178183Y0085954D02*
X0212733Y0085954D01*
X0212733Y0086952D02*
X0178183Y0086952D01*
X0178183Y0087951D02*
X0212733Y0087951D01*
X0212733Y0088949D02*
X0178183Y0088949D01*
X0178183Y0089948D02*
X0182523Y0089948D01*
X0181524Y0090946D02*
X0178183Y0090946D01*
X0177398Y0091945D02*
X0180526Y0091945D01*
X0179633Y0092943D02*
X0172283Y0092943D01*
X0172283Y0093942D02*
X0179633Y0093942D01*
X0179633Y0094940D02*
X0172283Y0094940D01*
X0173829Y0095939D02*
X0179633Y0095939D01*
X0179633Y0096937D02*
X0174215Y0096937D01*
X0174215Y0097142D02*
X0172223Y0097142D01*
X0174215Y0097142D01*
X0172223Y0097142D02*
X0172223Y0097142D01*
X0172223Y0099110D02*
X0172423Y0099310D01*
X0175890Y0099310D01*
X0176880Y0100300D01*
X0181233Y0100300D01*
X0181233Y0093500D01*
X0183733Y0091000D01*
X0192873Y0091000D01*
X0195373Y0093500D01*
X0191584Y0093942D02*
X0186133Y0093942D01*
X0186637Y0094940D02*
X0191584Y0094940D01*
X0191584Y0095939D02*
X0187635Y0095939D01*
X0188634Y0096937D02*
X0191584Y0096937D01*
X0191584Y0097936D02*
X0189133Y0097936D01*
X0190267Y0098934D02*
X0191584Y0098934D01*
X0191584Y0099933D02*
X0190267Y0099933D01*
X0190267Y0100932D02*
X0191621Y0100932D01*
X0190267Y0101930D02*
X0212733Y0101930D01*
X0212733Y0100932D02*
X0193943Y0100932D01*
X0194942Y0099933D02*
X0212733Y0099933D01*
X0212733Y0098934D02*
X0195940Y0098934D01*
X0196939Y0097936D02*
X0212733Y0097936D01*
X0212733Y0096937D02*
X0197937Y0096937D01*
X0198936Y0095939D02*
X0212733Y0095939D01*
X0212733Y0094940D02*
X0199934Y0094940D01*
X0200933Y0093942D02*
X0212733Y0093942D01*
X0212733Y0092943D02*
X0201931Y0092943D01*
X0202930Y0091945D02*
X0212733Y0091945D01*
X0212733Y0090946D02*
X0203429Y0090946D01*
X0202925Y0089948D02*
X0212733Y0089948D01*
X0191584Y0092943D02*
X0185629Y0092943D01*
X0183833Y0094400D02*
X0187533Y0098100D01*
X0187533Y0100372D01*
X0184799Y0099933D02*
X0184302Y0099933D01*
X0184302Y0100932D02*
X0184799Y0100932D01*
X0184799Y0101930D02*
X0184302Y0101930D01*
X0184302Y0102929D02*
X0212733Y0102929D01*
X0212733Y0103927D02*
X0184302Y0103927D01*
X0183657Y0105081D02*
X0184302Y0105725D01*
X0184302Y0107746D01*
X0184799Y0107746D01*
X0184799Y0107732D01*
X0185444Y0107087D01*
X0189623Y0107087D01*
X0190267Y0107732D01*
X0190267Y0111123D01*
X0189623Y0111768D01*
X0185444Y0111768D01*
X0184799Y0111123D01*
X0184799Y0110946D01*
X0184302Y0110946D01*
X0184302Y0110967D01*
X0183657Y0111612D01*
X0178809Y0111612D01*
X0178165Y0110967D01*
X0178165Y0105725D01*
X0178809Y0105081D01*
X0183657Y0105081D01*
X0184302Y0105924D02*
X0191203Y0105924D01*
X0191203Y0105240D02*
X0191306Y0104858D01*
X0191503Y0104516D01*
X0191782Y0104237D01*
X0192124Y0104039D01*
X0192506Y0103937D01*
X0200471Y0103937D01*
X0200471Y0108283D01*
X0201471Y0108283D01*
X0201471Y0103937D01*
X0209436Y0103937D01*
X0209818Y0104039D01*
X0210160Y0104237D01*
X0210439Y0104516D01*
X0210637Y0104858D01*
X0210739Y0105240D01*
X0210739Y0108283D01*
X0201471Y0108283D01*
X0201471Y0109283D01*
X0210739Y0109283D01*
X0210739Y0112327D01*
X0210637Y0112709D01*
X0210439Y0113051D01*
X0210160Y0113330D01*
X0209818Y0113528D01*
X0209436Y0113630D01*
X0201471Y0113630D01*
X0201471Y0109284D01*
X0200471Y0109284D01*
X0200471Y0113630D01*
X0192506Y0113630D01*
X0192124Y0113528D01*
X0191782Y0113330D01*
X0191503Y0113051D01*
X0191306Y0112709D01*
X0191203Y0112327D01*
X0191203Y0109283D01*
X0200471Y0109283D01*
X0200471Y0108283D01*
X0191203Y0108283D01*
X0191203Y0105240D01*
X0191288Y0104926D02*
X0173815Y0104926D01*
X0173911Y0105924D02*
X0178165Y0105924D01*
X0178165Y0106923D02*
X0174215Y0106923D01*
X0173982Y0107921D02*
X0178165Y0107921D01*
X0178165Y0108920D02*
X0174215Y0108920D01*
X0174215Y0108953D02*
X0172574Y0108953D01*
X0174215Y0108953D01*
X0173966Y0109918D02*
X0178165Y0109918D01*
X0178165Y0110917D02*
X0174215Y0110917D01*
X0173961Y0111915D02*
X0191203Y0111915D01*
X0191203Y0110917D02*
X0190267Y0110917D01*
X0190267Y0109918D02*
X0191203Y0109918D01*
X0190267Y0108920D02*
X0200471Y0108920D01*
X0200471Y0109918D02*
X0201471Y0109918D01*
X0201471Y0108920D02*
X0212733Y0108920D01*
X0212733Y0109918D02*
X0210739Y0109918D01*
X0210739Y0110917D02*
X0212733Y0110917D01*
X0212733Y0111915D02*
X0210739Y0111915D01*
X0210518Y0112914D02*
X0212733Y0112914D01*
X0212733Y0113912D02*
X0190945Y0113912D01*
X0190945Y0114911D02*
X0212733Y0114911D01*
X0212733Y0115909D02*
X0190945Y0115909D01*
X0190945Y0116908D02*
X0212733Y0116908D01*
X0212733Y0117906D02*
X0197492Y0117906D01*
X0198491Y0118905D02*
X0212733Y0118905D01*
X0212733Y0119903D02*
X0198533Y0119903D01*
X0198484Y0120902D02*
X0212733Y0120902D01*
X0212733Y0121900D02*
X0200002Y0121900D01*
X0200002Y0122899D02*
X0212733Y0122899D01*
X0212733Y0123897D02*
X0200002Y0123897D01*
X0200002Y0124896D02*
X0212733Y0124896D01*
X0212733Y0125894D02*
X0200002Y0125894D01*
X0199984Y0126893D02*
X0212733Y0126893D01*
X0212733Y0127891D02*
X0199568Y0127891D01*
X0200002Y0128890D02*
X0212733Y0128890D01*
X0212733Y0129888D02*
X0200002Y0129888D01*
X0200002Y0130887D02*
X0212733Y0130887D01*
X0212733Y0131885D02*
X0200002Y0131885D01*
X0200002Y0132884D02*
X0212733Y0132884D01*
X0212733Y0133882D02*
X0199687Y0133882D01*
X0198833Y0134881D02*
X0212733Y0134881D01*
X0212733Y0135879D02*
X0198575Y0135879D01*
X0197577Y0136878D02*
X0200946Y0136878D01*
X0199349Y0137540D02*
X0199349Y0137540D01*
X0199012Y0137876D02*
X0196578Y0137876D01*
X0195580Y0138875D02*
X0198013Y0138875D01*
X0197015Y0139873D02*
X0194581Y0139873D01*
X0193583Y0140872D02*
X0196518Y0140872D01*
X0196873Y0140015D02*
X0196873Y0140015D01*
X0196105Y0141870D02*
X0192584Y0141870D01*
X0195691Y0142869D02*
X0187633Y0142869D01*
X0187633Y0143868D02*
X0195533Y0143868D01*
X0195533Y0144866D02*
X0187120Y0144866D01*
X0185132Y0145865D02*
X0195533Y0145865D01*
X0195580Y0146863D02*
X0177985Y0146863D01*
X0178643Y0147862D02*
X0195994Y0147862D01*
X0196407Y0148860D02*
X0179057Y0148860D01*
X0179133Y0149859D02*
X0196821Y0149859D01*
X0197745Y0150857D02*
X0179133Y0150857D01*
X0178760Y0151856D02*
X0198744Y0151856D01*
X0200299Y0152854D02*
X0178267Y0152854D01*
X0184033Y0144700D02*
X0149433Y0144700D01*
X0129333Y0124600D01*
X0129333Y0123000D01*
X0129333Y0109869D01*
X0132233Y0106969D01*
X0134333Y0106969D01*
X0134365Y0107000D01*
X0139333Y0107000D01*
X0138491Y0109918D02*
X0140233Y0109918D01*
X0140233Y0110917D02*
X0134424Y0110917D01*
X0134424Y0111915D02*
X0134243Y0111915D01*
X0134243Y0112914D02*
X0134424Y0112914D01*
X0138245Y0112914D02*
X0140233Y0112914D01*
X0140233Y0111915D02*
X0138491Y0111915D01*
X0145633Y0109918D02*
X0145865Y0109918D01*
X0145865Y0108920D02*
X0145633Y0108920D01*
X0145633Y0118905D02*
X0158933Y0118905D01*
X0158933Y0119903D02*
X0145633Y0119903D01*
X0145633Y0120902D02*
X0158933Y0120902D01*
X0158933Y0121900D02*
X0145633Y0121900D01*
X0145633Y0122899D02*
X0158933Y0122899D01*
X0157357Y0123897D02*
X0156683Y0123897D01*
X0156683Y0123669D02*
X0156683Y0129163D01*
X0153847Y0129163D01*
X0153847Y0124972D01*
X0153949Y0124590D01*
X0154146Y0124248D01*
X0154426Y0123969D01*
X0154768Y0123772D01*
X0155149Y0123669D01*
X0156683Y0123669D01*
X0156683Y0124896D02*
X0157357Y0124896D01*
X0157357Y0125894D02*
X0156683Y0125894D01*
X0156683Y0126893D02*
X0157357Y0126893D01*
X0157357Y0127891D02*
X0156683Y0127891D01*
X0156683Y0128890D02*
X0157357Y0128890D01*
X0157357Y0129888D02*
X0156683Y0129888D01*
X0156683Y0130887D02*
X0157357Y0130887D01*
X0157357Y0131885D02*
X0156683Y0131885D01*
X0156683Y0132884D02*
X0157357Y0132884D01*
X0157357Y0133882D02*
X0156683Y0133882D01*
X0156683Y0134881D02*
X0157357Y0134881D01*
X0159365Y0135879D02*
X0152834Y0135879D01*
X0151836Y0134881D02*
X0154276Y0134881D01*
X0153847Y0133882D02*
X0150837Y0133882D01*
X0149839Y0132884D02*
X0153847Y0132884D01*
X0153847Y0131885D02*
X0148840Y0131885D01*
X0147842Y0130887D02*
X0153847Y0130887D01*
X0153847Y0129888D02*
X0146843Y0129888D01*
X0145844Y0128890D02*
X0153847Y0128890D01*
X0153847Y0127891D02*
X0145633Y0127891D01*
X0145633Y0126893D02*
X0153847Y0126893D01*
X0153847Y0125894D02*
X0145633Y0125894D01*
X0145633Y0124896D02*
X0153867Y0124896D01*
X0154550Y0123897D02*
X0145633Y0123897D01*
X0129333Y0123000D02*
X0125680Y0123000D01*
X0122718Y0128890D02*
X0121949Y0128890D01*
X0121949Y0129888D02*
X0122718Y0129888D01*
X0123526Y0130887D02*
X0121140Y0130887D01*
X0116621Y0130887D02*
X0115933Y0130887D01*
X0128046Y0130887D02*
X0128668Y0130887D01*
X0153833Y0136878D02*
X0159365Y0136878D01*
X0165502Y0136878D02*
X0187934Y0136878D01*
X0188933Y0135879D02*
X0165502Y0135879D01*
X0167510Y0134881D02*
X0168183Y0134881D01*
X0168183Y0135331D02*
X0168183Y0129837D01*
X0171020Y0129837D01*
X0171020Y0134028D01*
X0170918Y0134410D01*
X0170720Y0134752D01*
X0170441Y0135031D01*
X0170099Y0135228D01*
X0169717Y0135331D01*
X0168183Y0135331D01*
X0168183Y0133882D02*
X0167510Y0133882D01*
X0167510Y0132884D02*
X0168183Y0132884D01*
X0168183Y0131885D02*
X0167510Y0131885D01*
X0167510Y0130887D02*
X0168183Y0130887D01*
X0168183Y0129888D02*
X0167510Y0129888D01*
X0167510Y0128890D02*
X0168183Y0128890D01*
X0168183Y0127891D02*
X0167510Y0127891D01*
X0167510Y0126893D02*
X0168183Y0126893D01*
X0168183Y0125894D02*
X0167510Y0125894D01*
X0167510Y0124896D02*
X0168183Y0124896D01*
X0168183Y0123897D02*
X0167510Y0123897D01*
X0165833Y0122899D02*
X0169988Y0122899D01*
X0170683Y0121900D02*
X0165833Y0121900D01*
X0170190Y0120902D02*
X0170365Y0120902D01*
X0176183Y0121900D02*
X0183833Y0121900D01*
X0183833Y0120902D02*
X0176502Y0120902D01*
X0176502Y0119903D02*
X0183833Y0119903D01*
X0183833Y0118905D02*
X0183772Y0118905D01*
X0184252Y0116908D02*
X0184414Y0116908D01*
X0184414Y0115909D02*
X0184252Y0115909D01*
X0184252Y0114911D02*
X0184414Y0114911D01*
X0184414Y0113912D02*
X0184252Y0113912D01*
X0177722Y0113912D02*
X0173933Y0113912D01*
X0173794Y0114911D02*
X0165824Y0114911D01*
X0165833Y0115909D02*
X0170488Y0115909D01*
X0172223Y0114882D02*
X0172223Y0113240D01*
X0172223Y0113240D01*
X0172223Y0114882D01*
X0172223Y0113912D02*
X0172223Y0113912D01*
X0171873Y0112890D02*
X0171872Y0112890D01*
X0170255Y0112890D01*
X0171873Y0112890D01*
X0172223Y0112540D02*
X0172223Y0110921D01*
X0172223Y0108976D01*
X0172223Y0108953D01*
X0172223Y0108953D01*
X0172223Y0110921D01*
X0172223Y0110921D01*
X0172223Y0110945D01*
X0172223Y0112539D01*
X0172223Y0112540D01*
X0172573Y0112890D02*
X0174215Y0112890D01*
X0172574Y0112890D01*
X0172573Y0112890D01*
X0172223Y0111915D02*
X0172223Y0111915D01*
X0172223Y0110921D02*
X0172223Y0110921D01*
X0172223Y0110917D02*
X0172223Y0110917D01*
X0172223Y0109918D02*
X0172223Y0109918D01*
X0172223Y0108953D02*
X0172223Y0106984D01*
X0172223Y0106984D01*
X0172223Y0108953D01*
X0172223Y0108953D01*
X0172223Y0108920D02*
X0172223Y0108920D01*
X0171873Y0108953D02*
X0171872Y0108953D01*
X0171873Y0108953D01*
X0171872Y0108953D02*
X0170278Y0108953D01*
X0168286Y0108953D01*
X0168286Y0110898D01*
X0168286Y0112540D01*
X0168286Y0112539D01*
X0168286Y0108953D01*
X0168286Y0108953D01*
X0168286Y0108953D01*
X0171872Y0108953D01*
X0172573Y0108953D02*
X0172574Y0108953D01*
X0172573Y0108953D01*
X0172223Y0107921D02*
X0172223Y0107921D01*
X0171873Y0106984D02*
X0170231Y0106984D01*
X0170231Y0106722D01*
X0170367Y0106215D01*
X0170629Y0105761D01*
X0170673Y0105717D01*
X0170631Y0105675D01*
X0170631Y0104356D01*
X0170956Y0104031D01*
X0170631Y0103707D01*
X0170631Y0102388D01*
X0170956Y0102063D01*
X0170631Y0101738D01*
X0170631Y0100419D01*
X0170950Y0100100D01*
X0170623Y0099773D01*
X0170623Y0098734D01*
X0169595Y0098734D01*
X0169270Y0098409D01*
X0168946Y0098734D01*
X0167818Y0098734D01*
X0167818Y0098737D01*
X0167433Y0099121D01*
X0167433Y0099271D01*
X0167517Y0099222D01*
X0168024Y0099087D01*
X0168286Y0099087D01*
X0168286Y0100728D01*
X0168286Y0100729D01*
X0168286Y0099087D01*
X0168548Y0099087D01*
X0169055Y0099222D01*
X0169509Y0099485D01*
X0169880Y0099856D01*
X0170142Y0100310D01*
X0170278Y0100816D01*
X0170278Y0101079D01*
X0170278Y0101341D01*
X0170142Y0101848D01*
X0170018Y0102063D01*
X0170142Y0102278D01*
X0170278Y0102785D01*
X0170278Y0103047D01*
X0168637Y0103047D01*
X0168636Y0103047D01*
X0168637Y0103047D01*
X0170278Y0103047D01*
X0170278Y0103310D01*
X0170142Y0103816D01*
X0170018Y0104031D01*
X0170142Y0104247D01*
X0170278Y0104753D01*
X0170278Y0105016D01*
X0170278Y0105278D01*
X0170142Y0105785D01*
X0169880Y0106239D01*
X0169509Y0106610D01*
X0169055Y0106872D01*
X0168636Y0106984D01*
X0169055Y0107096D01*
X0169509Y0107359D01*
X0169880Y0107730D01*
X0170142Y0108184D01*
X0170255Y0108602D01*
X0170367Y0108184D01*
X0170491Y0107969D01*
X0170367Y0107753D01*
X0170231Y0107247D01*
X0170231Y0106984D01*
X0171872Y0106984D01*
X0171873Y0106984D01*
X0170231Y0106923D02*
X0168867Y0106923D01*
X0169991Y0107921D02*
X0170464Y0107921D01*
X0170535Y0105924D02*
X0170062Y0105924D01*
X0170278Y0105016D02*
X0168636Y0105016D01*
X0168637Y0105016D01*
X0170278Y0105016D01*
X0170278Y0104926D02*
X0170631Y0104926D01*
X0170851Y0103927D02*
X0170078Y0103927D01*
X0170278Y0102929D02*
X0170631Y0102929D01*
X0170823Y0101930D02*
X0170095Y0101930D01*
X0170278Y0101079D02*
X0168637Y0101079D01*
X0168636Y0101079D01*
X0170278Y0101079D01*
X0170278Y0100932D02*
X0170631Y0100932D01*
X0170783Y0099933D02*
X0169925Y0099933D01*
X0170623Y0098934D02*
X0167620Y0098934D01*
X0168286Y0099933D02*
X0168286Y0099933D01*
X0167936Y0101079D02*
X0166324Y0101079D01*
X0167935Y0101079D01*
X0167936Y0101079D01*
X0168286Y0101429D02*
X0168286Y0101429D01*
X0168286Y0103047D01*
X0168286Y0103047D01*
X0168286Y0103024D01*
X0168286Y0101429D01*
X0168286Y0101930D02*
X0168286Y0101930D01*
X0168286Y0102929D02*
X0168286Y0102929D01*
X0168286Y0103047D02*
X0168286Y0105016D01*
X0168286Y0105016D01*
X0168286Y0103047D01*
X0168286Y0103047D01*
X0168286Y0103927D02*
X0168286Y0103927D01*
X0168286Y0104926D02*
X0168286Y0104926D01*
X0173595Y0103927D02*
X0178165Y0103927D01*
X0178165Y0102929D02*
X0173815Y0102929D01*
X0173623Y0101930D02*
X0178165Y0101930D01*
X0181233Y0101654D02*
X0181233Y0100300D01*
X0179633Y0097936D02*
X0176779Y0097936D01*
X0175249Y0100932D02*
X0173815Y0100932D01*
X0166324Y0101079D02*
X0166324Y0101079D01*
X0160412Y0105016D02*
X0160412Y0106984D01*
X0160412Y0106984D01*
X0160412Y0105016D01*
X0160412Y0105016D01*
X0160412Y0105924D02*
X0160412Y0105924D01*
X0160412Y0106923D02*
X0160412Y0106923D01*
X0168286Y0109918D02*
X0168286Y0109918D01*
X0168286Y0110917D02*
X0168286Y0110917D01*
X0168286Y0111915D02*
X0168286Y0111915D01*
X0168286Y0112890D02*
X0170254Y0112890D01*
X0170254Y0112890D01*
X0168286Y0112890D01*
X0168286Y0112890D01*
X0168286Y0113240D02*
X0168286Y0114882D01*
X0168286Y0113240D01*
X0168286Y0113240D01*
X0168286Y0113912D02*
X0168286Y0113912D01*
X0170255Y0113912D02*
X0170255Y0113912D01*
X0170255Y0112890D02*
X0170255Y0112890D01*
X0174215Y0112914D02*
X0191424Y0112914D01*
X0187533Y0109428D02*
X0187452Y0109346D01*
X0182233Y0109346D01*
X0181233Y0108346D01*
X0184302Y0106923D02*
X0191203Y0106923D01*
X0191203Y0107921D02*
X0190267Y0107921D01*
X0200471Y0107921D02*
X0201471Y0107921D01*
X0201471Y0106923D02*
X0200471Y0106923D01*
X0200471Y0105924D02*
X0201471Y0105924D01*
X0201471Y0104926D02*
X0200471Y0104926D01*
X0200471Y0110917D02*
X0201471Y0110917D01*
X0201471Y0111915D02*
X0200471Y0111915D01*
X0200471Y0112914D02*
X0201471Y0112914D01*
X0194974Y0117906D02*
X0190945Y0117906D01*
X0191691Y0118905D02*
X0193976Y0118905D01*
X0193933Y0119903D02*
X0191833Y0119903D01*
X0192333Y0120902D02*
X0193982Y0120902D01*
X0187765Y0121900D02*
X0186833Y0121900D01*
X0186833Y0120902D02*
X0187233Y0120902D01*
X0187233Y0119903D02*
X0186833Y0119903D01*
X0186833Y0122899D02*
X0187765Y0122899D01*
X0187765Y0123897D02*
X0186833Y0123897D01*
X0186833Y0124896D02*
X0187765Y0124896D01*
X0187765Y0125894D02*
X0186833Y0125894D01*
X0186833Y0126893D02*
X0187783Y0126893D01*
X0188199Y0127891D02*
X0186833Y0127891D01*
X0186833Y0128890D02*
X0187765Y0128890D01*
X0187765Y0129888D02*
X0186833Y0129888D01*
X0187331Y0130887D02*
X0187765Y0130887D01*
X0187765Y0131885D02*
X0187533Y0131885D01*
X0187533Y0132884D02*
X0187765Y0132884D01*
X0188080Y0133882D02*
X0186562Y0133882D01*
X0184104Y0133882D02*
X0171020Y0133882D01*
X0171020Y0132884D02*
X0183133Y0132884D01*
X0183133Y0131885D02*
X0171020Y0131885D01*
X0171020Y0130887D02*
X0183335Y0130887D01*
X0183833Y0129888D02*
X0171020Y0129888D01*
X0172949Y0128890D02*
X0173918Y0128890D01*
X0173918Y0127891D02*
X0172949Y0127891D01*
X0172949Y0126893D02*
X0173918Y0126893D01*
X0173918Y0125894D02*
X0172949Y0125894D01*
X0173918Y0124896D02*
X0183833Y0124896D01*
X0183833Y0125894D02*
X0176902Y0125894D01*
X0176902Y0126893D02*
X0183833Y0126893D01*
X0183833Y0127891D02*
X0176853Y0127891D01*
X0176015Y0128890D02*
X0183833Y0128890D01*
X0183833Y0123897D02*
X0176902Y0123897D01*
X0176879Y0122899D02*
X0183833Y0122899D01*
X0178202Y0118905D02*
X0176502Y0118905D01*
X0162381Y0113847D02*
X0162381Y0112890D01*
X0184204Y0098934D02*
X0184799Y0098934D01*
X0185107Y0097936D02*
X0182833Y0097936D01*
X0182833Y0096937D02*
X0184108Y0096937D01*
X0210655Y0104926D02*
X0212733Y0104926D01*
X0212733Y0105924D02*
X0210739Y0105924D01*
X0210739Y0106923D02*
X0212733Y0106923D01*
X0212733Y0107921D02*
X0210739Y0107921D01*
X0194299Y0127891D02*
X0193468Y0127891D01*
X0189333Y0134881D02*
X0170591Y0134881D01*
X0164673Y0131885D02*
X0160193Y0131885D01*
X0160193Y0130887D02*
X0164673Y0130887D01*
X0164673Y0129888D02*
X0160193Y0129888D01*
X0160193Y0128890D02*
X0164673Y0128890D01*
X0164673Y0127891D02*
X0160193Y0127891D01*
X0184033Y0144700D02*
X0185333Y0143400D01*
X0207720Y0136878D02*
X0212733Y0136878D01*
X0212733Y0137876D02*
X0209655Y0137876D01*
X0210653Y0138875D02*
X0212733Y0138875D01*
X0212733Y0139873D02*
X0211652Y0139873D01*
X0212148Y0140872D02*
X0212733Y0140872D01*
X0212733Y0141870D02*
X0212562Y0141870D01*
X0150024Y0147862D02*
X0148643Y0147862D01*
X0149057Y0148860D02*
X0149610Y0148860D01*
X0149533Y0149859D02*
X0149133Y0149859D01*
X0149133Y0150857D02*
X0149533Y0150857D01*
X0149906Y0151856D02*
X0148760Y0151856D01*
X0148267Y0152854D02*
X0150399Y0152854D01*
X0140399Y0152854D02*
X0128367Y0152854D01*
X0129923Y0151856D02*
X0139906Y0151856D01*
X0139533Y0150857D02*
X0130921Y0150857D01*
X0131846Y0149859D02*
X0139533Y0149859D01*
X0139610Y0148860D02*
X0132259Y0148860D01*
X0132673Y0147862D02*
X0140024Y0147862D01*
X0140682Y0146863D02*
X0133087Y0146863D01*
X0133133Y0145865D02*
X0141774Y0145865D01*
X0146733Y0094077D02*
X0146733Y0087300D01*
X0146765Y0084955D02*
X0146651Y0084955D01*
X0187478Y0070976D02*
X0212733Y0070976D01*
X0212733Y0069978D02*
X0188477Y0069978D01*
X0189475Y0068979D02*
X0212733Y0068979D01*
X0212733Y0067981D02*
X0190474Y0067981D01*
X0191472Y0066982D02*
X0212733Y0066982D01*
X0212733Y0065984D02*
X0192471Y0065984D01*
X0193470Y0064985D02*
X0212733Y0064985D01*
X0212733Y0063987D02*
X0197135Y0063987D01*
X0198133Y0062988D02*
X0212733Y0062988D01*
X0212733Y0061990D02*
X0198705Y0061990D01*
X0199118Y0060991D02*
X0212733Y0060991D01*
X0209402Y0059993D02*
X0199133Y0059993D01*
X0199112Y0058994D02*
X0208783Y0058994D01*
X0208783Y0057996D02*
X0198699Y0057996D01*
X0198119Y0056997D02*
X0209213Y0056997D01*
D28*
X0178333Y0080800D03*
X0169333Y0080800D03*
X0164233Y0073000D03*
X0170333Y0069800D03*
X0150233Y0073900D03*
X0142233Y0073900D03*
X0136233Y0077900D03*
X0131233Y0082100D03*
X0136333Y0086000D03*
X0131233Y0088800D03*
X0125233Y0089000D03*
X0135733Y0093200D03*
X0140928Y0099094D03*
X0141702Y0103331D03*
X0139333Y0107000D03*
X0126433Y0109200D03*
X0126433Y0101200D03*
X0152433Y0114200D03*
X0155133Y0116100D03*
X0157733Y0119700D03*
X0153933Y0121300D03*
X0153363Y0125470D03*
X0153353Y0128970D03*
X0153353Y0132360D03*
X0157333Y0136100D03*
X0160333Y0141000D03*
X0167833Y0135900D03*
X0172633Y0135800D03*
X0172533Y0131100D03*
X0177733Y0131100D03*
X0177633Y0135800D03*
X0182233Y0135900D03*
X0185333Y0143400D03*
X0193833Y0143500D03*
X0203933Y0129100D03*
X0196233Y0119900D03*
X0189533Y0120000D03*
X0181733Y0120800D03*
X0177933Y0121300D03*
X0178033Y0126000D03*
X0168533Y0123100D03*
X0176633Y0112700D03*
X0184233Y0112300D03*
X0176633Y0108200D03*
X0176633Y0102700D03*
X0177833Y0097300D03*
X0183833Y0094400D03*
X0189233Y0094000D03*
X0180333Y0088200D03*
X0174833Y0092200D03*
X0164433Y0092200D03*
X0160733Y0090600D03*
X0154083Y0094850D03*
X0153633Y0106800D03*
X0138033Y0117400D03*
X0134133Y0122600D03*
X0138333Y0128000D03*
X0130433Y0129400D03*
X0123033Y0134000D03*
X0134733Y0138900D03*
X0140533Y0139600D03*
X0196633Y0115200D03*
X0204633Y0115200D03*
X0207233Y0102000D03*
X0198233Y0102000D03*
X0150333Y0079900D03*
X0125333Y0076300D03*
D29*
X0156133Y0081010D02*
X0156133Y0083700D01*
X0158333Y0085300D02*
X0158333Y0081000D01*
X0161333Y0078000D01*
X0178333Y0078000D01*
X0194333Y0062000D01*
X0194333Y0060000D01*
X0184333Y0060000D02*
X0184333Y0069800D01*
X0178133Y0076000D01*
X0161143Y0076000D01*
X0156133Y0081010D01*
X0158333Y0085300D02*
X0156233Y0087400D01*
X0160733Y0090600D02*
X0160733Y0092000D01*
X0162381Y0093647D01*
X0162381Y0097142D01*
X0164349Y0097142D02*
X0164349Y0092284D01*
X0164433Y0092200D01*
X0168286Y0088953D02*
X0168286Y0097142D01*
X0166318Y0097142D02*
X0166318Y0098116D01*
X0165333Y0099100D01*
X0162381Y0099747D02*
X0162381Y0101079D01*
X0162381Y0099747D02*
X0161733Y0099100D01*
X0161433Y0099100D01*
X0156475Y0101079D02*
X0150223Y0101079D01*
X0150066Y0100921D01*
X0149333Y0101654D01*
X0144133Y0102300D02*
X0140928Y0099094D01*
X0134333Y0099094D01*
X0134333Y0103031D02*
X0134633Y0103331D01*
X0141702Y0103331D01*
X0141733Y0103363D01*
X0141733Y0129200D01*
X0153533Y0141000D01*
X0160333Y0141000D01*
X0191333Y0141000D01*
X0197333Y0135000D01*
X0197333Y0131346D01*
X0196933Y0130946D01*
X0190833Y0130946D02*
X0190833Y0136100D01*
X0187833Y0139100D01*
X0162533Y0139100D01*
X0162133Y0138700D01*
X0153533Y0138700D01*
X0144133Y0129300D01*
X0144133Y0111500D01*
X0144333Y0111700D01*
X0155133Y0111700D01*
X0155912Y0110921D01*
X0156475Y0110921D01*
X0156475Y0108953D02*
X0156975Y0108953D01*
X0158944Y0106984D01*
X0160412Y0106984D01*
X0162381Y0106984D02*
X0162381Y0106753D01*
X0163933Y0105200D01*
X0166318Y0106984D02*
X0167318Y0105984D01*
X0168286Y0106953D01*
X0168286Y0108953D01*
X0167318Y0105984D02*
X0168286Y0105016D01*
X0162381Y0108953D02*
X0162381Y0109947D01*
X0163333Y0110900D01*
X0164349Y0112890D02*
X0164349Y0113446D01*
X0165523Y0114620D01*
X0160412Y0113511D02*
X0158453Y0115470D01*
X0158444Y0113190D02*
X0155533Y0116100D01*
X0155133Y0116100D01*
X0158444Y0113190D02*
X0158444Y0112890D01*
X0160412Y0112890D02*
X0160412Y0113511D01*
X0158865Y0110500D02*
X0158833Y0110500D01*
X0158865Y0110500D02*
X0160412Y0108953D01*
X0144133Y0111500D02*
X0144133Y0102300D01*
X0170255Y0097142D02*
X0170255Y0089079D01*
X0172633Y0086700D01*
X0174455Y0086700D01*
X0168286Y0088953D02*
X0166033Y0086700D01*
X0164612Y0086700D01*
X0187680Y0116000D02*
X0185333Y0118346D01*
X0185333Y0132000D01*
X0190833Y0124254D02*
X0190833Y0121300D01*
X0189533Y0120000D01*
X0196233Y0119900D02*
X0196933Y0120600D01*
X0196933Y0124254D01*
X0118987Y0123000D02*
X0118881Y0123106D01*
X0118881Y0128000D01*
D30*
X0163933Y0105200D03*
X0156173Y0091150D03*
X0156233Y0087400D03*
X0156133Y0083700D03*
X0156173Y0077150D03*
X0156173Y0073150D03*
X0185333Y0132000D03*
D31*
X0163333Y0110900D03*
X0158833Y0110500D03*
X0161433Y0099100D03*
X0165333Y0099100D03*
D32*
X0162533Y0113600D02*
X0161933Y0113600D01*
X0161712Y0113821D01*
X0161712Y0114050D01*
X0160333Y0115428D01*
X0160333Y0125800D01*
X0164433Y0125800D01*
X0164433Y0115500D01*
X0162533Y0113600D01*
X0162587Y0113654D02*
X0161879Y0113654D01*
X0161509Y0114253D02*
X0163186Y0114253D01*
X0163784Y0114851D02*
X0160911Y0114851D01*
X0160333Y0115450D02*
X0164383Y0115450D01*
X0164433Y0116048D02*
X0160333Y0116048D01*
X0160333Y0116647D02*
X0164433Y0116647D01*
X0164433Y0117245D02*
X0160333Y0117245D01*
X0160333Y0117844D02*
X0164433Y0117844D01*
X0164433Y0118442D02*
X0160333Y0118442D01*
X0160333Y0119041D02*
X0164433Y0119041D01*
X0164433Y0119639D02*
X0160333Y0119639D01*
X0160333Y0120238D02*
X0164433Y0120238D01*
X0164433Y0120836D02*
X0160333Y0120836D01*
X0160333Y0121435D02*
X0164433Y0121435D01*
X0164433Y0122033D02*
X0160333Y0122033D01*
X0160333Y0122632D02*
X0164433Y0122632D01*
X0164433Y0123230D02*
X0160333Y0123230D01*
X0160333Y0123829D02*
X0164433Y0123829D01*
X0164433Y0124427D02*
X0160333Y0124427D01*
X0160333Y0125026D02*
X0164433Y0125026D01*
X0164433Y0125624D02*
X0160333Y0125624D01*
D33*
X0167417Y0118800D02*
X0172733Y0118800D01*
X0173433Y0118100D01*
X0175533Y0116000D01*
X0180987Y0116000D01*
X0173433Y0118100D02*
X0173433Y0118654D01*
M02*
