%
M48
M72
T01C0.0080
T02C0.0100
T03C0.0120
T04C0.0400
T05C0.1200
%
T01
X16143Y9910
X16533Y9910
X16333Y11090
X15883Y11050
T02
X16393Y10520
X15617Y9115
X15623Y8740
X15613Y8370
X15617Y7715
X15617Y7315
X18533Y13200
T03
X18223Y13590
X17763Y13580
X17773Y13110
X17253Y13110
X17263Y13580
X16783Y13590
X16033Y14100
X15733Y13610
X15335Y13236
X15335Y12897
X15336Y12547
X15393Y12130
X15773Y11970
X15513Y11610
X15243Y11420
X15363Y10680
X14170Y10333
X14093Y9909
X13573Y9320
X13123Y8880
X12523Y8900
X13123Y8210
X13633Y8600
X13623Y7790
X14223Y7390
X15023Y7390
X15033Y7990
X16423Y7300
X17033Y6980
X16933Y8080
X17833Y8080
X18033Y8820
X17483Y9220
X18383Y9440
X18923Y9400
X17783Y9730
X17663Y10270
X17663Y10820
X17663Y11270
X18423Y11230
X18173Y12080
X17793Y12130
X17803Y12600
X16853Y12310
X18953Y12000
X19623Y11990
X19663Y11520
X20463Y11520
X20723Y10200
X19823Y10200
X16443Y9220
X16073Y9060
X15408Y9485
X13933Y10700
X12643Y10920
X12643Y10120
X13803Y11740
X13413Y12260
X13833Y12800
X13043Y12940
X12303Y13400
X13473Y13890
X14053Y13960
X18533Y14340
X19383Y14350
X20393Y12910
X12533Y7630
T04
X12433Y6000
X13433Y6000
X14433Y6000
X15433Y6000
X16433Y6000
X17433Y6000
X18433Y6000
X19433Y6000
X17433Y15000
X16433Y15000
X15433Y15000
X14433Y15000
T05
X12433Y14500
X20433Y14500
M30
