G75*
%MOIN*%
%OFA0B0*%
%FSLAX25Y25*%
%IPPOS*%
%LPD*%
%AMOC8*
5,1,8,0,0,1.08239X$1,22.5*
%
%ADD10C,0.00500*%
%ADD11C,0.00800*%
%ADD12C,0.00600*%
%ADD13R,0.00118X0.11457*%
%ADD14R,0.00079X0.11457*%
%ADD15R,0.00157X0.11457*%
%ADD16R,0.00118X0.02480*%
%ADD17R,0.00118X0.08268*%
%ADD18R,0.00157X0.02244*%
%ADD19R,0.00157X0.00945*%
%ADD20R,0.00157X0.01417*%
%ADD21R,0.00157X0.00472*%
%ADD22R,0.00118X0.02008*%
%ADD23R,0.00118X0.00591*%
%ADD24R,0.00118X0.01181*%
%ADD25R,0.00118X0.00354*%
%ADD26R,0.00118X0.01890*%
%ADD27R,0.00118X0.00472*%
%ADD28R,0.00118X0.01063*%
%ADD29R,0.00118X0.01654*%
%ADD30R,0.00118X0.01772*%
%ADD31R,0.00157X0.01654*%
%ADD32R,0.00157X0.00354*%
%ADD33R,0.00118X0.01535*%
%ADD34R,0.00118X0.00827*%
%ADD35R,0.00118X0.01417*%
%ADD36R,0.00118X0.00709*%
%ADD37R,0.00118X0.02126*%
%ADD38R,0.00157X0.00591*%
%ADD39R,0.00157X0.01299*%
%ADD40R,0.00118X0.01299*%
%ADD41R,0.00118X0.02244*%
%ADD42R,0.00157X0.00709*%
%ADD43R,0.00157X0.00118*%
%ADD44R,0.00157X0.00236*%
%ADD45R,0.00157X0.01181*%
%ADD46R,0.00118X0.00236*%
%ADD47R,0.00118X0.00118*%
%ADD48R,0.00157X0.01063*%
%ADD49R,0.00118X0.00945*%
%ADD50R,0.00157X0.01535*%
%ADD51R,0.00157X0.00827*%
%ADD52R,0.00157X0.02126*%
%ADD53R,0.00118X0.02362*%
%ADD54R,0.00118X0.09921*%
%ADD55R,0.00118X0.10276*%
%ADD56R,0.00079X0.10512*%
%ADD57R,0.00157X0.10748*%
%ADD58R,0.00118X0.10866*%
%ADD59R,0.00118X0.10984*%
%ADD60R,0.00079X0.11102*%
%ADD61R,0.00118X0.02717*%
%ADD62R,0.00118X0.05433*%
%ADD63R,0.00157X0.02362*%
%ADD64R,0.00157X0.01890*%
%ADD65R,0.00157X0.02480*%
%ADD66R,0.00118X0.02598*%
%ADD67R,0.00118X0.02953*%
%ADD68R,0.00157X0.02008*%
%ADD69R,0.00157X0.03071*%
%ADD70R,0.00118X0.03189*%
%ADD71R,0.00118X0.03307*%
%ADD72R,0.00118X0.03425*%
%ADD73R,0.00157X0.03543*%
%ADD74R,0.00118X0.03543*%
%ADD75R,0.00157X0.03189*%
%ADD76R,0.00118X0.03071*%
%ADD77R,0.00118X0.02835*%
%ADD78R,0.00157X0.02598*%
%ADD79R,0.00118X0.11102*%
%ADD80R,0.00118X0.10748*%
%ADD81R,0.00118X0.10512*%
%ADD82R,0.00157X0.12520*%
%ADD83R,0.00118X0.12520*%
%ADD84R,0.00118X0.06220*%
%ADD85R,0.00157X0.02047*%
%ADD86R,0.00118X0.01929*%
%ADD87R,0.00118X0.02047*%
%ADD88R,0.00157X0.01772*%
%ADD89R,0.00157X0.00551*%
%ADD90R,0.00157X0.01811*%
%ADD91R,0.00118X0.00433*%
%ADD92R,0.00118X0.01811*%
%ADD93R,0.00118X0.00276*%
%ADD94R,0.00118X0.00394*%
%ADD95R,0.00118X0.01496*%
%ADD96R,0.00118X0.00551*%
%ADD97R,0.00157X0.00669*%
%ADD98R,0.00157X0.01378*%
%ADD99R,0.00157X0.01496*%
%ADD100R,0.00118X0.00984*%
%ADD101R,0.00118X0.01260*%
%ADD102R,0.00157X0.01929*%
%ADD103R,0.00157X0.01102*%
%ADD104R,0.00157X0.00984*%
%ADD105R,0.00118X0.01102*%
%ADD106R,0.00157X0.01260*%
%ADD107R,0.00157X0.00394*%
%ADD108R,0.00157X0.02087*%
%ADD109R,0.00118X0.03031*%
%ADD110R,0.00118X0.00157*%
%ADD111R,0.00118X0.02638*%
%ADD112R,0.00157X0.01220*%
%ADD113R,0.00157X0.00157*%
%ADD114R,0.00118X0.01220*%
%ADD115R,0.00118X0.00669*%
%ADD116R,0.00118X0.01378*%
%ADD117R,0.00157X0.02205*%
%ADD118R,0.00118X0.02205*%
%ADD119C,0.00300*%
%ADD120R,0.04016X0.00236*%
%ADD121R,0.01417X0.00236*%
%ADD122R,0.03780X0.00236*%
%ADD123R,0.00236X0.00236*%
%ADD124R,0.00472X0.00236*%
%ADD125R,0.04724X0.00236*%
%ADD126R,0.02835X0.00236*%
%ADD127R,0.02362X0.00236*%
%ADD128R,0.02598X0.00236*%
%ADD129R,0.04961X0.00236*%
%ADD130R,0.03543X0.00236*%
%ADD131R,0.01654X0.00236*%
%ADD132R,0.01890X0.00236*%
%ADD133R,0.03307X0.00236*%
%ADD134R,0.04488X0.00236*%
%ADD135R,0.02126X0.00236*%
%ADD136R,0.05197X0.00236*%
%ADD137R,0.05433X0.00236*%
%ADD138R,0.03071X0.00236*%
%ADD139R,0.06614X0.00236*%
%ADD140R,0.04252X0.00236*%
%ADD141R,0.00945X0.00236*%
%ADD142R,0.06142X0.00236*%
%ADD143R,0.05906X0.00236*%
%ADD144R,0.05669X0.00236*%
%ADD145R,0.01181X0.00236*%
%ADD146R,0.00709X0.00236*%
%ADD147R,0.07441X0.00118*%
%ADD148R,0.08150X0.00118*%
%ADD149R,0.08622X0.00079*%
%ADD150R,0.09094X0.00157*%
%ADD151R,0.09331X0.00118*%
%ADD152R,0.09567X0.00118*%
%ADD153R,0.09803X0.00079*%
%ADD154R,0.02835X0.00118*%
%ADD155R,0.06614X0.00118*%
%ADD156R,0.02598X0.00157*%
%ADD157R,0.00827X0.00157*%
%ADD158R,0.01063X0.00157*%
%ADD159R,0.02244X0.00157*%
%ADD160R,0.02480X0.00118*%
%ADD161R,0.00709X0.00118*%
%ADD162R,0.02244X0.00118*%
%ADD163R,0.00591X0.00118*%
%ADD164R,0.02362X0.00118*%
%ADD165R,0.00472X0.00118*%
%ADD166R,0.02480X0.00157*%
%ADD167R,0.00591X0.00157*%
%ADD168R,0.00354X0.00157*%
%ADD169R,0.02362X0.00157*%
%ADD170R,0.00354X0.00118*%
%ADD171R,0.01772X0.00118*%
%ADD172R,0.00827X0.00118*%
%ADD173R,0.00236X0.00118*%
%ADD174R,0.01772X0.00157*%
%ADD175R,0.00945X0.00157*%
%ADD176R,0.00236X0.00157*%
%ADD177R,0.02598X0.00118*%
%ADD178R,0.01535X0.00118*%
%ADD179R,0.00945X0.00118*%
%ADD180R,0.01063X0.00118*%
%ADD181R,0.02717X0.00118*%
%ADD182R,0.02717X0.00157*%
%ADD183R,0.02953X0.00118*%
%ADD184R,0.03189X0.00118*%
%ADD185R,0.03661X0.00118*%
%ADD186R,0.03898X0.00157*%
%ADD187R,0.00709X0.00157*%
%ADD188R,0.01181X0.00118*%
%ADD189R,0.01890X0.00118*%
%ADD190R,0.01890X0.00157*%
%ADD191R,0.02126X0.00118*%
%ADD192R,0.02008X0.00157*%
%ADD193R,0.09803X0.00118*%
%ADD194R,0.09094X0.00118*%
%ADD195R,0.08622X0.00118*%
%ADD196R,0.00118X0.11339*%
%ADD197R,0.00079X0.11220*%
%ADD198R,0.00157X0.11102*%
%ADD199R,0.00079X0.10748*%
%ADD200R,0.00118X0.07795*%
%ADD201R,0.00157X0.02717*%
%ADD202R,0.00118X0.11220*%
%ADD203R,0.00118X0.16063*%
%ADD204R,0.00118X0.16181*%
%ADD205R,0.00079X0.16417*%
%ADD206R,0.00157X0.16535*%
%ADD207R,0.00079X0.01181*%
%ADD208R,0.00079X0.01299*%
%ADD209R,0.00118X0.17362*%
%ADD210R,0.00118X0.17480*%
%ADD211R,0.00157X0.17598*%
%ADD212R,0.00118X0.17717*%
%ADD213R,0.00157X0.03307*%
%ADD214R,0.00118X0.16654*%
%ADD215R,0.00118X0.16535*%
%ADD216R,0.00118X0.16417*%
%ADD217R,0.10039X0.00118*%
%ADD218R,0.10512X0.00079*%
%ADD219R,0.10984X0.00157*%
%ADD220R,0.11220X0.00118*%
%ADD221R,0.11457X0.00118*%
%ADD222R,0.11693X0.00079*%
%ADD223R,0.11929X0.00118*%
%ADD224R,0.03071X0.00157*%
%ADD225R,0.02008X0.00118*%
%ADD226R,0.01181X0.00157*%
%ADD227R,0.02953X0.00157*%
%ADD228R,0.03071X0.00118*%
%ADD229R,0.11693X0.00118*%
%ADD230R,0.10984X0.00118*%
%ADD231R,0.10512X0.00118*%
%ADD232R,0.00118X0.12283*%
%ADD233R,0.00118X0.12638*%
%ADD234R,0.00079X0.12874*%
%ADD235R,0.00157X0.13110*%
%ADD236R,0.00118X0.13228*%
%ADD237R,0.00118X0.13346*%
%ADD238R,0.00079X0.13465*%
%ADD239R,0.00118X0.06850*%
%ADD240R,0.00157X0.02953*%
%ADD241R,0.00157X0.02835*%
%ADD242R,0.00118X0.13465*%
%ADD243R,0.00118X0.13110*%
%ADD244R,0.00118X0.12874*%
%ADD245R,0.00118X0.06260*%
%ADD246R,0.00118X0.03898*%
%ADD247R,0.00118X0.07087*%
%ADD248R,0.00118X0.07441*%
%ADD249R,0.00079X0.07677*%
%ADD250R,0.00157X0.07913*%
%ADD251R,0.00118X0.08031*%
%ADD252R,0.00118X0.08150*%
%ADD253R,0.00079X0.08268*%
%ADD254R,0.00157X0.03780*%
%ADD255R,0.00157X0.03425*%
%ADD256R,0.00118X0.07913*%
%ADD257R,0.00118X0.07677*%
%ADD258R,0.11496X0.00157*%
%ADD259R,0.02835X0.00157*%
%ADD260R,0.07874X0.00157*%
%ADD261R,0.01102X0.00157*%
%ADD262R,0.01417X0.00157*%
%ADD263R,0.02205X0.00157*%
%ADD264R,0.02047X0.00157*%
%ADD265R,0.00787X0.00157*%
%ADD266R,0.01732X0.00157*%
%ADD267R,0.00630X0.00157*%
%ADD268R,0.00472X0.00157*%
%ADD269R,0.00315X0.00157*%
%ADD270R,0.01260X0.00157*%
%ADD271R,0.02677X0.00157*%
%ADD272R,0.03307X0.00157*%
%ADD273R,0.03622X0.00157*%
%ADD274R,0.01575X0.00157*%
%ADD275R,0.02520X0.00157*%
%ADD276R,0.09606X0.00157*%
%ADD277R,0.10551X0.00157*%
%ADD278R,0.11181X0.00157*%
%ADD279R,0.11811X0.00157*%
%ADD280R,0.12126X0.00157*%
%ADD281R,0.12441X0.00157*%
%ADD282R,0.12756X0.00157*%
%ADD283R,0.04882X0.00157*%
%ADD284R,0.03937X0.00157*%
%ADD285R,0.02992X0.00157*%
%ADD286R,0.03465X0.00157*%
%ADD287R,0.03150X0.00157*%
%ADD288R,0.03780X0.00157*%
%ADD289R,0.05669X0.00157*%
%ADD290R,0.05827X0.00157*%
%ADD291R,0.05984X0.00157*%
%ADD292R,0.04094X0.00157*%
%ADD293R,0.04567X0.00157*%
%ADD294R,0.00118X0.07559*%
%ADD295R,0.00079X0.07913*%
%ADD296R,0.00157X0.08031*%
%ADD297R,0.00118X0.08858*%
%ADD298R,0.00118X0.08976*%
%ADD299R,0.00157X0.09094*%
%ADD300R,0.00118X0.09213*%
%ADD301R,0.00118X0.08386*%
%ADD302R,0.00079X0.08622*%
%ADD303R,0.00157X0.08740*%
%ADD304R,0.00118X0.09567*%
%ADD305R,0.00118X0.09685*%
%ADD306R,0.00157X0.09803*%
%ADD307R,0.00118X0.08740*%
%ADD308R,0.00118X0.08622*%
%ADD309R,0.00591X0.00079*%
%ADD310R,0.00984X0.00079*%
%ADD311R,0.01142X0.00118*%
%ADD312R,0.02835X0.00079*%
%ADD313R,0.03110X0.00118*%
%ADD314R,0.03701X0.00079*%
%ADD315R,0.03898X0.00118*%
%ADD316R,0.04567X0.00079*%
%ADD317R,0.04764X0.00118*%
%ADD318R,0.05157X0.00079*%
%ADD319R,0.05354X0.00118*%
%ADD320R,0.05512X0.00079*%
%ADD321R,0.05748X0.00118*%
%ADD322R,0.05906X0.00079*%
%ADD323R,0.06024X0.00118*%
%ADD324R,0.03583X0.00079*%
%ADD325R,0.02520X0.00079*%
%ADD326R,0.03504X0.00079*%
%ADD327R,0.03425X0.00118*%
%ADD328R,0.02520X0.00118*%
%ADD329R,0.03307X0.00079*%
%ADD330R,0.03110X0.00079*%
%ADD331R,0.02992X0.00118*%
%ADD332R,0.03031X0.00079*%
%ADD333R,0.02913X0.00118*%
%ADD334R,0.02441X0.00118*%
%ADD335R,0.02441X0.00079*%
%ADD336R,0.02638X0.00118*%
%ADD337R,0.02323X0.00079*%
%ADD338R,0.02165X0.00118*%
%ADD339R,0.01969X0.00079*%
%ADD340R,0.02244X0.00079*%
%ADD341R,0.01850X0.00118*%
%ADD342R,0.02047X0.00079*%
%ADD343R,0.02126X0.00079*%
%ADD344R,0.02047X0.00118*%
%ADD345R,0.01850X0.00079*%
%ADD346R,0.01732X0.00079*%
%ADD347R,0.01654X0.00118*%
%ADD348R,0.01535X0.00079*%
%ADD349R,0.01457X0.00118*%
%ADD350R,0.01260X0.00079*%
%ADD351R,0.00866X0.00079*%
%ADD352R,0.00787X0.00118*%
%ADD353R,0.00669X0.00079*%
%ADD354R,0.01969X0.00118*%
%ADD355R,0.01929X0.00118*%
%ADD356R,0.00197X0.00079*%
%ADD357R,0.02559X0.00079*%
%ADD358R,0.02559X0.00118*%
%ADD359R,0.02638X0.00079*%
%ADD360R,0.02362X0.00079*%
%ADD361R,0.02323X0.00118*%
%ADD362R,0.02717X0.00079*%
%ADD363R,0.02913X0.00079*%
%ADD364R,0.03031X0.00118*%
%ADD365R,0.02795X0.00079*%
%ADD366R,0.02992X0.00079*%
%ADD367R,0.03228X0.00118*%
%ADD368R,0.03150X0.00079*%
%ADD369R,0.03228X0.00079*%
%ADD370R,0.03307X0.00118*%
%ADD371R,0.03622X0.00079*%
%ADD372R,0.03701X0.00118*%
%ADD373R,0.03780X0.00079*%
%ADD374R,0.03976X0.00118*%
%ADD375R,0.04173X0.00079*%
%ADD376R,0.04291X0.00118*%
%ADD377R,0.04488X0.00079*%
%ADD378R,0.04449X0.00118*%
%ADD379R,0.04567X0.00118*%
%ADD380R,0.04488X0.00118*%
%ADD381R,0.04685X0.00079*%
%ADD382R,0.04843X0.00118*%
%ADD383R,0.00512X0.00118*%
%ADD384R,0.05354X0.00079*%
%ADD385R,0.01654X0.00079*%
%ADD386R,0.05551X0.00118*%
%ADD387R,0.05748X0.00079*%
%ADD388R,0.02205X0.00079*%
%ADD389R,0.05827X0.00118*%
%ADD390R,0.05945X0.00079*%
%ADD391R,0.09252X0.00079*%
%ADD392R,0.09252X0.00118*%
%ADD393R,0.09331X0.00079*%
%ADD394R,0.09449X0.00079*%
%ADD395R,0.09449X0.00118*%
%ADD396R,0.09409X0.00079*%
%ADD397R,0.11181X0.00079*%
%ADD398R,0.11260X0.00118*%
%ADD399R,0.11378X0.00079*%
%ADD400R,0.11457X0.00079*%
%ADD401R,0.11575X0.00118*%
%ADD402R,0.11575X0.00079*%
%ADD403R,0.11654X0.00118*%
%ADD404R,0.11654X0.00079*%
%ADD405R,0.11772X0.00118*%
%ADD406R,0.00394X0.00079*%
%ADD407R,0.01260X0.00118*%
%ADD408R,0.14016X0.00118*%
%ADD409R,0.14016X0.00079*%
%ADD410R,0.13819X0.00079*%
%ADD411R,0.13780X0.00118*%
%ADD412R,0.13701X0.00079*%
%ADD413R,0.13819X0.00118*%
%ADD414R,0.13701X0.00118*%
%ADD415R,0.13622X0.00079*%
%ADD416R,0.13504X0.00118*%
%ADD417R,0.01339X0.00118*%
%ADD418R,0.13583X0.00079*%
%ADD419R,0.01457X0.00079*%
%ADD420R,0.13583X0.00118*%
%ADD421R,0.13504X0.00079*%
%ADD422R,0.13386X0.00079*%
%ADD423R,0.02165X0.00079*%
%ADD424R,0.01063X0.00079*%
%ADD425R,0.13386X0.00118*%
%ADD426R,0.00984X0.00118*%
%ADD427R,0.13307X0.00079*%
%ADD428R,0.13189X0.00079*%
%ADD429R,0.02402X0.00079*%
%ADD430R,0.05039X0.00079*%
%ADD431R,0.13110X0.00118*%
%ADD432R,0.05433X0.00118*%
%ADD433R,0.12992X0.00079*%
%ADD434R,0.02598X0.00079*%
%ADD435R,0.12913X0.00118*%
%ADD436R,0.06339X0.00118*%
%ADD437R,0.12795X0.00079*%
%ADD438R,0.09646X0.00079*%
%ADD439R,0.00079X0.00118*%
%ADD440R,0.12638X0.00118*%
%ADD441R,0.09921X0.00118*%
%ADD442R,0.12441X0.00079*%
%ADD443R,0.10315X0.00079*%
%ADD444R,0.12362X0.00118*%
%ADD445R,0.10591X0.00118*%
%ADD446R,0.02953X0.00079*%
%ADD447R,0.12323X0.00079*%
%ADD448R,0.10866X0.00079*%
%ADD449R,0.03583X0.00118*%
%ADD450R,0.12244X0.00118*%
%ADD451R,0.11063X0.00118*%
%ADD452R,0.12362X0.00079*%
%ADD453R,0.04370X0.00118*%
%ADD454R,0.23819X0.00118*%
%ADD455R,0.04764X0.00079*%
%ADD456R,0.23898X0.00079*%
%ADD457R,0.23937X0.00118*%
%ADD458R,0.05709X0.00079*%
%ADD459R,0.17520X0.00079*%
%ADD460R,0.06102X0.00079*%
%ADD461R,0.03780X0.00118*%
%ADD462R,0.17205X0.00118*%
%ADD463R,0.06142X0.00118*%
%ADD464R,0.17008X0.00079*%
%ADD465R,0.06142X0.00079*%
%ADD466R,0.16732X0.00079*%
%ADD467R,0.16535X0.00118*%
%ADD468R,0.16260X0.00079*%
%ADD469R,0.06220X0.00079*%
%ADD470R,0.00669X0.00118*%
%ADD471R,0.16063X0.00118*%
%ADD472R,0.06220X0.00118*%
%ADD473R,0.15827X0.00079*%
%ADD474R,0.02205X0.00118*%
%ADD475R,0.15630X0.00118*%
%ADD476R,0.15472X0.00079*%
%ADD477R,0.06299X0.00079*%
%ADD478R,0.15472X0.00118*%
%ADD479R,0.01929X0.00079*%
%ADD480R,0.15276X0.00079*%
%ADD481R,0.15276X0.00118*%
%ADD482R,0.14961X0.00079*%
%ADD483R,0.14882X0.00118*%
%ADD484R,0.13780X0.00079*%
%ADD485R,0.00276X0.00118*%
%ADD486R,0.06417X0.00118*%
%ADD487R,0.13425X0.00079*%
%ADD488R,0.01811X0.00079*%
%ADD489R,0.13346X0.00079*%
%ADD490R,0.01732X0.00118*%
%ADD491R,0.13228X0.00118*%
%ADD492R,0.13150X0.00079*%
%ADD493R,0.15551X0.00118*%
%ADD494R,0.00118X0.00079*%
%ADD495R,0.16339X0.00118*%
%ADD496R,0.16417X0.00079*%
%ADD497R,0.00709X0.00079*%
%ADD498R,0.16496X0.00118*%
%ADD499R,0.17008X0.00118*%
%ADD500R,0.17205X0.00079*%
%ADD501R,0.17402X0.00118*%
%ADD502R,0.14488X0.00079*%
%ADD503R,0.01772X0.00079*%
%ADD504R,0.14173X0.00118*%
%ADD505R,0.12165X0.00118*%
%ADD506R,0.11339X0.00079*%
%ADD507R,0.10709X0.00118*%
%ADD508R,0.10591X0.00079*%
%ADD509R,0.02402X0.00118*%
%ADD510R,0.10709X0.00079*%
%ADD511R,0.10669X0.00118*%
%ADD512R,0.00472X0.00079*%
%ADD513R,0.01181X0.00079*%
%ADD514R,0.06496X0.00118*%
%ADD515R,0.06024X0.00079*%
%ADD516R,0.00157X0.00079*%
%ADD517R,0.04173X0.00118*%
%ADD518R,0.04094X0.00118*%
%ADD519R,0.03976X0.00079*%
%ADD520R,0.00748X0.00118*%
%ADD521R,0.01142X0.00079*%
%ADD522R,0.06063X0.00079*%
%ADD523R,0.01575X0.00079*%
%ADD524R,0.01339X0.00079*%
%ADD525R,0.01378X0.00079*%
%ADD526R,0.03189X0.00079*%
%ADD527R,0.00512X0.00079*%
%ADD528R,0.01378X0.00118*%
%ADD529R,0.00315X0.00118*%
%ADD530R,0.00315X0.00079*%
%ADD531R,0.00866X0.00118*%
%ADD532R,0.00787X0.00079*%
%ADD533R,0.00945X0.00079*%
%ADD534R,0.00748X0.00079*%
%ADD535R,0.03425X0.00079*%
%ADD536R,0.01299X0.00118*%
%ADD537R,0.01299X0.00079*%
%ADD538R,0.00906X0.00118*%
%ADD539R,0.01102X0.00079*%
%ADD540R,0.00906X0.00079*%
%ADD541R,0.06417X0.00079*%
%ADD542R,0.01102X0.00118*%
%ADD543R,0.06614X0.00079*%
%ADD544R,0.06693X0.00079*%
%ADD545R,0.06811X0.00118*%
%ADD546R,0.07008X0.00079*%
%ADD547R,0.07087X0.00079*%
%ADD548R,0.07205X0.00118*%
%ADD549R,0.07283X0.00079*%
%ADD550R,0.07520X0.00118*%
%ADD551R,0.07520X0.00079*%
%ADD552R,0.07677X0.00118*%
%ADD553R,0.07677X0.00079*%
%ADD554R,0.07795X0.00118*%
%ADD555R,0.07874X0.00079*%
%ADD556R,0.07874X0.00118*%
%ADD557R,0.07992X0.00079*%
%ADD558R,0.08071X0.00118*%
%ADD559R,0.07953X0.00079*%
%ADD560R,0.08071X0.00079*%
%ADD561R,0.08150X0.00079*%
%ADD562R,0.08268X0.00079*%
%ADD563R,0.08268X0.00118*%
%ADD564R,0.08386X0.00079*%
%ADD565R,0.00551X0.00118*%
%ADD566R,0.08465X0.00118*%
%ADD567R,0.08346X0.00079*%
%ADD568R,0.08543X0.00118*%
%ADD569R,0.08661X0.00079*%
%ADD570R,0.08858X0.00118*%
%ADD571R,0.08937X0.00079*%
%ADD572R,0.09134X0.00118*%
%ADD573R,0.09724X0.00079*%
%ADD574R,0.11969X0.00079*%
%ADD575R,0.12244X0.00079*%
%ADD576R,0.12441X0.00118*%
%ADD577R,0.12323X0.00118*%
%ADD578R,0.11850X0.00079*%
%ADD579R,0.00079X0.00079*%
%ADD580R,0.11260X0.00079*%
%ADD581R,0.00276X0.00079*%
%ADD582R,0.09528X0.00079*%
%ADD583R,0.00197X0.00118*%
%ADD584R,0.09055X0.00118*%
%ADD585R,0.06890X0.00079*%
%ADD586R,0.06693X0.00118*%
%ADD587R,0.06339X0.00079*%
%ADD588R,0.05039X0.00118*%
%ADD589R,0.04961X0.00079*%
%ADD590R,0.04646X0.00118*%
%ADD591R,0.04252X0.00118*%
%ADD592R,0.04291X0.00079*%
%ADD593R,0.04252X0.00079*%
%ADD594R,0.04094X0.00079*%
%ADD595R,0.04921X0.00079*%
%ADD596R,0.07480X0.00118*%
%ADD597R,0.07323X0.00079*%
%ADD598R,0.06890X0.00118*%
%ADD599R,0.05827X0.00079*%
%ADD600R,0.04055X0.00118*%
D10*
X0114333Y0080550D02*
X0114333Y0086500D01*
X0127033Y0086500D01*
X0127033Y0080550D01*
X0114333Y0080550D01*
X0114333Y0080923D02*
X0127033Y0080923D01*
X0127033Y0081421D02*
X0114333Y0081421D01*
X0114333Y0081920D02*
X0127033Y0081920D01*
X0127033Y0082418D02*
X0114333Y0082418D01*
X0114333Y0082917D02*
X0127033Y0082917D01*
X0127033Y0083415D02*
X0114333Y0083415D01*
X0114333Y0083914D02*
X0127033Y0083914D01*
X0127033Y0084412D02*
X0114333Y0084412D01*
X0114333Y0084911D02*
X0127033Y0084911D01*
X0127033Y0085409D02*
X0114333Y0085409D01*
X0114333Y0085908D02*
X0127033Y0085908D01*
X0127033Y0086406D02*
X0114333Y0086406D01*
X0137213Y0086406D02*
X0149540Y0086406D01*
X0149623Y0086490D02*
X0143683Y0080550D01*
X0137213Y0080550D01*
X0137213Y0086490D01*
X0149623Y0086490D01*
X0149041Y0085908D02*
X0137213Y0085908D01*
X0137213Y0085409D02*
X0148543Y0085409D01*
X0148044Y0084911D02*
X0137213Y0084911D01*
X0137213Y0084412D02*
X0147545Y0084412D01*
X0147047Y0083914D02*
X0137213Y0083914D01*
X0137213Y0083415D02*
X0146548Y0083415D01*
X0146050Y0082917D02*
X0137213Y0082917D01*
X0137213Y0082418D02*
X0145551Y0082418D01*
X0145053Y0081920D02*
X0137213Y0081920D01*
X0137213Y0081421D02*
X0144554Y0081421D01*
X0144056Y0080923D02*
X0137213Y0080923D01*
D11*
X0180333Y0123000D02*
X0190333Y0123000D01*
X0190416Y0123002D01*
X0190499Y0123008D01*
X0190582Y0123017D01*
X0190664Y0123031D01*
X0190745Y0123048D01*
X0190826Y0123069D01*
X0190905Y0123093D01*
X0190983Y0123122D01*
X0191060Y0123153D01*
X0191135Y0123189D01*
X0191209Y0123227D01*
X0191281Y0123270D01*
X0191350Y0123315D01*
X0191418Y0123364D01*
X0191483Y0123415D01*
X0191546Y0123470D01*
X0191606Y0123527D01*
X0191663Y0123587D01*
X0191718Y0123650D01*
X0191769Y0123715D01*
X0191818Y0123783D01*
X0191863Y0123852D01*
X0191906Y0123924D01*
X0191944Y0123998D01*
X0191980Y0124073D01*
X0192011Y0124150D01*
X0192040Y0124228D01*
X0192064Y0124307D01*
X0192085Y0124388D01*
X0192102Y0124469D01*
X0192116Y0124551D01*
X0192125Y0124634D01*
X0192131Y0124717D01*
X0192133Y0124800D01*
X0192133Y0129200D01*
X0192131Y0129283D01*
X0192125Y0129366D01*
X0192116Y0129449D01*
X0192102Y0129531D01*
X0192085Y0129612D01*
X0192064Y0129693D01*
X0192040Y0129772D01*
X0192011Y0129850D01*
X0191980Y0129927D01*
X0191944Y0130002D01*
X0191906Y0130076D01*
X0191863Y0130148D01*
X0191818Y0130217D01*
X0191769Y0130285D01*
X0191718Y0130350D01*
X0191663Y0130413D01*
X0191606Y0130473D01*
X0191546Y0130530D01*
X0191483Y0130585D01*
X0191418Y0130636D01*
X0191350Y0130685D01*
X0191281Y0130730D01*
X0191209Y0130773D01*
X0191135Y0130811D01*
X0191060Y0130847D01*
X0190983Y0130878D01*
X0190905Y0130907D01*
X0190826Y0130931D01*
X0190745Y0130952D01*
X0190664Y0130969D01*
X0190582Y0130983D01*
X0190499Y0130992D01*
X0190416Y0130998D01*
X0190333Y0131000D01*
X0180333Y0131000D01*
X0180250Y0130998D01*
X0180167Y0130992D01*
X0180084Y0130983D01*
X0180002Y0130969D01*
X0179921Y0130952D01*
X0179840Y0130931D01*
X0179761Y0130907D01*
X0179683Y0130878D01*
X0179606Y0130847D01*
X0179531Y0130811D01*
X0179457Y0130773D01*
X0179385Y0130730D01*
X0179316Y0130685D01*
X0179248Y0130636D01*
X0179183Y0130585D01*
X0179120Y0130530D01*
X0179060Y0130473D01*
X0179003Y0130413D01*
X0178948Y0130350D01*
X0178897Y0130285D01*
X0178848Y0130217D01*
X0178803Y0130148D01*
X0178760Y0130076D01*
X0178722Y0130002D01*
X0178686Y0129927D01*
X0178655Y0129850D01*
X0178626Y0129772D01*
X0178602Y0129693D01*
X0178581Y0129612D01*
X0178564Y0129531D01*
X0178550Y0129449D01*
X0178541Y0129366D01*
X0178535Y0129283D01*
X0178533Y0129200D01*
X0178533Y0124800D01*
X0178535Y0124717D01*
X0178541Y0124634D01*
X0178550Y0124551D01*
X0178564Y0124469D01*
X0178581Y0124388D01*
X0178602Y0124307D01*
X0178626Y0124228D01*
X0178655Y0124150D01*
X0178686Y0124073D01*
X0178722Y0123998D01*
X0178760Y0123924D01*
X0178803Y0123852D01*
X0178848Y0123783D01*
X0178897Y0123715D01*
X0178948Y0123650D01*
X0179003Y0123587D01*
X0179060Y0123527D01*
X0179120Y0123470D01*
X0179183Y0123415D01*
X0179248Y0123364D01*
X0179316Y0123315D01*
X0179385Y0123270D01*
X0179457Y0123227D01*
X0179531Y0123189D01*
X0179606Y0123153D01*
X0179683Y0123122D01*
X0179761Y0123093D01*
X0179840Y0123069D01*
X0179921Y0123048D01*
X0180002Y0123031D01*
X0180084Y0123017D01*
X0180167Y0123008D01*
X0180250Y0123002D01*
X0180333Y0123000D01*
D12*
X0182233Y0109200D02*
X0189033Y0109200D01*
X0189093Y0109198D01*
X0189154Y0109193D01*
X0189213Y0109184D01*
X0189272Y0109171D01*
X0189331Y0109155D01*
X0189388Y0109135D01*
X0189443Y0109112D01*
X0189498Y0109085D01*
X0189550Y0109056D01*
X0189601Y0109023D01*
X0189650Y0108987D01*
X0189696Y0108949D01*
X0189740Y0108907D01*
X0189782Y0108863D01*
X0189820Y0108817D01*
X0189856Y0108768D01*
X0189889Y0108717D01*
X0189918Y0108665D01*
X0189945Y0108610D01*
X0189968Y0108555D01*
X0189988Y0108498D01*
X0190004Y0108439D01*
X0190017Y0108380D01*
X0190026Y0108321D01*
X0190031Y0108260D01*
X0190033Y0108200D01*
X0190033Y0102200D01*
X0190031Y0102140D01*
X0190026Y0102079D01*
X0190017Y0102020D01*
X0190004Y0101961D01*
X0189988Y0101902D01*
X0189968Y0101845D01*
X0189945Y0101790D01*
X0189918Y0101735D01*
X0189889Y0101683D01*
X0189856Y0101632D01*
X0189820Y0101583D01*
X0189782Y0101537D01*
X0189740Y0101493D01*
X0189696Y0101451D01*
X0189650Y0101413D01*
X0189601Y0101377D01*
X0189550Y0101344D01*
X0189498Y0101315D01*
X0189443Y0101288D01*
X0189388Y0101265D01*
X0189331Y0101245D01*
X0189272Y0101229D01*
X0189213Y0101216D01*
X0189154Y0101207D01*
X0189093Y0101202D01*
X0189033Y0101200D01*
X0182233Y0101200D01*
X0182173Y0101202D01*
X0182112Y0101207D01*
X0182053Y0101216D01*
X0181994Y0101229D01*
X0181935Y0101245D01*
X0181878Y0101265D01*
X0181823Y0101288D01*
X0181768Y0101315D01*
X0181716Y0101344D01*
X0181665Y0101377D01*
X0181616Y0101413D01*
X0181570Y0101451D01*
X0181526Y0101493D01*
X0181484Y0101537D01*
X0181446Y0101583D01*
X0181410Y0101632D01*
X0181377Y0101683D01*
X0181348Y0101735D01*
X0181321Y0101790D01*
X0181298Y0101845D01*
X0181278Y0101902D01*
X0181262Y0101961D01*
X0181249Y0102020D01*
X0181240Y0102079D01*
X0181235Y0102140D01*
X0181233Y0102200D01*
X0181233Y0108200D01*
X0181235Y0108260D01*
X0181240Y0108321D01*
X0181249Y0108380D01*
X0181262Y0108439D01*
X0181278Y0108498D01*
X0181298Y0108555D01*
X0181321Y0108610D01*
X0181348Y0108665D01*
X0181377Y0108717D01*
X0181410Y0108768D01*
X0181446Y0108817D01*
X0181484Y0108863D01*
X0181526Y0108907D01*
X0181570Y0108949D01*
X0181616Y0108987D01*
X0181665Y0109023D01*
X0181716Y0109056D01*
X0181768Y0109085D01*
X0181823Y0109112D01*
X0181878Y0109135D01*
X0181935Y0109155D01*
X0181994Y0109171D01*
X0182053Y0109184D01*
X0182112Y0109193D01*
X0182173Y0109198D01*
X0182233Y0109200D01*
X0127133Y0125800D02*
X0127133Y0130200D01*
X0127131Y0130283D01*
X0127125Y0130366D01*
X0127116Y0130449D01*
X0127102Y0130531D01*
X0127085Y0130612D01*
X0127064Y0130693D01*
X0127040Y0130772D01*
X0127011Y0130850D01*
X0126980Y0130927D01*
X0126944Y0131002D01*
X0126906Y0131076D01*
X0126863Y0131148D01*
X0126818Y0131217D01*
X0126769Y0131285D01*
X0126718Y0131350D01*
X0126663Y0131413D01*
X0126606Y0131473D01*
X0126546Y0131530D01*
X0126483Y0131585D01*
X0126418Y0131636D01*
X0126350Y0131685D01*
X0126281Y0131730D01*
X0126209Y0131773D01*
X0126135Y0131811D01*
X0126060Y0131847D01*
X0125983Y0131878D01*
X0125905Y0131907D01*
X0125826Y0131931D01*
X0125745Y0131952D01*
X0125664Y0131969D01*
X0125582Y0131983D01*
X0125499Y0131992D01*
X0125416Y0131998D01*
X0125333Y0132000D01*
X0119333Y0132000D01*
X0119250Y0131998D01*
X0119167Y0131992D01*
X0119084Y0131983D01*
X0119002Y0131969D01*
X0118921Y0131952D01*
X0118840Y0131931D01*
X0118761Y0131907D01*
X0118683Y0131878D01*
X0118606Y0131847D01*
X0118531Y0131811D01*
X0118457Y0131773D01*
X0118385Y0131730D01*
X0118316Y0131685D01*
X0118248Y0131636D01*
X0118183Y0131585D01*
X0118120Y0131530D01*
X0118060Y0131473D01*
X0118003Y0131413D01*
X0117948Y0131350D01*
X0117897Y0131285D01*
X0117848Y0131217D01*
X0117803Y0131148D01*
X0117760Y0131076D01*
X0117722Y0131002D01*
X0117686Y0130927D01*
X0117655Y0130850D01*
X0117626Y0130772D01*
X0117602Y0130693D01*
X0117581Y0130612D01*
X0117564Y0130531D01*
X0117550Y0130449D01*
X0117541Y0130366D01*
X0117535Y0130283D01*
X0117533Y0130200D01*
X0117533Y0125800D01*
X0117535Y0125717D01*
X0117541Y0125634D01*
X0117550Y0125551D01*
X0117564Y0125469D01*
X0117581Y0125388D01*
X0117602Y0125307D01*
X0117626Y0125228D01*
X0117655Y0125150D01*
X0117686Y0125073D01*
X0117722Y0124998D01*
X0117760Y0124924D01*
X0117803Y0124852D01*
X0117848Y0124783D01*
X0117897Y0124715D01*
X0117948Y0124650D01*
X0118003Y0124587D01*
X0118060Y0124527D01*
X0118120Y0124470D01*
X0118183Y0124415D01*
X0118248Y0124364D01*
X0118316Y0124315D01*
X0118385Y0124270D01*
X0118457Y0124227D01*
X0118531Y0124189D01*
X0118606Y0124153D01*
X0118683Y0124122D01*
X0118761Y0124093D01*
X0118840Y0124069D01*
X0118921Y0124048D01*
X0119002Y0124031D01*
X0119084Y0124017D01*
X0119167Y0124008D01*
X0119250Y0124002D01*
X0119333Y0124000D01*
X0125333Y0124000D01*
X0125416Y0124002D01*
X0125499Y0124008D01*
X0125582Y0124017D01*
X0125664Y0124031D01*
X0125745Y0124048D01*
X0125826Y0124069D01*
X0125905Y0124093D01*
X0125983Y0124122D01*
X0126060Y0124153D01*
X0126135Y0124189D01*
X0126209Y0124227D01*
X0126281Y0124270D01*
X0126350Y0124315D01*
X0126418Y0124364D01*
X0126483Y0124415D01*
X0126546Y0124470D01*
X0126606Y0124527D01*
X0126663Y0124587D01*
X0126718Y0124650D01*
X0126769Y0124715D01*
X0126818Y0124783D01*
X0126863Y0124852D01*
X0126906Y0124924D01*
X0126944Y0124998D01*
X0126980Y0125073D01*
X0127011Y0125150D01*
X0127040Y0125228D01*
X0127064Y0125307D01*
X0127085Y0125388D01*
X0127102Y0125469D01*
X0127116Y0125551D01*
X0127125Y0125634D01*
X0127131Y0125717D01*
X0127133Y0125800D01*
D13*
X0161991Y0141265D03*
X0166676Y0141265D03*
X0172091Y0068846D03*
X0172209Y0068846D03*
X0172327Y0068846D03*
X0172445Y0068846D03*
X0172524Y0068846D03*
X0172642Y0068846D03*
X0172760Y0068846D03*
X0176185Y0068846D03*
X0176303Y0068846D03*
X0176658Y0068846D03*
X0176776Y0068846D03*
D14*
X0176559Y0068846D03*
X0176087Y0068846D03*
D15*
X0176441Y0068846D03*
D16*
X0172878Y0073334D03*
X0175988Y0064357D03*
X0193823Y0070754D03*
X0194099Y0070754D03*
X0194217Y0070754D03*
X0156125Y0074291D03*
X0144944Y0075950D03*
X0144668Y0075950D03*
X0144550Y0075950D03*
X0144471Y0075950D03*
X0144196Y0075950D03*
X0144117Y0075950D03*
X0143999Y0075950D03*
X0143723Y0075950D03*
X0135062Y0075732D03*
X0134668Y0075850D03*
X0134550Y0075850D03*
X0134471Y0075850D03*
X0134196Y0075850D03*
X0134117Y0075850D03*
X0133999Y0075850D03*
X0133605Y0075732D03*
X0133526Y0075732D03*
X0154196Y0064251D03*
X0154471Y0064251D03*
X0154747Y0064251D03*
X0156125Y0064251D03*
X0144568Y0138667D03*
X0144450Y0138667D03*
X0144371Y0138667D03*
X0144096Y0138667D03*
X0144017Y0138667D03*
X0143899Y0138667D03*
X0164668Y0145753D03*
D17*
X0156676Y0142850D03*
X0151991Y0142850D03*
X0175988Y0070440D03*
X0192760Y0067269D03*
D18*
X0195851Y0064257D03*
X0182916Y0073234D03*
X0175851Y0073452D03*
X0174906Y0066365D03*
X0175851Y0064239D03*
X0145751Y0075714D03*
X0162916Y0142682D03*
X0154333Y0145862D03*
X0153861Y0145862D03*
X0153388Y0145862D03*
X0152916Y0145862D03*
X0172916Y0145857D03*
X0173388Y0145857D03*
X0173861Y0145857D03*
X0174333Y0145857D03*
D19*
X0174333Y0143672D03*
X0173388Y0143672D03*
X0174333Y0142019D03*
X0174333Y0139302D03*
X0174806Y0138003D03*
X0164806Y0139316D03*
X0164806Y0142032D03*
X0153388Y0143677D03*
X0152916Y0143677D03*
X0144706Y0142033D03*
X0154885Y0072578D03*
X0155987Y0071476D03*
X0154609Y0069271D03*
X0155987Y0067066D03*
X0154885Y0065688D03*
X0175378Y0069023D03*
X0175851Y0067133D03*
X0174906Y0071857D03*
X0182916Y0070931D03*
X0193016Y0067269D03*
D20*
X0184806Y0063726D03*
X0183861Y0063726D03*
X0174906Y0063826D03*
X0173961Y0063826D03*
X0175851Y0068905D03*
X0145751Y0063844D03*
X0142916Y0063844D03*
X0135751Y0063744D03*
X0132916Y0063744D03*
X0143861Y0069631D03*
X0133861Y0073075D03*
X0132916Y0071657D03*
X0175751Y0130562D03*
X0174333Y0132806D03*
X0173861Y0139302D03*
X0173861Y0142019D03*
X0165751Y0143213D03*
X0163388Y0146284D03*
X0155751Y0138362D03*
X0145651Y0139080D03*
D21*
X0143288Y0141679D03*
X0153861Y0141433D03*
X0165278Y0140615D03*
X0165278Y0143331D03*
X0174806Y0143082D03*
X0173861Y0133279D03*
X0173016Y0070440D03*
X0173961Y0068550D03*
X0175378Y0067251D03*
X0175851Y0070440D03*
X0183388Y0070813D03*
X0185278Y0070813D03*
X0144806Y0071285D03*
X0144333Y0071403D03*
X0143388Y0071167D03*
X0143388Y0068096D03*
X0143861Y0066797D03*
X0143861Y0065498D03*
X0135751Y0067878D03*
X0133861Y0066697D03*
X0133861Y0065398D03*
X0132916Y0067878D03*
D22*
X0132778Y0066047D03*
X0142778Y0066147D03*
X0175713Y0064121D03*
X0183054Y0064021D03*
X0183723Y0066265D03*
X0175713Y0073570D03*
X0195713Y0064139D03*
X0173251Y0130503D03*
X0163526Y0139847D03*
X0163251Y0139847D03*
X0163172Y0139847D03*
X0163054Y0139847D03*
X0163172Y0142564D03*
X0162778Y0145989D03*
X0164550Y0145989D03*
X0154196Y0143146D03*
X0153251Y0138303D03*
D23*
X0153172Y0140193D03*
X0153054Y0140193D03*
X0154471Y0140193D03*
X0153723Y0141492D03*
X0153172Y0142319D03*
X0154471Y0142319D03*
X0163526Y0144572D03*
X0165062Y0144572D03*
X0165416Y0143272D03*
X0165416Y0140556D03*
X0163999Y0140556D03*
X0163999Y0137839D03*
X0164117Y0137839D03*
X0164196Y0137839D03*
X0164471Y0137839D03*
X0164550Y0137839D03*
X0164668Y0137839D03*
X0173172Y0136763D03*
X0173605Y0135464D03*
X0173723Y0135464D03*
X0173999Y0135464D03*
X0173999Y0133220D03*
X0174471Y0133220D03*
X0172660Y0133220D03*
X0174550Y0137944D03*
X0174550Y0140661D03*
X0174471Y0140661D03*
X0173172Y0140661D03*
X0173054Y0140661D03*
X0173172Y0142078D03*
X0174944Y0143023D03*
X0143151Y0141738D03*
X0143072Y0141738D03*
X0143054Y0073706D03*
X0143526Y0072525D03*
X0143723Y0071344D03*
X0143251Y0071108D03*
X0145140Y0071226D03*
X0145416Y0073706D03*
X0145534Y0073706D03*
X0135613Y0069118D03*
X0134471Y0071244D03*
X0133251Y0071598D03*
X0133526Y0073134D03*
X0133723Y0066638D03*
X0133723Y0065457D03*
X0143251Y0068155D03*
X0143723Y0066738D03*
X0143723Y0065557D03*
X0172878Y0070381D03*
X0173705Y0068609D03*
X0173823Y0068609D03*
X0175162Y0067192D03*
X0175713Y0067192D03*
X0173626Y0066011D03*
X0183526Y0065911D03*
X0184944Y0066974D03*
X0185416Y0070872D03*
X0183251Y0070872D03*
X0193154Y0067210D03*
X0193705Y0067092D03*
X0193626Y0066029D03*
X0195044Y0067092D03*
D24*
X0195044Y0065970D03*
X0184944Y0065970D03*
X0175713Y0068905D03*
X0174650Y0071976D03*
X0174571Y0071976D03*
X0174296Y0071976D03*
X0174217Y0071976D03*
X0174099Y0065834D03*
X0143723Y0069631D03*
X0135613Y0071657D03*
X0174944Y0138003D03*
X0174196Y0139302D03*
X0174117Y0139302D03*
X0173526Y0139302D03*
X0173526Y0142019D03*
X0174117Y0142019D03*
X0164117Y0143568D03*
X0154471Y0143559D03*
X0152660Y0143559D03*
X0145788Y0146403D03*
X0144844Y0146403D03*
X0144568Y0146403D03*
X0144371Y0143687D03*
X0144096Y0143687D03*
X0144017Y0143687D03*
X0143899Y0143687D03*
X0143623Y0143687D03*
X0143505Y0143687D03*
X0143426Y0143687D03*
X0143151Y0143687D03*
X0143072Y0143687D03*
X0142954Y0143687D03*
X0142678Y0143687D03*
X0142560Y0143687D03*
X0142442Y0141915D03*
X0144962Y0141915D03*
D25*
X0143899Y0142328D03*
X0143426Y0141620D03*
X0143426Y0140675D03*
X0143505Y0140675D03*
X0143623Y0140675D03*
X0143899Y0140675D03*
X0144017Y0140675D03*
X0144096Y0140675D03*
X0144371Y0140675D03*
X0144450Y0140675D03*
X0144568Y0140675D03*
X0144844Y0140675D03*
X0143151Y0140675D03*
X0143072Y0140675D03*
X0142954Y0140675D03*
X0142678Y0140675D03*
X0142560Y0140675D03*
X0142442Y0140675D03*
X0144962Y0143155D03*
X0152660Y0141492D03*
X0153999Y0141374D03*
X0164471Y0140674D03*
X0164550Y0140674D03*
X0164668Y0140674D03*
X0164944Y0140674D03*
X0165062Y0140674D03*
X0165062Y0143272D03*
X0165140Y0143272D03*
X0164668Y0143391D03*
X0164550Y0143391D03*
X0173251Y0140661D03*
X0173526Y0140661D03*
X0174196Y0140661D03*
X0174668Y0143141D03*
X0174196Y0137944D03*
X0174117Y0137826D03*
X0173999Y0137826D03*
X0173251Y0137944D03*
X0173172Y0137944D03*
X0173723Y0136527D03*
X0173999Y0136527D03*
X0173723Y0133338D03*
X0172778Y0133338D03*
X0174668Y0133338D03*
X0143999Y0073824D03*
X0143723Y0073824D03*
X0143605Y0073824D03*
X0143526Y0073824D03*
X0145140Y0072525D03*
X0144668Y0071344D03*
X0144550Y0071344D03*
X0144944Y0071226D03*
X0145062Y0071226D03*
X0145062Y0068037D03*
X0144944Y0068037D03*
X0143723Y0068037D03*
X0143605Y0068037D03*
X0143999Y0066856D03*
X0144117Y0066856D03*
X0144668Y0066147D03*
X0143999Y0065439D03*
X0135613Y0067937D03*
X0135534Y0067937D03*
X0135416Y0067937D03*
X0135140Y0067937D03*
X0135062Y0067937D03*
X0134944Y0067937D03*
X0134668Y0067937D03*
X0134550Y0067937D03*
X0134471Y0067937D03*
X0134196Y0067937D03*
X0134117Y0067937D03*
X0133999Y0067937D03*
X0133723Y0067937D03*
X0133605Y0067937D03*
X0133526Y0067937D03*
X0133251Y0067937D03*
X0133172Y0067937D03*
X0133054Y0067937D03*
X0133172Y0069000D03*
X0133251Y0069000D03*
X0133526Y0069000D03*
X0133605Y0069000D03*
X0134550Y0069000D03*
X0134668Y0069000D03*
X0134944Y0069000D03*
X0135062Y0069000D03*
X0135140Y0069000D03*
X0134117Y0066756D03*
X0133999Y0066756D03*
X0134668Y0066047D03*
X0133999Y0065339D03*
X0134196Y0071362D03*
X0133999Y0071480D03*
X0133723Y0071480D03*
X0133605Y0071480D03*
X0173154Y0070381D03*
X0173272Y0070381D03*
X0173351Y0070381D03*
X0173626Y0070381D03*
X0173705Y0070381D03*
X0173823Y0070381D03*
X0174099Y0070381D03*
X0174217Y0070381D03*
X0174296Y0070381D03*
X0174571Y0070381D03*
X0174650Y0070381D03*
X0174768Y0070381D03*
X0175044Y0070381D03*
X0175162Y0070381D03*
X0175240Y0070381D03*
X0175516Y0070381D03*
X0175634Y0070381D03*
X0175713Y0070381D03*
X0174650Y0069318D03*
X0174571Y0069318D03*
X0174099Y0068491D03*
X0174099Y0067310D03*
X0174217Y0067310D03*
X0174296Y0067310D03*
X0174571Y0067310D03*
X0173823Y0067310D03*
X0173705Y0067310D03*
X0173626Y0067310D03*
X0173351Y0067310D03*
X0173272Y0067310D03*
X0183054Y0067092D03*
X0183526Y0067092D03*
X0185140Y0067092D03*
X0185534Y0067092D03*
X0185140Y0070754D03*
X0185062Y0070754D03*
X0183526Y0070754D03*
X0193272Y0067210D03*
X0193351Y0067210D03*
X0195240Y0067210D03*
D26*
X0195988Y0067151D03*
X0195634Y0064080D03*
X0193154Y0064080D03*
X0185534Y0063962D03*
X0175634Y0064062D03*
X0173154Y0064062D03*
X0173154Y0073629D03*
X0175634Y0073629D03*
X0132778Y0071657D03*
X0153172Y0138362D03*
X0162778Y0137308D03*
X0163251Y0142505D03*
X0163526Y0142505D03*
X0143151Y0138962D03*
D27*
X0144962Y0140734D03*
X0144096Y0142269D03*
X0144017Y0142269D03*
X0153251Y0141315D03*
X0154668Y0141315D03*
X0155062Y0143087D03*
X0164117Y0140615D03*
X0164196Y0140615D03*
X0165140Y0140615D03*
X0164471Y0143450D03*
X0165140Y0144513D03*
X0173172Y0139302D03*
X0174471Y0139302D03*
X0174471Y0138003D03*
X0173054Y0138003D03*
X0173605Y0136586D03*
X0174117Y0136586D03*
X0175062Y0135641D03*
X0174944Y0133279D03*
X0174550Y0133279D03*
X0174471Y0132334D03*
X0173172Y0132334D03*
X0174471Y0142019D03*
X0144196Y0073765D03*
X0144117Y0073765D03*
X0143251Y0073765D03*
X0143172Y0073765D03*
X0143605Y0071285D03*
X0143526Y0071167D03*
X0144471Y0071403D03*
X0145140Y0068096D03*
X0143526Y0068096D03*
X0135534Y0069059D03*
X0135416Y0069059D03*
X0134471Y0069059D03*
X0133723Y0069059D03*
X0133054Y0069059D03*
X0132778Y0067878D03*
X0135140Y0070240D03*
X0133526Y0071539D03*
X0173154Y0067251D03*
X0174650Y0067251D03*
X0175240Y0067251D03*
X0175516Y0067251D03*
X0175634Y0067251D03*
X0174768Y0069259D03*
X0173626Y0071621D03*
X0182778Y0069631D03*
X0183605Y0067033D03*
X0185062Y0067033D03*
X0185613Y0067033D03*
X0193626Y0067151D03*
X0195162Y0067151D03*
X0195516Y0067269D03*
X0195634Y0067269D03*
X0195240Y0068450D03*
D28*
X0193705Y0066029D03*
X0183605Y0065911D03*
X0175634Y0068964D03*
X0175516Y0068964D03*
X0173154Y0068846D03*
X0174099Y0071917D03*
X0174768Y0071917D03*
X0182778Y0070990D03*
X0173823Y0065893D03*
X0145140Y0066147D03*
X0144944Y0069572D03*
X0145534Y0071108D03*
X0143054Y0071108D03*
X0144550Y0073470D03*
X0134944Y0073134D03*
X0133605Y0073134D03*
X0133054Y0071598D03*
X0135140Y0066047D03*
X0176085Y0130739D03*
X0176203Y0130857D03*
X0174117Y0132983D03*
X0172660Y0138062D03*
X0172778Y0140661D03*
X0174196Y0142078D03*
X0174550Y0143613D03*
X0173054Y0143613D03*
X0165613Y0143272D03*
X0163723Y0143154D03*
X0163723Y0144454D03*
X0154550Y0143618D03*
X0152778Y0143618D03*
X0146103Y0139376D03*
X0145985Y0139257D03*
X0144844Y0141974D03*
X0144450Y0143628D03*
X0156085Y0138539D03*
X0156203Y0138657D03*
X0163526Y0137603D03*
X0165140Y0137603D03*
D29*
X0172660Y0134932D03*
X0172778Y0134932D03*
X0173054Y0134932D03*
X0173172Y0134932D03*
X0173251Y0134932D03*
X0174196Y0134932D03*
X0172542Y0131035D03*
X0172660Y0130917D03*
X0173054Y0130562D03*
X0175613Y0130562D03*
X0155613Y0138362D03*
X0163999Y0143686D03*
X0164471Y0146166D03*
X0165140Y0146166D03*
X0165613Y0146166D03*
X0145513Y0139080D03*
X0142954Y0139080D03*
X0154196Y0074704D03*
X0154747Y0074704D03*
X0155573Y0074704D03*
X0154747Y0071554D03*
X0144471Y0069631D03*
X0144196Y0069631D03*
X0144117Y0069631D03*
X0155022Y0063838D03*
X0155298Y0063838D03*
X0155573Y0063838D03*
X0173351Y0063944D03*
X0175516Y0063944D03*
X0183251Y0063844D03*
X0183526Y0068923D03*
X0183605Y0068923D03*
X0183723Y0068923D03*
X0183999Y0068923D03*
X0184117Y0068923D03*
X0184196Y0068923D03*
X0184471Y0068923D03*
X0184550Y0068923D03*
X0184668Y0068923D03*
X0184944Y0068923D03*
X0185062Y0068923D03*
X0185140Y0068923D03*
X0185416Y0068923D03*
X0185534Y0068923D03*
X0193351Y0063962D03*
X0195516Y0063962D03*
X0173351Y0073747D03*
D30*
X0173272Y0073688D03*
X0175516Y0073688D03*
X0185613Y0068864D03*
X0185416Y0063903D03*
X0183172Y0063903D03*
X0173272Y0064003D03*
X0193272Y0064021D03*
X0154471Y0074645D03*
X0152818Y0074645D03*
X0144944Y0073116D03*
X0142778Y0071108D03*
X0143054Y0066147D03*
X0143172Y0066147D03*
X0143251Y0066147D03*
X0143526Y0066147D03*
X0145613Y0066147D03*
X0152818Y0063897D03*
X0135613Y0066047D03*
X0133526Y0066047D03*
X0133251Y0066047D03*
X0133172Y0066047D03*
X0133054Y0066047D03*
X0134944Y0070772D03*
X0173172Y0130503D03*
X0172542Y0134991D03*
X0172542Y0140661D03*
X0175062Y0140661D03*
X0172542Y0143377D03*
X0165062Y0146107D03*
X0154117Y0143264D03*
X0153054Y0138421D03*
X0143072Y0139021D03*
D31*
X0152916Y0138480D03*
X0162916Y0137308D03*
X0165751Y0137308D03*
X0172916Y0134932D03*
X0173388Y0134932D03*
X0174333Y0134932D03*
X0172916Y0130680D03*
X0155436Y0074704D03*
X0154609Y0074704D03*
X0154058Y0074704D03*
X0152955Y0074704D03*
X0145751Y0071049D03*
X0144333Y0069631D03*
X0135751Y0071657D03*
X0134806Y0070831D03*
X0133861Y0069650D03*
X0152955Y0063838D03*
X0153782Y0063838D03*
X0155160Y0063838D03*
X0155436Y0063838D03*
X0155436Y0069350D03*
X0175378Y0073747D03*
X0183388Y0068923D03*
X0183861Y0068923D03*
X0184333Y0068923D03*
X0184806Y0068923D03*
X0185278Y0068923D03*
X0185278Y0063844D03*
X0183388Y0063844D03*
X0175378Y0063944D03*
X0195378Y0063962D03*
D32*
X0195378Y0067210D03*
X0183388Y0067092D03*
X0182916Y0069691D03*
X0175378Y0070381D03*
X0174906Y0070381D03*
X0174433Y0070381D03*
X0173961Y0070381D03*
X0173488Y0070381D03*
X0173488Y0067310D03*
X0173961Y0067310D03*
X0174433Y0067310D03*
X0144806Y0068037D03*
X0143861Y0073824D03*
X0143388Y0073824D03*
X0134333Y0071362D03*
X0133861Y0071480D03*
X0134806Y0069000D03*
X0135278Y0069000D03*
X0135278Y0067937D03*
X0134806Y0067937D03*
X0134333Y0067937D03*
X0133861Y0067937D03*
X0133388Y0067937D03*
X0172916Y0133338D03*
X0174806Y0133338D03*
X0173861Y0136527D03*
X0173861Y0137826D03*
X0174333Y0137944D03*
X0173388Y0137944D03*
X0173388Y0140661D03*
X0174333Y0140661D03*
X0164806Y0140674D03*
X0164333Y0140674D03*
X0144706Y0140675D03*
X0144233Y0140675D03*
X0143761Y0140675D03*
X0143288Y0140675D03*
X0142816Y0140675D03*
D33*
X0152542Y0143500D03*
X0153526Y0141728D03*
X0152778Y0138539D03*
X0163054Y0137367D03*
X0165613Y0137367D03*
X0172542Y0138062D03*
X0175062Y0138062D03*
X0174471Y0134991D03*
X0172778Y0130739D03*
X0172660Y0143495D03*
X0165534Y0146225D03*
X0165416Y0146225D03*
X0163172Y0146225D03*
X0163054Y0146225D03*
X0173626Y0073806D03*
X0175240Y0073806D03*
X0175240Y0063885D03*
X0173626Y0063885D03*
X0183526Y0063785D03*
X0183605Y0063785D03*
X0185062Y0063785D03*
X0185140Y0063785D03*
X0193626Y0063903D03*
X0195240Y0063903D03*
X0145534Y0066147D03*
X0135534Y0066047D03*
X0134550Y0073134D03*
X0134471Y0073134D03*
X0134196Y0073134D03*
X0134117Y0073134D03*
X0133999Y0073134D03*
X0144668Y0073234D03*
D34*
X0143605Y0072525D03*
X0143172Y0071108D03*
X0145416Y0071108D03*
X0145534Y0068273D03*
X0145062Y0066147D03*
X0143054Y0068273D03*
X0135062Y0066047D03*
X0133605Y0070181D03*
X0133172Y0071598D03*
X0135062Y0071362D03*
X0135416Y0071598D03*
X0154747Y0067401D03*
X0173705Y0071798D03*
X0175044Y0071798D03*
X0175240Y0069082D03*
X0175162Y0066011D03*
X0174650Y0065539D03*
X0185062Y0065911D03*
X0193705Y0068391D03*
X0195713Y0067210D03*
X0195162Y0066029D03*
X0175062Y0133220D03*
X0174117Y0135346D03*
X0173526Y0135346D03*
X0173526Y0136763D03*
X0173251Y0136763D03*
X0174196Y0136763D03*
X0172778Y0138062D03*
X0174668Y0140661D03*
X0175062Y0142905D03*
X0174117Y0143731D03*
X0173999Y0143731D03*
X0173723Y0143731D03*
X0173605Y0143731D03*
X0173526Y0143731D03*
X0165534Y0143272D03*
X0164196Y0143509D03*
X0163605Y0144572D03*
X0164471Y0141973D03*
X0164550Y0141973D03*
X0164944Y0141973D03*
X0165613Y0140438D03*
X0164471Y0139257D03*
X0164944Y0137721D03*
X0163723Y0137721D03*
X0172542Y0133220D03*
X0154944Y0141256D03*
X0152542Y0141492D03*
X0152660Y0140311D03*
X0144568Y0142092D03*
X0144450Y0142092D03*
D35*
X0142678Y0139198D03*
X0152660Y0138598D03*
X0163172Y0137426D03*
X0165534Y0137426D03*
X0173723Y0139302D03*
X0173723Y0142019D03*
X0175613Y0146271D03*
X0176203Y0146271D03*
X0164196Y0146284D03*
X0164117Y0146284D03*
X0163251Y0146284D03*
X0156203Y0146276D03*
X0155613Y0146276D03*
X0146103Y0146285D03*
X0145513Y0146285D03*
X0174196Y0132806D03*
X0173823Y0073865D03*
X0173705Y0073865D03*
X0175044Y0073865D03*
X0175162Y0073865D03*
X0172878Y0068905D03*
X0173705Y0063826D03*
X0173823Y0063826D03*
X0175044Y0063826D03*
X0175162Y0063826D03*
X0183723Y0063726D03*
X0183999Y0063726D03*
X0184668Y0063726D03*
X0184944Y0063726D03*
X0193705Y0063844D03*
X0193823Y0063844D03*
X0195044Y0063844D03*
X0195162Y0063844D03*
X0145416Y0066088D03*
X0142778Y0063844D03*
X0143999Y0069631D03*
X0144550Y0069631D03*
X0144668Y0069631D03*
X0143999Y0071876D03*
X0134668Y0070949D03*
X0133999Y0069531D03*
X0134668Y0073075D03*
X0135416Y0065988D03*
X0132778Y0063744D03*
D36*
X0133605Y0065516D03*
X0133605Y0066579D03*
X0134944Y0065988D03*
X0134196Y0069177D03*
X0133526Y0070240D03*
X0135062Y0070240D03*
X0135140Y0071421D03*
X0135062Y0073075D03*
X0143526Y0069631D03*
X0143172Y0068214D03*
X0143605Y0066679D03*
X0143605Y0065616D03*
X0144944Y0066088D03*
X0145416Y0068214D03*
X0145062Y0069631D03*
X0144196Y0071521D03*
X0145062Y0072584D03*
X0145062Y0073647D03*
X0145140Y0073647D03*
X0145613Y0073647D03*
X0144471Y0073647D03*
X0155022Y0071200D03*
X0155849Y0071476D03*
X0154471Y0069271D03*
X0155849Y0067066D03*
X0173626Y0068669D03*
X0175044Y0069141D03*
X0175162Y0069141D03*
X0175162Y0071739D03*
X0183054Y0070931D03*
X0183172Y0070931D03*
X0185534Y0070931D03*
X0193626Y0068450D03*
X0195162Y0068450D03*
X0174571Y0065480D03*
X0174296Y0065480D03*
X0174217Y0065480D03*
X0173251Y0132334D03*
X0174471Y0136704D03*
X0174668Y0138003D03*
X0165534Y0140497D03*
X0165062Y0139198D03*
X0165062Y0141914D03*
X0154196Y0140252D03*
X0154117Y0140252D03*
X0153999Y0140252D03*
X0152778Y0140252D03*
X0153251Y0142260D03*
X0144371Y0142151D03*
X0142954Y0141797D03*
D37*
X0143426Y0138844D03*
X0143426Y0145931D03*
X0143505Y0145931D03*
X0143623Y0145931D03*
X0143899Y0145931D03*
X0144017Y0145931D03*
X0144096Y0145931D03*
X0144371Y0145931D03*
X0144450Y0145931D03*
X0143151Y0145931D03*
X0143072Y0145931D03*
X0142954Y0145931D03*
X0142678Y0145931D03*
X0142560Y0145931D03*
X0154550Y0145921D03*
X0163054Y0142623D03*
X0165888Y0145930D03*
X0174550Y0145917D03*
X0145613Y0075773D03*
X0143054Y0075773D03*
X0142778Y0075655D03*
X0175044Y0066424D03*
X0183999Y0066206D03*
X0184117Y0066206D03*
X0184196Y0066206D03*
X0184471Y0066206D03*
X0184550Y0066206D03*
X0184668Y0066206D03*
X0185613Y0064080D03*
X0193823Y0066443D03*
X0194768Y0066324D03*
D38*
X0174906Y0069200D03*
X0145278Y0068155D03*
X0144806Y0066147D03*
X0134806Y0066047D03*
X0134333Y0069118D03*
X0133388Y0071598D03*
X0144333Y0073706D03*
X0145278Y0073706D03*
X0173861Y0135464D03*
X0164333Y0137839D03*
X0164333Y0143391D03*
X0154806Y0141256D03*
X0153861Y0140193D03*
X0144233Y0142210D03*
D39*
X0145651Y0146344D03*
X0154806Y0146335D03*
X0155751Y0146335D03*
X0163861Y0146343D03*
X0174806Y0146330D03*
X0175751Y0146330D03*
X0174906Y0073924D03*
X0174433Y0073924D03*
X0173961Y0073924D03*
X0173016Y0068846D03*
X0174433Y0063767D03*
X0184333Y0063667D03*
X0193961Y0063785D03*
X0194433Y0063785D03*
X0194906Y0063785D03*
X0145751Y0068391D03*
X0142916Y0071108D03*
X0145278Y0066147D03*
X0145278Y0063785D03*
X0144806Y0063785D03*
X0144333Y0063785D03*
X0143861Y0063785D03*
X0143388Y0063785D03*
X0135278Y0063685D03*
X0134806Y0063685D03*
X0134333Y0063685D03*
X0133861Y0063685D03*
X0133388Y0063685D03*
X0135278Y0066047D03*
X0134806Y0073134D03*
D40*
X0133723Y0073134D03*
X0142778Y0068391D03*
X0145613Y0071108D03*
X0145613Y0063785D03*
X0145534Y0063785D03*
X0145416Y0063785D03*
X0145140Y0063785D03*
X0145062Y0063785D03*
X0144944Y0063785D03*
X0144668Y0063785D03*
X0144550Y0063785D03*
X0144471Y0063785D03*
X0144196Y0063785D03*
X0144117Y0063785D03*
X0143999Y0063785D03*
X0143723Y0063785D03*
X0143605Y0063785D03*
X0143526Y0063785D03*
X0143251Y0063785D03*
X0143172Y0063785D03*
X0143054Y0063785D03*
X0135613Y0063685D03*
X0135534Y0063685D03*
X0135416Y0063685D03*
X0135140Y0063685D03*
X0135062Y0063685D03*
X0134944Y0063685D03*
X0134668Y0063685D03*
X0134550Y0063685D03*
X0134471Y0063685D03*
X0134196Y0063685D03*
X0134117Y0063685D03*
X0133999Y0063685D03*
X0133723Y0063685D03*
X0133605Y0063685D03*
X0133526Y0063685D03*
X0133251Y0063685D03*
X0133172Y0063685D03*
X0133054Y0063685D03*
X0174099Y0063767D03*
X0174217Y0063767D03*
X0174296Y0063767D03*
X0174571Y0063767D03*
X0174650Y0063767D03*
X0174768Y0063767D03*
X0184117Y0063667D03*
X0184196Y0063667D03*
X0184471Y0063667D03*
X0184550Y0063667D03*
X0192878Y0067210D03*
X0194099Y0063785D03*
X0194217Y0063785D03*
X0194296Y0063785D03*
X0194571Y0063785D03*
X0194650Y0063785D03*
X0194768Y0063785D03*
X0174768Y0073924D03*
X0174650Y0073924D03*
X0174571Y0073924D03*
X0174296Y0073924D03*
X0174217Y0073924D03*
X0174099Y0073924D03*
X0175888Y0130621D03*
X0165416Y0137485D03*
X0163251Y0137485D03*
X0163605Y0140202D03*
X0163605Y0142918D03*
X0163605Y0146343D03*
X0163526Y0146343D03*
X0163723Y0146343D03*
X0163999Y0146343D03*
X0172778Y0143495D03*
X0173605Y0142078D03*
X0173999Y0142078D03*
X0174944Y0140661D03*
X0173999Y0139243D03*
X0173605Y0139243D03*
X0172660Y0140661D03*
X0174668Y0146330D03*
X0174944Y0146330D03*
X0175062Y0146330D03*
X0175888Y0146330D03*
X0176085Y0146330D03*
X0156085Y0146335D03*
X0155888Y0146335D03*
X0155062Y0146335D03*
X0154944Y0146335D03*
X0154668Y0146335D03*
X0153999Y0143500D03*
X0155062Y0141256D03*
X0155888Y0138421D03*
X0152542Y0138657D03*
X0145788Y0139139D03*
X0142560Y0139257D03*
X0142442Y0139376D03*
X0142442Y0143628D03*
X0144962Y0146344D03*
X0145985Y0146344D03*
D41*
X0142442Y0145872D03*
X0143505Y0138785D03*
X0143623Y0138785D03*
X0144844Y0138785D03*
X0153526Y0138185D03*
X0162778Y0139847D03*
X0154471Y0145862D03*
X0154196Y0145862D03*
X0154117Y0145862D03*
X0153999Y0145862D03*
X0153723Y0145862D03*
X0153605Y0145862D03*
X0153526Y0145862D03*
X0153251Y0145862D03*
X0153172Y0145862D03*
X0153054Y0145862D03*
X0152778Y0145862D03*
X0152660Y0145862D03*
X0152542Y0145862D03*
X0172542Y0145857D03*
X0172660Y0145857D03*
X0172778Y0145857D03*
X0173054Y0145857D03*
X0173172Y0145857D03*
X0173251Y0145857D03*
X0173526Y0145857D03*
X0173605Y0145857D03*
X0173723Y0145857D03*
X0173999Y0145857D03*
X0174117Y0145857D03*
X0174196Y0145857D03*
X0174471Y0145857D03*
X0145534Y0075832D03*
X0145416Y0075832D03*
X0143251Y0075832D03*
X0143172Y0075832D03*
X0174768Y0066365D03*
X0182778Y0073116D03*
X0183054Y0073234D03*
X0185613Y0073234D03*
X0193351Y0070635D03*
X0194650Y0066265D03*
D42*
X0182916Y0067033D03*
X0174433Y0065480D03*
X0173016Y0067251D03*
X0155160Y0071200D03*
X0154333Y0069271D03*
X0145278Y0071167D03*
X0142916Y0073647D03*
X0132916Y0069177D03*
X0163861Y0137780D03*
X0164806Y0137780D03*
X0163861Y0140497D03*
X0172916Y0138003D03*
X0154333Y0140252D03*
X0152916Y0140252D03*
D43*
X0154806Y0143146D03*
X0143761Y0141502D03*
X0173861Y0140661D03*
X0184806Y0070635D03*
X0174433Y0068373D03*
X0144333Y0066974D03*
X0144333Y0065320D03*
X0134333Y0065220D03*
X0134333Y0066874D03*
D44*
X0133388Y0068941D03*
X0143861Y0067978D03*
X0144333Y0067978D03*
X0174433Y0069377D03*
X0185278Y0067151D03*
X0193488Y0067151D03*
X0173388Y0133397D03*
X0174806Y0135641D03*
X0164806Y0143331D03*
X0154333Y0141315D03*
X0152916Y0141315D03*
X0144706Y0143214D03*
X0143761Y0142387D03*
D45*
X0143761Y0143687D03*
X0144233Y0143687D03*
X0143288Y0143687D03*
X0142816Y0143687D03*
X0144706Y0146403D03*
X0163388Y0137544D03*
X0165278Y0137544D03*
X0173388Y0139302D03*
X0173388Y0142019D03*
X0172916Y0143554D03*
X0174433Y0071976D03*
X0173961Y0065834D03*
X0144806Y0069631D03*
D46*
X0144668Y0067978D03*
X0144550Y0067978D03*
X0144471Y0067978D03*
X0144196Y0067978D03*
X0144117Y0067978D03*
X0143999Y0067978D03*
X0144196Y0066915D03*
X0144196Y0065380D03*
X0144117Y0065380D03*
X0134196Y0065280D03*
X0134117Y0065280D03*
X0134196Y0066815D03*
X0134117Y0071421D03*
X0174217Y0068432D03*
X0174296Y0068432D03*
X0183054Y0069631D03*
X0183172Y0069631D03*
X0183251Y0069631D03*
X0183605Y0070694D03*
X0184944Y0070694D03*
X0185416Y0067151D03*
X0183251Y0067151D03*
X0183172Y0067151D03*
X0173605Y0133397D03*
X0173526Y0133397D03*
X0173251Y0133397D03*
X0173172Y0133397D03*
X0173054Y0133397D03*
X0174550Y0135641D03*
X0174668Y0135641D03*
X0174944Y0135641D03*
X0173723Y0137885D03*
X0173605Y0137885D03*
X0173526Y0137885D03*
X0174117Y0140720D03*
X0164944Y0143331D03*
X0154944Y0143087D03*
X0154668Y0143205D03*
X0154550Y0141315D03*
X0154471Y0141315D03*
X0154196Y0141315D03*
X0154117Y0141315D03*
X0153172Y0141315D03*
X0153054Y0141315D03*
X0152778Y0141433D03*
X0144844Y0143214D03*
X0144568Y0143214D03*
X0143623Y0141561D03*
X0143505Y0141561D03*
D47*
X0143623Y0142446D03*
X0173605Y0140661D03*
X0173723Y0140661D03*
X0173999Y0140661D03*
X0197196Y0079067D03*
X0183723Y0070635D03*
X0174296Y0069436D03*
X0144550Y0066147D03*
X0134550Y0066047D03*
D48*
X0142916Y0068273D03*
X0173961Y0071917D03*
X0185751Y0070990D03*
X0195851Y0067210D03*
X0165751Y0140320D03*
X0174806Y0140661D03*
X0153861Y0143618D03*
D49*
X0153723Y0143677D03*
X0153605Y0143677D03*
X0153526Y0143677D03*
X0153251Y0143677D03*
X0153172Y0143677D03*
X0153054Y0143677D03*
X0153605Y0141551D03*
X0152542Y0140252D03*
X0142678Y0141915D03*
X0142560Y0141915D03*
X0163723Y0140379D03*
X0164550Y0139316D03*
X0164668Y0139316D03*
X0164944Y0139316D03*
X0165062Y0137662D03*
X0163605Y0137662D03*
X0164668Y0142032D03*
X0173251Y0142019D03*
X0173251Y0143672D03*
X0173172Y0143672D03*
X0174196Y0143672D03*
X0174471Y0143672D03*
X0173251Y0139302D03*
X0142778Y0073529D03*
X0143723Y0072466D03*
X0144117Y0071639D03*
X0143605Y0069631D03*
X0145613Y0068332D03*
X0154747Y0069271D03*
X0172878Y0067133D03*
X0173705Y0065952D03*
X0173351Y0068787D03*
X0173272Y0068787D03*
X0173823Y0071857D03*
X0182778Y0066915D03*
X0185613Y0070931D03*
X0193823Y0068332D03*
X0135534Y0071657D03*
X0134550Y0071185D03*
X0133723Y0070122D03*
X0134117Y0069295D03*
X0132778Y0069177D03*
D50*
X0134333Y0073134D03*
X0173488Y0073806D03*
X0173488Y0063885D03*
X0193488Y0063903D03*
X0142816Y0139139D03*
X0153388Y0141846D03*
X0164333Y0146225D03*
X0165278Y0146225D03*
D51*
X0172916Y0140661D03*
X0173861Y0143731D03*
X0174333Y0136763D03*
X0173388Y0136763D03*
X0142816Y0141856D03*
X0145751Y0073588D03*
X0135751Y0069118D03*
X0135278Y0071480D03*
X0173488Y0068728D03*
X0185751Y0066974D03*
D52*
X0184333Y0066206D03*
X0183861Y0066206D03*
X0182916Y0064080D03*
X0173016Y0064180D03*
X0173016Y0073511D03*
X0193016Y0064198D03*
X0194906Y0066324D03*
X0142916Y0075773D03*
X0153388Y0138244D03*
X0154333Y0143087D03*
X0163861Y0143804D03*
X0144233Y0145931D03*
X0143761Y0145931D03*
X0143288Y0145931D03*
X0142816Y0145931D03*
D53*
X0144962Y0138844D03*
X0153605Y0138126D03*
X0153723Y0138126D03*
X0154944Y0138126D03*
X0155062Y0138126D03*
X0145140Y0075891D03*
X0145062Y0075891D03*
X0143605Y0075891D03*
X0143526Y0075891D03*
X0145888Y0071049D03*
X0135888Y0071657D03*
X0172878Y0064298D03*
X0182778Y0064198D03*
X0192878Y0064317D03*
X0194571Y0066324D03*
X0195713Y0070458D03*
X0195634Y0070576D03*
X0195516Y0070576D03*
X0193705Y0070694D03*
X0193626Y0070694D03*
X0193272Y0070576D03*
X0193154Y0070458D03*
X0185888Y0073057D03*
X0185534Y0073293D03*
X0185416Y0073293D03*
X0183251Y0073293D03*
X0183172Y0073293D03*
D54*
X0181991Y0067978D03*
X0186676Y0067978D03*
X0155140Y0142024D03*
D55*
X0182109Y0068155D03*
X0186558Y0068155D03*
D56*
X0186459Y0068273D03*
D57*
X0186341Y0068391D03*
D58*
X0186203Y0068450D03*
X0182424Y0068450D03*
X0166085Y0141560D03*
X0162542Y0141560D03*
D59*
X0162424Y0141501D03*
X0166203Y0141501D03*
X0182542Y0068509D03*
X0186085Y0068509D03*
D60*
X0185987Y0068569D03*
D61*
X0185062Y0073234D03*
X0183526Y0073234D03*
X0195162Y0070517D03*
X0195988Y0064494D03*
X0185888Y0064376D03*
X0135534Y0075496D03*
X0133172Y0075496D03*
X0133054Y0075378D03*
X0175062Y0130503D03*
D62*
X0185888Y0068923D03*
D63*
X0185751Y0073175D03*
X0193488Y0070694D03*
X0185751Y0064198D03*
X0145278Y0075891D03*
X0143388Y0075891D03*
X0143761Y0138726D03*
X0144706Y0138726D03*
D64*
X0163388Y0142505D03*
X0185751Y0068923D03*
D65*
X0185278Y0073352D03*
X0193016Y0070399D03*
X0193961Y0070754D03*
X0194433Y0066383D03*
X0154609Y0064251D03*
X0154333Y0064251D03*
X0154058Y0064251D03*
X0144806Y0075950D03*
X0144333Y0075950D03*
X0143861Y0075950D03*
X0134806Y0075850D03*
X0134333Y0075850D03*
X0133861Y0075850D03*
X0144233Y0138667D03*
X0153861Y0138067D03*
X0154806Y0138067D03*
D66*
X0154668Y0138008D03*
X0154550Y0138008D03*
X0154471Y0138008D03*
X0154196Y0138008D03*
X0154117Y0138008D03*
X0153999Y0138008D03*
X0162778Y0142741D03*
X0173723Y0130444D03*
X0173999Y0130208D03*
X0174117Y0130208D03*
X0174196Y0130208D03*
X0174471Y0130208D03*
X0174550Y0130208D03*
X0174668Y0130208D03*
X0174944Y0130444D03*
X0135416Y0075555D03*
X0135140Y0075673D03*
X0134944Y0075791D03*
X0133723Y0075791D03*
X0133251Y0075555D03*
X0185140Y0073293D03*
X0192878Y0070222D03*
X0194296Y0070694D03*
X0195240Y0070576D03*
X0194296Y0066443D03*
D67*
X0184944Y0073234D03*
X0132778Y0075142D03*
D68*
X0132916Y0066047D03*
X0135751Y0066047D03*
X0142916Y0066147D03*
X0145751Y0066147D03*
X0184806Y0066265D03*
X0163388Y0139847D03*
X0162916Y0139847D03*
X0143288Y0138903D03*
D69*
X0184806Y0073175D03*
D70*
X0184668Y0073116D03*
X0173526Y0130857D03*
D71*
X0135888Y0074965D03*
X0183999Y0073057D03*
X0184550Y0073057D03*
X0194099Y0066797D03*
D72*
X0184471Y0072998D03*
X0184117Y0072998D03*
D73*
X0184333Y0072939D03*
D74*
X0184196Y0072939D03*
X0194768Y0070222D03*
D75*
X0183861Y0073116D03*
D76*
X0183723Y0073175D03*
X0194650Y0070458D03*
D77*
X0194571Y0070576D03*
X0195988Y0070104D03*
X0194217Y0066561D03*
X0183605Y0073175D03*
X0135613Y0075319D03*
X0173605Y0130562D03*
X0164944Y0145576D03*
D78*
X0154333Y0138008D03*
X0173861Y0130326D03*
X0174333Y0130208D03*
X0174806Y0130326D03*
X0135278Y0075673D03*
X0133388Y0075673D03*
X0183388Y0073293D03*
X0194433Y0070694D03*
X0195378Y0070576D03*
X0195851Y0070340D03*
D79*
X0182660Y0068569D03*
X0162345Y0141442D03*
D80*
X0162660Y0141619D03*
X0182345Y0068391D03*
D81*
X0182227Y0068273D03*
D82*
X0157089Y0069271D03*
X0156814Y0069271D03*
X0156538Y0069271D03*
X0156262Y0069271D03*
X0152404Y0069271D03*
X0152129Y0069271D03*
X0151853Y0069271D03*
X0151577Y0069271D03*
D83*
X0151715Y0069271D03*
X0151991Y0069271D03*
X0152266Y0069271D03*
X0156400Y0069271D03*
X0156676Y0069271D03*
X0156951Y0069271D03*
D84*
X0156125Y0069271D03*
D85*
X0155987Y0069271D03*
X0155987Y0074507D03*
X0155987Y0064035D03*
D86*
X0155849Y0063976D03*
X0152818Y0067834D03*
X0152818Y0070708D03*
X0154196Y0071417D03*
X0155849Y0074566D03*
D87*
X0155849Y0069271D03*
D88*
X0155711Y0074645D03*
X0144806Y0073116D03*
X0143861Y0071935D03*
X0143388Y0066147D03*
X0133388Y0066047D03*
X0155711Y0063897D03*
X0162916Y0146107D03*
X0165751Y0146107D03*
D89*
X0155711Y0071397D03*
X0155436Y0071279D03*
X0155160Y0067420D03*
X0155436Y0067263D03*
X0155711Y0067145D03*
D90*
X0155711Y0069271D03*
X0154609Y0071476D03*
X0152955Y0070649D03*
X0152955Y0067893D03*
D91*
X0155573Y0067204D03*
X0155573Y0071338D03*
D92*
X0154471Y0071476D03*
X0155573Y0069271D03*
D93*
X0155298Y0065905D03*
X0155298Y0072794D03*
D94*
X0154196Y0069271D03*
X0155298Y0067342D03*
D95*
X0155298Y0069271D03*
X0153093Y0070649D03*
X0153093Y0067893D03*
X0153093Y0063759D03*
X0153369Y0063759D03*
X0153644Y0063759D03*
X0153644Y0074783D03*
X0153369Y0074783D03*
X0153093Y0074783D03*
X0153920Y0074783D03*
X0155022Y0074783D03*
X0155298Y0074783D03*
D96*
X0155298Y0071279D03*
X0155022Y0067420D03*
D97*
X0154885Y0067480D03*
X0155160Y0065826D03*
X0155160Y0072716D03*
D98*
X0153782Y0070865D03*
X0153507Y0070708D03*
X0155160Y0069330D03*
X0154333Y0067401D03*
X0153507Y0067834D03*
D99*
X0153231Y0067893D03*
X0153231Y0070649D03*
X0153231Y0074783D03*
X0153507Y0074783D03*
X0153782Y0074783D03*
X0154885Y0074783D03*
X0155160Y0074783D03*
X0153507Y0063759D03*
X0153231Y0063759D03*
D100*
X0153644Y0065826D03*
X0155022Y0065826D03*
X0155022Y0072716D03*
X0153644Y0072716D03*
D101*
X0155022Y0069271D03*
D102*
X0154333Y0071417D03*
X0154333Y0074566D03*
X0152680Y0074566D03*
X0152680Y0063976D03*
X0154885Y0063976D03*
D103*
X0153782Y0065767D03*
X0154885Y0069350D03*
X0154885Y0071279D03*
X0153782Y0072657D03*
D104*
X0153507Y0072716D03*
X0154609Y0067480D03*
X0153507Y0065826D03*
D105*
X0154196Y0067539D03*
X0154471Y0067420D03*
X0153920Y0067696D03*
D106*
X0154058Y0067617D03*
D107*
X0154058Y0069271D03*
D108*
X0154058Y0071338D03*
D109*
X0153920Y0064527D03*
D110*
X0153920Y0069271D03*
D111*
X0152542Y0070787D03*
X0153920Y0071613D03*
X0152542Y0067755D03*
D112*
X0153782Y0067755D03*
D113*
X0153782Y0069271D03*
X0185126Y0118730D03*
X0185126Y0118888D03*
X0185126Y0119045D03*
D114*
X0153644Y0070787D03*
X0153644Y0067755D03*
D115*
X0153369Y0065826D03*
X0153369Y0072716D03*
D116*
X0153369Y0070708D03*
X0153369Y0067834D03*
D117*
X0152680Y0067814D03*
X0152680Y0070728D03*
D118*
X0152542Y0074428D03*
X0152542Y0064113D03*
D119*
X0166818Y0108394D02*
X0167172Y0108748D01*
X0167762Y0109220D01*
X0168117Y0109575D01*
X0168314Y0109732D01*
X0168314Y0117016D01*
X0168156Y0117055D01*
X0167959Y0117094D01*
X0167762Y0117094D01*
X0167605Y0117134D01*
X0167408Y0117173D01*
X0167251Y0117213D01*
X0166857Y0117291D01*
X0166857Y0116583D01*
X0166699Y0116780D01*
X0166542Y0116937D01*
X0166345Y0117094D01*
X0165951Y0117331D01*
X0165479Y0117409D01*
X0165203Y0117409D01*
X0164613Y0117370D01*
X0164062Y0117173D01*
X0163629Y0116898D01*
X0163274Y0116504D01*
X0162999Y0116071D01*
X0162841Y0115559D01*
X0162723Y0115008D01*
X0162684Y0114417D01*
X0164219Y0114457D01*
X0164219Y0114811D01*
X0164259Y0115126D01*
X0164377Y0115441D01*
X0164495Y0115717D01*
X0164692Y0115953D01*
X0164928Y0116110D01*
X0165203Y0116228D01*
X0165558Y0116268D01*
X0165873Y0116228D01*
X0166188Y0116110D01*
X0166385Y0115953D01*
X0166581Y0115717D01*
X0166699Y0115441D01*
X0166818Y0115126D01*
X0166857Y0114811D01*
X0166857Y0114142D01*
X0166699Y0113512D01*
X0166581Y0113236D01*
X0166385Y0113039D01*
X0166148Y0112843D01*
X0165873Y0112764D01*
X0165518Y0112724D01*
X0165203Y0112764D01*
X0164888Y0112843D01*
X0164652Y0113039D01*
X0164495Y0113236D01*
X0164377Y0113512D01*
X0163038Y0112882D01*
X0163274Y0112449D01*
X0163629Y0112094D01*
X0164062Y0111780D01*
X0164534Y0111622D01*
X0165125Y0111543D01*
X0165833Y0111661D01*
X0166070Y0111780D01*
X0166463Y0112016D01*
X0163737Y0112016D01*
X0163409Y0112314D02*
X0166702Y0112314D01*
X0166818Y0112314D02*
X0168314Y0112314D01*
X0168314Y0112016D02*
X0166818Y0112016D01*
X0166818Y0111717D02*
X0168314Y0111717D01*
X0168314Y0111419D02*
X0166818Y0111419D01*
X0166818Y0111120D02*
X0168314Y0111120D01*
X0168314Y0110822D02*
X0166818Y0110822D01*
X0166818Y0110523D02*
X0168314Y0110523D01*
X0168314Y0110225D02*
X0166818Y0110225D01*
X0166818Y0109926D02*
X0168314Y0109926D01*
X0168183Y0109628D02*
X0166818Y0109628D01*
X0166818Y0109329D02*
X0167871Y0109329D01*
X0167525Y0109031D02*
X0166818Y0109031D01*
X0166818Y0108732D02*
X0167156Y0108732D01*
X0166857Y0108434D02*
X0166818Y0108434D01*
X0166818Y0108394D02*
X0166818Y0112409D01*
X0166778Y0112409D01*
X0166463Y0112016D01*
X0165945Y0111717D02*
X0164249Y0111717D01*
X0164806Y0112911D02*
X0163100Y0112911D01*
X0163026Y0112911D01*
X0163038Y0112882D02*
X0164377Y0113512D01*
X0164259Y0113827D01*
X0164219Y0114142D01*
X0164219Y0114457D01*
X0162684Y0114417D01*
X0162723Y0113866D01*
X0162841Y0113354D01*
X0163038Y0112882D01*
X0163185Y0112613D02*
X0168314Y0112613D01*
X0168314Y0112911D02*
X0166231Y0112911D01*
X0166555Y0113210D02*
X0168314Y0113210D01*
X0168314Y0113508D02*
X0166698Y0113508D01*
X0166773Y0113807D02*
X0168314Y0113807D01*
X0168314Y0114105D02*
X0166848Y0114105D01*
X0166857Y0114404D02*
X0168314Y0114404D01*
X0168314Y0114702D02*
X0166857Y0114702D01*
X0166833Y0115001D02*
X0168314Y0115001D01*
X0168314Y0115299D02*
X0166753Y0115299D01*
X0166632Y0115598D02*
X0168314Y0115598D01*
X0168314Y0115896D02*
X0166432Y0115896D01*
X0165962Y0116195D02*
X0168314Y0116195D01*
X0168314Y0116493D02*
X0163268Y0116493D01*
X0163078Y0116195D02*
X0165125Y0116195D01*
X0164645Y0115896D02*
X0162945Y0115896D01*
X0162853Y0115598D02*
X0164444Y0115598D01*
X0164324Y0115299D02*
X0162786Y0115299D01*
X0162723Y0115001D02*
X0164243Y0115001D01*
X0164219Y0114702D02*
X0162703Y0114702D01*
X0162685Y0114404D02*
X0164219Y0114404D01*
X0164224Y0114105D02*
X0162706Y0114105D01*
X0162737Y0113807D02*
X0164266Y0113807D01*
X0164369Y0113508D02*
X0164378Y0113508D01*
X0164369Y0113508D02*
X0162806Y0113508D01*
X0162901Y0113210D02*
X0163735Y0113210D01*
X0164516Y0113210D01*
X0162251Y0113197D02*
X0162172Y0113630D01*
X0162054Y0113984D01*
X0161896Y0114260D01*
X0161621Y0114496D01*
X0161345Y0114654D01*
X0161030Y0114772D01*
X0160715Y0114850D01*
X0160361Y0114890D01*
X0160046Y0114063D01*
X0160164Y0114024D01*
X0160243Y0113984D01*
X0160282Y0113945D01*
X0160440Y0113866D01*
X0160479Y0113827D01*
X0160558Y0113787D01*
X0160676Y0113551D01*
X0160676Y0113472D01*
X0160715Y0113394D01*
X0160715Y0113197D01*
X0160676Y0113079D01*
X0160676Y0113000D01*
X0160636Y0112921D01*
X0160597Y0112882D01*
X0160558Y0112803D01*
X0160479Y0112764D01*
X0160440Y0112724D01*
X0160282Y0112646D01*
X0160203Y0112646D01*
X0160125Y0112606D01*
X0160046Y0112606D01*
X0159967Y0112567D01*
X0159770Y0112567D01*
X0159573Y0112606D01*
X0159377Y0112606D01*
X0159219Y0112685D01*
X0159062Y0112724D01*
X0158944Y0112803D01*
X0158865Y0112882D01*
X0158786Y0113000D01*
X0158707Y0113079D01*
X0158629Y0113315D01*
X0158589Y0113394D01*
X0158550Y0113512D01*
X0158550Y0114417D01*
X0158629Y0114339D01*
X0158707Y0114339D01*
X0158865Y0114260D01*
X0158944Y0114260D01*
X0159022Y0114220D01*
X0159180Y0114220D01*
X0159377Y0115008D01*
X0159101Y0115087D01*
X0158865Y0115165D01*
X0158668Y0115283D01*
X0158550Y0115441D01*
X0158550Y0115874D01*
X0158668Y0116110D01*
X0158707Y0116150D01*
X0158747Y0116228D01*
X0158983Y0116346D01*
X0159062Y0116346D01*
X0159140Y0116386D01*
X0159849Y0116386D01*
X0160243Y0116189D01*
X0160400Y0116031D01*
X0160440Y0115953D01*
X0160479Y0115835D01*
X0160518Y0115756D01*
X0160518Y0115559D01*
X0162054Y0115559D01*
X0161975Y0116031D01*
X0161896Y0116268D01*
X0161778Y0116425D01*
X0161660Y0116622D01*
X0161542Y0116780D01*
X0161385Y0116898D01*
X0160991Y0117134D01*
X0160794Y0117213D01*
X0160597Y0117252D01*
X0160361Y0117331D01*
X0160125Y0117370D01*
X0159928Y0117409D01*
X0159022Y0117409D01*
X0158825Y0117370D01*
X0158589Y0117370D01*
X0158392Y0117331D01*
X0158196Y0117252D01*
X0157999Y0117213D01*
X0157802Y0117134D01*
X0157329Y0116780D01*
X0157211Y0116622D01*
X0157133Y0116465D01*
X0157054Y0116268D01*
X0157014Y0116071D01*
X0157014Y0112646D01*
X0156975Y0112567D01*
X0156975Y0112213D01*
X0156936Y0112134D01*
X0156936Y0112055D01*
X0156896Y0111976D01*
X0156896Y0111858D01*
X0156857Y0111780D01*
X0156818Y0111740D01*
X0156818Y0111701D01*
X0158353Y0111701D01*
X0158353Y0111740D01*
X0158392Y0111780D01*
X0158392Y0111819D01*
X0158432Y0111858D01*
X0158432Y0111976D01*
X0158471Y0112016D01*
X0158471Y0112252D01*
X0158550Y0112134D01*
X0158668Y0112055D01*
X0158747Y0111976D01*
X0158865Y0111898D01*
X0158983Y0111858D01*
X0159101Y0111780D01*
X0159573Y0111622D01*
X0159692Y0111622D01*
X0159810Y0111583D01*
X0159967Y0111583D01*
X0160085Y0111543D01*
X0160518Y0111543D01*
X0160715Y0111583D01*
X0160912Y0111583D01*
X0161070Y0111622D01*
X0161266Y0111701D01*
X0161424Y0111780D01*
X0161542Y0111858D01*
X0161699Y0111937D01*
X0161818Y0112055D01*
X0161896Y0112173D01*
X0162014Y0112331D01*
X0162093Y0112449D01*
X0162133Y0112646D01*
X0162211Y0112803D01*
X0162211Y0113000D01*
X0162251Y0113197D01*
X0162248Y0113210D02*
X0160715Y0113210D01*
X0160676Y0113508D02*
X0162194Y0113508D01*
X0162113Y0113807D02*
X0160519Y0113807D01*
X0160046Y0114063D02*
X0160361Y0114890D01*
X0159652Y0114969D01*
X0159377Y0115008D01*
X0159180Y0114220D01*
X0159259Y0114181D01*
X0159337Y0114181D01*
X0159455Y0114142D01*
X0159613Y0114142D01*
X0159731Y0114102D01*
X0159888Y0114102D01*
X0159967Y0114063D01*
X0160046Y0114063D01*
X0160062Y0114105D02*
X0161985Y0114105D01*
X0161728Y0114404D02*
X0160176Y0114404D01*
X0159226Y0114404D01*
X0158563Y0114404D01*
X0158550Y0114404D02*
X0157014Y0114404D01*
X0157014Y0114702D02*
X0159300Y0114702D01*
X0160289Y0114702D01*
X0161215Y0114702D01*
X0160518Y0115598D02*
X0162047Y0115598D01*
X0161998Y0115896D02*
X0160458Y0115896D01*
X0160231Y0116195D02*
X0161921Y0116195D01*
X0161737Y0116493D02*
X0157147Y0116493D01*
X0157039Y0116195D02*
X0158730Y0116195D01*
X0158561Y0115896D02*
X0157014Y0115896D01*
X0157014Y0115598D02*
X0158550Y0115598D01*
X0158656Y0115299D02*
X0157014Y0115299D01*
X0157014Y0115001D02*
X0159375Y0115001D01*
X0159426Y0115001D01*
X0159722Y0114105D02*
X0160062Y0114105D01*
X0160626Y0112911D02*
X0162211Y0112911D01*
X0162126Y0112613D02*
X0160137Y0112613D01*
X0159364Y0112613D02*
X0156998Y0112613D01*
X0157014Y0112911D02*
X0158845Y0112911D01*
X0158664Y0113210D02*
X0157014Y0113210D01*
X0157014Y0113508D02*
X0158551Y0113508D01*
X0158550Y0113807D02*
X0157014Y0113807D01*
X0157014Y0114105D02*
X0158550Y0114105D01*
X0156975Y0112314D02*
X0162002Y0112314D01*
X0161778Y0112016D02*
X0158707Y0112016D01*
X0158471Y0112016D02*
X0156916Y0112016D01*
X0156818Y0111717D02*
X0158353Y0111717D01*
X0159288Y0111717D02*
X0161299Y0111717D01*
X0156148Y0111717D02*
X0154613Y0111717D01*
X0154613Y0111701D02*
X0156148Y0111701D01*
X0156148Y0117016D01*
X0155951Y0117055D01*
X0155794Y0117094D01*
X0155597Y0117094D01*
X0155400Y0117134D01*
X0155243Y0117173D01*
X0154849Y0117252D01*
X0154692Y0117291D01*
X0154692Y0116228D01*
X0154534Y0116504D01*
X0154377Y0116701D01*
X0154180Y0116937D01*
X0153983Y0117094D01*
X0153707Y0117252D01*
X0153471Y0117331D01*
X0153196Y0117409D01*
X0152644Y0117409D01*
X0152605Y0117370D01*
X0152566Y0117370D01*
X0152566Y0115953D01*
X0152605Y0115953D01*
X0152684Y0115992D01*
X0153117Y0115992D01*
X0153510Y0115953D01*
X0153825Y0115874D01*
X0154101Y0115717D01*
X0154298Y0115480D01*
X0154455Y0115205D01*
X0154534Y0114929D01*
X0154613Y0114575D01*
X0154613Y0111701D01*
X0154613Y0112016D02*
X0156148Y0112016D01*
X0156148Y0112314D02*
X0154613Y0112314D01*
X0154613Y0112613D02*
X0156148Y0112613D01*
X0156148Y0112911D02*
X0154613Y0112911D01*
X0154613Y0113210D02*
X0156148Y0113210D01*
X0156148Y0113508D02*
X0154613Y0113508D01*
X0154613Y0113807D02*
X0156148Y0113807D01*
X0156148Y0114105D02*
X0154613Y0114105D01*
X0154613Y0114404D02*
X0156148Y0114404D01*
X0156148Y0114702D02*
X0154585Y0114702D01*
X0154514Y0115001D02*
X0156148Y0115001D01*
X0156148Y0115299D02*
X0154401Y0115299D01*
X0154200Y0115598D02*
X0156148Y0115598D01*
X0156148Y0115896D02*
X0153736Y0115896D01*
X0154540Y0116493D02*
X0152566Y0116493D01*
X0152566Y0116195D02*
X0156148Y0116195D01*
X0156148Y0116493D02*
X0154692Y0116493D01*
X0154692Y0116792D02*
X0156148Y0116792D01*
X0155810Y0117090D02*
X0154692Y0117090D01*
X0154301Y0116792D02*
X0152566Y0116792D01*
X0152566Y0117090D02*
X0153988Y0117090D01*
X0153268Y0117389D02*
X0152624Y0117389D01*
X0151975Y0117389D02*
X0150440Y0117389D01*
X0150440Y0117687D02*
X0151975Y0117687D01*
X0151975Y0117986D02*
X0150440Y0117986D01*
X0150440Y0118284D02*
X0151975Y0118284D01*
X0151975Y0118551D02*
X0151975Y0111701D01*
X0150440Y0111701D01*
X0150440Y0113630D01*
X0149849Y0114181D01*
X0148314Y0111701D01*
X0146463Y0111701D01*
X0148786Y0115244D01*
X0146699Y0117291D01*
X0148510Y0117291D01*
X0150440Y0115283D01*
X0150440Y0119378D01*
X0151975Y0118551D01*
X0151916Y0118583D02*
X0150440Y0118583D01*
X0150440Y0118881D02*
X0151362Y0118881D01*
X0150807Y0119180D02*
X0150440Y0119180D01*
X0148825Y0119180D02*
X0148144Y0119180D01*
X0148077Y0119260D02*
X0147841Y0119496D01*
X0147644Y0119772D01*
X0147133Y0120283D01*
X0146936Y0120520D01*
X0146542Y0120835D01*
X0146345Y0120953D01*
X0146109Y0120992D01*
X0145361Y0120992D01*
X0144888Y0121071D01*
X0144455Y0121189D01*
X0144062Y0121346D01*
X0143668Y0121583D01*
X0143353Y0121858D01*
X0143038Y0122173D01*
X0142762Y0122528D01*
X0142369Y0123236D01*
X0142172Y0123945D01*
X0142133Y0124654D01*
X0142251Y0125283D01*
X0142448Y0125835D01*
X0142723Y0126307D01*
X0143038Y0126661D01*
X0143353Y0126819D01*
X0143353Y0126504D01*
X0143432Y0126268D01*
X0143550Y0126189D01*
X0143668Y0126150D01*
X0143944Y0126150D01*
X0144259Y0126307D01*
X0144377Y0126386D01*
X0144534Y0126504D01*
X0144652Y0126583D01*
X0144770Y0126701D01*
X0144849Y0126858D01*
X0144928Y0126976D01*
X0144967Y0127134D01*
X0145007Y0127252D01*
X0144967Y0127370D01*
X0144928Y0127449D01*
X0144888Y0127567D01*
X0144810Y0127685D01*
X0144652Y0127803D01*
X0144495Y0127882D01*
X0144298Y0127921D01*
X0144140Y0127961D01*
X0144022Y0127961D01*
X0143904Y0127921D01*
X0143786Y0127921D01*
X0143825Y0127961D01*
X0143983Y0128079D01*
X0144219Y0128197D01*
X0144534Y0128315D01*
X0144888Y0128433D01*
X0145282Y0128433D01*
X0145715Y0128354D01*
X0146148Y0128118D01*
X0146503Y0127803D01*
X0146699Y0127528D01*
X0146818Y0127173D01*
X0146818Y0126858D01*
X0146739Y0126504D01*
X0146542Y0126150D01*
X0146266Y0125835D01*
X0145951Y0125480D01*
X0145676Y0125165D01*
X0145558Y0124890D01*
X0145558Y0124614D01*
X0145636Y0124378D01*
X0145794Y0124181D01*
X0146030Y0124024D01*
X0146345Y0123945D01*
X0146660Y0123945D01*
X0146857Y0123984D01*
X0147054Y0124063D01*
X0147172Y0124142D01*
X0147290Y0124260D01*
X0147369Y0124417D01*
X0147408Y0124535D01*
X0147408Y0124654D01*
X0147369Y0124772D01*
X0147290Y0124890D01*
X0147133Y0125047D01*
X0147014Y0125087D01*
X0146857Y0125165D01*
X0146818Y0125205D01*
X0146896Y0125244D01*
X0146975Y0125244D01*
X0147133Y0125283D01*
X0147448Y0125283D01*
X0147684Y0125244D01*
X0148077Y0125087D01*
X0148235Y0124969D01*
X0148432Y0124850D01*
X0148550Y0124654D01*
X0148668Y0124417D01*
X0148747Y0124181D01*
X0148825Y0123472D01*
X0148825Y0118433D01*
X0148786Y0118433D01*
X0148707Y0118551D01*
X0148589Y0118669D01*
X0148471Y0118827D01*
X0148274Y0119024D01*
X0148077Y0119260D01*
X0147859Y0119478D02*
X0148825Y0119478D01*
X0148825Y0119777D02*
X0147639Y0119777D01*
X0147341Y0120075D02*
X0148825Y0120075D01*
X0148825Y0120374D02*
X0147057Y0120374D01*
X0146745Y0120672D02*
X0148825Y0120672D01*
X0148825Y0120971D02*
X0146236Y0120971D01*
X0144254Y0121270D02*
X0148825Y0121270D01*
X0148825Y0121568D02*
X0143692Y0121568D01*
X0143345Y0121867D02*
X0148825Y0121867D01*
X0148825Y0122165D02*
X0143046Y0122165D01*
X0142812Y0122464D02*
X0148825Y0122464D01*
X0148825Y0122762D02*
X0142632Y0122762D01*
X0142466Y0123061D02*
X0148825Y0123061D01*
X0148825Y0123359D02*
X0142335Y0123359D01*
X0142252Y0123658D02*
X0148805Y0123658D01*
X0148772Y0123956D02*
X0146716Y0123956D01*
X0146300Y0123956D02*
X0142171Y0123956D01*
X0142155Y0124255D02*
X0145735Y0124255D01*
X0145578Y0124553D02*
X0142138Y0124553D01*
X0142170Y0124852D02*
X0145558Y0124852D01*
X0145669Y0125150D02*
X0142226Y0125150D01*
X0142310Y0125449D02*
X0145924Y0125449D01*
X0146189Y0125747D02*
X0142416Y0125747D01*
X0142571Y0126046D02*
X0146451Y0126046D01*
X0146650Y0126344D02*
X0144314Y0126344D01*
X0144712Y0126643D02*
X0146770Y0126643D01*
X0146818Y0126941D02*
X0144904Y0126941D01*
X0145002Y0127240D02*
X0146795Y0127240D01*
X0146692Y0127538D02*
X0144898Y0127538D01*
X0144585Y0127837D02*
X0146465Y0127837D01*
X0146117Y0128135D02*
X0144096Y0128135D01*
X0143353Y0126643D02*
X0143021Y0126643D01*
X0142756Y0126344D02*
X0143406Y0126344D01*
X0146887Y0125150D02*
X0147919Y0125150D01*
X0148430Y0124852D02*
X0147315Y0124852D01*
X0147408Y0124553D02*
X0148600Y0124553D01*
X0148722Y0124255D02*
X0147285Y0124255D01*
X0148416Y0118881D02*
X0148825Y0118881D01*
X0148825Y0118583D02*
X0148676Y0118583D01*
X0148704Y0117090D02*
X0146904Y0117090D01*
X0147209Y0116792D02*
X0148990Y0116792D01*
X0149277Y0116493D02*
X0147513Y0116493D01*
X0147817Y0116195D02*
X0149564Y0116195D01*
X0149851Y0115896D02*
X0148121Y0115896D01*
X0148426Y0115598D02*
X0150138Y0115598D01*
X0150440Y0115598D02*
X0151975Y0115598D01*
X0151975Y0115896D02*
X0150440Y0115896D01*
X0150440Y0116195D02*
X0151975Y0116195D01*
X0151975Y0116493D02*
X0150440Y0116493D01*
X0150440Y0116792D02*
X0151975Y0116792D01*
X0151975Y0117090D02*
X0150440Y0117090D01*
X0150440Y0115299D02*
X0151975Y0115299D01*
X0151975Y0115001D02*
X0148627Y0115001D01*
X0148730Y0115299D02*
X0150424Y0115299D01*
X0149930Y0114105D02*
X0151975Y0114105D01*
X0151975Y0113807D02*
X0150250Y0113807D01*
X0150440Y0113508D02*
X0151975Y0113508D01*
X0151975Y0113210D02*
X0150440Y0113210D01*
X0150440Y0112911D02*
X0151975Y0112911D01*
X0151975Y0112613D02*
X0150440Y0112613D01*
X0150440Y0112314D02*
X0151975Y0112314D01*
X0151975Y0112016D02*
X0150440Y0112016D01*
X0150440Y0111717D02*
X0151975Y0111717D01*
X0149248Y0113210D02*
X0147452Y0113210D01*
X0147648Y0113508D02*
X0149433Y0113508D01*
X0149617Y0113807D02*
X0147844Y0113807D01*
X0148040Y0114105D02*
X0149802Y0114105D01*
X0149063Y0112911D02*
X0147257Y0112911D01*
X0147061Y0112613D02*
X0148878Y0112613D01*
X0148693Y0112314D02*
X0146865Y0112314D01*
X0146670Y0112016D02*
X0148509Y0112016D01*
X0148324Y0111717D02*
X0146474Y0111717D01*
X0145518Y0111717D02*
X0144022Y0111717D01*
X0144022Y0111701D02*
X0145518Y0111701D01*
X0145518Y0116268D01*
X0147054Y0116268D01*
X0146896Y0116386D01*
X0146266Y0117016D01*
X0146109Y0117134D01*
X0145991Y0117291D01*
X0145518Y0117291D01*
X0145518Y0118079D01*
X0145400Y0118394D01*
X0145282Y0118669D01*
X0145085Y0118906D01*
X0144810Y0119102D01*
X0144495Y0119260D01*
X0144101Y0119378D01*
X0142959Y0119378D01*
X0142881Y0119339D01*
X0142881Y0118236D01*
X0143550Y0118236D01*
X0143707Y0118197D01*
X0143865Y0118118D01*
X0143944Y0118000D01*
X0143983Y0117921D01*
X0143983Y0117764D01*
X0144022Y0117606D01*
X0144022Y0117291D01*
X0142959Y0117291D01*
X0142959Y0116268D01*
X0144022Y0116268D01*
X0144022Y0111701D01*
X0144022Y0112016D02*
X0145518Y0112016D01*
X0145518Y0112314D02*
X0144022Y0112314D01*
X0144022Y0112613D02*
X0145518Y0112613D01*
X0145518Y0112911D02*
X0144022Y0112911D01*
X0144022Y0113210D02*
X0145518Y0113210D01*
X0145518Y0113508D02*
X0144022Y0113508D01*
X0144022Y0113807D02*
X0145518Y0113807D01*
X0145518Y0114105D02*
X0144022Y0114105D01*
X0144022Y0114404D02*
X0145518Y0114404D01*
X0145518Y0114702D02*
X0144022Y0114702D01*
X0144022Y0115001D02*
X0145518Y0115001D01*
X0145518Y0115299D02*
X0144022Y0115299D01*
X0144022Y0115598D02*
X0145518Y0115598D01*
X0145518Y0115896D02*
X0144022Y0115896D01*
X0144022Y0116195D02*
X0145518Y0116195D01*
X0146167Y0117090D02*
X0142959Y0117090D01*
X0142959Y0116792D02*
X0146490Y0116792D01*
X0146789Y0116493D02*
X0142959Y0116493D01*
X0142487Y0116493D02*
X0140991Y0116493D01*
X0140991Y0116195D02*
X0142487Y0116195D01*
X0142487Y0115896D02*
X0140991Y0115896D01*
X0140991Y0115598D02*
X0142487Y0115598D01*
X0142487Y0115299D02*
X0140991Y0115299D01*
X0140991Y0115001D02*
X0142487Y0115001D01*
X0142487Y0114702D02*
X0140991Y0114702D01*
X0140991Y0114404D02*
X0142487Y0114404D01*
X0142487Y0114105D02*
X0140986Y0114105D01*
X0140991Y0114142D02*
X0140912Y0113512D01*
X0140873Y0113276D01*
X0140636Y0112961D01*
X0140440Y0112843D01*
X0140243Y0112803D01*
X0140007Y0112764D01*
X0139692Y0112803D01*
X0139455Y0112843D01*
X0139259Y0112961D01*
X0139101Y0113118D01*
X0138983Y0113354D01*
X0138865Y0113630D01*
X0138825Y0113945D01*
X0138825Y0117291D01*
X0137290Y0117291D01*
X0137290Y0111701D01*
X0138747Y0111701D01*
X0138747Y0112488D01*
X0138786Y0112488D01*
X0138944Y0112252D01*
X0139101Y0112055D01*
X0139298Y0111898D01*
X0139534Y0111780D01*
X0139731Y0111701D01*
X0139967Y0111622D01*
X0140243Y0111583D01*
X0140479Y0111543D01*
X0141030Y0111583D01*
X0141463Y0111740D01*
X0141818Y0111937D01*
X0142093Y0112173D01*
X0142290Y0112528D01*
X0142408Y0112921D01*
X0142487Y0113354D01*
X0142487Y0117291D01*
X0140991Y0117291D01*
X0140991Y0114142D01*
X0140949Y0113807D02*
X0142487Y0113807D01*
X0142487Y0113508D02*
X0140911Y0113508D01*
X0140823Y0113210D02*
X0142461Y0113210D01*
X0142405Y0112911D02*
X0140554Y0112911D01*
X0139341Y0112911D02*
X0137290Y0112911D01*
X0137290Y0112613D02*
X0142316Y0112613D01*
X0142171Y0112314D02*
X0138902Y0112314D01*
X0138747Y0112314D02*
X0137290Y0112314D01*
X0137290Y0112016D02*
X0138747Y0112016D01*
X0138747Y0111717D02*
X0137290Y0111717D01*
X0136463Y0111717D02*
X0134928Y0111717D01*
X0134928Y0111701D02*
X0136463Y0111701D01*
X0136463Y0117291D01*
X0135007Y0117291D01*
X0135007Y0116504D01*
X0134967Y0116504D01*
X0134810Y0116740D01*
X0134652Y0116898D01*
X0134455Y0117055D01*
X0134219Y0117213D01*
X0133747Y0117370D01*
X0133510Y0117409D01*
X0133274Y0117409D01*
X0132723Y0117370D01*
X0132290Y0117252D01*
X0131936Y0117055D01*
X0131660Y0116780D01*
X0131463Y0116465D01*
X0131345Y0116071D01*
X0131266Y0115638D01*
X0131227Y0115126D01*
X0131227Y0111701D01*
X0132762Y0111701D01*
X0132762Y0114850D01*
X0132802Y0115165D01*
X0132841Y0115441D01*
X0132881Y0115677D01*
X0132999Y0115874D01*
X0133117Y0116031D01*
X0133314Y0116150D01*
X0133510Y0116189D01*
X0133747Y0116228D01*
X0134062Y0116189D01*
X0134298Y0116150D01*
X0134495Y0116031D01*
X0134652Y0115835D01*
X0134770Y0115638D01*
X0134888Y0115362D01*
X0134928Y0115008D01*
X0134928Y0111701D01*
X0134928Y0112016D02*
X0136463Y0112016D01*
X0136463Y0112314D02*
X0134928Y0112314D01*
X0134928Y0112613D02*
X0136463Y0112613D01*
X0136463Y0112911D02*
X0134928Y0112911D01*
X0134928Y0113210D02*
X0136463Y0113210D01*
X0136463Y0113508D02*
X0134928Y0113508D01*
X0134928Y0113807D02*
X0136463Y0113807D01*
X0136463Y0114105D02*
X0134928Y0114105D01*
X0134928Y0114404D02*
X0136463Y0114404D01*
X0136463Y0114702D02*
X0134928Y0114702D01*
X0134928Y0115001D02*
X0136463Y0115001D01*
X0136463Y0115299D02*
X0134895Y0115299D01*
X0134787Y0115598D02*
X0136463Y0115598D01*
X0136463Y0115896D02*
X0134603Y0115896D01*
X0134015Y0116195D02*
X0136463Y0116195D01*
X0136463Y0116493D02*
X0131481Y0116493D01*
X0131382Y0116195D02*
X0133546Y0116195D01*
X0133015Y0115896D02*
X0131313Y0115896D01*
X0131263Y0115598D02*
X0132867Y0115598D01*
X0132821Y0115299D02*
X0131240Y0115299D01*
X0131227Y0115001D02*
X0132781Y0115001D01*
X0132762Y0114702D02*
X0131227Y0114702D01*
X0131227Y0114404D02*
X0132762Y0114404D01*
X0132762Y0114105D02*
X0131227Y0114105D01*
X0131227Y0113807D02*
X0132762Y0113807D01*
X0132762Y0113508D02*
X0131227Y0113508D01*
X0131227Y0113210D02*
X0132762Y0113210D01*
X0132762Y0112911D02*
X0131227Y0112911D01*
X0131227Y0112613D02*
X0132762Y0112613D01*
X0132762Y0112314D02*
X0131227Y0112314D01*
X0131227Y0112016D02*
X0132762Y0112016D01*
X0132762Y0111717D02*
X0131227Y0111717D01*
X0137290Y0113210D02*
X0139055Y0113210D01*
X0138917Y0113508D02*
X0137290Y0113508D01*
X0137290Y0113807D02*
X0138843Y0113807D01*
X0138825Y0114105D02*
X0137290Y0114105D01*
X0137290Y0114404D02*
X0138825Y0114404D01*
X0138825Y0114702D02*
X0137290Y0114702D01*
X0137290Y0115001D02*
X0138825Y0115001D01*
X0138825Y0115299D02*
X0137290Y0115299D01*
X0137290Y0115598D02*
X0138825Y0115598D01*
X0138825Y0115896D02*
X0137290Y0115896D01*
X0137290Y0116195D02*
X0138825Y0116195D01*
X0138825Y0116493D02*
X0137290Y0116493D01*
X0137290Y0116792D02*
X0138825Y0116792D01*
X0138825Y0117090D02*
X0137290Y0117090D01*
X0136463Y0117090D02*
X0135007Y0117090D01*
X0135007Y0116792D02*
X0136463Y0116792D01*
X0134758Y0116792D02*
X0131672Y0116792D01*
X0131999Y0117090D02*
X0134403Y0117090D01*
X0133634Y0117389D02*
X0132986Y0117389D01*
X0140991Y0117090D02*
X0142487Y0117090D01*
X0142487Y0116792D02*
X0140991Y0116792D01*
X0142881Y0118284D02*
X0145441Y0118284D01*
X0145518Y0117986D02*
X0143951Y0117986D01*
X0144002Y0117687D02*
X0145518Y0117687D01*
X0145518Y0117389D02*
X0144022Y0117389D01*
X0142881Y0118583D02*
X0145319Y0118583D01*
X0145105Y0118881D02*
X0142881Y0118881D01*
X0142881Y0119180D02*
X0144655Y0119180D01*
X0148431Y0114702D02*
X0151975Y0114702D01*
X0151975Y0114404D02*
X0148235Y0114404D01*
X0141909Y0112016D02*
X0139150Y0112016D01*
X0139690Y0111717D02*
X0141400Y0111717D01*
X0157346Y0116792D02*
X0161526Y0116792D01*
X0161063Y0117090D02*
X0157744Y0117090D01*
X0158919Y0117389D02*
X0160031Y0117389D01*
X0163533Y0116792D02*
X0166687Y0116792D01*
X0166857Y0116792D02*
X0168314Y0116792D01*
X0167980Y0117090D02*
X0166857Y0117090D01*
X0166350Y0117090D02*
X0163931Y0117090D01*
X0164895Y0117389D02*
X0165602Y0117389D01*
X0169180Y0116110D02*
X0169101Y0115638D01*
X0170558Y0115638D01*
X0170597Y0115835D01*
X0170676Y0116031D01*
X0170755Y0116150D01*
X0170873Y0116228D01*
X0171030Y0116307D01*
X0171227Y0116386D01*
X0171896Y0116386D01*
X0172014Y0116346D01*
X0172172Y0116307D01*
X0172290Y0116268D01*
X0172448Y0116031D01*
X0172448Y0115874D01*
X0172408Y0115717D01*
X0172290Y0115559D01*
X0172133Y0115441D01*
X0171896Y0115323D01*
X0171660Y0115244D01*
X0171345Y0115205D01*
X0170400Y0114969D01*
X0170046Y0114890D01*
X0169495Y0114575D01*
X0169259Y0114378D01*
X0169101Y0114142D01*
X0168983Y0113866D01*
X0168944Y0113512D01*
X0169022Y0113000D01*
X0169180Y0112567D01*
X0169416Y0112252D01*
X0169731Y0111976D01*
X0170125Y0111780D01*
X0170558Y0111661D01*
X0171030Y0111583D01*
X0171503Y0111543D01*
X0171975Y0111583D01*
X0172448Y0111661D01*
X0172881Y0111780D01*
X0173274Y0111976D01*
X0173589Y0112252D01*
X0173865Y0112606D01*
X0174022Y0113000D01*
X0174101Y0113512D01*
X0172644Y0113512D01*
X0172644Y0113276D01*
X0172566Y0113079D01*
X0172448Y0112921D01*
X0172133Y0112685D01*
X0171896Y0112646D01*
X0171699Y0112606D01*
X0171463Y0112567D01*
X0171306Y0112606D01*
X0171148Y0112606D01*
X0170991Y0112646D01*
X0170833Y0112724D01*
X0170676Y0112843D01*
X0170558Y0112961D01*
X0170479Y0113276D01*
X0170518Y0113433D01*
X0170597Y0113591D01*
X0170755Y0113709D01*
X0170951Y0113827D01*
X0171188Y0113906D01*
X0171818Y0114063D01*
X0172211Y0114142D01*
X0172566Y0114220D01*
X0172881Y0114339D01*
X0173156Y0114457D01*
X0173432Y0114614D01*
X0173668Y0114772D01*
X0173825Y0115008D01*
X0173944Y0115283D01*
X0173983Y0115638D01*
X0173944Y0116110D01*
X0173786Y0116504D01*
X0173510Y0116819D01*
X0173235Y0117055D01*
X0172841Y0117252D01*
X0172448Y0117331D01*
X0172014Y0117409D01*
X0171109Y0117409D01*
X0170676Y0117331D01*
X0170282Y0117213D01*
X0169928Y0117055D01*
X0169613Y0116819D01*
X0169377Y0116504D01*
X0169180Y0116110D01*
X0169222Y0116195D02*
X0170822Y0116195D01*
X0170622Y0115896D02*
X0169144Y0115896D01*
X0169371Y0116493D02*
X0173790Y0116493D01*
X0173910Y0116195D02*
X0172339Y0116195D01*
X0172448Y0115896D02*
X0173961Y0115896D01*
X0173978Y0115598D02*
X0172319Y0115598D01*
X0171826Y0115299D02*
X0173945Y0115299D01*
X0173821Y0115001D02*
X0170529Y0115001D01*
X0169718Y0114702D02*
X0173564Y0114702D01*
X0173033Y0114404D02*
X0169289Y0114404D01*
X0169085Y0114105D02*
X0172029Y0114105D01*
X0172644Y0113508D02*
X0174100Y0113508D01*
X0174055Y0113210D02*
X0172618Y0113210D01*
X0172434Y0112911D02*
X0173987Y0112911D01*
X0173867Y0112613D02*
X0171731Y0112613D01*
X0171123Y0112613D02*
X0169163Y0112613D01*
X0169055Y0112911D02*
X0170607Y0112911D01*
X0170495Y0113210D02*
X0168990Y0113210D01*
X0168944Y0113508D02*
X0170556Y0113508D01*
X0170918Y0113807D02*
X0168976Y0113807D01*
X0169369Y0112314D02*
X0173638Y0112314D01*
X0173319Y0112016D02*
X0169686Y0112016D01*
X0170353Y0111717D02*
X0172652Y0111717D01*
X0173534Y0116792D02*
X0169593Y0116792D01*
X0170007Y0117090D02*
X0173164Y0117090D01*
X0172128Y0117389D02*
X0170996Y0117389D01*
D120*
X0156620Y0107771D03*
X0150478Y0107062D03*
X0144809Y0105172D03*
X0144809Y0104936D03*
X0144809Y0104700D03*
X0144809Y0104464D03*
X0144809Y0104228D03*
X0150478Y0102102D03*
X0128273Y0106590D03*
X0122368Y0107062D03*
D121*
X0122486Y0107771D03*
X0128155Y0107771D03*
X0131699Y0107535D03*
X0131699Y0104700D03*
X0131699Y0104464D03*
X0131699Y0104228D03*
X0131699Y0103991D03*
X0131699Y0103755D03*
X0131699Y0103519D03*
X0131699Y0103283D03*
X0131699Y0103046D03*
X0131699Y0102810D03*
X0131699Y0102574D03*
X0131699Y0102338D03*
X0131699Y0102102D03*
X0131699Y0101865D03*
X0134297Y0103519D03*
X0136896Y0103519D03*
X0136896Y0103755D03*
X0136896Y0103991D03*
X0136896Y0104228D03*
X0136896Y0104464D03*
X0136896Y0104700D03*
X0136896Y0103283D03*
X0136896Y0103046D03*
X0136896Y0102810D03*
X0136896Y0102574D03*
X0136896Y0102338D03*
X0136896Y0102102D03*
X0136896Y0101865D03*
X0136896Y0107535D03*
X0150360Y0107771D03*
X0152722Y0104936D03*
X0152722Y0104700D03*
X0152722Y0104464D03*
X0152722Y0104228D03*
X0120124Y0103991D03*
X0119651Y0101865D03*
D122*
X0128155Y0102338D03*
X0128155Y0104464D03*
X0128155Y0104700D03*
X0128155Y0105172D03*
X0128155Y0105409D03*
X0128155Y0106826D03*
X0144218Y0107771D03*
X0144927Y0103991D03*
D123*
X0137014Y0107771D03*
D124*
X0131699Y0107771D03*
D125*
X0144218Y0107535D03*
X0144455Y0106354D03*
X0156502Y0107535D03*
X0156502Y0102810D03*
D126*
X0150360Y0107535D03*
X0139730Y0103991D03*
X0136187Y0105645D03*
X0134297Y0104464D03*
X0132407Y0105645D03*
X0128155Y0107298D03*
X0128155Y0101865D03*
D127*
X0128155Y0101629D03*
X0132171Y0106354D03*
X0134297Y0104228D03*
X0134297Y0103991D03*
X0136423Y0106354D03*
X0128155Y0107535D03*
X0120596Y0103046D03*
X0150360Y0101629D03*
X0152014Y0103046D03*
D128*
X0136305Y0105881D03*
X0136305Y0106117D03*
X0132289Y0106117D03*
X0132289Y0105881D03*
X0122368Y0107535D03*
X0122368Y0101629D03*
D129*
X0122368Y0106590D03*
X0144336Y0106590D03*
X0144336Y0106826D03*
X0144336Y0107062D03*
X0144336Y0107298D03*
X0144336Y0102810D03*
X0144336Y0102574D03*
X0144336Y0102338D03*
X0144336Y0102102D03*
X0144336Y0101865D03*
X0150478Y0102574D03*
X0156384Y0102574D03*
X0156384Y0101865D03*
X0156620Y0106590D03*
X0156620Y0106826D03*
X0156620Y0107062D03*
X0156620Y0107298D03*
X0150478Y0106590D03*
D130*
X0150478Y0107298D03*
X0145045Y0105409D03*
X0122368Y0107298D03*
D131*
X0124494Y0105645D03*
X0124494Y0105409D03*
X0124730Y0105172D03*
X0124730Y0104936D03*
X0124730Y0104700D03*
X0124730Y0104464D03*
X0124730Y0104228D03*
X0124730Y0103991D03*
X0124494Y0103755D03*
X0126620Y0103755D03*
X0126620Y0103519D03*
X0126620Y0103283D03*
X0126856Y0103991D03*
X0126856Y0105645D03*
X0126856Y0105881D03*
X0126856Y0106117D03*
X0129455Y0106117D03*
X0129455Y0105881D03*
X0129455Y0105645D03*
X0129455Y0103991D03*
X0129691Y0103755D03*
X0129691Y0103519D03*
X0129691Y0103283D03*
X0131817Y0107298D03*
X0136777Y0107298D03*
X0136777Y0107062D03*
X0145990Y0106117D03*
X0145990Y0105881D03*
X0145990Y0105645D03*
X0145990Y0103755D03*
X0145990Y0103519D03*
X0145990Y0103283D03*
X0148116Y0103991D03*
X0148116Y0104228D03*
X0148116Y0104464D03*
X0148116Y0104700D03*
X0148116Y0104936D03*
X0148116Y0105172D03*
X0148116Y0105409D03*
X0148352Y0105645D03*
X0148352Y0103519D03*
X0152604Y0103755D03*
X0152604Y0103991D03*
X0152604Y0105172D03*
X0152604Y0105409D03*
X0120242Y0105409D03*
X0120242Y0105645D03*
X0120006Y0105172D03*
X0120006Y0104936D03*
X0120006Y0104700D03*
X0120006Y0104464D03*
X0120006Y0104228D03*
X0120242Y0103755D03*
D132*
X0120360Y0103519D03*
X0120596Y0103283D03*
X0120360Y0105881D03*
X0124376Y0105881D03*
X0124376Y0103519D03*
X0126738Y0103046D03*
X0129573Y0103046D03*
X0129336Y0106354D03*
X0126974Y0106354D03*
X0131935Y0106826D03*
X0131935Y0107062D03*
X0134297Y0103755D03*
X0136659Y0106826D03*
X0148470Y0105881D03*
X0148234Y0103755D03*
X0148470Y0103283D03*
X0152250Y0103283D03*
X0152486Y0103519D03*
X0152486Y0105645D03*
X0152250Y0105881D03*
X0155557Y0105881D03*
X0155793Y0105645D03*
X0156029Y0105409D03*
X0156266Y0104936D03*
X0156502Y0104700D03*
X0156738Y0104464D03*
X0156738Y0104228D03*
X0156974Y0103991D03*
X0157210Y0103755D03*
X0157447Y0103283D03*
X0157683Y0103046D03*
D133*
X0150360Y0101865D03*
X0139730Y0103046D03*
X0139730Y0103283D03*
X0139730Y0103519D03*
X0134297Y0104700D03*
X0128155Y0104936D03*
X0128155Y0107062D03*
X0128155Y0102102D03*
X0122486Y0101865D03*
D134*
X0122368Y0106826D03*
X0144573Y0103046D03*
X0144336Y0101629D03*
X0150478Y0102338D03*
X0156384Y0101629D03*
X0156620Y0106354D03*
X0150478Y0106826D03*
D135*
X0152132Y0106117D03*
X0155439Y0106117D03*
X0156148Y0105172D03*
X0157329Y0103519D03*
X0148825Y0103046D03*
X0148588Y0106117D03*
X0136541Y0106590D03*
X0132053Y0106590D03*
X0124022Y0106117D03*
X0124258Y0103283D03*
X0124022Y0103046D03*
X0120714Y0106117D03*
D136*
X0150360Y0106354D03*
X0150360Y0102810D03*
X0156502Y0102338D03*
X0156502Y0102102D03*
D137*
X0122368Y0106354D03*
D138*
X0132525Y0105409D03*
X0136069Y0105409D03*
X0139848Y0103755D03*
X0139848Y0102810D03*
D139*
X0134297Y0104936D03*
X0134297Y0105172D03*
D140*
X0128155Y0104228D03*
X0128155Y0102810D03*
X0128155Y0102574D03*
D141*
X0128155Y0101393D03*
X0131699Y0101629D03*
X0134297Y0103283D03*
X0119651Y0101629D03*
D142*
X0121777Y0102574D03*
X0122014Y0102810D03*
D143*
X0121659Y0102338D03*
D144*
X0121541Y0102102D03*
D145*
X0137014Y0101629D03*
D146*
X0150478Y0101393D03*
X0122368Y0101393D03*
D147*
X0185475Y0100823D03*
X0185475Y0096137D03*
D148*
X0185475Y0096256D03*
X0185475Y0100704D03*
X0188692Y0081705D03*
D149*
X0185475Y0100606D03*
D150*
X0185475Y0100488D03*
D151*
X0185475Y0100350D03*
X0185475Y0096571D03*
X0199755Y0096075D03*
X0199873Y0096272D03*
X0200070Y0096665D03*
X0122542Y0132417D03*
X0122542Y0137103D03*
D152*
X0185475Y0100232D03*
X0185475Y0096689D03*
D153*
X0185475Y0100134D03*
D154*
X0189077Y0100035D03*
X0204971Y0100839D03*
X0205168Y0101823D03*
X0205168Y0102020D03*
X0202648Y0088398D03*
X0117877Y0136040D03*
X0117759Y0135961D03*
D155*
X0183762Y0100035D03*
X0189459Y0083634D03*
D156*
X0189668Y0098952D03*
X0189314Y0099897D03*
X0117522Y0133815D03*
D157*
X0121597Y0134760D03*
X0186302Y0099897D03*
D158*
X0183703Y0099897D03*
X0119944Y0134288D03*
X0119944Y0135232D03*
D159*
X0127503Y0136177D03*
X0127503Y0133343D03*
X0181459Y0099897D03*
X0181459Y0097063D03*
D160*
X0181223Y0097870D03*
X0181223Y0098145D03*
X0181223Y0098263D03*
X0181223Y0098342D03*
X0181223Y0098618D03*
X0181223Y0098697D03*
X0181223Y0098815D03*
X0181223Y0099090D03*
X0189373Y0099760D03*
X0189491Y0099681D03*
X0189609Y0099287D03*
X0189727Y0099090D03*
X0189609Y0097752D03*
X0127739Y0134150D03*
X0127739Y0134425D03*
X0127739Y0134543D03*
X0127739Y0134622D03*
X0127739Y0134898D03*
X0127739Y0134977D03*
X0127739Y0135095D03*
X0127739Y0135370D03*
X0117463Y0135488D03*
X0117345Y0135095D03*
X0117345Y0134977D03*
X0117345Y0134898D03*
X0117345Y0134622D03*
X0117345Y0134543D03*
X0117345Y0134425D03*
X0117463Y0134032D03*
D161*
X0120121Y0135488D03*
X0183644Y0099760D03*
X0184825Y0099208D03*
X0186243Y0099208D03*
X0186243Y0099287D03*
X0186243Y0099760D03*
X0186243Y0098618D03*
X0187306Y0099208D03*
X0200207Y0105130D03*
X0196703Y0080051D03*
X0196900Y0079461D03*
D162*
X0193692Y0085878D03*
X0187944Y0092965D03*
X0189609Y0097397D03*
X0181341Y0097397D03*
X0181341Y0097319D03*
X0181341Y0099563D03*
X0181341Y0099681D03*
X0181459Y0099760D03*
X0201172Y0107256D03*
X0201172Y0107453D03*
X0202353Y0091035D03*
X0204479Y0087138D03*
X0127621Y0133599D03*
X0127621Y0133677D03*
X0127621Y0135843D03*
X0127621Y0135961D03*
D163*
X0120180Y0133953D03*
X0183585Y0099681D03*
X0183585Y0098145D03*
X0186184Y0097200D03*
X0187365Y0097673D03*
X0186184Y0099563D03*
X0186184Y0099681D03*
X0200463Y0105327D03*
X0200660Y0105602D03*
X0200739Y0105799D03*
X0196959Y0087138D03*
X0196369Y0080917D03*
X0196566Y0080327D03*
X0196762Y0079854D03*
X0196959Y0079264D03*
X0174007Y0086272D03*
D164*
X0181282Y0097673D03*
X0181282Y0097752D03*
X0181282Y0099208D03*
X0181282Y0099287D03*
X0189550Y0099563D03*
X0189668Y0099208D03*
X0189668Y0097673D03*
X0189550Y0097319D03*
X0189432Y0097200D03*
X0203751Y0087531D03*
X0205798Y0103083D03*
X0205995Y0104736D03*
X0127680Y0133953D03*
X0127680Y0134032D03*
X0127680Y0135488D03*
X0127680Y0135567D03*
D165*
X0124136Y0133205D03*
X0121420Y0133205D03*
X0121420Y0135567D03*
X0183526Y0099563D03*
X0183526Y0098263D03*
X0186125Y0098263D03*
X0186125Y0098342D03*
X0186125Y0097397D03*
X0186125Y0097319D03*
X0194184Y0096272D03*
X0175798Y0087531D03*
D166*
X0181223Y0098008D03*
X0181223Y0098480D03*
X0181223Y0098952D03*
X0189373Y0097063D03*
X0189609Y0099425D03*
X0127739Y0134288D03*
X0127739Y0134760D03*
X0127739Y0135232D03*
X0117345Y0135232D03*
X0117345Y0134760D03*
X0117345Y0134288D03*
D167*
X0186184Y0099425D03*
X0186184Y0098480D03*
D168*
X0186066Y0098008D03*
X0186066Y0097535D03*
X0183467Y0098480D03*
X0183467Y0099425D03*
X0124077Y0133343D03*
X0121361Y0133343D03*
X0121361Y0133815D03*
X0121361Y0135705D03*
X0121361Y0136177D03*
D169*
X0127680Y0135705D03*
X0127680Y0133815D03*
X0181282Y0099425D03*
X0181282Y0097535D03*
X0189668Y0097535D03*
X0136828Y0085407D03*
X0136828Y0083360D03*
X0133993Y0084147D03*
X0133993Y0084305D03*
D170*
X0183467Y0098342D03*
X0183467Y0099208D03*
X0183467Y0099287D03*
X0186066Y0098145D03*
X0186066Y0097870D03*
X0186066Y0097752D03*
X0186066Y0097673D03*
X0187365Y0099287D03*
X0124077Y0133480D03*
X0124077Y0133599D03*
X0124077Y0133677D03*
X0121361Y0133677D03*
X0121361Y0133599D03*
X0121361Y0133480D03*
X0121361Y0135843D03*
X0121361Y0135961D03*
X0121361Y0136040D03*
D171*
X0124786Y0135961D03*
X0124786Y0135843D03*
X0124786Y0135567D03*
X0124786Y0135488D03*
X0124786Y0135370D03*
X0124786Y0135095D03*
X0124786Y0134977D03*
X0124786Y0134898D03*
X0124786Y0134622D03*
X0124786Y0134543D03*
X0124786Y0134425D03*
X0124786Y0134150D03*
X0124786Y0134032D03*
X0124786Y0133953D03*
X0186774Y0099090D03*
X0188101Y0093358D03*
D172*
X0187365Y0097752D03*
X0184766Y0098618D03*
X0184766Y0098697D03*
X0184766Y0099090D03*
X0183703Y0097870D03*
X0121597Y0134543D03*
X0121597Y0134622D03*
X0121597Y0134898D03*
X0121597Y0134977D03*
X0120062Y0134032D03*
D173*
X0183408Y0099090D03*
X0183408Y0098815D03*
X0183408Y0098697D03*
X0183408Y0098618D03*
D174*
X0186774Y0098952D03*
X0124786Y0133815D03*
X0124786Y0134288D03*
X0124786Y0134760D03*
X0124786Y0135232D03*
X0124786Y0135705D03*
D175*
X0185519Y0119360D03*
X0184707Y0098952D03*
X0134702Y0084462D03*
X0133285Y0084462D03*
X0133285Y0084620D03*
X0133285Y0085249D03*
X0133285Y0083675D03*
X0131395Y0084462D03*
X0129820Y0085249D03*
X0129820Y0082887D03*
X0133285Y0081627D03*
D176*
X0183408Y0098952D03*
D177*
X0189195Y0096925D03*
X0189668Y0098697D03*
X0189668Y0098815D03*
X0117640Y0133677D03*
X0117522Y0133953D03*
X0117404Y0134150D03*
X0117404Y0135370D03*
X0117522Y0135567D03*
X0117640Y0135843D03*
D178*
X0186656Y0098815D03*
X0205699Y0086272D03*
X0205896Y0086075D03*
D179*
X0206861Y0085287D03*
X0207058Y0085091D03*
X0207451Y0084815D03*
X0195877Y0082571D03*
X0195877Y0082374D03*
X0194814Y0085287D03*
X0187136Y0088201D03*
X0187424Y0097870D03*
X0184707Y0098815D03*
X0121656Y0134425D03*
X0120003Y0134150D03*
X0120003Y0135370D03*
D180*
X0119944Y0135095D03*
X0186420Y0098697D03*
X0186302Y0096925D03*
X0200975Y0106193D03*
X0194951Y0085091D03*
X0200109Y0083634D03*
X0200109Y0083437D03*
D181*
X0193337Y0086075D03*
X0187825Y0092492D03*
X0189609Y0097870D03*
X0189609Y0098618D03*
X0203377Y0087925D03*
X0117818Y0133480D03*
X0117699Y0133599D03*
D182*
X0117581Y0135705D03*
X0189609Y0098480D03*
D183*
X0189491Y0098342D03*
D184*
X0189373Y0098263D03*
X0204282Y0099972D03*
D185*
X0189136Y0098145D03*
D186*
X0189018Y0098008D03*
D187*
X0186243Y0097063D03*
X0183644Y0098008D03*
D188*
X0183880Y0097752D03*
X0198593Y0086941D03*
X0198711Y0086744D03*
X0199381Y0085287D03*
X0195404Y0084224D03*
X0206664Y0085484D03*
X0119885Y0134425D03*
X0119885Y0134543D03*
X0119885Y0134622D03*
X0119885Y0134898D03*
X0119885Y0134977D03*
D189*
X0124845Y0136040D03*
X0184235Y0097673D03*
X0184235Y0097397D03*
X0184235Y0097319D03*
X0184235Y0097200D03*
D190*
X0184235Y0097535D03*
X0137064Y0084934D03*
X0137064Y0084777D03*
X0137064Y0084620D03*
X0137064Y0084147D03*
X0137064Y0083990D03*
X0137064Y0083832D03*
X0137064Y0082572D03*
X0137064Y0081942D03*
X0127458Y0081627D03*
X0127458Y0081470D03*
X0127458Y0085249D03*
X0127458Y0085407D03*
X0124845Y0136177D03*
D191*
X0127562Y0136040D03*
X0127562Y0133480D03*
X0127444Y0133205D03*
X0181400Y0097200D03*
X0181518Y0096925D03*
X0184235Y0096925D03*
X0201507Y0090445D03*
X0202688Y0091311D03*
X0203948Y0092098D03*
X0208514Y0090051D03*
X0205995Y0104933D03*
X0206192Y0106193D03*
X0206192Y0106390D03*
X0206192Y0106587D03*
D192*
X0184176Y0097063D03*
X0122188Y0134288D03*
X0122188Y0135232D03*
D193*
X0185475Y0096807D03*
D194*
X0185475Y0096492D03*
D195*
X0185475Y0096374D03*
D196*
X0166558Y0141324D03*
X0162109Y0141324D03*
D197*
X0166459Y0141383D03*
D198*
X0166341Y0141442D03*
D199*
X0165987Y0141619D03*
D200*
X0165888Y0140261D03*
D201*
X0164806Y0145635D03*
D202*
X0162227Y0141383D03*
D203*
X0171991Y0138948D03*
X0176676Y0138948D03*
D204*
X0176558Y0138889D03*
X0172109Y0138889D03*
D205*
X0176459Y0138771D03*
D206*
X0176341Y0138712D03*
D207*
X0175987Y0130680D03*
X0155987Y0138480D03*
X0145887Y0139198D03*
X0145887Y0146403D03*
D208*
X0155987Y0146335D03*
X0175987Y0146330D03*
D209*
X0175534Y0138298D03*
D210*
X0175416Y0138239D03*
D211*
X0175278Y0138180D03*
D212*
X0175140Y0138121D03*
D213*
X0173388Y0131035D03*
D214*
X0172424Y0138653D03*
D215*
X0172345Y0138712D03*
D216*
X0172227Y0138771D03*
D217*
X0122542Y0136984D03*
X0122542Y0132536D03*
X0186408Y0079264D03*
D218*
X0122542Y0136886D03*
D219*
X0122542Y0136768D03*
D220*
X0122542Y0136630D03*
X0122542Y0132851D03*
D221*
X0122542Y0132969D03*
X0122542Y0136512D03*
X0198613Y0095602D03*
X0185857Y0079657D03*
D222*
X0122542Y0136414D03*
D223*
X0122542Y0136315D03*
D224*
X0117995Y0136177D03*
D225*
X0122188Y0135488D03*
X0122188Y0135370D03*
X0122188Y0135095D03*
X0122188Y0134150D03*
X0122188Y0134032D03*
X0122188Y0133953D03*
D226*
X0119885Y0134760D03*
D227*
X0117936Y0133343D03*
D228*
X0118113Y0133205D03*
D229*
X0122542Y0133087D03*
D230*
X0122542Y0132772D03*
D231*
X0122542Y0132654D03*
D232*
X0131991Y0069177D03*
X0136676Y0069177D03*
X0141991Y0069277D03*
X0146676Y0069277D03*
D233*
X0146558Y0069454D03*
X0142109Y0069454D03*
X0136558Y0069354D03*
X0132109Y0069354D03*
D234*
X0136459Y0069472D03*
X0146459Y0069572D03*
D235*
X0146341Y0069691D03*
X0136341Y0069591D03*
D236*
X0136203Y0069650D03*
X0132424Y0069650D03*
X0142424Y0069750D03*
X0146203Y0069750D03*
D237*
X0146085Y0069809D03*
X0142542Y0069809D03*
X0136085Y0069709D03*
X0132542Y0069709D03*
D238*
X0135987Y0069768D03*
X0145987Y0069868D03*
D239*
X0135888Y0066461D03*
D240*
X0135751Y0075260D03*
D241*
X0132916Y0075319D03*
D242*
X0132660Y0069768D03*
X0142660Y0069868D03*
D243*
X0142345Y0069691D03*
X0132345Y0069591D03*
D244*
X0132227Y0069472D03*
X0142227Y0069572D03*
D245*
X0145888Y0066265D03*
D246*
X0145888Y0074769D03*
X0195044Y0070045D03*
D247*
X0196776Y0066679D03*
X0192091Y0066679D03*
D248*
X0192209Y0066856D03*
X0196658Y0066856D03*
D249*
X0196559Y0066974D03*
D250*
X0196441Y0067092D03*
D251*
X0196303Y0067151D03*
X0192524Y0067151D03*
X0142245Y0142978D03*
D252*
X0142324Y0142919D03*
X0192642Y0067210D03*
X0196185Y0067210D03*
D253*
X0196087Y0067269D03*
D254*
X0194906Y0070104D03*
D255*
X0193961Y0066974D03*
D256*
X0192445Y0067092D03*
X0142127Y0143037D03*
D257*
X0142009Y0143155D03*
X0146458Y0143155D03*
X0192327Y0066974D03*
D258*
X0132261Y0080368D03*
X0132261Y0080525D03*
X0132261Y0080683D03*
X0132261Y0080840D03*
X0132261Y0080997D03*
X0132261Y0081155D03*
X0132261Y0081312D03*
X0132261Y0085722D03*
X0132261Y0085879D03*
X0132261Y0086037D03*
X0132261Y0086194D03*
X0132261Y0086352D03*
X0132261Y0086509D03*
X0132261Y0086667D03*
D259*
X0136592Y0085564D03*
X0130608Y0081470D03*
X0184574Y0121407D03*
D260*
X0130450Y0085564D03*
D261*
X0131316Y0084305D03*
X0131316Y0083832D03*
X0131316Y0083675D03*
X0129899Y0082730D03*
X0133364Y0085407D03*
X0134781Y0082572D03*
X0187488Y0119675D03*
X0184968Y0120777D03*
X0182921Y0120305D03*
D262*
X0182921Y0120147D03*
X0182921Y0118415D03*
X0187330Y0119832D03*
X0133521Y0083832D03*
X0129899Y0085407D03*
X0133364Y0081470D03*
D263*
X0136907Y0081627D03*
X0136907Y0085249D03*
D264*
X0136986Y0085092D03*
X0136986Y0083675D03*
X0136986Y0083517D03*
X0136986Y0082730D03*
X0136986Y0081785D03*
X0133836Y0083990D03*
X0184811Y0121250D03*
D265*
X0184968Y0120620D03*
X0185440Y0119517D03*
X0187645Y0119517D03*
X0187645Y0121250D03*
X0182921Y0118258D03*
X0133206Y0085092D03*
X0133206Y0084934D03*
X0133206Y0084777D03*
X0133206Y0083517D03*
X0133206Y0081785D03*
X0134781Y0082415D03*
X0129742Y0083045D03*
X0129742Y0085092D03*
D266*
X0127379Y0085092D03*
X0127379Y0084934D03*
X0127379Y0084777D03*
X0127379Y0084620D03*
X0127379Y0084462D03*
X0127379Y0084305D03*
X0127379Y0084147D03*
X0127379Y0083990D03*
X0127379Y0083832D03*
X0127379Y0083675D03*
X0127379Y0083517D03*
X0127379Y0083360D03*
X0127379Y0083202D03*
X0127379Y0083045D03*
X0127379Y0082887D03*
X0127379Y0082730D03*
X0127379Y0082572D03*
X0127379Y0082415D03*
X0127379Y0082257D03*
X0127379Y0082100D03*
X0127379Y0081942D03*
X0127379Y0081785D03*
X0137143Y0082100D03*
X0137143Y0082257D03*
X0137143Y0082415D03*
X0137143Y0084305D03*
X0137143Y0084462D03*
D267*
X0133127Y0083360D03*
X0133127Y0083202D03*
X0133127Y0082100D03*
X0133127Y0081942D03*
X0129663Y0083202D03*
X0129663Y0084934D03*
X0185362Y0119675D03*
X0185204Y0119990D03*
X0185047Y0120462D03*
X0186464Y0120462D03*
X0186464Y0120305D03*
X0186779Y0119990D03*
X0187724Y0119990D03*
X0187724Y0119360D03*
X0187724Y0118573D03*
X0187724Y0120935D03*
X0187724Y0121092D03*
D268*
X0187803Y0120777D03*
X0187803Y0120620D03*
X0187803Y0120462D03*
X0187803Y0120305D03*
X0187803Y0120147D03*
X0187803Y0119203D03*
X0187803Y0119045D03*
X0187803Y0118888D03*
X0187803Y0118730D03*
X0186543Y0120147D03*
X0185283Y0119832D03*
X0185126Y0120147D03*
X0185126Y0120305D03*
X0185126Y0118573D03*
X0134781Y0084620D03*
X0133049Y0083045D03*
X0133049Y0082887D03*
X0133049Y0082730D03*
X0133049Y0082572D03*
X0133049Y0082415D03*
X0133049Y0082257D03*
X0129584Y0083360D03*
X0129584Y0083517D03*
X0129584Y0084462D03*
X0129584Y0084620D03*
X0129584Y0084777D03*
D269*
X0129505Y0084305D03*
X0129505Y0084147D03*
X0129505Y0083990D03*
X0129505Y0083832D03*
X0129505Y0083675D03*
X0185204Y0119203D03*
X0186464Y0120620D03*
D270*
X0184889Y0120935D03*
X0131238Y0084147D03*
X0131238Y0083990D03*
X0134860Y0082730D03*
D271*
X0136671Y0083202D03*
X0130529Y0081627D03*
D272*
X0136356Y0083045D03*
X0180244Y0117470D03*
X0179929Y0118100D03*
X0179929Y0120462D03*
X0179929Y0120620D03*
X0186385Y0118258D03*
X0186385Y0118100D03*
X0190637Y0118100D03*
X0190637Y0118258D03*
X0190637Y0118415D03*
X0190637Y0120305D03*
X0190637Y0120462D03*
X0190637Y0120620D03*
D273*
X0186228Y0117785D03*
X0180086Y0118415D03*
X0136198Y0082887D03*
D274*
X0130135Y0082572D03*
X0184889Y0121092D03*
D275*
X0130608Y0082415D03*
X0130608Y0082257D03*
X0130608Y0082100D03*
X0130608Y0081942D03*
X0130608Y0081785D03*
X0136749Y0081470D03*
D276*
X0185283Y0116210D03*
X0185283Y0122510D03*
D277*
X0185283Y0122352D03*
X0185283Y0116368D03*
D278*
X0185283Y0116525D03*
X0185283Y0122195D03*
D279*
X0185283Y0122037D03*
X0185283Y0116683D03*
D280*
X0185283Y0116840D03*
X0185283Y0121880D03*
D281*
X0185283Y0121722D03*
X0185283Y0116998D03*
D282*
X0185283Y0117155D03*
X0185283Y0121565D03*
D283*
X0189377Y0121407D03*
D284*
X0180716Y0121407D03*
D285*
X0180086Y0117628D03*
X0190322Y0117313D03*
X0190480Y0117470D03*
X0190480Y0117628D03*
X0190480Y0121092D03*
X0190480Y0121250D03*
D286*
X0190716Y0120147D03*
X0190716Y0119990D03*
X0190716Y0119832D03*
X0190716Y0119675D03*
X0190716Y0119517D03*
X0190716Y0119360D03*
X0190716Y0119203D03*
X0190716Y0119045D03*
X0190716Y0118888D03*
X0190716Y0118730D03*
X0190716Y0118573D03*
X0186307Y0117943D03*
X0180480Y0117313D03*
X0180007Y0118258D03*
X0180007Y0120305D03*
X0180322Y0121250D03*
D287*
X0180165Y0121092D03*
X0180007Y0120935D03*
X0180007Y0120777D03*
X0180007Y0117943D03*
X0180007Y0117785D03*
X0186464Y0118415D03*
X0190559Y0117943D03*
X0190559Y0117785D03*
X0190559Y0120777D03*
X0190559Y0120935D03*
D288*
X0186149Y0117628D03*
X0180007Y0120147D03*
D289*
X0180952Y0119990D03*
X0180952Y0118573D03*
D290*
X0181031Y0118730D03*
X0181031Y0118888D03*
X0181031Y0119675D03*
X0181031Y0119832D03*
D291*
X0181110Y0119517D03*
X0181110Y0119360D03*
X0181110Y0119203D03*
X0181110Y0119045D03*
D292*
X0185992Y0117470D03*
D293*
X0185913Y0117313D03*
D294*
X0146576Y0143214D03*
X0141891Y0143214D03*
D295*
X0146359Y0143037D03*
D296*
X0146241Y0142978D03*
D297*
X0145434Y0142565D03*
X0152424Y0142555D03*
D298*
X0145316Y0142506D03*
D299*
X0145178Y0142446D03*
D300*
X0145040Y0142387D03*
D301*
X0152109Y0142791D03*
X0156558Y0142791D03*
D302*
X0156459Y0142673D03*
D303*
X0156341Y0142614D03*
D304*
X0155534Y0142201D03*
D305*
X0155416Y0142142D03*
D306*
X0155278Y0142083D03*
D307*
X0152345Y0142614D03*
D308*
X0152227Y0142673D03*
D309*
X0202392Y0110071D03*
X0200739Y0105701D03*
X0200660Y0105504D03*
X0200542Y0105425D03*
X0200345Y0105228D03*
X0184322Y0089953D03*
X0174007Y0086173D03*
X0196172Y0081606D03*
X0196369Y0081016D03*
X0196566Y0080425D03*
D310*
X0195778Y0082866D03*
X0195778Y0083063D03*
X0199873Y0084323D03*
X0199951Y0084126D03*
X0200070Y0083732D03*
X0200148Y0083339D03*
X0200266Y0083260D03*
X0206959Y0085189D03*
X0207156Y0084992D03*
X0202392Y0109992D03*
D311*
X0202392Y0109894D03*
D312*
X0203121Y0109795D03*
X0205562Y0107748D03*
X0205168Y0102118D03*
X0205168Y0101921D03*
X0204971Y0100937D03*
X0202530Y0088496D03*
X0203121Y0088102D03*
D313*
X0191526Y0084028D03*
X0190936Y0085091D03*
X0188298Y0084028D03*
X0204518Y0100366D03*
X0204912Y0108240D03*
X0203180Y0109697D03*
D314*
X0203160Y0109598D03*
D315*
X0203180Y0109500D03*
D316*
X0203121Y0109402D03*
X0203042Y0098220D03*
X0202845Y0098024D03*
X0186703Y0077906D03*
D317*
X0203140Y0109303D03*
D318*
X0203140Y0109205D03*
X0202156Y0097630D03*
D319*
X0203121Y0109106D03*
X0178042Y0089185D03*
D320*
X0178239Y0089283D03*
X0203121Y0109008D03*
D321*
X0203121Y0108909D03*
X0178436Y0089382D03*
X0186900Y0078398D03*
D322*
X0178633Y0089480D03*
X0183199Y0092591D03*
X0203121Y0108811D03*
D323*
X0203180Y0108713D03*
X0201723Y0097059D03*
X0191408Y0086547D03*
X0178770Y0089579D03*
D324*
X0205936Y0091213D03*
X0204479Y0108614D03*
D325*
X0201310Y0108614D03*
X0201310Y0108535D03*
X0201231Y0108339D03*
X0201231Y0108142D03*
X0201231Y0107945D03*
X0205325Y0102394D03*
X0203475Y0087827D03*
X0203672Y0087630D03*
D326*
X0206172Y0091134D03*
X0203967Y0099087D03*
X0204636Y0108535D03*
X0182747Y0092866D03*
D327*
X0204007Y0099185D03*
X0204676Y0108437D03*
D328*
X0201231Y0108437D03*
X0201231Y0108240D03*
X0201231Y0108043D03*
X0205404Y0102492D03*
X0196940Y0097256D03*
X0187806Y0092689D03*
D329*
X0191310Y0084520D03*
X0191428Y0084323D03*
X0183436Y0076055D03*
X0204066Y0099283D03*
X0204814Y0108339D03*
D330*
X0205030Y0108142D03*
X0204440Y0100268D03*
X0204322Y0100071D03*
X0204243Y0099874D03*
X0190030Y0086173D03*
X0190818Y0085189D03*
X0191526Y0084126D03*
D331*
X0190680Y0085484D03*
X0190089Y0086075D03*
X0205168Y0108043D03*
D332*
X0205266Y0107945D03*
X0205070Y0101331D03*
X0206526Y0090937D03*
X0190581Y0085583D03*
D333*
X0190522Y0085681D03*
X0190325Y0085878D03*
X0202963Y0088201D03*
X0197058Y0097059D03*
X0205010Y0101035D03*
X0205010Y0101232D03*
X0205129Y0101626D03*
X0205404Y0107846D03*
D334*
X0205955Y0104539D03*
X0205837Y0103280D03*
X0205562Y0102689D03*
X0201192Y0107650D03*
X0201192Y0107846D03*
D335*
X0201192Y0107748D03*
X0205837Y0107551D03*
X0205955Y0104638D03*
X0205837Y0103378D03*
X0205444Y0102591D03*
X0203908Y0087433D03*
D336*
X0205266Y0102295D03*
X0205857Y0103949D03*
X0205739Y0107650D03*
D337*
X0201133Y0107551D03*
X0187904Y0092866D03*
X0204243Y0087236D03*
D338*
X0176251Y0088988D03*
X0206093Y0107453D03*
D339*
X0206192Y0107354D03*
X0206192Y0105504D03*
X0206192Y0105425D03*
X0206192Y0105228D03*
X0188003Y0093260D03*
X0201034Y0090150D03*
X0208908Y0089953D03*
X0180129Y0077039D03*
D340*
X0199912Y0089480D03*
X0201959Y0090740D03*
X0202235Y0090937D03*
X0202432Y0091134D03*
X0205936Y0104835D03*
X0201172Y0107354D03*
D341*
X0201172Y0106783D03*
X0206251Y0107256D03*
X0208180Y0090248D03*
X0209164Y0089854D03*
X0175621Y0088398D03*
X0175503Y0088201D03*
X0175306Y0087925D03*
X0175227Y0087728D03*
D342*
X0176113Y0088890D03*
X0208357Y0090150D03*
X0206034Y0105031D03*
X0206152Y0105701D03*
X0206152Y0105898D03*
X0206231Y0106882D03*
X0206231Y0106961D03*
X0206231Y0107157D03*
X0201192Y0106961D03*
D343*
X0201231Y0107157D03*
X0206192Y0106685D03*
X0206192Y0106488D03*
X0206192Y0106291D03*
X0206192Y0106094D03*
X0201625Y0090543D03*
D344*
X0201192Y0090248D03*
X0187963Y0093161D03*
X0188160Y0084224D03*
X0206152Y0105602D03*
X0206152Y0105799D03*
X0206152Y0105996D03*
X0206231Y0106783D03*
X0206231Y0107059D03*
X0201192Y0107059D03*
D345*
X0201172Y0106882D03*
X0191054Y0094520D03*
X0200699Y0089953D03*
X0209361Y0089756D03*
X0209833Y0089480D03*
X0175424Y0088102D03*
X0175227Y0087827D03*
D346*
X0175365Y0088024D03*
X0175562Y0088299D03*
X0208042Y0090346D03*
X0201231Y0106685D03*
D347*
X0201192Y0106587D03*
X0207294Y0090839D03*
X0207885Y0090445D03*
X0210010Y0089382D03*
X0175719Y0088594D03*
D348*
X0207747Y0090543D03*
X0201133Y0106488D03*
D349*
X0201093Y0106390D03*
X0194164Y0096075D03*
X0207589Y0090642D03*
X0205070Y0086941D03*
X0205266Y0086744D03*
X0206133Y0085878D03*
D350*
X0210404Y0089283D03*
X0203790Y0092197D03*
X0198554Y0087039D03*
X0198948Y0086370D03*
X0199341Y0085386D03*
X0194262Y0085780D03*
X0194184Y0096173D03*
X0196822Y0097630D03*
X0201073Y0106291D03*
D351*
X0200877Y0106094D03*
X0174341Y0087039D03*
X0174262Y0086843D03*
X0194774Y0085386D03*
X0195916Y0082276D03*
X0196034Y0082079D03*
X0199617Y0084913D03*
X0207294Y0084913D03*
X0207491Y0084717D03*
X0207885Y0084520D03*
D352*
X0208042Y0084421D03*
X0201507Y0081114D03*
X0201231Y0081508D03*
X0200562Y0082571D03*
X0200365Y0082965D03*
X0195680Y0083437D03*
X0195601Y0083634D03*
X0174302Y0086941D03*
X0174105Y0086547D03*
X0200837Y0105996D03*
D353*
X0200778Y0105898D03*
X0188259Y0093654D03*
X0174164Y0086646D03*
X0174046Y0086449D03*
X0174046Y0086370D03*
X0182314Y0077118D03*
X0196211Y0081409D03*
X0196329Y0081213D03*
X0196408Y0080819D03*
X0196526Y0080622D03*
X0196605Y0080228D03*
X0196605Y0080150D03*
X0196802Y0079756D03*
X0196133Y0081803D03*
X0200699Y0082276D03*
D354*
X0200837Y0090051D03*
X0196861Y0097453D03*
X0206192Y0105327D03*
X0175955Y0088791D03*
D355*
X0183337Y0092965D03*
X0200070Y0089579D03*
X0200542Y0089854D03*
X0206093Y0105130D03*
D356*
X0200266Y0105031D03*
X0201802Y0081016D03*
X0201526Y0080819D03*
X0201605Y0080622D03*
X0197156Y0079165D03*
X0196841Y0078969D03*
D357*
X0205896Y0103575D03*
X0205896Y0104244D03*
X0205896Y0104441D03*
D358*
X0205896Y0104343D03*
X0205896Y0104146D03*
X0205896Y0103673D03*
X0205896Y0103476D03*
D359*
X0205857Y0103772D03*
X0205857Y0103850D03*
X0205857Y0104047D03*
D360*
X0205798Y0103181D03*
X0205798Y0102984D03*
X0205601Y0102787D03*
X0188199Y0084126D03*
D361*
X0202117Y0090839D03*
X0204046Y0087335D03*
X0205699Y0102886D03*
D362*
X0205227Y0102197D03*
X0196959Y0097157D03*
X0193259Y0086173D03*
X0193455Y0085976D03*
D363*
X0190719Y0085386D03*
X0190444Y0085780D03*
X0205010Y0101134D03*
X0205129Y0101528D03*
X0205129Y0101724D03*
D364*
X0205070Y0101429D03*
X0204676Y0100563D03*
X0190778Y0085287D03*
D365*
X0202825Y0088299D03*
X0203219Y0088024D03*
X0204873Y0100740D03*
D366*
X0204774Y0100661D03*
X0204577Y0100465D03*
X0197491Y0087236D03*
D367*
X0191467Y0084224D03*
X0204105Y0099579D03*
X0204184Y0099776D03*
X0204381Y0100169D03*
D368*
X0204144Y0099677D03*
D369*
X0204105Y0099480D03*
X0191073Y0084913D03*
D370*
X0191113Y0084815D03*
X0191231Y0084618D03*
X0191310Y0084421D03*
X0197255Y0087335D03*
X0206270Y0091035D03*
X0204066Y0099382D03*
D371*
X0203908Y0099008D03*
D372*
X0203869Y0098909D03*
D373*
X0203711Y0098811D03*
X0204302Y0091803D03*
D374*
X0203613Y0098713D03*
X0190385Y0086744D03*
D375*
X0190483Y0086646D03*
X0190483Y0087039D03*
X0203514Y0098614D03*
D376*
X0203377Y0098516D03*
D377*
X0203278Y0098417D03*
X0185680Y0077512D03*
D378*
X0203180Y0098319D03*
D379*
X0202924Y0098122D03*
D380*
X0202688Y0097925D03*
X0185483Y0077413D03*
D381*
X0202589Y0097827D03*
D382*
X0202392Y0097728D03*
D383*
X0196802Y0097728D03*
X0173967Y0086075D03*
D384*
X0186979Y0078299D03*
X0202058Y0097551D03*
D385*
X0196822Y0097551D03*
D386*
X0201959Y0097453D03*
D387*
X0201861Y0097354D03*
D388*
X0196900Y0097354D03*
X0176388Y0089087D03*
D389*
X0201822Y0097256D03*
D390*
X0201762Y0097157D03*
D391*
X0200109Y0096961D03*
D392*
X0200109Y0096862D03*
D393*
X0200070Y0096764D03*
D394*
X0200010Y0096567D03*
X0199814Y0096173D03*
D395*
X0200010Y0096469D03*
D396*
X0199912Y0096370D03*
D397*
X0198829Y0095976D03*
X0198751Y0095898D03*
D398*
X0198711Y0095799D03*
D399*
X0198652Y0095701D03*
X0183692Y0091803D03*
D400*
X0198613Y0095504D03*
D401*
X0198554Y0095406D03*
D402*
X0198554Y0095307D03*
D403*
X0198514Y0095209D03*
X0198514Y0095012D03*
X0198396Y0094618D03*
D404*
X0198396Y0094717D03*
X0198318Y0094520D03*
X0198514Y0094913D03*
X0198514Y0095110D03*
X0193948Y0088102D03*
D405*
X0198455Y0094815D03*
X0186487Y0080524D03*
D406*
X0194223Y0086646D03*
X0201428Y0081016D03*
X0190719Y0094717D03*
D407*
X0190877Y0094618D03*
X0198475Y0087138D03*
X0198829Y0086547D03*
X0198948Y0086272D03*
X0199026Y0086075D03*
X0195247Y0084618D03*
X0195168Y0084815D03*
X0206428Y0085681D03*
X0174735Y0087531D03*
D408*
X0197058Y0094421D03*
D409*
X0197058Y0094323D03*
D410*
X0196959Y0094244D03*
X0193455Y0088299D03*
D411*
X0196861Y0094146D03*
D412*
X0196822Y0094047D03*
X0196703Y0093850D03*
D413*
X0196762Y0093949D03*
D414*
X0196703Y0093752D03*
D415*
X0196664Y0093654D03*
D416*
X0196605Y0093555D03*
X0196526Y0093161D03*
D417*
X0188199Y0093555D03*
X0199184Y0085681D03*
X0205404Y0086547D03*
D418*
X0196566Y0093457D03*
D419*
X0188140Y0093457D03*
X0205148Y0086843D03*
X0205345Y0086646D03*
X0205463Y0086449D03*
X0205542Y0086370D03*
X0207510Y0090740D03*
D420*
X0196566Y0093358D03*
X0191999Y0089854D03*
D421*
X0196526Y0093260D03*
D422*
X0196467Y0093063D03*
D423*
X0202589Y0091213D03*
X0187904Y0093063D03*
D424*
X0183495Y0093063D03*
X0174558Y0087236D03*
X0188062Y0084323D03*
X0194873Y0085189D03*
X0200109Y0083535D03*
D425*
X0196467Y0092965D03*
D426*
X0199479Y0085091D03*
X0199951Y0084028D03*
X0195778Y0082965D03*
X0195503Y0084028D03*
X0181684Y0092965D03*
X0174597Y0087335D03*
X0174400Y0087138D03*
D427*
X0196428Y0092866D03*
D428*
X0196369Y0092787D03*
D429*
X0187865Y0092787D03*
D430*
X0183239Y0092787D03*
X0183239Y0076252D03*
D431*
X0196329Y0092689D03*
D432*
X0204617Y0091508D03*
X0183239Y0092689D03*
X0183239Y0076350D03*
D433*
X0196270Y0092591D03*
D434*
X0187766Y0092591D03*
D435*
X0196231Y0092492D03*
D436*
X0183101Y0092492D03*
X0179991Y0090642D03*
X0179794Y0090445D03*
X0179597Y0090248D03*
X0179400Y0090051D03*
D437*
X0196172Y0092394D03*
D438*
X0184361Y0092394D03*
D439*
X0203711Y0092295D03*
X0201664Y0080524D03*
X0196900Y0078870D03*
X0182136Y0077217D03*
D440*
X0196172Y0092295D03*
D441*
X0184223Y0092295D03*
D442*
X0196073Y0092197D03*
D443*
X0184026Y0092197D03*
D444*
X0196034Y0092098D03*
D445*
X0193298Y0087728D03*
X0183888Y0092098D03*
D446*
X0204243Y0092000D03*
D447*
X0195936Y0092000D03*
X0185818Y0080150D03*
D448*
X0183829Y0092000D03*
D449*
X0204282Y0091902D03*
D450*
X0195778Y0091902D03*
X0186054Y0080327D03*
D451*
X0185975Y0079461D03*
X0183731Y0091902D03*
D452*
X0195640Y0091803D03*
X0185719Y0079953D03*
D453*
X0186014Y0077610D03*
X0204400Y0091705D03*
D454*
X0189794Y0091705D03*
D455*
X0204479Y0091606D03*
D456*
X0189755Y0091606D03*
D457*
X0189656Y0091508D03*
D458*
X0204676Y0091409D03*
D459*
X0192668Y0091409D03*
D460*
X0180660Y0091409D03*
X0180385Y0091134D03*
D461*
X0205759Y0091311D03*
D462*
X0192707Y0091311D03*
D463*
X0191546Y0086272D03*
X0180562Y0091311D03*
X0180286Y0091035D03*
X0183199Y0076547D03*
D464*
X0192609Y0091213D03*
D465*
X0180483Y0091213D03*
X0178908Y0089677D03*
X0186900Y0078496D03*
D466*
X0194518Y0088890D03*
X0192589Y0091134D03*
D467*
X0192491Y0091035D03*
D468*
X0192432Y0090937D03*
X0193888Y0089283D03*
D469*
X0180247Y0090937D03*
X0180050Y0090740D03*
X0179066Y0089756D03*
D470*
X0196133Y0081705D03*
X0196211Y0081508D03*
X0196329Y0081114D03*
X0196408Y0080720D03*
X0196526Y0080524D03*
X0196802Y0079657D03*
X0201369Y0081311D03*
X0200699Y0082374D03*
X0200503Y0082768D03*
X0205739Y0090839D03*
D471*
X0192333Y0090839D03*
D472*
X0180129Y0090839D03*
D473*
X0192333Y0090740D03*
D474*
X0201861Y0090642D03*
D475*
X0192235Y0090642D03*
D476*
X0192235Y0090543D03*
D477*
X0179892Y0090543D03*
X0179696Y0090346D03*
X0179499Y0090150D03*
X0179302Y0089953D03*
D478*
X0192235Y0090445D03*
D479*
X0200148Y0089677D03*
X0200345Y0089756D03*
X0201329Y0090346D03*
X0204833Y0087039D03*
X0175857Y0088693D03*
D480*
X0192136Y0090346D03*
D481*
X0191940Y0090248D03*
D482*
X0191703Y0090150D03*
D483*
X0191546Y0090051D03*
D484*
X0191900Y0089953D03*
D485*
X0184164Y0089854D03*
X0175818Y0087335D03*
X0201566Y0080720D03*
D486*
X0179164Y0089854D03*
D487*
X0191999Y0089756D03*
D488*
X0175129Y0087630D03*
X0209538Y0089677D03*
D489*
X0192038Y0089677D03*
D490*
X0209696Y0089579D03*
D491*
X0192097Y0089579D03*
D492*
X0192136Y0089480D03*
D493*
X0193455Y0089382D03*
D494*
X0209636Y0089283D03*
X0197196Y0078969D03*
D495*
X0194046Y0089185D03*
D496*
X0194282Y0089087D03*
D497*
X0195640Y0083535D03*
X0196703Y0079953D03*
X0196900Y0079362D03*
X0201467Y0081213D03*
X0200601Y0082472D03*
X0179892Y0089087D03*
X0179499Y0077118D03*
D498*
X0194322Y0088988D03*
D499*
X0194656Y0088791D03*
D500*
X0194873Y0088693D03*
D501*
X0194971Y0088594D03*
D502*
X0193593Y0088496D03*
D503*
X0175660Y0088496D03*
D504*
X0193554Y0088398D03*
D505*
X0194085Y0088201D03*
D506*
X0193790Y0088024D03*
D507*
X0193357Y0087925D03*
D508*
X0193219Y0087827D03*
D509*
X0203613Y0087728D03*
D510*
X0193554Y0087433D03*
X0193357Y0087630D03*
X0186073Y0079362D03*
D511*
X0193455Y0087531D03*
D512*
X0208278Y0084323D03*
X0175798Y0087433D03*
D513*
X0174696Y0087433D03*
X0195010Y0084992D03*
X0198790Y0086646D03*
X0198711Y0086843D03*
X0199381Y0085189D03*
X0206585Y0085583D03*
D514*
X0191448Y0087335D03*
X0189715Y0083831D03*
D515*
X0191329Y0087236D03*
D516*
X0175759Y0087236D03*
D517*
X0190483Y0087138D03*
X0185129Y0077217D03*
D518*
X0190444Y0086941D03*
D519*
X0190385Y0086843D03*
D520*
X0200739Y0082177D03*
X0200936Y0081980D03*
X0201133Y0081705D03*
X0174203Y0086744D03*
D521*
X0195109Y0084913D03*
X0198888Y0086449D03*
X0206762Y0085386D03*
D522*
X0191507Y0086370D03*
X0191507Y0086449D03*
D523*
X0205798Y0086173D03*
X0205995Y0085976D03*
D524*
X0199184Y0085780D03*
X0199184Y0085583D03*
X0198987Y0086173D03*
X0195207Y0084717D03*
D525*
X0195306Y0084520D03*
X0199085Y0085976D03*
X0206290Y0085780D03*
D526*
X0190975Y0084992D03*
X0190188Y0085976D03*
D527*
X0173967Y0085976D03*
D528*
X0199085Y0085878D03*
X0199282Y0085484D03*
D529*
X0201467Y0080917D03*
X0173869Y0085878D03*
D530*
X0173869Y0085780D03*
D531*
X0194459Y0085681D03*
X0194656Y0085484D03*
X0195837Y0082768D03*
X0195916Y0082177D03*
X0196034Y0081980D03*
X0199814Y0084421D03*
X0199735Y0084618D03*
X0199617Y0084815D03*
X0207688Y0084618D03*
D532*
X0201231Y0081606D03*
X0201034Y0081803D03*
X0200837Y0082079D03*
X0200562Y0082669D03*
X0200444Y0082866D03*
X0200365Y0083063D03*
X0199774Y0084520D03*
X0195601Y0083732D03*
X0195680Y0083339D03*
X0196073Y0081882D03*
X0196861Y0079559D03*
X0194617Y0085583D03*
D533*
X0195877Y0082669D03*
X0195877Y0082472D03*
X0199577Y0084992D03*
D534*
X0199676Y0084717D03*
X0200936Y0081882D03*
X0201329Y0081409D03*
D535*
X0191172Y0084717D03*
D536*
X0195345Y0084421D03*
D537*
X0195345Y0084323D03*
D538*
X0195542Y0083831D03*
X0195739Y0083161D03*
X0199912Y0084224D03*
X0200306Y0083161D03*
D539*
X0200010Y0083929D03*
X0195444Y0084126D03*
D540*
X0195542Y0083929D03*
X0195739Y0083260D03*
D541*
X0189873Y0083929D03*
D542*
X0200010Y0083831D03*
D543*
X0189656Y0083732D03*
X0183160Y0076646D03*
D544*
X0189420Y0083535D03*
D545*
X0189361Y0083437D03*
D546*
X0189262Y0083339D03*
D547*
X0189223Y0083260D03*
D548*
X0189164Y0083161D03*
D549*
X0189125Y0083063D03*
D550*
X0189125Y0082965D03*
D551*
X0189125Y0082866D03*
D552*
X0189046Y0082768D03*
D553*
X0189046Y0082669D03*
D554*
X0188987Y0082571D03*
D555*
X0188948Y0082472D03*
D556*
X0188948Y0082374D03*
D557*
X0188888Y0082276D03*
D558*
X0188849Y0082177D03*
X0188731Y0081980D03*
D559*
X0188790Y0082079D03*
D560*
X0188731Y0081882D03*
D561*
X0188692Y0081803D03*
D562*
X0188633Y0081606D03*
D563*
X0188554Y0081508D03*
X0186310Y0078870D03*
D564*
X0188495Y0081409D03*
D565*
X0196270Y0081311D03*
D566*
X0188455Y0081311D03*
D567*
X0188396Y0081213D03*
D568*
X0188298Y0081114D03*
D569*
X0188239Y0081016D03*
X0186310Y0078969D03*
D570*
X0188140Y0080917D03*
D571*
X0188022Y0080819D03*
D572*
X0187806Y0080720D03*
D573*
X0187510Y0080622D03*
D574*
X0186310Y0080425D03*
D575*
X0185975Y0080228D03*
D576*
X0185759Y0080051D03*
D577*
X0185621Y0079854D03*
D578*
X0185778Y0079756D03*
D579*
X0179499Y0079756D03*
X0196900Y0078772D03*
D580*
X0185955Y0079559D03*
D581*
X0196802Y0079165D03*
D582*
X0186467Y0079165D03*
D583*
X0196841Y0079067D03*
D584*
X0186310Y0079067D03*
D585*
X0186881Y0078772D03*
D586*
X0186900Y0078673D03*
D587*
X0186881Y0078575D03*
D588*
X0186940Y0078201D03*
D589*
X0186900Y0078102D03*
D590*
X0186743Y0078004D03*
D591*
X0186546Y0077807D03*
D592*
X0186251Y0077709D03*
D593*
X0185286Y0077315D03*
D594*
X0184892Y0077118D03*
D595*
X0184361Y0077039D03*
D596*
X0183003Y0076941D03*
D597*
X0183003Y0076843D03*
D598*
X0183101Y0076744D03*
D599*
X0183239Y0076449D03*
D600*
X0183337Y0076154D03*
M02*
