G75*
%MOIN*%
%OFA0B0*%
%FSLAX25Y25*%
%IPPOS*%
%LPD*%
%AMOC8*
5,1,8,0,0,1.08239X$1,22.5*
%
%ADD10R,0.03300X0.05800*%
%ADD11C,0.00500*%
%ADD12C,0.08200*%
%ADD13C,0.03300*%
%ADD14C,0.12800*%
D10*
X0098450Y0078950D03*
X0101650Y0078950D03*
X0099750Y0100750D03*
X0095750Y0100750D03*
X0103750Y0100750D03*
X0136750Y0101750D03*
X0140750Y0101750D03*
X0197750Y0100750D03*
X0201750Y0100750D03*
X0205750Y0100750D03*
X0203650Y0078950D03*
X0200450Y0078950D03*
X0238750Y0101750D03*
X0242750Y0101750D03*
X0299750Y0100750D03*
X0303750Y0100750D03*
X0307750Y0100750D03*
X0305650Y0078950D03*
X0302450Y0078950D03*
X0340750Y0101750D03*
X0344750Y0101750D03*
X0401750Y0100750D03*
X0405750Y0100750D03*
X0409750Y0100750D03*
X0407650Y0078950D03*
X0404450Y0078950D03*
X0404450Y0180950D03*
X0407650Y0180950D03*
X0405750Y0202750D03*
X0401750Y0202750D03*
X0409750Y0202750D03*
X0344750Y0203750D03*
X0340750Y0203750D03*
X0307750Y0202750D03*
X0303750Y0202750D03*
X0299750Y0202750D03*
X0302450Y0180950D03*
X0305650Y0180950D03*
X0242750Y0203750D03*
X0238750Y0203750D03*
X0205750Y0202750D03*
X0201750Y0202750D03*
X0197750Y0202750D03*
X0200450Y0180950D03*
X0203650Y0180950D03*
X0140750Y0203750D03*
X0136750Y0203750D03*
X0103750Y0202750D03*
X0099750Y0202750D03*
X0095750Y0202750D03*
X0098450Y0180950D03*
X0101650Y0180950D03*
X0038750Y0203750D03*
X0034750Y0203750D03*
X0098450Y0282950D03*
X0101650Y0282950D03*
X0099750Y0304750D03*
X0095750Y0304750D03*
X0103750Y0304750D03*
X0136750Y0305750D03*
X0140750Y0305750D03*
X0197750Y0304750D03*
X0201750Y0304750D03*
X0205750Y0304750D03*
X0203650Y0282950D03*
X0200450Y0282950D03*
X0238750Y0305750D03*
X0242750Y0305750D03*
X0299750Y0304750D03*
X0303750Y0304750D03*
X0307750Y0304750D03*
X0305650Y0282950D03*
X0302450Y0282950D03*
X0340750Y0305750D03*
X0344750Y0305750D03*
X0401750Y0304750D03*
X0405750Y0304750D03*
X0409750Y0304750D03*
X0407650Y0282950D03*
X0404450Y0282950D03*
X0404450Y0384950D03*
X0407650Y0384950D03*
X0405750Y0406750D03*
X0401750Y0406750D03*
X0409750Y0406750D03*
X0344750Y0407750D03*
X0340750Y0407750D03*
X0307750Y0406750D03*
X0303750Y0406750D03*
X0299750Y0406750D03*
X0302450Y0384950D03*
X0305650Y0384950D03*
X0242750Y0407750D03*
X0238750Y0407750D03*
X0205750Y0406750D03*
X0201750Y0406750D03*
X0197750Y0406750D03*
X0200450Y0384950D03*
X0203650Y0384950D03*
X0140750Y0407750D03*
X0136750Y0407750D03*
X0103750Y0406750D03*
X0099750Y0406750D03*
X0095750Y0406750D03*
X0098450Y0384950D03*
X0101650Y0384950D03*
X0038750Y0407750D03*
X0034750Y0407750D03*
X0034750Y0305750D03*
X0038750Y0305750D03*
X0038750Y0101750D03*
X0034750Y0101750D03*
D11*
X0036000Y0101533D02*
X0037500Y0101533D01*
X0037500Y0101250D02*
X0037500Y0102250D01*
X0036000Y0102250D01*
X0036000Y0101250D01*
X0037500Y0101250D01*
X0037500Y0102031D02*
X0036000Y0102031D01*
X0097000Y0101250D02*
X0097000Y0100250D01*
X0102500Y0100250D01*
X0102500Y0101250D01*
X0097000Y0101250D01*
X0097000Y0101034D02*
X0102500Y0101034D01*
X0102500Y0100536D02*
X0097000Y0100536D01*
X0138000Y0101250D02*
X0138000Y0102250D01*
X0139500Y0102250D01*
X0139500Y0101250D01*
X0138000Y0101250D01*
X0138000Y0101533D02*
X0139500Y0101533D01*
X0139500Y0102031D02*
X0138000Y0102031D01*
X0199000Y0101250D02*
X0199000Y0100250D01*
X0204500Y0100250D01*
X0204500Y0101250D01*
X0199000Y0101250D01*
X0199000Y0101034D02*
X0204500Y0101034D01*
X0204500Y0100536D02*
X0199000Y0100536D01*
X0240000Y0101250D02*
X0240000Y0102250D01*
X0241500Y0102250D01*
X0241500Y0101250D01*
X0240000Y0101250D01*
X0240000Y0101533D02*
X0241500Y0101533D01*
X0241500Y0102031D02*
X0240000Y0102031D01*
X0301000Y0101250D02*
X0301000Y0100250D01*
X0306500Y0100250D01*
X0306500Y0101250D01*
X0301000Y0101250D01*
X0301000Y0101034D02*
X0306500Y0101034D01*
X0306500Y0100536D02*
X0301000Y0100536D01*
X0342000Y0101250D02*
X0342000Y0102250D01*
X0343500Y0102250D01*
X0343500Y0101250D01*
X0342000Y0101250D01*
X0342000Y0101533D02*
X0343500Y0101533D01*
X0343500Y0102031D02*
X0342000Y0102031D01*
X0403000Y0101250D02*
X0403000Y0100250D01*
X0408500Y0100250D01*
X0408500Y0101250D01*
X0403000Y0101250D01*
X0403000Y0101034D02*
X0408500Y0101034D01*
X0408500Y0100536D02*
X0403000Y0100536D01*
X0403000Y0202250D02*
X0408500Y0202250D01*
X0408500Y0203250D01*
X0403000Y0203250D01*
X0403000Y0202250D01*
X0403000Y0202730D02*
X0408500Y0202730D01*
X0408500Y0203229D02*
X0403000Y0203229D01*
X0343500Y0203250D02*
X0343500Y0204250D01*
X0342000Y0204250D01*
X0342000Y0203250D01*
X0343500Y0203250D01*
X0343500Y0203727D02*
X0342000Y0203727D01*
X0342000Y0204226D02*
X0343500Y0204226D01*
X0306500Y0203250D02*
X0306500Y0202250D01*
X0301000Y0202250D01*
X0301000Y0203250D01*
X0306500Y0203250D01*
X0306500Y0203229D02*
X0301000Y0203229D01*
X0301000Y0202730D02*
X0306500Y0202730D01*
X0241500Y0203250D02*
X0241500Y0204250D01*
X0240000Y0204250D01*
X0240000Y0203250D01*
X0241500Y0203250D01*
X0241500Y0203727D02*
X0240000Y0203727D01*
X0240000Y0204226D02*
X0241500Y0204226D01*
X0204500Y0203250D02*
X0204500Y0202250D01*
X0199000Y0202250D01*
X0199000Y0203250D01*
X0204500Y0203250D01*
X0204500Y0203229D02*
X0199000Y0203229D01*
X0199000Y0202730D02*
X0204500Y0202730D01*
X0139500Y0203250D02*
X0139500Y0204250D01*
X0138000Y0204250D01*
X0138000Y0203250D01*
X0139500Y0203250D01*
X0139500Y0203727D02*
X0138000Y0203727D01*
X0138000Y0204226D02*
X0139500Y0204226D01*
X0102500Y0203250D02*
X0102500Y0202250D01*
X0097000Y0202250D01*
X0097000Y0203250D01*
X0102500Y0203250D01*
X0102500Y0203229D02*
X0097000Y0203229D01*
X0097000Y0202730D02*
X0102500Y0202730D01*
X0037500Y0203250D02*
X0037500Y0204250D01*
X0036000Y0204250D01*
X0036000Y0203250D01*
X0037500Y0203250D01*
X0037500Y0203727D02*
X0036000Y0203727D01*
X0036000Y0204226D02*
X0037500Y0204226D01*
X0037500Y0305250D02*
X0037500Y0306250D01*
X0036000Y0306250D01*
X0036000Y0305250D01*
X0037500Y0305250D01*
X0037500Y0305424D02*
X0036000Y0305424D01*
X0036000Y0305922D02*
X0037500Y0305922D01*
X0097000Y0305250D02*
X0097000Y0304250D01*
X0102500Y0304250D01*
X0102500Y0305250D01*
X0097000Y0305250D01*
X0097000Y0304925D02*
X0102500Y0304925D01*
X0102500Y0304427D02*
X0097000Y0304427D01*
X0138000Y0305250D02*
X0138000Y0306250D01*
X0139500Y0306250D01*
X0139500Y0305250D01*
X0138000Y0305250D01*
X0138000Y0305424D02*
X0139500Y0305424D01*
X0139500Y0305922D02*
X0138000Y0305922D01*
X0199000Y0305250D02*
X0199000Y0304250D01*
X0204500Y0304250D01*
X0204500Y0305250D01*
X0199000Y0305250D01*
X0199000Y0304925D02*
X0204500Y0304925D01*
X0204500Y0304427D02*
X0199000Y0304427D01*
X0240000Y0305250D02*
X0240000Y0306250D01*
X0241500Y0306250D01*
X0241500Y0305250D01*
X0240000Y0305250D01*
X0240000Y0305424D02*
X0241500Y0305424D01*
X0241500Y0305922D02*
X0240000Y0305922D01*
X0301000Y0305250D02*
X0301000Y0304250D01*
X0306500Y0304250D01*
X0306500Y0305250D01*
X0301000Y0305250D01*
X0301000Y0304925D02*
X0306500Y0304925D01*
X0306500Y0304427D02*
X0301000Y0304427D01*
X0342000Y0305250D02*
X0342000Y0306250D01*
X0343500Y0306250D01*
X0343500Y0305250D01*
X0342000Y0305250D01*
X0342000Y0305424D02*
X0343500Y0305424D01*
X0343500Y0305922D02*
X0342000Y0305922D01*
X0403000Y0305250D02*
X0403000Y0304250D01*
X0408500Y0304250D01*
X0408500Y0305250D01*
X0403000Y0305250D01*
X0403000Y0304925D02*
X0408500Y0304925D01*
X0408500Y0304427D02*
X0403000Y0304427D01*
X0403000Y0406250D02*
X0408500Y0406250D01*
X0408500Y0407250D01*
X0403000Y0407250D01*
X0403000Y0406250D01*
X0403000Y0406622D02*
X0408500Y0406622D01*
X0408500Y0407120D02*
X0403000Y0407120D01*
X0343500Y0407250D02*
X0343500Y0408250D01*
X0342000Y0408250D01*
X0342000Y0407250D01*
X0343500Y0407250D01*
X0343500Y0407619D02*
X0342000Y0407619D01*
X0342000Y0408117D02*
X0343500Y0408117D01*
X0306500Y0407250D02*
X0306500Y0406250D01*
X0301000Y0406250D01*
X0301000Y0407250D01*
X0306500Y0407250D01*
X0306500Y0407120D02*
X0301000Y0407120D01*
X0301000Y0406622D02*
X0306500Y0406622D01*
X0241500Y0407250D02*
X0241500Y0408250D01*
X0240000Y0408250D01*
X0240000Y0407250D01*
X0241500Y0407250D01*
X0241500Y0407619D02*
X0240000Y0407619D01*
X0240000Y0408117D02*
X0241500Y0408117D01*
X0204500Y0407250D02*
X0204500Y0406250D01*
X0199000Y0406250D01*
X0199000Y0407250D01*
X0204500Y0407250D01*
X0204500Y0407120D02*
X0199000Y0407120D01*
X0199000Y0406622D02*
X0204500Y0406622D01*
X0139500Y0407250D02*
X0139500Y0408250D01*
X0138000Y0408250D01*
X0138000Y0407250D01*
X0139500Y0407250D01*
X0139500Y0407619D02*
X0138000Y0407619D01*
X0138000Y0408117D02*
X0139500Y0408117D01*
X0102500Y0407250D02*
X0102500Y0406250D01*
X0097000Y0406250D01*
X0097000Y0407250D01*
X0102500Y0407250D01*
X0102500Y0407120D02*
X0097000Y0407120D01*
X0097000Y0406622D02*
X0102500Y0406622D01*
X0037500Y0407250D02*
X0037500Y0408250D01*
X0036000Y0408250D01*
X0036000Y0407250D01*
X0037500Y0407250D01*
X0037500Y0407619D02*
X0036000Y0407619D01*
X0036000Y0408117D02*
X0037500Y0408117D01*
D12*
X0038750Y0033750D03*
X0048750Y0033750D03*
X0058750Y0033750D03*
X0068750Y0033750D03*
X0078750Y0033750D03*
X0088750Y0033750D03*
X0098750Y0033750D03*
X0108750Y0033750D03*
X0140750Y0033750D03*
X0150750Y0033750D03*
X0160750Y0033750D03*
X0170750Y0033750D03*
X0180750Y0033750D03*
X0190750Y0033750D03*
X0200750Y0033750D03*
X0210750Y0033750D03*
X0242750Y0033750D03*
X0252750Y0033750D03*
X0262750Y0033750D03*
X0272750Y0033750D03*
X0282750Y0033750D03*
X0292750Y0033750D03*
X0302750Y0033750D03*
X0312750Y0033750D03*
X0344750Y0033750D03*
X0354750Y0033750D03*
X0364750Y0033750D03*
X0374750Y0033750D03*
X0384750Y0033750D03*
X0394750Y0033750D03*
X0404750Y0033750D03*
X0414750Y0033750D03*
X0394750Y0123750D03*
X0384750Y0123750D03*
X0374750Y0123750D03*
X0364750Y0123750D03*
X0364750Y0135750D03*
X0354750Y0135750D03*
X0344750Y0135750D03*
X0374750Y0135750D03*
X0384750Y0135750D03*
X0394750Y0135750D03*
X0404750Y0135750D03*
X0414750Y0135750D03*
X0394750Y0225750D03*
X0384750Y0225750D03*
X0374750Y0225750D03*
X0364750Y0225750D03*
X0364750Y0237750D03*
X0354750Y0237750D03*
X0344750Y0237750D03*
X0374750Y0237750D03*
X0384750Y0237750D03*
X0394750Y0237750D03*
X0404750Y0237750D03*
X0414750Y0237750D03*
X0394750Y0327750D03*
X0384750Y0327750D03*
X0374750Y0327750D03*
X0364750Y0327750D03*
X0364750Y0339750D03*
X0354750Y0339750D03*
X0344750Y0339750D03*
X0374750Y0339750D03*
X0384750Y0339750D03*
X0394750Y0339750D03*
X0404750Y0339750D03*
X0414750Y0339750D03*
X0394750Y0429750D03*
X0384750Y0429750D03*
X0374750Y0429750D03*
X0364750Y0429750D03*
X0292750Y0429750D03*
X0282750Y0429750D03*
X0272750Y0429750D03*
X0262750Y0429750D03*
X0190750Y0429750D03*
X0180750Y0429750D03*
X0170750Y0429750D03*
X0160750Y0429750D03*
X0088750Y0429750D03*
X0078750Y0429750D03*
X0068750Y0429750D03*
X0058750Y0429750D03*
X0058750Y0339750D03*
X0048750Y0339750D03*
X0038750Y0339750D03*
X0058750Y0327750D03*
X0068750Y0327750D03*
X0078750Y0327750D03*
X0088750Y0327750D03*
X0088750Y0339750D03*
X0078750Y0339750D03*
X0068750Y0339750D03*
X0098750Y0339750D03*
X0108750Y0339750D03*
X0140750Y0339750D03*
X0150750Y0339750D03*
X0160750Y0339750D03*
X0170750Y0339750D03*
X0180750Y0339750D03*
X0190750Y0339750D03*
X0200750Y0339750D03*
X0210750Y0339750D03*
X0190750Y0327750D03*
X0180750Y0327750D03*
X0170750Y0327750D03*
X0160750Y0327750D03*
X0242750Y0339750D03*
X0252750Y0339750D03*
X0262750Y0339750D03*
X0272750Y0339750D03*
X0282750Y0339750D03*
X0292750Y0339750D03*
X0302750Y0339750D03*
X0312750Y0339750D03*
X0292750Y0327750D03*
X0282750Y0327750D03*
X0272750Y0327750D03*
X0262750Y0327750D03*
X0262750Y0237750D03*
X0252750Y0237750D03*
X0242750Y0237750D03*
X0262750Y0225750D03*
X0272750Y0225750D03*
X0282750Y0225750D03*
X0292750Y0225750D03*
X0292750Y0237750D03*
X0282750Y0237750D03*
X0272750Y0237750D03*
X0302750Y0237750D03*
X0312750Y0237750D03*
X0210750Y0237750D03*
X0200750Y0237750D03*
X0190750Y0237750D03*
X0180750Y0237750D03*
X0170750Y0237750D03*
X0160750Y0237750D03*
X0150750Y0237750D03*
X0140750Y0237750D03*
X0160750Y0225750D03*
X0170750Y0225750D03*
X0180750Y0225750D03*
X0190750Y0225750D03*
X0108750Y0237750D03*
X0098750Y0237750D03*
X0088750Y0237750D03*
X0078750Y0237750D03*
X0068750Y0237750D03*
X0058750Y0237750D03*
X0048750Y0237750D03*
X0038750Y0237750D03*
X0058750Y0225750D03*
X0068750Y0225750D03*
X0078750Y0225750D03*
X0088750Y0225750D03*
X0088750Y0135750D03*
X0078750Y0135750D03*
X0068750Y0135750D03*
X0058750Y0135750D03*
X0048750Y0135750D03*
X0038750Y0135750D03*
X0058750Y0123750D03*
X0068750Y0123750D03*
X0078750Y0123750D03*
X0088750Y0123750D03*
X0098750Y0135750D03*
X0108750Y0135750D03*
X0140750Y0135750D03*
X0150750Y0135750D03*
X0160750Y0135750D03*
X0170750Y0135750D03*
X0180750Y0135750D03*
X0190750Y0135750D03*
X0200750Y0135750D03*
X0210750Y0135750D03*
X0190750Y0123750D03*
X0180750Y0123750D03*
X0170750Y0123750D03*
X0160750Y0123750D03*
X0242750Y0135750D03*
X0252750Y0135750D03*
X0262750Y0135750D03*
X0272750Y0135750D03*
X0282750Y0135750D03*
X0292750Y0135750D03*
X0302750Y0135750D03*
X0312750Y0135750D03*
X0292750Y0123750D03*
X0282750Y0123750D03*
X0272750Y0123750D03*
X0262750Y0123750D03*
D13*
X0235350Y0126250D03*
X0227550Y0134150D03*
X0133350Y0126250D03*
X0125550Y0134150D03*
X0031350Y0126250D03*
X0125550Y0032150D03*
X0227550Y0032150D03*
X0329550Y0032150D03*
X0337350Y0126250D03*
X0329550Y0134150D03*
X0337350Y0228250D03*
X0329550Y0236150D03*
X0235350Y0228250D03*
X0227550Y0236150D03*
X0133350Y0228250D03*
X0125550Y0236150D03*
X0031350Y0228250D03*
X0031350Y0330250D03*
X0125550Y0338150D03*
X0133350Y0330250D03*
X0227550Y0338150D03*
X0235350Y0330250D03*
X0329550Y0338150D03*
X0337350Y0330250D03*
X0431550Y0338150D03*
X0337350Y0432250D03*
X0235350Y0432250D03*
X0133350Y0432250D03*
X0031350Y0432250D03*
X0431550Y0236150D03*
X0431550Y0134150D03*
X0431550Y0032150D03*
D14*
X0424750Y0118750D03*
X0344750Y0118750D03*
X0322750Y0118750D03*
X0242750Y0118750D03*
X0220750Y0118750D03*
X0140750Y0118750D03*
X0118750Y0118750D03*
X0038750Y0118750D03*
X0038750Y0220750D03*
X0118750Y0220750D03*
X0140750Y0220750D03*
X0220750Y0220750D03*
X0242750Y0220750D03*
X0322750Y0220750D03*
X0344750Y0220750D03*
X0424750Y0220750D03*
X0424750Y0322750D03*
X0344750Y0322750D03*
X0322750Y0322750D03*
X0242750Y0322750D03*
X0220750Y0322750D03*
X0140750Y0322750D03*
X0118750Y0322750D03*
X0038750Y0322750D03*
X0038750Y0424750D03*
X0118750Y0424750D03*
X0140750Y0424750D03*
X0220750Y0424750D03*
X0242750Y0424750D03*
X0322750Y0424750D03*
X0344750Y0424750D03*
X0424750Y0424750D03*
M02*
