%
M48
M72
T01C0.0080
T02C0.0100
T03C0.0120
T04C0.0400
T05C0.1200
%
T01
X7585Y7285
X7975Y7285
X7775Y8465
X7325Y8425
X7585Y17485
X7975Y17485
X7775Y18665
X7325Y18625
X7585Y27685
X7975Y27685
X7775Y28865
X7325Y28825
X7585Y37885
X7975Y37885
X7775Y39065
X7325Y39025
X17525Y39025
X17975Y39065
X17785Y37885
X18175Y37885
X17975Y28865
X17525Y28825
X17785Y27685
X18175Y27685
X17975Y18665
X17525Y18625
X17785Y17485
X18175Y17485
X17975Y8465
X17525Y8425
X17785Y7285
X18175Y7285
X27725Y8425
X28175Y8465
X27985Y7285
X28375Y7285
X37925Y8425
X38375Y8465
X38185Y7285
X38575Y7285
X38575Y17485
X38185Y17485
X37925Y18625
X38375Y18665
X38185Y27685
X38575Y27685
X38375Y28865
X37925Y28825
X38185Y37885
X38575Y37885
X38375Y39065
X37925Y39025
X28375Y37885
X27985Y37885
X27725Y39025
X28175Y39065
X28175Y28865
X27725Y28825
X27985Y27685
X28375Y27685
X28175Y18665
X27725Y18625
X27985Y17485
X28375Y17485
T02
X28235Y18095
X27459Y16690
X27465Y16315
X27455Y15945
X27459Y15290
X27459Y14890
X30375Y10575
X28235Y7895
X27459Y6490
X27465Y6115
X27455Y5745
X27459Y5090
X27459Y4690
X20175Y10575
X18035Y7895
X17259Y6490
X17265Y6115
X17255Y5745
X17259Y5090
X17259Y4690
X9975Y10575
X7835Y7895
X7059Y6490
X7065Y6115
X7055Y5745
X7059Y5090
X7059Y4690
X7059Y14890
X7059Y15290
X7055Y15945
X7065Y16315
X7059Y16690
X7835Y18095
X9975Y20775
X7059Y25090
X7059Y25490
X7055Y26145
X7065Y26515
X7059Y26890
X7835Y28295
X9975Y30975
X7059Y35290
X7059Y35690
X7055Y36345
X7065Y36715
X7059Y37090
X7835Y38495
X9975Y41175
X17259Y37090
X17265Y36715
X17255Y36345
X17259Y35690
X17259Y35290
X18035Y38495
X20175Y41175
X27459Y37090
X27465Y36715
X27455Y36345
X27459Y35690
X27459Y35290
X28235Y38495
X30375Y41175
X37659Y37090
X37665Y36715
X37655Y36345
X37659Y35690
X37659Y35290
X38435Y38495
X40575Y41175
X40575Y30975
X38435Y28295
X37659Y26890
X37665Y26515
X37655Y26145
X37659Y25490
X37659Y25090
X40575Y20775
X38435Y18095
X37659Y16690
X37665Y16315
X37655Y15945
X37659Y15290
X37659Y14890
X40575Y10575
X38435Y7895
X37659Y6490
X37665Y6115
X37655Y5745
X37659Y5090
X37659Y4690
X30375Y20775
X27459Y25090
X27459Y25490
X27455Y26145
X27465Y26515
X27459Y26890
X28235Y28295
X30375Y30975
X20175Y30975
X18035Y28295
X17259Y26890
X17265Y26515
X17255Y26145
X17259Y25490
X17259Y25090
X20175Y20775
X18035Y18095
X17259Y16690
X17265Y16315
X17255Y15945
X17259Y15290
X17259Y14890
T03
X18065Y14875
X18675Y14555
X18575Y15655
X19475Y15655
X19675Y16395
X19125Y16795
X19425Y17305
X19305Y17845
X19305Y18395
X19305Y18845
X20065Y18805
X20595Y19575
X21265Y19565
X21305Y19095
X22105Y19095
X22365Y17775
X21465Y17775
X20565Y16975
X20025Y17015
X18085Y16795
X17715Y16635
X17050Y17060
X15734Y17484
X15812Y17908
X15575Y18275
X15445Y19315
X15055Y19835
X15475Y20375
X14685Y20515
X13945Y20975
X15115Y21465
X15695Y21535
X16977Y20811
X16977Y20472
X16978Y20122
X17035Y19705
X17415Y19545
X17155Y19185
X16885Y18995
X17005Y18255
X18495Y19885
X18895Y20685
X18905Y21155
X18425Y21165
X17675Y21675
X17375Y21185
X19405Y21155
X19865Y21165
X19415Y20685
X19445Y20175
X19435Y19705
X19815Y19655
X20175Y21915
X21025Y21925
X22035Y20485
X24145Y20975
X24885Y20515
X25255Y19835
X25645Y19315
X25775Y18275
X26012Y17908
X25934Y17484
X25415Y16895
X24965Y16455
X25475Y16175
X24965Y15785
X25465Y15365
X26065Y14965
X26865Y14965
X26875Y15565
X27915Y16635
X28285Y16795
X29325Y16795
X29625Y17305
X29505Y17845
X29505Y18395
X29505Y18845
X30265Y18805
X30795Y19575
X31465Y19565
X31505Y19095
X32305Y19095
X32565Y17775
X31665Y17775
X30765Y16975
X30225Y17015
X29875Y16395
X29675Y15655
X28775Y15655
X28265Y14875
X28875Y14555
X27250Y17060
X27205Y18255
X27085Y18995
X27355Y19185
X27615Y19545
X27235Y19705
X27178Y20122
X27177Y20472
X27177Y20811
X27575Y21185
X27875Y21675
X28625Y21165
X29105Y21155
X29095Y20685
X29615Y20685
X29605Y21155
X30065Y21165
X30375Y21915
X31225Y21925
X32235Y20485
X34345Y20975
X35085Y20515
X35455Y19835
X35845Y19315
X35975Y18275
X36212Y17908
X36134Y17484
X35615Y16895
X35165Y16455
X35675Y16175
X35165Y15785
X35665Y15365
X36265Y14965
X37065Y14965
X37075Y15565
X38115Y16635
X38485Y16795
X39525Y16795
X39825Y17305
X39705Y17845
X39705Y18395
X39705Y18845
X40465Y18805
X40995Y19575
X41665Y19565
X41705Y19095
X42505Y19095
X42765Y17775
X41865Y17775
X40965Y16975
X40425Y17015
X40075Y16395
X39875Y15655
X38975Y15655
X38465Y14875
X39075Y14555
X37450Y17060
X37405Y18255
X37285Y18995
X37555Y19185
X37815Y19545
X37435Y19705
X37378Y20122
X37377Y20472
X37377Y20811
X37775Y21185
X38075Y21675
X38825Y21165
X39305Y21155
X39295Y20685
X39815Y20685
X39805Y21155
X40265Y21165
X40575Y21915
X41425Y21925
X42435Y20485
X40215Y19655
X39835Y19705
X39845Y20175
X38895Y19885
X36095Y21535
X35515Y21465
X35875Y20375
X34685Y18495
X34685Y17695
X34565Y16475
X34575Y15205
X31225Y11725
X30375Y11715
X30065Y10965
X29605Y10955
X29615Y10485
X29645Y9975
X29635Y9505
X30015Y9455
X30265Y8605
X30795Y9375
X31465Y9365
X31505Y8895
X32305Y8895
X32565Y7575
X31665Y7575
X30765Y6775
X30225Y6815
X29625Y7105
X29505Y7645
X29505Y8195
X29505Y8645
X28695Y9685
X29095Y10485
X29105Y10955
X28625Y10965
X27875Y11475
X27575Y10985
X27177Y10611
X27177Y10272
X27178Y9922
X27235Y9505
X27615Y9345
X27355Y8985
X27085Y8795
X27205Y8055
X26012Y7708
X25934Y7284
X25415Y6695
X24965Y6255
X25475Y5975
X24965Y5585
X25465Y5165
X26065Y4765
X26865Y4765
X26875Y5365
X27915Y6435
X28285Y6595
X29325Y6595
X29875Y6195
X29675Y5455
X28775Y5455
X28265Y4675
X28875Y4355
X27250Y6860
X25775Y8075
X25645Y9115
X25255Y9635
X25675Y10175
X24885Y10315
X24145Y10775
X25315Y11265
X25895Y11335
X24485Y8295
X24485Y7495
X24365Y6275
X24375Y5005
X22365Y7575
X21465Y7575
X20565Y6775
X20025Y6815
X19425Y7105
X19305Y7645
X19305Y8195
X19305Y8645
X19435Y9505
X19815Y9455
X19445Y9975
X19415Y10485
X19405Y10955
X19865Y10965
X18905Y10955
X18895Y10485
X18425Y10965
X17675Y11475
X17375Y10985
X16977Y10611
X16977Y10272
X16978Y9922
X17035Y9505
X17415Y9345
X17155Y8985
X16885Y8795
X17005Y8055
X15812Y7708
X15734Y7284
X15215Y6695
X14765Y6255
X15275Y5975
X14765Y5585
X15265Y5165
X15865Y4765
X16665Y4765
X16675Y5365
X17715Y6435
X18085Y6595
X19125Y6595
X19675Y6195
X19475Y5455
X18575Y5455
X18065Y4675
X18675Y4355
X17050Y6860
X15575Y8075
X15445Y9115
X15055Y9635
X15475Y10175
X14685Y10315
X13945Y10775
X15115Y11265
X15695Y11335
X18495Y9685
X20065Y8605
X20595Y9375
X21265Y9365
X21305Y8895
X22105Y8895
X22035Y10285
X21025Y11725
X20175Y11715
X16665Y14965
X16675Y15565
X15865Y14965
X15265Y15365
X14765Y15785
X15275Y16175
X14765Y16455
X14165Y16475
X15215Y16895
X14285Y17695
X14285Y18495
X12165Y17775
X11265Y17775
X10365Y16975
X9825Y17015
X9225Y17305
X9105Y17845
X9105Y18395
X9105Y18845
X9865Y18805
X10395Y19575
X11065Y19565
X11105Y19095
X11905Y19095
X11835Y20485
X10825Y21925
X9975Y21915
X9665Y21165
X9205Y21155
X9215Y20685
X9245Y20175
X9235Y19705
X9615Y19655
X8295Y19885
X8695Y20685
X8705Y21155
X8225Y21165
X7475Y21675
X7175Y21185
X6777Y20811
X6777Y20472
X6778Y20122
X6835Y19705
X7215Y19545
X6955Y19185
X6685Y18995
X6805Y18255
X5612Y17908
X5534Y17484
X5015Y16895
X4565Y16455
X5075Y16175
X4565Y15785
X5065Y15365
X5665Y14965
X6465Y14965
X6475Y15565
X7865Y14875
X8475Y14555
X8375Y15655
X9275Y15655
X9475Y16395
X8925Y16795
X7885Y16795
X7515Y16635
X6850Y17060
X5375Y18275
X5245Y19315
X4855Y19835
X5275Y20375
X4485Y20515
X3745Y20975
X4915Y21465
X5495Y21535
X4085Y18495
X4085Y17695
X3965Y16475
X3975Y15205
X4915Y11265
X5495Y11335
X5275Y10175
X4855Y9635
X5245Y9115
X5375Y8075
X5612Y7708
X5534Y7284
X5015Y6695
X4565Y6255
X5075Y5975
X4565Y5585
X5065Y5165
X5665Y4765
X6465Y4765
X6475Y5365
X7515Y6435
X7885Y6595
X8925Y6595
X9225Y7105
X9105Y7645
X9105Y8195
X9105Y8645
X9235Y9505
X9615Y9455
X9245Y9975
X9215Y10485
X9205Y10955
X9665Y10965
X8705Y10955
X8695Y10485
X8225Y10965
X7475Y11475
X7175Y10985
X6777Y10611
X6777Y10272
X6778Y9922
X6835Y9505
X7215Y9345
X6955Y8985
X6685Y8795
X6805Y8055
X6850Y6860
X8375Y5455
X7865Y4675
X8475Y4355
X9275Y5455
X9475Y6195
X9825Y6815
X10365Y6775
X11265Y7575
X12165Y7575
X11905Y8895
X11105Y8895
X11065Y9365
X10395Y9375
X9865Y8605
X8295Y9685
X9975Y11715
X10825Y11725
X11835Y10285
X14285Y8295
X14285Y7495
X14165Y6275
X14175Y5005
X4485Y10315
X3745Y10775
X4085Y8295
X4085Y7495
X3965Y6275
X3975Y5005
X14175Y15205
X15865Y25165
X15265Y25565
X14765Y25985
X15275Y26375
X14765Y26655
X14165Y26675
X15215Y27095
X15734Y27684
X15812Y28108
X15575Y28475
X15445Y29515
X15055Y30035
X15475Y30575
X14685Y30715
X15115Y31665
X15695Y31735
X16977Y31011
X16977Y30672
X16978Y30322
X17035Y29905
X17415Y29745
X17155Y29385
X16885Y29195
X17005Y28455
X17050Y27260
X17715Y26835
X18085Y26995
X19125Y26995
X19425Y27505
X19305Y28045
X19305Y28595
X19305Y29045
X20065Y29005
X19815Y29855
X19435Y29905
X19445Y30375
X19415Y30885
X19405Y31355
X19865Y31365
X20175Y32115
X21025Y32125
X22035Y30685
X21265Y29765
X21305Y29295
X20595Y29775
X22105Y29295
X22365Y27975
X21465Y27975
X20565Y27175
X20025Y27215
X19675Y26595
X19475Y25855
X18575Y25855
X18065Y25075
X18675Y24755
X16675Y25765
X16665Y25165
X14175Y25405
X14285Y27895
X14285Y28695
X12165Y27975
X11265Y27975
X10365Y27175
X9825Y27215
X9225Y27505
X9105Y28045
X9105Y28595
X9105Y29045
X9865Y29005
X9615Y29855
X9235Y29905
X9245Y30375
X9215Y30885
X9205Y31355
X9665Y31365
X9975Y32115
X10825Y32125
X11835Y30685
X11065Y29765
X11105Y29295
X10395Y29775
X11905Y29295
X13945Y31175
X17375Y31385
X17675Y31875
X18425Y31365
X18905Y31355
X18895Y30885
X18495Y30085
X18675Y34955
X18065Y35275
X18575Y36055
X19475Y36055
X19675Y36795
X19125Y37195
X19425Y37705
X19305Y38245
X19305Y38795
X19305Y39245
X20065Y39205
X19815Y40055
X19435Y40105
X19445Y40575
X19415Y41085
X19405Y41555
X19865Y41565
X18905Y41555
X18895Y41085
X18425Y41565
X17675Y42075
X17375Y41585
X16977Y41211
X16977Y40872
X16978Y40522
X17035Y40105
X17415Y39945
X17155Y39585
X16885Y39395
X17005Y38655
X17050Y37460
X17715Y37035
X18085Y37195
X16675Y35965
X16665Y35365
X15865Y35365
X15265Y35765
X14765Y36185
X15275Y36575
X14765Y36855
X14165Y36875
X15215Y37295
X15734Y37884
X15812Y38308
X15575Y38675
X15445Y39715
X15055Y40235
X15475Y40775
X14685Y40915
X13945Y41375
X15115Y41865
X15695Y41935
X18495Y40285
X20595Y39975
X21265Y39965
X21305Y39495
X22105Y39495
X22365Y38175
X21465Y38175
X20565Y37375
X20025Y37415
X22035Y40885
X21025Y42325
X20175Y42315
X24145Y41375
X24885Y40915
X25675Y40775
X25255Y40235
X25645Y39715
X25775Y38675
X26012Y38308
X25934Y37884
X25415Y37295
X24965Y36855
X25475Y36575
X24965Y36185
X25465Y35765
X26065Y35365
X26865Y35365
X26875Y35965
X27915Y37035
X28285Y37195
X29325Y37195
X29625Y37705
X29505Y38245
X29505Y38795
X29505Y39245
X30265Y39205
X30015Y40055
X29635Y40105
X29645Y40575
X29615Y41085
X29605Y41555
X30065Y41565
X29105Y41555
X29095Y41085
X28625Y41565
X27875Y42075
X27575Y41585
X27177Y41211
X27177Y40872
X27178Y40522
X27235Y40105
X27615Y39945
X27355Y39585
X27085Y39395
X27205Y38655
X27250Y37460
X28775Y36055
X28265Y35275
X28875Y34955
X29675Y36055
X29875Y36795
X30225Y37415
X30765Y37375
X31665Y38175
X32565Y38175
X32305Y39495
X31505Y39495
X31465Y39965
X30795Y39975
X32235Y40885
X31225Y42325
X30375Y42315
X28695Y40285
X25895Y41935
X25315Y41865
X24485Y38895
X24485Y38095
X24365Y36875
X24375Y35605
X25895Y31735
X25315Y31665
X24885Y30715
X25675Y30575
X25255Y30035
X25645Y29515
X25775Y28475
X26012Y28108
X25934Y27684
X25415Y27095
X24965Y26655
X25475Y26375
X24965Y25985
X25465Y25565
X26065Y25165
X26865Y25165
X26875Y25765
X27915Y26835
X28285Y26995
X29325Y26995
X29625Y27505
X29505Y28045
X29505Y28595
X29505Y29045
X30265Y29005
X30015Y29855
X29635Y29905
X29645Y30375
X29615Y30885
X29605Y31355
X30065Y31365
X30375Y32115
X31225Y32125
X32235Y30685
X31465Y29765
X31505Y29295
X30795Y29775
X32305Y29295
X32565Y27975
X31665Y27975
X30765Y27175
X30225Y27215
X29875Y26595
X29675Y25855
X28775Y25855
X28265Y25075
X28875Y24755
X27250Y27260
X27205Y28455
X27085Y29195
X27355Y29385
X27615Y29745
X27235Y29905
X27178Y30322
X27177Y30672
X27177Y31011
X27575Y31385
X27875Y31875
X28625Y31365
X29105Y31355
X29095Y30885
X28695Y30085
X24485Y28695
X24485Y27895
X24365Y26675
X24375Y25405
X25315Y21465
X25895Y21535
X25675Y20375
X24485Y18495
X24485Y17695
X24365Y16475
X24375Y15205
X28695Y19885
X29635Y19705
X30015Y19655
X29645Y20175
X34575Y25405
X35165Y25985
X35675Y26375
X35165Y26655
X34565Y26675
X35615Y27095
X36134Y27684
X36212Y28108
X35975Y28475
X35845Y29515
X35455Y30035
X35875Y30575
X35085Y30715
X35515Y31665
X36095Y31735
X37377Y31011
X37377Y30672
X37378Y30322
X37435Y29905
X37815Y29745
X37555Y29385
X37285Y29195
X37405Y28455
X37450Y27260
X38115Y26835
X38485Y26995
X39525Y26995
X39825Y27505
X39705Y28045
X39705Y28595
X39705Y29045
X40465Y29005
X40215Y29855
X39835Y29905
X39845Y30375
X39815Y30885
X39805Y31355
X40265Y31365
X40575Y32115
X41425Y32125
X42435Y30685
X41665Y29765
X41705Y29295
X40995Y29775
X42505Y29295
X42765Y27975
X41865Y27975
X40965Y27175
X40425Y27215
X40075Y26595
X39875Y25855
X38975Y25855
X38465Y25075
X39075Y24755
X37065Y25165
X36265Y25165
X35665Y25565
X37075Y25765
X34685Y27895
X34685Y28695
X34345Y31175
X37775Y31385
X38075Y31875
X38825Y31365
X39305Y31355
X39295Y30885
X38895Y30085
X39075Y34955
X38465Y35275
X38975Y36055
X39875Y36055
X40075Y36795
X39525Y37195
X39825Y37705
X39705Y38245
X39705Y38795
X39705Y39245
X40465Y39205
X40215Y40055
X39835Y40105
X39845Y40575
X39815Y41085
X39805Y41555
X40265Y41565
X39305Y41555
X39295Y41085
X38825Y41565
X38075Y42075
X37775Y41585
X37377Y41211
X37377Y40872
X37378Y40522
X37435Y40105
X37815Y39945
X37555Y39585
X37285Y39395
X37405Y38655
X37450Y37460
X38115Y37035
X38485Y37195
X37075Y35965
X37065Y35365
X36265Y35365
X35665Y35765
X35165Y36185
X35675Y36575
X35165Y36855
X34565Y36875
X35615Y37295
X36134Y37884
X36212Y38308
X35975Y38675
X35845Y39715
X35455Y40235
X35875Y40775
X35085Y40915
X34345Y41375
X35515Y41865
X36095Y41935
X38895Y40285
X40995Y39975
X41665Y39965
X41705Y39495
X42505Y39495
X42765Y38175
X41865Y38175
X40965Y37375
X40425Y37415
X42435Y40885
X41425Y42325
X40575Y42315
X34685Y38895
X34685Y38095
X34575Y35605
X24145Y31175
X14175Y35605
X14285Y38095
X14285Y38895
X12165Y38175
X11265Y38175
X10365Y37375
X9825Y37415
X9225Y37705
X9105Y38245
X9105Y38795
X9105Y39245
X9865Y39205
X9615Y40055
X9235Y40105
X9245Y40575
X9215Y41085
X9205Y41555
X9665Y41565
X8705Y41555
X8695Y41085
X8225Y41565
X7475Y42075
X7175Y41585
X6777Y41211
X6777Y40872
X6778Y40522
X6835Y40105
X7215Y39945
X6955Y39585
X6685Y39395
X6805Y38655
X6850Y37460
X7515Y37035
X7885Y37195
X8925Y37195
X9475Y36795
X9275Y36055
X8375Y36055
X7865Y35275
X8475Y34955
X6465Y35365
X6475Y35965
X5665Y35365
X5065Y35765
X4565Y36185
X5075Y36575
X4565Y36855
X3965Y36875
X5015Y37295
X5534Y37884
X5612Y38308
X5375Y38675
X5245Y39715
X4855Y40235
X5275Y40775
X4485Y40915
X3745Y41375
X4915Y41865
X5495Y41935
X8295Y40285
X10395Y39975
X11065Y39965
X11105Y39495
X11905Y39495
X11835Y40885
X10825Y42325
X9975Y42315
X4085Y38895
X4085Y38095
X3975Y35605
X5495Y31735
X4915Y31665
X4485Y30715
X5275Y30575
X4855Y30035
X5245Y29515
X5375Y28475
X5612Y28108
X5534Y27684
X5015Y27095
X4565Y26655
X5075Y26375
X4565Y25985
X5065Y25565
X5665Y25165
X6465Y25165
X6475Y25765
X7515Y26835
X7885Y26995
X8925Y26995
X9475Y26595
X9275Y25855
X8375Y25855
X7865Y25075
X8475Y24755
X6850Y27260
X6805Y28455
X6685Y29195
X6955Y29385
X7215Y29745
X6835Y29905
X6778Y30322
X6777Y30672
X6777Y31011
X7175Y31385
X7475Y31875
X8225Y31365
X8705Y31355
X8695Y30885
X8295Y30085
X4085Y28695
X4085Y27895
X3965Y26675
X3975Y25405
X3745Y31175
X32235Y10285
X34345Y10775
X35085Y10315
X35455Y9635
X35845Y9115
X35975Y8075
X36212Y7708
X36134Y7284
X35615Y6695
X35165Y6255
X35675Y5975
X35165Y5585
X35665Y5165
X36265Y4765
X37065Y4765
X37075Y5365
X38115Y6435
X38485Y6595
X39525Y6595
X39825Y7105
X39705Y7645
X39705Y8195
X39705Y8645
X39835Y9505
X40215Y9455
X39845Y9975
X39815Y10485
X39805Y10955
X40265Y10965
X39305Y10955
X39295Y10485
X38825Y10965
X38075Y11475
X37775Y10985
X37377Y10611
X37377Y10272
X37378Y9922
X37435Y9505
X37815Y9345
X37555Y8985
X37285Y8795
X37405Y8055
X37450Y6860
X38975Y5455
X38465Y4675
X39075Y4355
X39875Y5455
X40075Y6195
X40425Y6815
X40965Y6775
X41865Y7575
X42765Y7575
X42505Y8895
X41705Y8895
X41665Y9365
X40995Y9375
X40465Y8605
X38895Y9685
X40575Y11715
X41425Y11725
X42435Y10285
X36095Y11335
X35515Y11265
X35875Y10175
X34685Y8295
X34685Y7495
X34565Y6275
X34575Y5005
T04
X3875Y3375
X4875Y3375
X5875Y3375
X6875Y3375
X7875Y3375
X8875Y3375
X9875Y3375
X10875Y3375
X14075Y3375
X15075Y3375
X16075Y3375
X17075Y3375
X18075Y3375
X19075Y3375
X20075Y3375
X21075Y3375
X24275Y3375
X25275Y3375
X26275Y3375
X27275Y3375
X28275Y3375
X29275Y3375
X30275Y3375
X31275Y3375
X34475Y3375
X35475Y3375
X36475Y3375
X37475Y3375
X38475Y3375
X39475Y3375
X40475Y3375
X41475Y3375
X39475Y12375
X38475Y12375
X37475Y12375
X36475Y12375
X36475Y13575
X35475Y13575
X34475Y13575
X37475Y13575
X38475Y13575
X39475Y13575
X40475Y13575
X41475Y13575
X39475Y22575
X38475Y22575
X37475Y22575
X36475Y22575
X36475Y23775
X35475Y23775
X34475Y23775
X37475Y23775
X38475Y23775
X39475Y23775
X40475Y23775
X41475Y23775
X39475Y32775
X38475Y32775
X37475Y32775
X36475Y32775
X36475Y33975
X35475Y33975
X34475Y33975
X37475Y33975
X38475Y33975
X39475Y33975
X40475Y33975
X41475Y33975
X39475Y42975
X38475Y42975
X37475Y42975
X36475Y42975
X29275Y42975
X28275Y42975
X27275Y42975
X26275Y42975
X19075Y42975
X18075Y42975
X17075Y42975
X16075Y42975
X8875Y42975
X7875Y42975
X6875Y42975
X5875Y42975
X5875Y33975
X4875Y33975
X3875Y33975
X5875Y32775
X6875Y32775
X7875Y32775
X8875Y32775
X8875Y33975
X7875Y33975
X6875Y33975
X9875Y33975
X10875Y33975
X14075Y33975
X15075Y33975
X16075Y33975
X17075Y33975
X18075Y33975
X19075Y33975
X20075Y33975
X21075Y33975
X19075Y32775
X18075Y32775
X17075Y32775
X16075Y32775
X24275Y33975
X25275Y33975
X26275Y33975
X27275Y33975
X28275Y33975
X29275Y33975
X30275Y33975
X31275Y33975
X29275Y32775
X28275Y32775
X27275Y32775
X26275Y32775
X26275Y23775
X25275Y23775
X24275Y23775
X26275Y22575
X27275Y22575
X28275Y22575
X29275Y22575
X29275Y23775
X28275Y23775
X27275Y23775
X30275Y23775
X31275Y23775
X21075Y23775
X20075Y23775
X19075Y23775
X18075Y23775
X17075Y23775
X16075Y23775
X15075Y23775
X14075Y23775
X16075Y22575
X17075Y22575
X18075Y22575
X19075Y22575
X10875Y23775
X9875Y23775
X8875Y23775
X7875Y23775
X6875Y23775
X5875Y23775
X4875Y23775
X3875Y23775
X5875Y22575
X6875Y22575
X7875Y22575
X8875Y22575
X8875Y13575
X7875Y13575
X6875Y13575
X5875Y13575
X4875Y13575
X3875Y13575
X5875Y12375
X6875Y12375
X7875Y12375
X8875Y12375
X9875Y13575
X10875Y13575
X14075Y13575
X15075Y13575
X16075Y13575
X17075Y13575
X18075Y13575
X19075Y13575
X20075Y13575
X21075Y13575
X19075Y12375
X18075Y12375
X17075Y12375
X16075Y12375
X24275Y13575
X25275Y13575
X26275Y13575
X27275Y13575
X28275Y13575
X29275Y13575
X30275Y13575
X31275Y13575
X29275Y12375
X28275Y12375
X27275Y12375
X26275Y12375
T05
X24275Y11875
X22075Y11875
X14075Y11875
X11875Y11875
X3875Y11875
X3875Y22075
X11875Y22075
X14075Y22075
X22075Y22075
X24275Y22075
X32275Y22075
X34475Y22075
X42475Y22075
X42475Y11875
X34475Y11875
X32275Y11875
X32275Y32275
X34475Y32275
X42475Y32275
X42475Y42475
X34475Y42475
X32275Y42475
X24275Y42475
X22075Y42475
X14075Y42475
X11875Y42475
X3875Y42475
X3875Y32275
X11875Y32275
X14075Y32275
X22075Y32275
X24275Y32275
M30
