G75*
%MOIN*%
%OFA0B0*%
%FSLAX25Y25*%
%IPPOS*%
%LPD*%
%AMOC8*
5,1,8,0,0,1.08239X$1,22.5*
%
%ADD10C,0.00984*%
%ADD11R,0.07874X0.04724*%
%ADD12R,0.05315X0.02362*%
%ADD13R,0.03937X0.04331*%
%ADD14R,0.03346X0.08661*%
%ADD15R,0.03937X0.04134*%
%ADD16R,0.03937X0.07087*%
%ADD17R,0.03268X0.02480*%
%ADD18C,0.01181*%
%ADD19R,0.04331X0.03937*%
%ADD20R,0.03346X0.03543*%
%ADD21C,0.00197*%
%ADD22R,0.16535X0.06693*%
%ADD23R,0.07087X0.03150*%
D10*
X0070892Y0070892D03*
X0070892Y0072860D03*
X0070892Y0074829D03*
X0070892Y0076797D03*
X0070892Y0078766D03*
X0070892Y0080734D03*
X0070892Y0082703D03*
X0070892Y0084671D03*
X0070892Y0086640D03*
X0072860Y0086640D03*
X0074829Y0086640D03*
X0076797Y0086640D03*
X0078766Y0086640D03*
X0080734Y0086640D03*
X0082703Y0086640D03*
X0084671Y0086640D03*
X0086640Y0086640D03*
X0086640Y0084671D03*
X0086640Y0082703D03*
X0086640Y0080734D03*
X0086640Y0078766D03*
X0086640Y0076797D03*
X0086640Y0074829D03*
X0086640Y0072860D03*
X0086640Y0070892D03*
X0084671Y0070892D03*
X0082703Y0070892D03*
X0080734Y0070892D03*
X0078766Y0070892D03*
X0076797Y0070892D03*
X0074829Y0070892D03*
X0072860Y0070892D03*
X0074829Y0074829D03*
X0074829Y0076797D03*
X0076797Y0076797D03*
X0076797Y0074829D03*
X0078766Y0074829D03*
X0080734Y0074829D03*
X0080734Y0076797D03*
X0082703Y0076797D03*
X0082703Y0074829D03*
X0082703Y0078766D03*
X0080734Y0080734D03*
X0080734Y0082703D03*
X0078766Y0082703D03*
X0076797Y0082703D03*
X0074829Y0082703D03*
X0074829Y0080734D03*
X0076797Y0080734D03*
X0074829Y0078766D03*
X0082703Y0082703D03*
X0172892Y0082703D03*
X0172892Y0084671D03*
X0172892Y0086640D03*
X0174860Y0086640D03*
X0176829Y0086640D03*
X0178797Y0086640D03*
X0180766Y0086640D03*
X0182734Y0086640D03*
X0184703Y0086640D03*
X0186671Y0086640D03*
X0188640Y0086640D03*
X0188640Y0084671D03*
X0188640Y0082703D03*
X0188640Y0080734D03*
X0188640Y0078766D03*
X0188640Y0076797D03*
X0188640Y0074829D03*
X0188640Y0072860D03*
X0188640Y0070892D03*
X0186671Y0070892D03*
X0184703Y0070892D03*
X0182734Y0070892D03*
X0180766Y0070892D03*
X0178797Y0070892D03*
X0176829Y0070892D03*
X0174860Y0070892D03*
X0172892Y0070892D03*
X0172892Y0072860D03*
X0172892Y0074829D03*
X0172892Y0076797D03*
X0172892Y0078766D03*
X0172892Y0080734D03*
X0176829Y0080734D03*
X0178797Y0080734D03*
X0178797Y0082703D03*
X0176829Y0082703D03*
X0180766Y0082703D03*
X0182734Y0082703D03*
X0182734Y0080734D03*
X0184703Y0078766D03*
X0184703Y0076797D03*
X0184703Y0074829D03*
X0182734Y0074829D03*
X0182734Y0076797D03*
X0180766Y0074829D03*
X0178797Y0074829D03*
X0178797Y0076797D03*
X0176829Y0076797D03*
X0176829Y0074829D03*
X0176829Y0078766D03*
X0184703Y0082703D03*
X0274892Y0082703D03*
X0274892Y0084671D03*
X0274892Y0086640D03*
X0276860Y0086640D03*
X0278829Y0086640D03*
X0280797Y0086640D03*
X0282766Y0086640D03*
X0284734Y0086640D03*
X0286703Y0086640D03*
X0288671Y0086640D03*
X0290640Y0086640D03*
X0290640Y0084671D03*
X0290640Y0082703D03*
X0290640Y0080734D03*
X0290640Y0078766D03*
X0290640Y0076797D03*
X0290640Y0074829D03*
X0290640Y0072860D03*
X0290640Y0070892D03*
X0288671Y0070892D03*
X0286703Y0070892D03*
X0284734Y0070892D03*
X0282766Y0070892D03*
X0280797Y0070892D03*
X0278829Y0070892D03*
X0276860Y0070892D03*
X0274892Y0070892D03*
X0274892Y0072860D03*
X0274892Y0074829D03*
X0274892Y0076797D03*
X0274892Y0078766D03*
X0274892Y0080734D03*
X0278829Y0080734D03*
X0280797Y0080734D03*
X0280797Y0082703D03*
X0278829Y0082703D03*
X0282766Y0082703D03*
X0284734Y0082703D03*
X0284734Y0080734D03*
X0286703Y0078766D03*
X0286703Y0076797D03*
X0286703Y0074829D03*
X0284734Y0074829D03*
X0284734Y0076797D03*
X0282766Y0074829D03*
X0280797Y0074829D03*
X0280797Y0076797D03*
X0278829Y0076797D03*
X0278829Y0074829D03*
X0278829Y0078766D03*
X0286703Y0082703D03*
X0376892Y0082703D03*
X0376892Y0084671D03*
X0376892Y0086640D03*
X0378860Y0086640D03*
X0380829Y0086640D03*
X0382797Y0086640D03*
X0384766Y0086640D03*
X0386734Y0086640D03*
X0388703Y0086640D03*
X0390671Y0086640D03*
X0392640Y0086640D03*
X0392640Y0084671D03*
X0392640Y0082703D03*
X0392640Y0080734D03*
X0392640Y0078766D03*
X0392640Y0076797D03*
X0392640Y0074829D03*
X0392640Y0072860D03*
X0392640Y0070892D03*
X0390671Y0070892D03*
X0388703Y0070892D03*
X0386734Y0070892D03*
X0384766Y0070892D03*
X0382797Y0070892D03*
X0380829Y0070892D03*
X0378860Y0070892D03*
X0376892Y0070892D03*
X0376892Y0072860D03*
X0376892Y0074829D03*
X0376892Y0076797D03*
X0376892Y0078766D03*
X0376892Y0080734D03*
X0380829Y0080734D03*
X0382797Y0080734D03*
X0382797Y0082703D03*
X0380829Y0082703D03*
X0384766Y0082703D03*
X0386734Y0082703D03*
X0386734Y0080734D03*
X0388703Y0078766D03*
X0388703Y0076797D03*
X0388703Y0074829D03*
X0386734Y0074829D03*
X0386734Y0076797D03*
X0384766Y0074829D03*
X0382797Y0074829D03*
X0382797Y0076797D03*
X0380829Y0076797D03*
X0380829Y0074829D03*
X0380829Y0078766D03*
X0388703Y0082703D03*
X0388703Y0172892D03*
X0390671Y0172892D03*
X0392640Y0172892D03*
X0392640Y0174860D03*
X0392640Y0176829D03*
X0392640Y0178797D03*
X0392640Y0180766D03*
X0392640Y0182734D03*
X0392640Y0184703D03*
X0392640Y0186671D03*
X0392640Y0188640D03*
X0390671Y0188640D03*
X0388703Y0188640D03*
X0386734Y0188640D03*
X0384766Y0188640D03*
X0382797Y0188640D03*
X0380829Y0188640D03*
X0378860Y0188640D03*
X0376892Y0188640D03*
X0376892Y0186671D03*
X0376892Y0184703D03*
X0376892Y0182734D03*
X0376892Y0180766D03*
X0376892Y0178797D03*
X0376892Y0176829D03*
X0376892Y0174860D03*
X0376892Y0172892D03*
X0378860Y0172892D03*
X0380829Y0172892D03*
X0382797Y0172892D03*
X0384766Y0172892D03*
X0386734Y0172892D03*
X0386734Y0176829D03*
X0386734Y0178797D03*
X0388703Y0178797D03*
X0388703Y0176829D03*
X0388703Y0180766D03*
X0386734Y0182734D03*
X0386734Y0184703D03*
X0384766Y0184703D03*
X0382797Y0184703D03*
X0380829Y0184703D03*
X0380829Y0182734D03*
X0382797Y0182734D03*
X0380829Y0180766D03*
X0380829Y0178797D03*
X0382797Y0178797D03*
X0382797Y0176829D03*
X0380829Y0176829D03*
X0384766Y0176829D03*
X0388703Y0184703D03*
X0388703Y0274892D03*
X0390671Y0274892D03*
X0392640Y0274892D03*
X0392640Y0276860D03*
X0392640Y0278829D03*
X0392640Y0280797D03*
X0392640Y0282766D03*
X0392640Y0284734D03*
X0392640Y0286703D03*
X0392640Y0288671D03*
X0392640Y0290640D03*
X0390671Y0290640D03*
X0388703Y0290640D03*
X0386734Y0290640D03*
X0384766Y0290640D03*
X0382797Y0290640D03*
X0380829Y0290640D03*
X0378860Y0290640D03*
X0376892Y0290640D03*
X0376892Y0288671D03*
X0376892Y0286703D03*
X0376892Y0284734D03*
X0376892Y0282766D03*
X0376892Y0280797D03*
X0376892Y0278829D03*
X0376892Y0276860D03*
X0376892Y0274892D03*
X0378860Y0274892D03*
X0380829Y0274892D03*
X0382797Y0274892D03*
X0384766Y0274892D03*
X0386734Y0274892D03*
X0386734Y0278829D03*
X0386734Y0280797D03*
X0388703Y0280797D03*
X0388703Y0278829D03*
X0388703Y0282766D03*
X0386734Y0284734D03*
X0386734Y0286703D03*
X0384766Y0286703D03*
X0382797Y0286703D03*
X0380829Y0286703D03*
X0380829Y0284734D03*
X0382797Y0284734D03*
X0380829Y0282766D03*
X0380829Y0280797D03*
X0382797Y0280797D03*
X0382797Y0278829D03*
X0380829Y0278829D03*
X0384766Y0278829D03*
X0388703Y0286703D03*
X0388703Y0376892D03*
X0390671Y0376892D03*
X0392640Y0376892D03*
X0392640Y0378860D03*
X0392640Y0380829D03*
X0392640Y0382797D03*
X0392640Y0384766D03*
X0392640Y0386734D03*
X0392640Y0388703D03*
X0392640Y0390671D03*
X0392640Y0392640D03*
X0390671Y0392640D03*
X0388703Y0392640D03*
X0386734Y0392640D03*
X0384766Y0392640D03*
X0382797Y0392640D03*
X0380829Y0392640D03*
X0378860Y0392640D03*
X0376892Y0392640D03*
X0376892Y0390671D03*
X0376892Y0388703D03*
X0376892Y0386734D03*
X0376892Y0384766D03*
X0376892Y0382797D03*
X0376892Y0380829D03*
X0376892Y0378860D03*
X0376892Y0376892D03*
X0378860Y0376892D03*
X0380829Y0376892D03*
X0382797Y0376892D03*
X0384766Y0376892D03*
X0386734Y0376892D03*
X0386734Y0380829D03*
X0386734Y0382797D03*
X0388703Y0382797D03*
X0388703Y0380829D03*
X0388703Y0384766D03*
X0386734Y0386734D03*
X0386734Y0388703D03*
X0384766Y0388703D03*
X0382797Y0388703D03*
X0380829Y0388703D03*
X0380829Y0386734D03*
X0382797Y0386734D03*
X0380829Y0384766D03*
X0380829Y0382797D03*
X0382797Y0382797D03*
X0382797Y0380829D03*
X0380829Y0380829D03*
X0384766Y0380829D03*
X0388703Y0388703D03*
X0290640Y0388703D03*
X0290640Y0390671D03*
X0290640Y0392640D03*
X0288671Y0392640D03*
X0286703Y0392640D03*
X0284734Y0392640D03*
X0282766Y0392640D03*
X0280797Y0392640D03*
X0278829Y0392640D03*
X0276860Y0392640D03*
X0274892Y0392640D03*
X0274892Y0390671D03*
X0274892Y0388703D03*
X0274892Y0386734D03*
X0274892Y0384766D03*
X0274892Y0382797D03*
X0274892Y0380829D03*
X0274892Y0378860D03*
X0274892Y0376892D03*
X0276860Y0376892D03*
X0278829Y0376892D03*
X0280797Y0376892D03*
X0282766Y0376892D03*
X0284734Y0376892D03*
X0286703Y0376892D03*
X0288671Y0376892D03*
X0290640Y0376892D03*
X0290640Y0378860D03*
X0290640Y0380829D03*
X0290640Y0382797D03*
X0290640Y0384766D03*
X0290640Y0386734D03*
X0286703Y0384766D03*
X0286703Y0382797D03*
X0286703Y0380829D03*
X0284734Y0380829D03*
X0284734Y0382797D03*
X0282766Y0380829D03*
X0280797Y0380829D03*
X0280797Y0382797D03*
X0278829Y0382797D03*
X0278829Y0380829D03*
X0278829Y0384766D03*
X0278829Y0386734D03*
X0280797Y0386734D03*
X0280797Y0388703D03*
X0278829Y0388703D03*
X0282766Y0388703D03*
X0284734Y0388703D03*
X0284734Y0386734D03*
X0286703Y0388703D03*
X0188640Y0388703D03*
X0188640Y0390671D03*
X0188640Y0392640D03*
X0186671Y0392640D03*
X0184703Y0392640D03*
X0182734Y0392640D03*
X0180766Y0392640D03*
X0178797Y0392640D03*
X0176829Y0392640D03*
X0174860Y0392640D03*
X0172892Y0392640D03*
X0172892Y0390671D03*
X0172892Y0388703D03*
X0172892Y0386734D03*
X0172892Y0384766D03*
X0172892Y0382797D03*
X0172892Y0380829D03*
X0172892Y0378860D03*
X0172892Y0376892D03*
X0174860Y0376892D03*
X0176829Y0376892D03*
X0178797Y0376892D03*
X0180766Y0376892D03*
X0182734Y0376892D03*
X0184703Y0376892D03*
X0186671Y0376892D03*
X0188640Y0376892D03*
X0188640Y0378860D03*
X0188640Y0380829D03*
X0188640Y0382797D03*
X0188640Y0384766D03*
X0188640Y0386734D03*
X0184703Y0384766D03*
X0184703Y0382797D03*
X0184703Y0380829D03*
X0182734Y0380829D03*
X0182734Y0382797D03*
X0180766Y0380829D03*
X0178797Y0380829D03*
X0178797Y0382797D03*
X0176829Y0382797D03*
X0176829Y0380829D03*
X0176829Y0384766D03*
X0176829Y0386734D03*
X0178797Y0386734D03*
X0178797Y0388703D03*
X0176829Y0388703D03*
X0180766Y0388703D03*
X0182734Y0388703D03*
X0182734Y0386734D03*
X0184703Y0388703D03*
X0086640Y0388703D03*
X0086640Y0390671D03*
X0086640Y0392640D03*
X0084671Y0392640D03*
X0082703Y0392640D03*
X0080734Y0392640D03*
X0078766Y0392640D03*
X0076797Y0392640D03*
X0074829Y0392640D03*
X0072860Y0392640D03*
X0070892Y0392640D03*
X0070892Y0390671D03*
X0070892Y0388703D03*
X0070892Y0386734D03*
X0070892Y0384766D03*
X0070892Y0382797D03*
X0070892Y0380829D03*
X0070892Y0378860D03*
X0070892Y0376892D03*
X0072860Y0376892D03*
X0074829Y0376892D03*
X0076797Y0376892D03*
X0078766Y0376892D03*
X0080734Y0376892D03*
X0082703Y0376892D03*
X0084671Y0376892D03*
X0086640Y0376892D03*
X0086640Y0378860D03*
X0086640Y0380829D03*
X0086640Y0382797D03*
X0086640Y0384766D03*
X0086640Y0386734D03*
X0082703Y0384766D03*
X0082703Y0382797D03*
X0082703Y0380829D03*
X0080734Y0380829D03*
X0080734Y0382797D03*
X0078766Y0380829D03*
X0076797Y0380829D03*
X0076797Y0382797D03*
X0074829Y0382797D03*
X0074829Y0380829D03*
X0074829Y0384766D03*
X0074829Y0386734D03*
X0076797Y0386734D03*
X0076797Y0388703D03*
X0074829Y0388703D03*
X0078766Y0388703D03*
X0080734Y0388703D03*
X0082703Y0388703D03*
X0080734Y0386734D03*
X0080734Y0290640D03*
X0078766Y0290640D03*
X0076797Y0290640D03*
X0074829Y0290640D03*
X0072860Y0290640D03*
X0070892Y0290640D03*
X0070892Y0288671D03*
X0070892Y0286703D03*
X0070892Y0284734D03*
X0070892Y0282766D03*
X0070892Y0280797D03*
X0070892Y0278829D03*
X0070892Y0276860D03*
X0070892Y0274892D03*
X0072860Y0274892D03*
X0074829Y0274892D03*
X0076797Y0274892D03*
X0078766Y0274892D03*
X0080734Y0274892D03*
X0082703Y0274892D03*
X0084671Y0274892D03*
X0086640Y0274892D03*
X0086640Y0276860D03*
X0086640Y0278829D03*
X0086640Y0280797D03*
X0086640Y0282766D03*
X0086640Y0284734D03*
X0086640Y0286703D03*
X0086640Y0288671D03*
X0086640Y0290640D03*
X0084671Y0290640D03*
X0082703Y0290640D03*
X0082703Y0286703D03*
X0080734Y0286703D03*
X0078766Y0286703D03*
X0076797Y0286703D03*
X0074829Y0286703D03*
X0074829Y0284734D03*
X0076797Y0284734D03*
X0074829Y0282766D03*
X0074829Y0280797D03*
X0076797Y0280797D03*
X0076797Y0278829D03*
X0074829Y0278829D03*
X0078766Y0278829D03*
X0080734Y0278829D03*
X0080734Y0280797D03*
X0082703Y0280797D03*
X0082703Y0278829D03*
X0082703Y0282766D03*
X0080734Y0284734D03*
X0172892Y0284734D03*
X0172892Y0282766D03*
X0172892Y0280797D03*
X0172892Y0278829D03*
X0172892Y0276860D03*
X0172892Y0274892D03*
X0174860Y0274892D03*
X0176829Y0274892D03*
X0178797Y0274892D03*
X0180766Y0274892D03*
X0182734Y0274892D03*
X0184703Y0274892D03*
X0186671Y0274892D03*
X0188640Y0274892D03*
X0188640Y0276860D03*
X0188640Y0278829D03*
X0188640Y0280797D03*
X0188640Y0282766D03*
X0188640Y0284734D03*
X0188640Y0286703D03*
X0188640Y0288671D03*
X0188640Y0290640D03*
X0186671Y0290640D03*
X0184703Y0290640D03*
X0182734Y0290640D03*
X0180766Y0290640D03*
X0178797Y0290640D03*
X0176829Y0290640D03*
X0174860Y0290640D03*
X0172892Y0290640D03*
X0172892Y0288671D03*
X0172892Y0286703D03*
X0176829Y0286703D03*
X0178797Y0286703D03*
X0178797Y0284734D03*
X0176829Y0284734D03*
X0176829Y0282766D03*
X0176829Y0280797D03*
X0178797Y0280797D03*
X0178797Y0278829D03*
X0176829Y0278829D03*
X0180766Y0278829D03*
X0182734Y0278829D03*
X0182734Y0280797D03*
X0184703Y0280797D03*
X0184703Y0278829D03*
X0184703Y0282766D03*
X0182734Y0284734D03*
X0182734Y0286703D03*
X0180766Y0286703D03*
X0184703Y0286703D03*
X0274892Y0286703D03*
X0274892Y0288671D03*
X0274892Y0290640D03*
X0276860Y0290640D03*
X0278829Y0290640D03*
X0280797Y0290640D03*
X0282766Y0290640D03*
X0284734Y0290640D03*
X0286703Y0290640D03*
X0288671Y0290640D03*
X0290640Y0290640D03*
X0290640Y0288671D03*
X0290640Y0286703D03*
X0290640Y0284734D03*
X0290640Y0282766D03*
X0290640Y0280797D03*
X0290640Y0278829D03*
X0290640Y0276860D03*
X0290640Y0274892D03*
X0288671Y0274892D03*
X0286703Y0274892D03*
X0284734Y0274892D03*
X0282766Y0274892D03*
X0280797Y0274892D03*
X0278829Y0274892D03*
X0276860Y0274892D03*
X0274892Y0274892D03*
X0274892Y0276860D03*
X0274892Y0278829D03*
X0274892Y0280797D03*
X0274892Y0282766D03*
X0274892Y0284734D03*
X0278829Y0284734D03*
X0280797Y0284734D03*
X0280797Y0286703D03*
X0278829Y0286703D03*
X0282766Y0286703D03*
X0284734Y0286703D03*
X0284734Y0284734D03*
X0286703Y0282766D03*
X0286703Y0280797D03*
X0286703Y0278829D03*
X0284734Y0278829D03*
X0284734Y0280797D03*
X0282766Y0278829D03*
X0280797Y0278829D03*
X0280797Y0280797D03*
X0278829Y0280797D03*
X0278829Y0278829D03*
X0278829Y0282766D03*
X0286703Y0286703D03*
X0286703Y0188640D03*
X0288671Y0188640D03*
X0290640Y0188640D03*
X0290640Y0186671D03*
X0290640Y0184703D03*
X0290640Y0182734D03*
X0290640Y0180766D03*
X0290640Y0178797D03*
X0290640Y0176829D03*
X0290640Y0174860D03*
X0290640Y0172892D03*
X0288671Y0172892D03*
X0286703Y0172892D03*
X0284734Y0172892D03*
X0282766Y0172892D03*
X0280797Y0172892D03*
X0278829Y0172892D03*
X0276860Y0172892D03*
X0274892Y0172892D03*
X0274892Y0174860D03*
X0274892Y0176829D03*
X0274892Y0178797D03*
X0274892Y0180766D03*
X0274892Y0182734D03*
X0274892Y0184703D03*
X0274892Y0186671D03*
X0274892Y0188640D03*
X0276860Y0188640D03*
X0278829Y0188640D03*
X0280797Y0188640D03*
X0282766Y0188640D03*
X0284734Y0188640D03*
X0284734Y0184703D03*
X0282766Y0184703D03*
X0280797Y0184703D03*
X0278829Y0184703D03*
X0278829Y0182734D03*
X0280797Y0182734D03*
X0278829Y0180766D03*
X0278829Y0178797D03*
X0280797Y0178797D03*
X0280797Y0176829D03*
X0278829Y0176829D03*
X0282766Y0176829D03*
X0284734Y0176829D03*
X0284734Y0178797D03*
X0286703Y0178797D03*
X0286703Y0176829D03*
X0286703Y0180766D03*
X0284734Y0182734D03*
X0286703Y0184703D03*
X0188640Y0184703D03*
X0188640Y0186671D03*
X0188640Y0188640D03*
X0186671Y0188640D03*
X0184703Y0188640D03*
X0182734Y0188640D03*
X0180766Y0188640D03*
X0178797Y0188640D03*
X0176829Y0188640D03*
X0174860Y0188640D03*
X0172892Y0188640D03*
X0172892Y0186671D03*
X0172892Y0184703D03*
X0172892Y0182734D03*
X0172892Y0180766D03*
X0172892Y0178797D03*
X0172892Y0176829D03*
X0172892Y0174860D03*
X0172892Y0172892D03*
X0174860Y0172892D03*
X0176829Y0172892D03*
X0178797Y0172892D03*
X0180766Y0172892D03*
X0182734Y0172892D03*
X0184703Y0172892D03*
X0186671Y0172892D03*
X0188640Y0172892D03*
X0188640Y0174860D03*
X0188640Y0176829D03*
X0188640Y0178797D03*
X0188640Y0180766D03*
X0188640Y0182734D03*
X0184703Y0180766D03*
X0184703Y0178797D03*
X0184703Y0176829D03*
X0182734Y0176829D03*
X0182734Y0178797D03*
X0180766Y0176829D03*
X0178797Y0176829D03*
X0178797Y0178797D03*
X0176829Y0178797D03*
X0176829Y0176829D03*
X0176829Y0180766D03*
X0176829Y0182734D03*
X0178797Y0182734D03*
X0178797Y0184703D03*
X0176829Y0184703D03*
X0180766Y0184703D03*
X0182734Y0184703D03*
X0182734Y0182734D03*
X0184703Y0184703D03*
X0086640Y0184703D03*
X0086640Y0186671D03*
X0086640Y0188640D03*
X0084671Y0188640D03*
X0082703Y0188640D03*
X0080734Y0188640D03*
X0078766Y0188640D03*
X0076797Y0188640D03*
X0074829Y0188640D03*
X0072860Y0188640D03*
X0070892Y0188640D03*
X0070892Y0186671D03*
X0070892Y0184703D03*
X0070892Y0182734D03*
X0070892Y0180766D03*
X0070892Y0178797D03*
X0070892Y0176829D03*
X0070892Y0174860D03*
X0070892Y0172892D03*
X0072860Y0172892D03*
X0074829Y0172892D03*
X0076797Y0172892D03*
X0078766Y0172892D03*
X0080734Y0172892D03*
X0082703Y0172892D03*
X0084671Y0172892D03*
X0086640Y0172892D03*
X0086640Y0174860D03*
X0086640Y0176829D03*
X0086640Y0178797D03*
X0086640Y0180766D03*
X0086640Y0182734D03*
X0082703Y0180766D03*
X0082703Y0178797D03*
X0082703Y0176829D03*
X0080734Y0176829D03*
X0080734Y0178797D03*
X0078766Y0176829D03*
X0076797Y0176829D03*
X0076797Y0178797D03*
X0074829Y0178797D03*
X0074829Y0176829D03*
X0074829Y0180766D03*
X0074829Y0182734D03*
X0076797Y0182734D03*
X0076797Y0184703D03*
X0074829Y0184703D03*
X0078766Y0184703D03*
X0080734Y0184703D03*
X0080734Y0182734D03*
X0082703Y0184703D03*
D11*
X0034281Y0191774D03*
X0034281Y0169726D03*
X0034281Y0089774D03*
X0034281Y0067726D03*
X0136281Y0067726D03*
X0136281Y0089774D03*
X0136281Y0169726D03*
X0136281Y0191774D03*
X0136281Y0271726D03*
X0136281Y0293774D03*
X0136281Y0373726D03*
X0136281Y0395774D03*
X0034281Y0395774D03*
X0034281Y0373726D03*
X0034281Y0293774D03*
X0034281Y0271726D03*
X0238281Y0271726D03*
X0238281Y0293774D03*
X0238281Y0373726D03*
X0238281Y0395774D03*
X0340281Y0395774D03*
X0340281Y0373726D03*
X0340281Y0293774D03*
X0340281Y0271726D03*
X0340281Y0191774D03*
X0340281Y0169726D03*
X0340281Y0089774D03*
X0340281Y0067726D03*
X0238281Y0067726D03*
X0238281Y0089774D03*
X0238281Y0169726D03*
X0238281Y0191774D03*
D12*
X0252750Y0186656D03*
X0252750Y0182719D03*
X0252750Y0178781D03*
X0252750Y0174844D03*
X0252750Y0084656D03*
X0252750Y0080719D03*
X0252750Y0076781D03*
X0252750Y0072844D03*
X0150750Y0072844D03*
X0150750Y0076781D03*
X0150750Y0080719D03*
X0150750Y0084656D03*
X0150750Y0174844D03*
X0150750Y0178781D03*
X0150750Y0182719D03*
X0150750Y0186656D03*
X0150750Y0276844D03*
X0150750Y0280781D03*
X0150750Y0284719D03*
X0150750Y0288656D03*
X0150750Y0378844D03*
X0150750Y0382781D03*
X0150750Y0386719D03*
X0150750Y0390656D03*
X0252750Y0390656D03*
X0252750Y0386719D03*
X0252750Y0382781D03*
X0252750Y0378844D03*
X0252750Y0288656D03*
X0252750Y0284719D03*
X0252750Y0280781D03*
X0252750Y0276844D03*
X0354750Y0276844D03*
X0354750Y0280781D03*
X0354750Y0284719D03*
X0354750Y0288656D03*
X0354750Y0378844D03*
X0354750Y0382781D03*
X0354750Y0386719D03*
X0354750Y0390656D03*
X0354750Y0186656D03*
X0354750Y0182719D03*
X0354750Y0178781D03*
X0354750Y0174844D03*
X0354750Y0084656D03*
X0354750Y0080719D03*
X0354750Y0076781D03*
X0354750Y0072844D03*
X0048750Y0072844D03*
X0048750Y0076781D03*
X0048750Y0080719D03*
X0048750Y0084656D03*
X0048750Y0174844D03*
X0048750Y0178781D03*
X0048750Y0182719D03*
X0048750Y0186656D03*
X0048750Y0276844D03*
X0048750Y0280781D03*
X0048750Y0284719D03*
X0048750Y0288656D03*
X0048750Y0378844D03*
X0048750Y0382781D03*
X0048750Y0386719D03*
X0048750Y0390656D03*
D13*
X0063750Y0388096D03*
X0063750Y0381404D03*
X0064650Y0370796D03*
X0064650Y0364104D03*
X0095650Y0381404D03*
X0095650Y0388096D03*
X0087850Y0398404D03*
X0087850Y0405096D03*
X0105250Y0404004D03*
X0111350Y0404004D03*
X0111350Y0410696D03*
X0105250Y0410696D03*
X0165750Y0388096D03*
X0165750Y0381404D03*
X0166650Y0370796D03*
X0166650Y0364104D03*
X0197650Y0381404D03*
X0197650Y0388096D03*
X0189850Y0398404D03*
X0189850Y0405096D03*
X0207250Y0404004D03*
X0213350Y0404004D03*
X0213350Y0410696D03*
X0207250Y0410696D03*
X0267750Y0388096D03*
X0267750Y0381404D03*
X0268650Y0370796D03*
X0268650Y0364104D03*
X0299650Y0381404D03*
X0299650Y0388096D03*
X0291850Y0398404D03*
X0291850Y0405096D03*
X0309250Y0404004D03*
X0315350Y0404004D03*
X0315350Y0410696D03*
X0309250Y0410696D03*
X0369750Y0388096D03*
X0369750Y0381404D03*
X0370650Y0370796D03*
X0370650Y0364104D03*
X0401650Y0381404D03*
X0401650Y0388096D03*
X0393850Y0398404D03*
X0393850Y0405096D03*
X0411250Y0404004D03*
X0417350Y0404004D03*
X0417350Y0410696D03*
X0411250Y0410696D03*
X0411250Y0308696D03*
X0417350Y0308696D03*
X0417350Y0302004D03*
X0411250Y0302004D03*
X0393850Y0303096D03*
X0393850Y0296404D03*
X0401650Y0286096D03*
X0401650Y0279404D03*
X0369750Y0279404D03*
X0369750Y0286096D03*
X0370650Y0268796D03*
X0370650Y0262104D03*
X0315350Y0302004D03*
X0309250Y0302004D03*
X0309250Y0308696D03*
X0315350Y0308696D03*
X0291850Y0303096D03*
X0291850Y0296404D03*
X0299650Y0286096D03*
X0299650Y0279404D03*
X0267750Y0279404D03*
X0267750Y0286096D03*
X0268650Y0268796D03*
X0268650Y0262104D03*
X0213350Y0302004D03*
X0207250Y0302004D03*
X0207250Y0308696D03*
X0213350Y0308696D03*
X0189850Y0303096D03*
X0189850Y0296404D03*
X0197650Y0286096D03*
X0197650Y0279404D03*
X0165750Y0279404D03*
X0165750Y0286096D03*
X0166650Y0268796D03*
X0166650Y0262104D03*
X0111350Y0302004D03*
X0105250Y0302004D03*
X0105250Y0308696D03*
X0111350Y0308696D03*
X0087850Y0303096D03*
X0087850Y0296404D03*
X0095650Y0286096D03*
X0095650Y0279404D03*
X0064650Y0268796D03*
X0064650Y0262104D03*
X0063750Y0279404D03*
X0063750Y0286096D03*
X0105250Y0206696D03*
X0111350Y0206696D03*
X0111350Y0200004D03*
X0105250Y0200004D03*
X0087850Y0201096D03*
X0087850Y0194404D03*
X0095650Y0184096D03*
X0095650Y0177404D03*
X0064650Y0166796D03*
X0064650Y0160104D03*
X0063750Y0177404D03*
X0063750Y0184096D03*
X0105250Y0104696D03*
X0111350Y0104696D03*
X0111350Y0098004D03*
X0105250Y0098004D03*
X0087850Y0099096D03*
X0087850Y0092404D03*
X0095650Y0082096D03*
X0095650Y0075404D03*
X0064650Y0064796D03*
X0064650Y0058104D03*
X0063750Y0075404D03*
X0063750Y0082096D03*
X0165750Y0082096D03*
X0165750Y0075404D03*
X0166650Y0064796D03*
X0166650Y0058104D03*
X0197650Y0075404D03*
X0197650Y0082096D03*
X0189850Y0092404D03*
X0189850Y0099096D03*
X0207250Y0098004D03*
X0213350Y0098004D03*
X0213350Y0104696D03*
X0207250Y0104696D03*
X0267750Y0082096D03*
X0267750Y0075404D03*
X0268650Y0064796D03*
X0268650Y0058104D03*
X0299650Y0075404D03*
X0299650Y0082096D03*
X0291850Y0092404D03*
X0291850Y0099096D03*
X0309250Y0098004D03*
X0315350Y0098004D03*
X0315350Y0104696D03*
X0309250Y0104696D03*
X0369750Y0082096D03*
X0369750Y0075404D03*
X0370650Y0064796D03*
X0370650Y0058104D03*
X0401650Y0075404D03*
X0401650Y0082096D03*
X0393850Y0092404D03*
X0393850Y0099096D03*
X0411250Y0098004D03*
X0417350Y0098004D03*
X0417350Y0104696D03*
X0411250Y0104696D03*
X0370650Y0160104D03*
X0370650Y0166796D03*
X0369750Y0177404D03*
X0369750Y0184096D03*
X0393850Y0194404D03*
X0393850Y0201096D03*
X0411250Y0200004D03*
X0417350Y0200004D03*
X0417350Y0206696D03*
X0411250Y0206696D03*
X0401650Y0184096D03*
X0401650Y0177404D03*
X0315350Y0200004D03*
X0309250Y0200004D03*
X0309250Y0206696D03*
X0315350Y0206696D03*
X0291850Y0201096D03*
X0291850Y0194404D03*
X0299650Y0184096D03*
X0299650Y0177404D03*
X0267750Y0177404D03*
X0267750Y0184096D03*
X0268650Y0166796D03*
X0268650Y0160104D03*
X0213350Y0200004D03*
X0207250Y0200004D03*
X0207250Y0206696D03*
X0213350Y0206696D03*
X0189850Y0201096D03*
X0189850Y0194404D03*
X0197650Y0184096D03*
X0197650Y0177404D03*
X0165750Y0177404D03*
X0165750Y0184096D03*
X0166650Y0166796D03*
X0166650Y0160104D03*
D14*
X0173437Y0205250D03*
X0184263Y0205250D03*
X0275437Y0205250D03*
X0286263Y0205250D03*
X0377437Y0205250D03*
X0388263Y0205250D03*
X0388263Y0103250D03*
X0377437Y0103250D03*
X0286263Y0103250D03*
X0275437Y0103250D03*
X0184263Y0103250D03*
X0173437Y0103250D03*
X0082263Y0103250D03*
X0071437Y0103250D03*
X0071437Y0205250D03*
X0082263Y0205250D03*
X0082263Y0307250D03*
X0071437Y0307250D03*
X0173437Y0307250D03*
X0184263Y0307250D03*
X0275437Y0307250D03*
X0286263Y0307250D03*
X0377437Y0307250D03*
X0388263Y0307250D03*
X0388263Y0409250D03*
X0377437Y0409250D03*
X0286263Y0409250D03*
X0275437Y0409250D03*
X0184263Y0409250D03*
X0173437Y0409250D03*
X0082263Y0409250D03*
X0071437Y0409250D03*
D15*
X0076850Y0403246D03*
X0076850Y0415254D03*
X0178850Y0415254D03*
X0178850Y0403246D03*
X0178850Y0313254D03*
X0178850Y0301246D03*
X0178850Y0211254D03*
X0178850Y0199246D03*
X0178850Y0109254D03*
X0178850Y0097246D03*
X0076850Y0097246D03*
X0076850Y0109254D03*
X0076850Y0199246D03*
X0076850Y0211254D03*
X0076850Y0301246D03*
X0076850Y0313254D03*
X0280850Y0313254D03*
X0280850Y0301246D03*
X0280850Y0211254D03*
X0280850Y0199246D03*
X0280850Y0109254D03*
X0280850Y0097246D03*
X0382850Y0097246D03*
X0382850Y0109254D03*
X0382850Y0199246D03*
X0382850Y0211254D03*
X0382850Y0301246D03*
X0382850Y0313254D03*
X0382850Y0403246D03*
X0382850Y0415254D03*
X0280850Y0415254D03*
X0280850Y0403246D03*
D16*
X0283029Y0366450D03*
X0292871Y0366450D03*
X0385029Y0366450D03*
X0394871Y0366450D03*
X0394871Y0264450D03*
X0385029Y0264450D03*
X0292871Y0264450D03*
X0283029Y0264450D03*
X0190871Y0264450D03*
X0181029Y0264450D03*
X0088871Y0264450D03*
X0079029Y0264450D03*
X0079029Y0162450D03*
X0088871Y0162450D03*
X0181029Y0162450D03*
X0190871Y0162450D03*
X0283029Y0162450D03*
X0292871Y0162450D03*
X0385029Y0162450D03*
X0394871Y0162450D03*
X0394871Y0060450D03*
X0385029Y0060450D03*
X0292871Y0060450D03*
X0283029Y0060450D03*
X0190871Y0060450D03*
X0181029Y0060450D03*
X0088871Y0060450D03*
X0079029Y0060450D03*
X0079029Y0366450D03*
X0088871Y0366450D03*
X0181029Y0366450D03*
X0190871Y0366450D03*
D17*
X0203950Y0380122D03*
X0203950Y0389178D03*
X0101950Y0389178D03*
X0101950Y0380122D03*
X0101950Y0287178D03*
X0101950Y0278122D03*
X0101950Y0185178D03*
X0101950Y0176122D03*
X0101950Y0083178D03*
X0101950Y0074122D03*
X0203950Y0074122D03*
X0203950Y0083178D03*
X0203950Y0176122D03*
X0203950Y0185178D03*
X0203950Y0278122D03*
X0203950Y0287178D03*
X0305950Y0287178D03*
X0305950Y0278122D03*
X0305950Y0185178D03*
X0305950Y0176122D03*
X0305950Y0083178D03*
X0305950Y0074122D03*
X0407950Y0074122D03*
X0407950Y0083178D03*
X0407950Y0176122D03*
X0407950Y0185178D03*
X0407950Y0278122D03*
X0407950Y0287178D03*
X0407950Y0380122D03*
X0407950Y0389178D03*
X0305950Y0389178D03*
X0305950Y0380122D03*
D18*
X0337919Y0406372D02*
X0337919Y0409128D01*
X0340675Y0409128D01*
X0340675Y0406372D01*
X0337919Y0406372D01*
X0337919Y0407494D02*
X0340675Y0407494D01*
X0340675Y0408616D02*
X0337919Y0408616D01*
X0344825Y0409128D02*
X0344825Y0406372D01*
X0344825Y0409128D02*
X0347581Y0409128D01*
X0347581Y0406372D01*
X0344825Y0406372D01*
X0344825Y0407494D02*
X0347581Y0407494D01*
X0347581Y0408616D02*
X0344825Y0408616D01*
X0242825Y0409128D02*
X0242825Y0406372D01*
X0242825Y0409128D02*
X0245581Y0409128D01*
X0245581Y0406372D01*
X0242825Y0406372D01*
X0242825Y0407494D02*
X0245581Y0407494D01*
X0245581Y0408616D02*
X0242825Y0408616D01*
X0235919Y0409128D02*
X0235919Y0406372D01*
X0235919Y0409128D02*
X0238675Y0409128D01*
X0238675Y0406372D01*
X0235919Y0406372D01*
X0235919Y0407494D02*
X0238675Y0407494D01*
X0238675Y0408616D02*
X0235919Y0408616D01*
X0140825Y0409128D02*
X0140825Y0406372D01*
X0140825Y0409128D02*
X0143581Y0409128D01*
X0143581Y0406372D01*
X0140825Y0406372D01*
X0140825Y0407494D02*
X0143581Y0407494D01*
X0143581Y0408616D02*
X0140825Y0408616D01*
X0133919Y0409128D02*
X0133919Y0406372D01*
X0133919Y0409128D02*
X0136675Y0409128D01*
X0136675Y0406372D01*
X0133919Y0406372D01*
X0133919Y0407494D02*
X0136675Y0407494D01*
X0136675Y0408616D02*
X0133919Y0408616D01*
X0038825Y0409128D02*
X0038825Y0406372D01*
X0038825Y0409128D02*
X0041581Y0409128D01*
X0041581Y0406372D01*
X0038825Y0406372D01*
X0038825Y0407494D02*
X0041581Y0407494D01*
X0041581Y0408616D02*
X0038825Y0408616D01*
X0031919Y0409128D02*
X0031919Y0406372D01*
X0031919Y0409128D02*
X0034675Y0409128D01*
X0034675Y0406372D01*
X0031919Y0406372D01*
X0031919Y0407494D02*
X0034675Y0407494D01*
X0034675Y0408616D02*
X0031919Y0408616D01*
X0031919Y0307128D02*
X0031919Y0304372D01*
X0031919Y0307128D02*
X0034675Y0307128D01*
X0034675Y0304372D01*
X0031919Y0304372D01*
X0031919Y0305494D02*
X0034675Y0305494D01*
X0034675Y0306616D02*
X0031919Y0306616D01*
X0038825Y0307128D02*
X0038825Y0304372D01*
X0038825Y0307128D02*
X0041581Y0307128D01*
X0041581Y0304372D01*
X0038825Y0304372D01*
X0038825Y0305494D02*
X0041581Y0305494D01*
X0041581Y0306616D02*
X0038825Y0306616D01*
X0133919Y0307128D02*
X0133919Y0304372D01*
X0133919Y0307128D02*
X0136675Y0307128D01*
X0136675Y0304372D01*
X0133919Y0304372D01*
X0133919Y0305494D02*
X0136675Y0305494D01*
X0136675Y0306616D02*
X0133919Y0306616D01*
X0140825Y0307128D02*
X0140825Y0304372D01*
X0140825Y0307128D02*
X0143581Y0307128D01*
X0143581Y0304372D01*
X0140825Y0304372D01*
X0140825Y0305494D02*
X0143581Y0305494D01*
X0143581Y0306616D02*
X0140825Y0306616D01*
X0235919Y0307128D02*
X0235919Y0304372D01*
X0235919Y0307128D02*
X0238675Y0307128D01*
X0238675Y0304372D01*
X0235919Y0304372D01*
X0235919Y0305494D02*
X0238675Y0305494D01*
X0238675Y0306616D02*
X0235919Y0306616D01*
X0242825Y0307128D02*
X0242825Y0304372D01*
X0242825Y0307128D02*
X0245581Y0307128D01*
X0245581Y0304372D01*
X0242825Y0304372D01*
X0242825Y0305494D02*
X0245581Y0305494D01*
X0245581Y0306616D02*
X0242825Y0306616D01*
X0337919Y0307128D02*
X0337919Y0304372D01*
X0337919Y0307128D02*
X0340675Y0307128D01*
X0340675Y0304372D01*
X0337919Y0304372D01*
X0337919Y0305494D02*
X0340675Y0305494D01*
X0340675Y0306616D02*
X0337919Y0306616D01*
X0344825Y0307128D02*
X0344825Y0304372D01*
X0344825Y0307128D02*
X0347581Y0307128D01*
X0347581Y0304372D01*
X0344825Y0304372D01*
X0344825Y0305494D02*
X0347581Y0305494D01*
X0347581Y0306616D02*
X0344825Y0306616D01*
X0344825Y0205128D02*
X0344825Y0202372D01*
X0344825Y0205128D02*
X0347581Y0205128D01*
X0347581Y0202372D01*
X0344825Y0202372D01*
X0344825Y0203494D02*
X0347581Y0203494D01*
X0347581Y0204616D02*
X0344825Y0204616D01*
X0337919Y0205128D02*
X0337919Y0202372D01*
X0337919Y0205128D02*
X0340675Y0205128D01*
X0340675Y0202372D01*
X0337919Y0202372D01*
X0337919Y0203494D02*
X0340675Y0203494D01*
X0340675Y0204616D02*
X0337919Y0204616D01*
X0242825Y0205128D02*
X0242825Y0202372D01*
X0242825Y0205128D02*
X0245581Y0205128D01*
X0245581Y0202372D01*
X0242825Y0202372D01*
X0242825Y0203494D02*
X0245581Y0203494D01*
X0245581Y0204616D02*
X0242825Y0204616D01*
X0235919Y0205128D02*
X0235919Y0202372D01*
X0235919Y0205128D02*
X0238675Y0205128D01*
X0238675Y0202372D01*
X0235919Y0202372D01*
X0235919Y0203494D02*
X0238675Y0203494D01*
X0238675Y0204616D02*
X0235919Y0204616D01*
X0140825Y0205128D02*
X0140825Y0202372D01*
X0140825Y0205128D02*
X0143581Y0205128D01*
X0143581Y0202372D01*
X0140825Y0202372D01*
X0140825Y0203494D02*
X0143581Y0203494D01*
X0143581Y0204616D02*
X0140825Y0204616D01*
X0133919Y0205128D02*
X0133919Y0202372D01*
X0133919Y0205128D02*
X0136675Y0205128D01*
X0136675Y0202372D01*
X0133919Y0202372D01*
X0133919Y0203494D02*
X0136675Y0203494D01*
X0136675Y0204616D02*
X0133919Y0204616D01*
X0038825Y0205128D02*
X0038825Y0202372D01*
X0038825Y0205128D02*
X0041581Y0205128D01*
X0041581Y0202372D01*
X0038825Y0202372D01*
X0038825Y0203494D02*
X0041581Y0203494D01*
X0041581Y0204616D02*
X0038825Y0204616D01*
X0031919Y0205128D02*
X0031919Y0202372D01*
X0031919Y0205128D02*
X0034675Y0205128D01*
X0034675Y0202372D01*
X0031919Y0202372D01*
X0031919Y0203494D02*
X0034675Y0203494D01*
X0034675Y0204616D02*
X0031919Y0204616D01*
X0031919Y0103128D02*
X0031919Y0100372D01*
X0031919Y0103128D02*
X0034675Y0103128D01*
X0034675Y0100372D01*
X0031919Y0100372D01*
X0031919Y0101494D02*
X0034675Y0101494D01*
X0034675Y0102616D02*
X0031919Y0102616D01*
X0038825Y0103128D02*
X0038825Y0100372D01*
X0038825Y0103128D02*
X0041581Y0103128D01*
X0041581Y0100372D01*
X0038825Y0100372D01*
X0038825Y0101494D02*
X0041581Y0101494D01*
X0041581Y0102616D02*
X0038825Y0102616D01*
X0133919Y0103128D02*
X0133919Y0100372D01*
X0133919Y0103128D02*
X0136675Y0103128D01*
X0136675Y0100372D01*
X0133919Y0100372D01*
X0133919Y0101494D02*
X0136675Y0101494D01*
X0136675Y0102616D02*
X0133919Y0102616D01*
X0140825Y0103128D02*
X0140825Y0100372D01*
X0140825Y0103128D02*
X0143581Y0103128D01*
X0143581Y0100372D01*
X0140825Y0100372D01*
X0140825Y0101494D02*
X0143581Y0101494D01*
X0143581Y0102616D02*
X0140825Y0102616D01*
X0235919Y0103128D02*
X0235919Y0100372D01*
X0235919Y0103128D02*
X0238675Y0103128D01*
X0238675Y0100372D01*
X0235919Y0100372D01*
X0235919Y0101494D02*
X0238675Y0101494D01*
X0238675Y0102616D02*
X0235919Y0102616D01*
X0242825Y0103128D02*
X0242825Y0100372D01*
X0242825Y0103128D02*
X0245581Y0103128D01*
X0245581Y0100372D01*
X0242825Y0100372D01*
X0242825Y0101494D02*
X0245581Y0101494D01*
X0245581Y0102616D02*
X0242825Y0102616D01*
X0337919Y0103128D02*
X0337919Y0100372D01*
X0337919Y0103128D02*
X0340675Y0103128D01*
X0340675Y0100372D01*
X0337919Y0100372D01*
X0337919Y0101494D02*
X0340675Y0101494D01*
X0340675Y0102616D02*
X0337919Y0102616D01*
X0344825Y0103128D02*
X0344825Y0100372D01*
X0344825Y0103128D02*
X0347581Y0103128D01*
X0347581Y0100372D01*
X0344825Y0100372D01*
X0344825Y0101494D02*
X0347581Y0101494D01*
X0347581Y0102616D02*
X0344825Y0102616D01*
D19*
X0346096Y0096750D03*
X0339404Y0096750D03*
X0306096Y0089750D03*
X0299404Y0089750D03*
X0244096Y0096750D03*
X0237404Y0096750D03*
X0204096Y0089750D03*
X0197404Y0089750D03*
X0142096Y0096750D03*
X0135404Y0096750D03*
X0102096Y0089750D03*
X0095404Y0089750D03*
X0040096Y0096750D03*
X0033404Y0096750D03*
X0095404Y0191750D03*
X0102096Y0191750D03*
X0135404Y0198750D03*
X0142096Y0198750D03*
X0197404Y0191750D03*
X0204096Y0191750D03*
X0237404Y0198750D03*
X0244096Y0198750D03*
X0299404Y0191750D03*
X0306096Y0191750D03*
X0339404Y0198750D03*
X0346096Y0198750D03*
X0401404Y0191750D03*
X0408096Y0191750D03*
X0408096Y0293750D03*
X0401404Y0293750D03*
X0346096Y0300750D03*
X0339404Y0300750D03*
X0306096Y0293750D03*
X0299404Y0293750D03*
X0244096Y0300750D03*
X0237404Y0300750D03*
X0204096Y0293750D03*
X0197404Y0293750D03*
X0142096Y0300750D03*
X0135404Y0300750D03*
X0102096Y0293750D03*
X0095404Y0293750D03*
X0040096Y0300750D03*
X0033404Y0300750D03*
X0095404Y0395750D03*
X0102096Y0395750D03*
X0135404Y0402750D03*
X0142096Y0402750D03*
X0197404Y0395750D03*
X0204096Y0395750D03*
X0237404Y0402750D03*
X0244096Y0402750D03*
X0299404Y0395750D03*
X0306096Y0395750D03*
X0339404Y0402750D03*
X0346096Y0402750D03*
X0401404Y0395750D03*
X0408096Y0395750D03*
X0408096Y0089750D03*
X0401404Y0089750D03*
X0040096Y0198750D03*
X0033404Y0198750D03*
X0033404Y0402750D03*
X0040096Y0402750D03*
D20*
X0077267Y0398550D03*
X0081833Y0398550D03*
X0179267Y0398550D03*
X0183833Y0398550D03*
X0281267Y0398550D03*
X0285833Y0398550D03*
X0383267Y0398550D03*
X0387833Y0398550D03*
X0387833Y0296550D03*
X0383267Y0296550D03*
X0285833Y0296550D03*
X0281267Y0296550D03*
X0183833Y0296550D03*
X0179267Y0296550D03*
X0081833Y0296550D03*
X0077267Y0296550D03*
X0077267Y0194550D03*
X0081833Y0194550D03*
X0179267Y0194550D03*
X0183833Y0194550D03*
X0281267Y0194550D03*
X0285833Y0194550D03*
X0383267Y0194550D03*
X0387833Y0194550D03*
X0387833Y0092550D03*
X0383267Y0092550D03*
X0285833Y0092550D03*
X0281267Y0092550D03*
X0183833Y0092550D03*
X0179267Y0092550D03*
X0081833Y0092550D03*
X0077267Y0092550D03*
D21*
X0107199Y0074148D02*
X0116648Y0064699D01*
X0107199Y0064699D01*
X0107199Y0074148D01*
X0107199Y0074074D02*
X0107273Y0074074D01*
X0107199Y0073879D02*
X0107468Y0073879D01*
X0107663Y0073683D02*
X0107199Y0073683D01*
X0107199Y0073488D02*
X0107859Y0073488D01*
X0108054Y0073292D02*
X0107199Y0073292D01*
X0107199Y0073097D02*
X0108249Y0073097D01*
X0108445Y0072902D02*
X0107199Y0072902D01*
X0107199Y0072706D02*
X0108640Y0072706D01*
X0108835Y0072511D02*
X0107199Y0072511D01*
X0107199Y0072316D02*
X0109031Y0072316D01*
X0109226Y0072120D02*
X0107199Y0072120D01*
X0107199Y0071925D02*
X0109422Y0071925D01*
X0109617Y0071730D02*
X0107199Y0071730D01*
X0107199Y0071534D02*
X0109812Y0071534D01*
X0110008Y0071339D02*
X0107199Y0071339D01*
X0107199Y0071143D02*
X0110203Y0071143D01*
X0110398Y0070948D02*
X0107199Y0070948D01*
X0107199Y0070753D02*
X0110594Y0070753D01*
X0110789Y0070557D02*
X0107199Y0070557D01*
X0107199Y0070362D02*
X0110984Y0070362D01*
X0111180Y0070167D02*
X0107199Y0070167D01*
X0107199Y0069971D02*
X0111375Y0069971D01*
X0111570Y0069776D02*
X0107199Y0069776D01*
X0107199Y0069581D02*
X0111766Y0069581D01*
X0111961Y0069385D02*
X0107199Y0069385D01*
X0107199Y0069190D02*
X0112157Y0069190D01*
X0112352Y0068995D02*
X0107199Y0068995D01*
X0107199Y0068799D02*
X0112547Y0068799D01*
X0112743Y0068604D02*
X0107199Y0068604D01*
X0107199Y0068408D02*
X0112938Y0068408D01*
X0113133Y0068213D02*
X0107199Y0068213D01*
X0107199Y0068018D02*
X0113329Y0068018D01*
X0113524Y0067822D02*
X0107199Y0067822D01*
X0107199Y0067627D02*
X0113719Y0067627D01*
X0113915Y0067432D02*
X0107199Y0067432D01*
X0107199Y0067236D02*
X0114110Y0067236D01*
X0114306Y0067041D02*
X0107199Y0067041D01*
X0107199Y0066846D02*
X0114501Y0066846D01*
X0114696Y0066650D02*
X0107199Y0066650D01*
X0107199Y0066455D02*
X0114892Y0066455D01*
X0115087Y0066259D02*
X0107199Y0066259D01*
X0107199Y0066064D02*
X0115282Y0066064D01*
X0115478Y0065869D02*
X0107199Y0065869D01*
X0107199Y0065673D02*
X0115673Y0065673D01*
X0115868Y0065478D02*
X0107199Y0065478D01*
X0107199Y0065283D02*
X0116064Y0065283D01*
X0116259Y0065087D02*
X0107199Y0065087D01*
X0107199Y0064892D02*
X0116455Y0064892D01*
X0209199Y0064892D02*
X0218455Y0064892D01*
X0218648Y0064699D02*
X0209199Y0074148D01*
X0209199Y0064699D01*
X0218648Y0064699D01*
X0218259Y0065087D02*
X0209199Y0065087D01*
X0209199Y0065283D02*
X0218064Y0065283D01*
X0217868Y0065478D02*
X0209199Y0065478D01*
X0209199Y0065673D02*
X0217673Y0065673D01*
X0217478Y0065869D02*
X0209199Y0065869D01*
X0209199Y0066064D02*
X0217282Y0066064D01*
X0217087Y0066259D02*
X0209199Y0066259D01*
X0209199Y0066455D02*
X0216892Y0066455D01*
X0216696Y0066650D02*
X0209199Y0066650D01*
X0209199Y0066846D02*
X0216501Y0066846D01*
X0216306Y0067041D02*
X0209199Y0067041D01*
X0209199Y0067236D02*
X0216110Y0067236D01*
X0215915Y0067432D02*
X0209199Y0067432D01*
X0209199Y0067627D02*
X0215719Y0067627D01*
X0215524Y0067822D02*
X0209199Y0067822D01*
X0209199Y0068018D02*
X0215329Y0068018D01*
X0215133Y0068213D02*
X0209199Y0068213D01*
X0209199Y0068408D02*
X0214938Y0068408D01*
X0214743Y0068604D02*
X0209199Y0068604D01*
X0209199Y0068799D02*
X0214547Y0068799D01*
X0214352Y0068995D02*
X0209199Y0068995D01*
X0209199Y0069190D02*
X0214157Y0069190D01*
X0213961Y0069385D02*
X0209199Y0069385D01*
X0209199Y0069581D02*
X0213766Y0069581D01*
X0213570Y0069776D02*
X0209199Y0069776D01*
X0209199Y0069971D02*
X0213375Y0069971D01*
X0213180Y0070167D02*
X0209199Y0070167D01*
X0209199Y0070362D02*
X0212984Y0070362D01*
X0212789Y0070557D02*
X0209199Y0070557D01*
X0209199Y0070753D02*
X0212594Y0070753D01*
X0212398Y0070948D02*
X0209199Y0070948D01*
X0209199Y0071143D02*
X0212203Y0071143D01*
X0212008Y0071339D02*
X0209199Y0071339D01*
X0209199Y0071534D02*
X0211812Y0071534D01*
X0211617Y0071730D02*
X0209199Y0071730D01*
X0209199Y0071925D02*
X0211422Y0071925D01*
X0211226Y0072120D02*
X0209199Y0072120D01*
X0209199Y0072316D02*
X0211031Y0072316D01*
X0210835Y0072511D02*
X0209199Y0072511D01*
X0209199Y0072706D02*
X0210640Y0072706D01*
X0210445Y0072902D02*
X0209199Y0072902D01*
X0209199Y0073097D02*
X0210249Y0073097D01*
X0210054Y0073292D02*
X0209199Y0073292D01*
X0209199Y0073488D02*
X0209859Y0073488D01*
X0209663Y0073683D02*
X0209199Y0073683D01*
X0209199Y0073879D02*
X0209468Y0073879D01*
X0209273Y0074074D02*
X0209199Y0074074D01*
X0209199Y0166699D02*
X0209199Y0176148D01*
X0218648Y0166699D01*
X0209199Y0166699D01*
X0209199Y0166871D02*
X0218476Y0166871D01*
X0218280Y0167066D02*
X0209199Y0167066D01*
X0209199Y0167261D02*
X0218085Y0167261D01*
X0217890Y0167457D02*
X0209199Y0167457D01*
X0209199Y0167652D02*
X0217694Y0167652D01*
X0217499Y0167848D02*
X0209199Y0167848D01*
X0209199Y0168043D02*
X0217304Y0168043D01*
X0217108Y0168238D02*
X0209199Y0168238D01*
X0209199Y0168434D02*
X0216913Y0168434D01*
X0216717Y0168629D02*
X0209199Y0168629D01*
X0209199Y0168824D02*
X0216522Y0168824D01*
X0216327Y0169020D02*
X0209199Y0169020D01*
X0209199Y0169215D02*
X0216131Y0169215D01*
X0215936Y0169410D02*
X0209199Y0169410D01*
X0209199Y0169606D02*
X0215741Y0169606D01*
X0215545Y0169801D02*
X0209199Y0169801D01*
X0209199Y0169997D02*
X0215350Y0169997D01*
X0215155Y0170192D02*
X0209199Y0170192D01*
X0209199Y0170387D02*
X0214959Y0170387D01*
X0214764Y0170583D02*
X0209199Y0170583D01*
X0209199Y0170778D02*
X0214568Y0170778D01*
X0214373Y0170973D02*
X0209199Y0170973D01*
X0209199Y0171169D02*
X0214178Y0171169D01*
X0213982Y0171364D02*
X0209199Y0171364D01*
X0209199Y0171559D02*
X0213787Y0171559D01*
X0213592Y0171755D02*
X0209199Y0171755D01*
X0209199Y0171950D02*
X0213396Y0171950D01*
X0213201Y0172145D02*
X0209199Y0172145D01*
X0209199Y0172341D02*
X0213006Y0172341D01*
X0212810Y0172536D02*
X0209199Y0172536D01*
X0209199Y0172732D02*
X0212615Y0172732D01*
X0212420Y0172927D02*
X0209199Y0172927D01*
X0209199Y0173122D02*
X0212224Y0173122D01*
X0212029Y0173318D02*
X0209199Y0173318D01*
X0209199Y0173513D02*
X0211833Y0173513D01*
X0211638Y0173708D02*
X0209199Y0173708D01*
X0209199Y0173904D02*
X0211443Y0173904D01*
X0211247Y0174099D02*
X0209199Y0174099D01*
X0209199Y0174294D02*
X0211052Y0174294D01*
X0210857Y0174490D02*
X0209199Y0174490D01*
X0209199Y0174685D02*
X0210661Y0174685D01*
X0210466Y0174881D02*
X0209199Y0174881D01*
X0209199Y0175076D02*
X0210271Y0175076D01*
X0210075Y0175271D02*
X0209199Y0175271D01*
X0209199Y0175467D02*
X0209880Y0175467D01*
X0209684Y0175662D02*
X0209199Y0175662D01*
X0209199Y0175857D02*
X0209489Y0175857D01*
X0209294Y0176053D02*
X0209199Y0176053D01*
X0116648Y0166699D02*
X0107199Y0176148D01*
X0107199Y0166699D01*
X0116648Y0166699D01*
X0116476Y0166871D02*
X0107199Y0166871D01*
X0107199Y0167066D02*
X0116280Y0167066D01*
X0116085Y0167261D02*
X0107199Y0167261D01*
X0107199Y0167457D02*
X0115890Y0167457D01*
X0115694Y0167652D02*
X0107199Y0167652D01*
X0107199Y0167848D02*
X0115499Y0167848D01*
X0115304Y0168043D02*
X0107199Y0168043D01*
X0107199Y0168238D02*
X0115108Y0168238D01*
X0114913Y0168434D02*
X0107199Y0168434D01*
X0107199Y0168629D02*
X0114717Y0168629D01*
X0114522Y0168824D02*
X0107199Y0168824D01*
X0107199Y0169020D02*
X0114327Y0169020D01*
X0114131Y0169215D02*
X0107199Y0169215D01*
X0107199Y0169410D02*
X0113936Y0169410D01*
X0113741Y0169606D02*
X0107199Y0169606D01*
X0107199Y0169801D02*
X0113545Y0169801D01*
X0113350Y0169997D02*
X0107199Y0169997D01*
X0107199Y0170192D02*
X0113155Y0170192D01*
X0112959Y0170387D02*
X0107199Y0170387D01*
X0107199Y0170583D02*
X0112764Y0170583D01*
X0112568Y0170778D02*
X0107199Y0170778D01*
X0107199Y0170973D02*
X0112373Y0170973D01*
X0112178Y0171169D02*
X0107199Y0171169D01*
X0107199Y0171364D02*
X0111982Y0171364D01*
X0111787Y0171559D02*
X0107199Y0171559D01*
X0107199Y0171755D02*
X0111592Y0171755D01*
X0111396Y0171950D02*
X0107199Y0171950D01*
X0107199Y0172145D02*
X0111201Y0172145D01*
X0111006Y0172341D02*
X0107199Y0172341D01*
X0107199Y0172536D02*
X0110810Y0172536D01*
X0110615Y0172732D02*
X0107199Y0172732D01*
X0107199Y0172927D02*
X0110420Y0172927D01*
X0110224Y0173122D02*
X0107199Y0173122D01*
X0107199Y0173318D02*
X0110029Y0173318D01*
X0109833Y0173513D02*
X0107199Y0173513D01*
X0107199Y0173708D02*
X0109638Y0173708D01*
X0109443Y0173904D02*
X0107199Y0173904D01*
X0107199Y0174099D02*
X0109247Y0174099D01*
X0109052Y0174294D02*
X0107199Y0174294D01*
X0107199Y0174490D02*
X0108857Y0174490D01*
X0108661Y0174685D02*
X0107199Y0174685D01*
X0107199Y0174881D02*
X0108466Y0174881D01*
X0108271Y0175076D02*
X0107199Y0175076D01*
X0107199Y0175271D02*
X0108075Y0175271D01*
X0107880Y0175467D02*
X0107199Y0175467D01*
X0107199Y0175662D02*
X0107684Y0175662D01*
X0107489Y0175857D02*
X0107199Y0175857D01*
X0107199Y0176053D02*
X0107294Y0176053D01*
X0107199Y0268699D02*
X0107199Y0278148D01*
X0116648Y0268699D01*
X0107199Y0268699D01*
X0107199Y0268850D02*
X0116497Y0268850D01*
X0116302Y0269045D02*
X0107199Y0269045D01*
X0107199Y0269240D02*
X0116106Y0269240D01*
X0115911Y0269436D02*
X0107199Y0269436D01*
X0107199Y0269631D02*
X0115715Y0269631D01*
X0115520Y0269826D02*
X0107199Y0269826D01*
X0107199Y0270022D02*
X0115325Y0270022D01*
X0115129Y0270217D02*
X0107199Y0270217D01*
X0107199Y0270412D02*
X0114934Y0270412D01*
X0114739Y0270608D02*
X0107199Y0270608D01*
X0107199Y0270803D02*
X0114543Y0270803D01*
X0114348Y0270999D02*
X0107199Y0270999D01*
X0107199Y0271194D02*
X0114153Y0271194D01*
X0113957Y0271389D02*
X0107199Y0271389D01*
X0107199Y0271585D02*
X0113762Y0271585D01*
X0113566Y0271780D02*
X0107199Y0271780D01*
X0107199Y0271975D02*
X0113371Y0271975D01*
X0113176Y0272171D02*
X0107199Y0272171D01*
X0107199Y0272366D02*
X0112980Y0272366D01*
X0112785Y0272561D02*
X0107199Y0272561D01*
X0107199Y0272757D02*
X0112590Y0272757D01*
X0112394Y0272952D02*
X0107199Y0272952D01*
X0107199Y0273148D02*
X0112199Y0273148D01*
X0112004Y0273343D02*
X0107199Y0273343D01*
X0107199Y0273538D02*
X0111808Y0273538D01*
X0111613Y0273734D02*
X0107199Y0273734D01*
X0107199Y0273929D02*
X0111418Y0273929D01*
X0111222Y0274124D02*
X0107199Y0274124D01*
X0107199Y0274320D02*
X0111027Y0274320D01*
X0110831Y0274515D02*
X0107199Y0274515D01*
X0107199Y0274710D02*
X0110636Y0274710D01*
X0110441Y0274906D02*
X0107199Y0274906D01*
X0107199Y0275101D02*
X0110245Y0275101D01*
X0110050Y0275296D02*
X0107199Y0275296D01*
X0107199Y0275492D02*
X0109855Y0275492D01*
X0109659Y0275687D02*
X0107199Y0275687D01*
X0107199Y0275883D02*
X0109464Y0275883D01*
X0109269Y0276078D02*
X0107199Y0276078D01*
X0107199Y0276273D02*
X0109073Y0276273D01*
X0108878Y0276469D02*
X0107199Y0276469D01*
X0107199Y0276664D02*
X0108682Y0276664D01*
X0108487Y0276859D02*
X0107199Y0276859D01*
X0107199Y0277055D02*
X0108292Y0277055D01*
X0108096Y0277250D02*
X0107199Y0277250D01*
X0107199Y0277445D02*
X0107901Y0277445D01*
X0107706Y0277641D02*
X0107199Y0277641D01*
X0107199Y0277836D02*
X0107510Y0277836D01*
X0107315Y0278032D02*
X0107199Y0278032D01*
X0107199Y0370699D02*
X0107199Y0380148D01*
X0116648Y0370699D01*
X0107199Y0370699D01*
X0107199Y0370828D02*
X0116518Y0370828D01*
X0116323Y0371024D02*
X0107199Y0371024D01*
X0107199Y0371219D02*
X0116127Y0371219D01*
X0115932Y0371414D02*
X0107199Y0371414D01*
X0107199Y0371610D02*
X0115737Y0371610D01*
X0115541Y0371805D02*
X0107199Y0371805D01*
X0107199Y0372001D02*
X0115346Y0372001D01*
X0115151Y0372196D02*
X0107199Y0372196D01*
X0107199Y0372391D02*
X0114955Y0372391D01*
X0114760Y0372587D02*
X0107199Y0372587D01*
X0107199Y0372782D02*
X0114564Y0372782D01*
X0114369Y0372977D02*
X0107199Y0372977D01*
X0107199Y0373173D02*
X0114174Y0373173D01*
X0113978Y0373368D02*
X0107199Y0373368D01*
X0107199Y0373563D02*
X0113783Y0373563D01*
X0113588Y0373759D02*
X0107199Y0373759D01*
X0107199Y0373954D02*
X0113392Y0373954D01*
X0113197Y0374150D02*
X0107199Y0374150D01*
X0107199Y0374345D02*
X0113002Y0374345D01*
X0112806Y0374540D02*
X0107199Y0374540D01*
X0107199Y0374736D02*
X0112611Y0374736D01*
X0112416Y0374931D02*
X0107199Y0374931D01*
X0107199Y0375126D02*
X0112220Y0375126D01*
X0112025Y0375322D02*
X0107199Y0375322D01*
X0107199Y0375517D02*
X0111829Y0375517D01*
X0111634Y0375712D02*
X0107199Y0375712D01*
X0107199Y0375908D02*
X0111439Y0375908D01*
X0111243Y0376103D02*
X0107199Y0376103D01*
X0107199Y0376298D02*
X0111048Y0376298D01*
X0110853Y0376494D02*
X0107199Y0376494D01*
X0107199Y0376689D02*
X0110657Y0376689D01*
X0110462Y0376885D02*
X0107199Y0376885D01*
X0107199Y0377080D02*
X0110267Y0377080D01*
X0110071Y0377275D02*
X0107199Y0377275D01*
X0107199Y0377471D02*
X0109876Y0377471D01*
X0109680Y0377666D02*
X0107199Y0377666D01*
X0107199Y0377861D02*
X0109485Y0377861D01*
X0109290Y0378057D02*
X0107199Y0378057D01*
X0107199Y0378252D02*
X0109094Y0378252D01*
X0108899Y0378447D02*
X0107199Y0378447D01*
X0107199Y0378643D02*
X0108704Y0378643D01*
X0108508Y0378838D02*
X0107199Y0378838D01*
X0107199Y0379034D02*
X0108313Y0379034D01*
X0108118Y0379229D02*
X0107199Y0379229D01*
X0107199Y0379424D02*
X0107922Y0379424D01*
X0107727Y0379620D02*
X0107199Y0379620D01*
X0107199Y0379815D02*
X0107531Y0379815D01*
X0107336Y0380010D02*
X0107199Y0380010D01*
X0209199Y0380010D02*
X0209336Y0380010D01*
X0209199Y0380148D02*
X0218648Y0370699D01*
X0209199Y0370699D01*
X0209199Y0380148D01*
X0209199Y0379815D02*
X0209531Y0379815D01*
X0209727Y0379620D02*
X0209199Y0379620D01*
X0209199Y0379424D02*
X0209922Y0379424D01*
X0210118Y0379229D02*
X0209199Y0379229D01*
X0209199Y0379034D02*
X0210313Y0379034D01*
X0210508Y0378838D02*
X0209199Y0378838D01*
X0209199Y0378643D02*
X0210704Y0378643D01*
X0210899Y0378447D02*
X0209199Y0378447D01*
X0209199Y0378252D02*
X0211094Y0378252D01*
X0211290Y0378057D02*
X0209199Y0378057D01*
X0209199Y0377861D02*
X0211485Y0377861D01*
X0211680Y0377666D02*
X0209199Y0377666D01*
X0209199Y0377471D02*
X0211876Y0377471D01*
X0212071Y0377275D02*
X0209199Y0377275D01*
X0209199Y0377080D02*
X0212267Y0377080D01*
X0212462Y0376885D02*
X0209199Y0376885D01*
X0209199Y0376689D02*
X0212657Y0376689D01*
X0212853Y0376494D02*
X0209199Y0376494D01*
X0209199Y0376298D02*
X0213048Y0376298D01*
X0213243Y0376103D02*
X0209199Y0376103D01*
X0209199Y0375908D02*
X0213439Y0375908D01*
X0213634Y0375712D02*
X0209199Y0375712D01*
X0209199Y0375517D02*
X0213829Y0375517D01*
X0214025Y0375322D02*
X0209199Y0375322D01*
X0209199Y0375126D02*
X0214220Y0375126D01*
X0214416Y0374931D02*
X0209199Y0374931D01*
X0209199Y0374736D02*
X0214611Y0374736D01*
X0214806Y0374540D02*
X0209199Y0374540D01*
X0209199Y0374345D02*
X0215002Y0374345D01*
X0215197Y0374150D02*
X0209199Y0374150D01*
X0209199Y0373954D02*
X0215392Y0373954D01*
X0215588Y0373759D02*
X0209199Y0373759D01*
X0209199Y0373563D02*
X0215783Y0373563D01*
X0215978Y0373368D02*
X0209199Y0373368D01*
X0209199Y0373173D02*
X0216174Y0373173D01*
X0216369Y0372977D02*
X0209199Y0372977D01*
X0209199Y0372782D02*
X0216564Y0372782D01*
X0216760Y0372587D02*
X0209199Y0372587D01*
X0209199Y0372391D02*
X0216955Y0372391D01*
X0217151Y0372196D02*
X0209199Y0372196D01*
X0209199Y0372001D02*
X0217346Y0372001D01*
X0217541Y0371805D02*
X0209199Y0371805D01*
X0209199Y0371610D02*
X0217737Y0371610D01*
X0217932Y0371414D02*
X0209199Y0371414D01*
X0209199Y0371219D02*
X0218127Y0371219D01*
X0218323Y0371024D02*
X0209199Y0371024D01*
X0209199Y0370828D02*
X0218518Y0370828D01*
X0311199Y0370828D02*
X0320518Y0370828D01*
X0320648Y0370699D02*
X0311199Y0380148D01*
X0311199Y0370699D01*
X0320648Y0370699D01*
X0320323Y0371024D02*
X0311199Y0371024D01*
X0311199Y0371219D02*
X0320127Y0371219D01*
X0319932Y0371414D02*
X0311199Y0371414D01*
X0311199Y0371610D02*
X0319737Y0371610D01*
X0319541Y0371805D02*
X0311199Y0371805D01*
X0311199Y0372001D02*
X0319346Y0372001D01*
X0319151Y0372196D02*
X0311199Y0372196D01*
X0311199Y0372391D02*
X0318955Y0372391D01*
X0318760Y0372587D02*
X0311199Y0372587D01*
X0311199Y0372782D02*
X0318564Y0372782D01*
X0318369Y0372977D02*
X0311199Y0372977D01*
X0311199Y0373173D02*
X0318174Y0373173D01*
X0317978Y0373368D02*
X0311199Y0373368D01*
X0311199Y0373563D02*
X0317783Y0373563D01*
X0317588Y0373759D02*
X0311199Y0373759D01*
X0311199Y0373954D02*
X0317392Y0373954D01*
X0317197Y0374150D02*
X0311199Y0374150D01*
X0311199Y0374345D02*
X0317002Y0374345D01*
X0316806Y0374540D02*
X0311199Y0374540D01*
X0311199Y0374736D02*
X0316611Y0374736D01*
X0316416Y0374931D02*
X0311199Y0374931D01*
X0311199Y0375126D02*
X0316220Y0375126D01*
X0316025Y0375322D02*
X0311199Y0375322D01*
X0311199Y0375517D02*
X0315829Y0375517D01*
X0315634Y0375712D02*
X0311199Y0375712D01*
X0311199Y0375908D02*
X0315439Y0375908D01*
X0315243Y0376103D02*
X0311199Y0376103D01*
X0311199Y0376298D02*
X0315048Y0376298D01*
X0314853Y0376494D02*
X0311199Y0376494D01*
X0311199Y0376689D02*
X0314657Y0376689D01*
X0314462Y0376885D02*
X0311199Y0376885D01*
X0311199Y0377080D02*
X0314267Y0377080D01*
X0314071Y0377275D02*
X0311199Y0377275D01*
X0311199Y0377471D02*
X0313876Y0377471D01*
X0313680Y0377666D02*
X0311199Y0377666D01*
X0311199Y0377861D02*
X0313485Y0377861D01*
X0313290Y0378057D02*
X0311199Y0378057D01*
X0311199Y0378252D02*
X0313094Y0378252D01*
X0312899Y0378447D02*
X0311199Y0378447D01*
X0311199Y0378643D02*
X0312704Y0378643D01*
X0312508Y0378838D02*
X0311199Y0378838D01*
X0311199Y0379034D02*
X0312313Y0379034D01*
X0312118Y0379229D02*
X0311199Y0379229D01*
X0311199Y0379424D02*
X0311922Y0379424D01*
X0311727Y0379620D02*
X0311199Y0379620D01*
X0311199Y0379815D02*
X0311531Y0379815D01*
X0311336Y0380010D02*
X0311199Y0380010D01*
X0413199Y0380010D02*
X0413336Y0380010D01*
X0413199Y0380148D02*
X0422648Y0370699D01*
X0413199Y0370699D01*
X0413199Y0380148D01*
X0413199Y0379815D02*
X0413531Y0379815D01*
X0413727Y0379620D02*
X0413199Y0379620D01*
X0413199Y0379424D02*
X0413922Y0379424D01*
X0414118Y0379229D02*
X0413199Y0379229D01*
X0413199Y0379034D02*
X0414313Y0379034D01*
X0414508Y0378838D02*
X0413199Y0378838D01*
X0413199Y0378643D02*
X0414704Y0378643D01*
X0414899Y0378447D02*
X0413199Y0378447D01*
X0413199Y0378252D02*
X0415094Y0378252D01*
X0415290Y0378057D02*
X0413199Y0378057D01*
X0413199Y0377861D02*
X0415485Y0377861D01*
X0415680Y0377666D02*
X0413199Y0377666D01*
X0413199Y0377471D02*
X0415876Y0377471D01*
X0416071Y0377275D02*
X0413199Y0377275D01*
X0413199Y0377080D02*
X0416267Y0377080D01*
X0416462Y0376885D02*
X0413199Y0376885D01*
X0413199Y0376689D02*
X0416657Y0376689D01*
X0416853Y0376494D02*
X0413199Y0376494D01*
X0413199Y0376298D02*
X0417048Y0376298D01*
X0417243Y0376103D02*
X0413199Y0376103D01*
X0413199Y0375908D02*
X0417439Y0375908D01*
X0417634Y0375712D02*
X0413199Y0375712D01*
X0413199Y0375517D02*
X0417829Y0375517D01*
X0418025Y0375322D02*
X0413199Y0375322D01*
X0413199Y0375126D02*
X0418220Y0375126D01*
X0418416Y0374931D02*
X0413199Y0374931D01*
X0413199Y0374736D02*
X0418611Y0374736D01*
X0418806Y0374540D02*
X0413199Y0374540D01*
X0413199Y0374345D02*
X0419002Y0374345D01*
X0419197Y0374150D02*
X0413199Y0374150D01*
X0413199Y0373954D02*
X0419392Y0373954D01*
X0419588Y0373759D02*
X0413199Y0373759D01*
X0413199Y0373563D02*
X0419783Y0373563D01*
X0419978Y0373368D02*
X0413199Y0373368D01*
X0413199Y0373173D02*
X0420174Y0373173D01*
X0420369Y0372977D02*
X0413199Y0372977D01*
X0413199Y0372782D02*
X0420564Y0372782D01*
X0420760Y0372587D02*
X0413199Y0372587D01*
X0413199Y0372391D02*
X0420955Y0372391D01*
X0421151Y0372196D02*
X0413199Y0372196D01*
X0413199Y0372001D02*
X0421346Y0372001D01*
X0421541Y0371805D02*
X0413199Y0371805D01*
X0413199Y0371610D02*
X0421737Y0371610D01*
X0421932Y0371414D02*
X0413199Y0371414D01*
X0413199Y0371219D02*
X0422127Y0371219D01*
X0422323Y0371024D02*
X0413199Y0371024D01*
X0413199Y0370828D02*
X0422518Y0370828D01*
X0413199Y0278148D02*
X0422648Y0268699D01*
X0413199Y0268699D01*
X0413199Y0278148D01*
X0413199Y0278032D02*
X0413315Y0278032D01*
X0413199Y0277836D02*
X0413510Y0277836D01*
X0413706Y0277641D02*
X0413199Y0277641D01*
X0413199Y0277445D02*
X0413901Y0277445D01*
X0414096Y0277250D02*
X0413199Y0277250D01*
X0413199Y0277055D02*
X0414292Y0277055D01*
X0414487Y0276859D02*
X0413199Y0276859D01*
X0413199Y0276664D02*
X0414682Y0276664D01*
X0414878Y0276469D02*
X0413199Y0276469D01*
X0413199Y0276273D02*
X0415073Y0276273D01*
X0415269Y0276078D02*
X0413199Y0276078D01*
X0413199Y0275883D02*
X0415464Y0275883D01*
X0415659Y0275687D02*
X0413199Y0275687D01*
X0413199Y0275492D02*
X0415855Y0275492D01*
X0416050Y0275296D02*
X0413199Y0275296D01*
X0413199Y0275101D02*
X0416245Y0275101D01*
X0416441Y0274906D02*
X0413199Y0274906D01*
X0413199Y0274710D02*
X0416636Y0274710D01*
X0416831Y0274515D02*
X0413199Y0274515D01*
X0413199Y0274320D02*
X0417027Y0274320D01*
X0417222Y0274124D02*
X0413199Y0274124D01*
X0413199Y0273929D02*
X0417418Y0273929D01*
X0417613Y0273734D02*
X0413199Y0273734D01*
X0413199Y0273538D02*
X0417808Y0273538D01*
X0418004Y0273343D02*
X0413199Y0273343D01*
X0413199Y0273148D02*
X0418199Y0273148D01*
X0418394Y0272952D02*
X0413199Y0272952D01*
X0413199Y0272757D02*
X0418590Y0272757D01*
X0418785Y0272561D02*
X0413199Y0272561D01*
X0413199Y0272366D02*
X0418980Y0272366D01*
X0419176Y0272171D02*
X0413199Y0272171D01*
X0413199Y0271975D02*
X0419371Y0271975D01*
X0419566Y0271780D02*
X0413199Y0271780D01*
X0413199Y0271585D02*
X0419762Y0271585D01*
X0419957Y0271389D02*
X0413199Y0271389D01*
X0413199Y0271194D02*
X0420153Y0271194D01*
X0420348Y0270999D02*
X0413199Y0270999D01*
X0413199Y0270803D02*
X0420543Y0270803D01*
X0420739Y0270608D02*
X0413199Y0270608D01*
X0413199Y0270412D02*
X0420934Y0270412D01*
X0421129Y0270217D02*
X0413199Y0270217D01*
X0413199Y0270022D02*
X0421325Y0270022D01*
X0421520Y0269826D02*
X0413199Y0269826D01*
X0413199Y0269631D02*
X0421715Y0269631D01*
X0421911Y0269436D02*
X0413199Y0269436D01*
X0413199Y0269240D02*
X0422106Y0269240D01*
X0422302Y0269045D02*
X0413199Y0269045D01*
X0413199Y0268850D02*
X0422497Y0268850D01*
X0413199Y0176148D02*
X0422648Y0166699D01*
X0413199Y0166699D01*
X0413199Y0176148D01*
X0413199Y0176053D02*
X0413294Y0176053D01*
X0413199Y0175857D02*
X0413489Y0175857D01*
X0413684Y0175662D02*
X0413199Y0175662D01*
X0413199Y0175467D02*
X0413880Y0175467D01*
X0414075Y0175271D02*
X0413199Y0175271D01*
X0413199Y0175076D02*
X0414271Y0175076D01*
X0414466Y0174881D02*
X0413199Y0174881D01*
X0413199Y0174685D02*
X0414661Y0174685D01*
X0414857Y0174490D02*
X0413199Y0174490D01*
X0413199Y0174294D02*
X0415052Y0174294D01*
X0415247Y0174099D02*
X0413199Y0174099D01*
X0413199Y0173904D02*
X0415443Y0173904D01*
X0415638Y0173708D02*
X0413199Y0173708D01*
X0413199Y0173513D02*
X0415833Y0173513D01*
X0416029Y0173318D02*
X0413199Y0173318D01*
X0413199Y0173122D02*
X0416224Y0173122D01*
X0416420Y0172927D02*
X0413199Y0172927D01*
X0413199Y0172732D02*
X0416615Y0172732D01*
X0416810Y0172536D02*
X0413199Y0172536D01*
X0413199Y0172341D02*
X0417006Y0172341D01*
X0417201Y0172145D02*
X0413199Y0172145D01*
X0413199Y0171950D02*
X0417396Y0171950D01*
X0417592Y0171755D02*
X0413199Y0171755D01*
X0413199Y0171559D02*
X0417787Y0171559D01*
X0417982Y0171364D02*
X0413199Y0171364D01*
X0413199Y0171169D02*
X0418178Y0171169D01*
X0418373Y0170973D02*
X0413199Y0170973D01*
X0413199Y0170778D02*
X0418568Y0170778D01*
X0418764Y0170583D02*
X0413199Y0170583D01*
X0413199Y0170387D02*
X0418959Y0170387D01*
X0419155Y0170192D02*
X0413199Y0170192D01*
X0413199Y0169997D02*
X0419350Y0169997D01*
X0419545Y0169801D02*
X0413199Y0169801D01*
X0413199Y0169606D02*
X0419741Y0169606D01*
X0419936Y0169410D02*
X0413199Y0169410D01*
X0413199Y0169215D02*
X0420131Y0169215D01*
X0420327Y0169020D02*
X0413199Y0169020D01*
X0413199Y0168824D02*
X0420522Y0168824D01*
X0420717Y0168629D02*
X0413199Y0168629D01*
X0413199Y0168434D02*
X0420913Y0168434D01*
X0421108Y0168238D02*
X0413199Y0168238D01*
X0413199Y0168043D02*
X0421304Y0168043D01*
X0421499Y0167848D02*
X0413199Y0167848D01*
X0413199Y0167652D02*
X0421694Y0167652D01*
X0421890Y0167457D02*
X0413199Y0167457D01*
X0413199Y0167261D02*
X0422085Y0167261D01*
X0422280Y0167066D02*
X0413199Y0167066D01*
X0413199Y0166871D02*
X0422476Y0166871D01*
X0413199Y0074148D02*
X0422648Y0064699D01*
X0413199Y0064699D01*
X0413199Y0074148D01*
X0413199Y0074074D02*
X0413273Y0074074D01*
X0413199Y0073879D02*
X0413468Y0073879D01*
X0413663Y0073683D02*
X0413199Y0073683D01*
X0413199Y0073488D02*
X0413859Y0073488D01*
X0414054Y0073292D02*
X0413199Y0073292D01*
X0413199Y0073097D02*
X0414249Y0073097D01*
X0414445Y0072902D02*
X0413199Y0072902D01*
X0413199Y0072706D02*
X0414640Y0072706D01*
X0414835Y0072511D02*
X0413199Y0072511D01*
X0413199Y0072316D02*
X0415031Y0072316D01*
X0415226Y0072120D02*
X0413199Y0072120D01*
X0413199Y0071925D02*
X0415422Y0071925D01*
X0415617Y0071730D02*
X0413199Y0071730D01*
X0413199Y0071534D02*
X0415812Y0071534D01*
X0416008Y0071339D02*
X0413199Y0071339D01*
X0413199Y0071143D02*
X0416203Y0071143D01*
X0416398Y0070948D02*
X0413199Y0070948D01*
X0413199Y0070753D02*
X0416594Y0070753D01*
X0416789Y0070557D02*
X0413199Y0070557D01*
X0413199Y0070362D02*
X0416984Y0070362D01*
X0417180Y0070167D02*
X0413199Y0070167D01*
X0413199Y0069971D02*
X0417375Y0069971D01*
X0417570Y0069776D02*
X0413199Y0069776D01*
X0413199Y0069581D02*
X0417766Y0069581D01*
X0417961Y0069385D02*
X0413199Y0069385D01*
X0413199Y0069190D02*
X0418157Y0069190D01*
X0418352Y0068995D02*
X0413199Y0068995D01*
X0413199Y0068799D02*
X0418547Y0068799D01*
X0418743Y0068604D02*
X0413199Y0068604D01*
X0413199Y0068408D02*
X0418938Y0068408D01*
X0419133Y0068213D02*
X0413199Y0068213D01*
X0413199Y0068018D02*
X0419329Y0068018D01*
X0419524Y0067822D02*
X0413199Y0067822D01*
X0413199Y0067627D02*
X0419719Y0067627D01*
X0419915Y0067432D02*
X0413199Y0067432D01*
X0413199Y0067236D02*
X0420110Y0067236D01*
X0420306Y0067041D02*
X0413199Y0067041D01*
X0413199Y0066846D02*
X0420501Y0066846D01*
X0420696Y0066650D02*
X0413199Y0066650D01*
X0413199Y0066455D02*
X0420892Y0066455D01*
X0421087Y0066259D02*
X0413199Y0066259D01*
X0413199Y0066064D02*
X0421282Y0066064D01*
X0421478Y0065869D02*
X0413199Y0065869D01*
X0413199Y0065673D02*
X0421673Y0065673D01*
X0421868Y0065478D02*
X0413199Y0065478D01*
X0413199Y0065283D02*
X0422064Y0065283D01*
X0422259Y0065087D02*
X0413199Y0065087D01*
X0413199Y0064892D02*
X0422455Y0064892D01*
X0320648Y0064699D02*
X0311199Y0074148D01*
X0311199Y0064699D01*
X0320648Y0064699D01*
X0320455Y0064892D02*
X0311199Y0064892D01*
X0311199Y0065087D02*
X0320259Y0065087D01*
X0320064Y0065283D02*
X0311199Y0065283D01*
X0311199Y0065478D02*
X0319868Y0065478D01*
X0319673Y0065673D02*
X0311199Y0065673D01*
X0311199Y0065869D02*
X0319478Y0065869D01*
X0319282Y0066064D02*
X0311199Y0066064D01*
X0311199Y0066259D02*
X0319087Y0066259D01*
X0318892Y0066455D02*
X0311199Y0066455D01*
X0311199Y0066650D02*
X0318696Y0066650D01*
X0318501Y0066846D02*
X0311199Y0066846D01*
X0311199Y0067041D02*
X0318306Y0067041D01*
X0318110Y0067236D02*
X0311199Y0067236D01*
X0311199Y0067432D02*
X0317915Y0067432D01*
X0317719Y0067627D02*
X0311199Y0067627D01*
X0311199Y0067822D02*
X0317524Y0067822D01*
X0317329Y0068018D02*
X0311199Y0068018D01*
X0311199Y0068213D02*
X0317133Y0068213D01*
X0316938Y0068408D02*
X0311199Y0068408D01*
X0311199Y0068604D02*
X0316743Y0068604D01*
X0316547Y0068799D02*
X0311199Y0068799D01*
X0311199Y0068995D02*
X0316352Y0068995D01*
X0316157Y0069190D02*
X0311199Y0069190D01*
X0311199Y0069385D02*
X0315961Y0069385D01*
X0315766Y0069581D02*
X0311199Y0069581D01*
X0311199Y0069776D02*
X0315570Y0069776D01*
X0315375Y0069971D02*
X0311199Y0069971D01*
X0311199Y0070167D02*
X0315180Y0070167D01*
X0314984Y0070362D02*
X0311199Y0070362D01*
X0311199Y0070557D02*
X0314789Y0070557D01*
X0314594Y0070753D02*
X0311199Y0070753D01*
X0311199Y0070948D02*
X0314398Y0070948D01*
X0314203Y0071143D02*
X0311199Y0071143D01*
X0311199Y0071339D02*
X0314008Y0071339D01*
X0313812Y0071534D02*
X0311199Y0071534D01*
X0311199Y0071730D02*
X0313617Y0071730D01*
X0313422Y0071925D02*
X0311199Y0071925D01*
X0311199Y0072120D02*
X0313226Y0072120D01*
X0313031Y0072316D02*
X0311199Y0072316D01*
X0311199Y0072511D02*
X0312835Y0072511D01*
X0312640Y0072706D02*
X0311199Y0072706D01*
X0311199Y0072902D02*
X0312445Y0072902D01*
X0312249Y0073097D02*
X0311199Y0073097D01*
X0311199Y0073292D02*
X0312054Y0073292D01*
X0311859Y0073488D02*
X0311199Y0073488D01*
X0311199Y0073683D02*
X0311663Y0073683D01*
X0311468Y0073879D02*
X0311199Y0073879D01*
X0311199Y0074074D02*
X0311273Y0074074D01*
X0311199Y0166699D02*
X0311199Y0176148D01*
X0320648Y0166699D01*
X0311199Y0166699D01*
X0311199Y0166871D02*
X0320476Y0166871D01*
X0320280Y0167066D02*
X0311199Y0167066D01*
X0311199Y0167261D02*
X0320085Y0167261D01*
X0319890Y0167457D02*
X0311199Y0167457D01*
X0311199Y0167652D02*
X0319694Y0167652D01*
X0319499Y0167848D02*
X0311199Y0167848D01*
X0311199Y0168043D02*
X0319304Y0168043D01*
X0319108Y0168238D02*
X0311199Y0168238D01*
X0311199Y0168434D02*
X0318913Y0168434D01*
X0318717Y0168629D02*
X0311199Y0168629D01*
X0311199Y0168824D02*
X0318522Y0168824D01*
X0318327Y0169020D02*
X0311199Y0169020D01*
X0311199Y0169215D02*
X0318131Y0169215D01*
X0317936Y0169410D02*
X0311199Y0169410D01*
X0311199Y0169606D02*
X0317741Y0169606D01*
X0317545Y0169801D02*
X0311199Y0169801D01*
X0311199Y0169997D02*
X0317350Y0169997D01*
X0317155Y0170192D02*
X0311199Y0170192D01*
X0311199Y0170387D02*
X0316959Y0170387D01*
X0316764Y0170583D02*
X0311199Y0170583D01*
X0311199Y0170778D02*
X0316568Y0170778D01*
X0316373Y0170973D02*
X0311199Y0170973D01*
X0311199Y0171169D02*
X0316178Y0171169D01*
X0315982Y0171364D02*
X0311199Y0171364D01*
X0311199Y0171559D02*
X0315787Y0171559D01*
X0315592Y0171755D02*
X0311199Y0171755D01*
X0311199Y0171950D02*
X0315396Y0171950D01*
X0315201Y0172145D02*
X0311199Y0172145D01*
X0311199Y0172341D02*
X0315006Y0172341D01*
X0314810Y0172536D02*
X0311199Y0172536D01*
X0311199Y0172732D02*
X0314615Y0172732D01*
X0314420Y0172927D02*
X0311199Y0172927D01*
X0311199Y0173122D02*
X0314224Y0173122D01*
X0314029Y0173318D02*
X0311199Y0173318D01*
X0311199Y0173513D02*
X0313833Y0173513D01*
X0313638Y0173708D02*
X0311199Y0173708D01*
X0311199Y0173904D02*
X0313443Y0173904D01*
X0313247Y0174099D02*
X0311199Y0174099D01*
X0311199Y0174294D02*
X0313052Y0174294D01*
X0312857Y0174490D02*
X0311199Y0174490D01*
X0311199Y0174685D02*
X0312661Y0174685D01*
X0312466Y0174881D02*
X0311199Y0174881D01*
X0311199Y0175076D02*
X0312271Y0175076D01*
X0312075Y0175271D02*
X0311199Y0175271D01*
X0311199Y0175467D02*
X0311880Y0175467D01*
X0311684Y0175662D02*
X0311199Y0175662D01*
X0311199Y0175857D02*
X0311489Y0175857D01*
X0311294Y0176053D02*
X0311199Y0176053D01*
X0311199Y0268699D02*
X0311199Y0278148D01*
X0320648Y0268699D01*
X0311199Y0268699D01*
X0311199Y0268850D02*
X0320497Y0268850D01*
X0320302Y0269045D02*
X0311199Y0269045D01*
X0311199Y0269240D02*
X0320106Y0269240D01*
X0319911Y0269436D02*
X0311199Y0269436D01*
X0311199Y0269631D02*
X0319715Y0269631D01*
X0319520Y0269826D02*
X0311199Y0269826D01*
X0311199Y0270022D02*
X0319325Y0270022D01*
X0319129Y0270217D02*
X0311199Y0270217D01*
X0311199Y0270412D02*
X0318934Y0270412D01*
X0318739Y0270608D02*
X0311199Y0270608D01*
X0311199Y0270803D02*
X0318543Y0270803D01*
X0318348Y0270999D02*
X0311199Y0270999D01*
X0311199Y0271194D02*
X0318153Y0271194D01*
X0317957Y0271389D02*
X0311199Y0271389D01*
X0311199Y0271585D02*
X0317762Y0271585D01*
X0317566Y0271780D02*
X0311199Y0271780D01*
X0311199Y0271975D02*
X0317371Y0271975D01*
X0317176Y0272171D02*
X0311199Y0272171D01*
X0311199Y0272366D02*
X0316980Y0272366D01*
X0316785Y0272561D02*
X0311199Y0272561D01*
X0311199Y0272757D02*
X0316590Y0272757D01*
X0316394Y0272952D02*
X0311199Y0272952D01*
X0311199Y0273148D02*
X0316199Y0273148D01*
X0316004Y0273343D02*
X0311199Y0273343D01*
X0311199Y0273538D02*
X0315808Y0273538D01*
X0315613Y0273734D02*
X0311199Y0273734D01*
X0311199Y0273929D02*
X0315418Y0273929D01*
X0315222Y0274124D02*
X0311199Y0274124D01*
X0311199Y0274320D02*
X0315027Y0274320D01*
X0314831Y0274515D02*
X0311199Y0274515D01*
X0311199Y0274710D02*
X0314636Y0274710D01*
X0314441Y0274906D02*
X0311199Y0274906D01*
X0311199Y0275101D02*
X0314245Y0275101D01*
X0314050Y0275296D02*
X0311199Y0275296D01*
X0311199Y0275492D02*
X0313855Y0275492D01*
X0313659Y0275687D02*
X0311199Y0275687D01*
X0311199Y0275883D02*
X0313464Y0275883D01*
X0313269Y0276078D02*
X0311199Y0276078D01*
X0311199Y0276273D02*
X0313073Y0276273D01*
X0312878Y0276469D02*
X0311199Y0276469D01*
X0311199Y0276664D02*
X0312682Y0276664D01*
X0312487Y0276859D02*
X0311199Y0276859D01*
X0311199Y0277055D02*
X0312292Y0277055D01*
X0312096Y0277250D02*
X0311199Y0277250D01*
X0311199Y0277445D02*
X0311901Y0277445D01*
X0311706Y0277641D02*
X0311199Y0277641D01*
X0311199Y0277836D02*
X0311510Y0277836D01*
X0311315Y0278032D02*
X0311199Y0278032D01*
X0218648Y0268699D02*
X0209199Y0278148D01*
X0209199Y0268699D01*
X0218648Y0268699D01*
X0218497Y0268850D02*
X0209199Y0268850D01*
X0209199Y0269045D02*
X0218302Y0269045D01*
X0218106Y0269240D02*
X0209199Y0269240D01*
X0209199Y0269436D02*
X0217911Y0269436D01*
X0217715Y0269631D02*
X0209199Y0269631D01*
X0209199Y0269826D02*
X0217520Y0269826D01*
X0217325Y0270022D02*
X0209199Y0270022D01*
X0209199Y0270217D02*
X0217129Y0270217D01*
X0216934Y0270412D02*
X0209199Y0270412D01*
X0209199Y0270608D02*
X0216739Y0270608D01*
X0216543Y0270803D02*
X0209199Y0270803D01*
X0209199Y0270999D02*
X0216348Y0270999D01*
X0216153Y0271194D02*
X0209199Y0271194D01*
X0209199Y0271389D02*
X0215957Y0271389D01*
X0215762Y0271585D02*
X0209199Y0271585D01*
X0209199Y0271780D02*
X0215566Y0271780D01*
X0215371Y0271975D02*
X0209199Y0271975D01*
X0209199Y0272171D02*
X0215176Y0272171D01*
X0214980Y0272366D02*
X0209199Y0272366D01*
X0209199Y0272561D02*
X0214785Y0272561D01*
X0214590Y0272757D02*
X0209199Y0272757D01*
X0209199Y0272952D02*
X0214394Y0272952D01*
X0214199Y0273148D02*
X0209199Y0273148D01*
X0209199Y0273343D02*
X0214004Y0273343D01*
X0213808Y0273538D02*
X0209199Y0273538D01*
X0209199Y0273734D02*
X0213613Y0273734D01*
X0213418Y0273929D02*
X0209199Y0273929D01*
X0209199Y0274124D02*
X0213222Y0274124D01*
X0213027Y0274320D02*
X0209199Y0274320D01*
X0209199Y0274515D02*
X0212831Y0274515D01*
X0212636Y0274710D02*
X0209199Y0274710D01*
X0209199Y0274906D02*
X0212441Y0274906D01*
X0212245Y0275101D02*
X0209199Y0275101D01*
X0209199Y0275296D02*
X0212050Y0275296D01*
X0211855Y0275492D02*
X0209199Y0275492D01*
X0209199Y0275687D02*
X0211659Y0275687D01*
X0211464Y0275883D02*
X0209199Y0275883D01*
X0209199Y0276078D02*
X0211269Y0276078D01*
X0211073Y0276273D02*
X0209199Y0276273D01*
X0209199Y0276469D02*
X0210878Y0276469D01*
X0210682Y0276664D02*
X0209199Y0276664D01*
X0209199Y0276859D02*
X0210487Y0276859D01*
X0210292Y0277055D02*
X0209199Y0277055D01*
X0209199Y0277250D02*
X0210096Y0277250D01*
X0209901Y0277445D02*
X0209199Y0277445D01*
X0209199Y0277641D02*
X0209706Y0277641D01*
X0209510Y0277836D02*
X0209199Y0277836D01*
X0209199Y0278032D02*
X0209315Y0278032D01*
D22*
X0217388Y0286533D03*
X0319388Y0286533D03*
X0421388Y0286533D03*
X0421388Y0184533D03*
X0319388Y0184533D03*
X0217388Y0184533D03*
X0115388Y0184533D03*
X0115388Y0082533D03*
X0217388Y0082533D03*
X0319388Y0082533D03*
X0421388Y0082533D03*
X0115388Y0286533D03*
X0115388Y0388533D03*
X0217388Y0388533D03*
X0319388Y0388533D03*
X0421388Y0388533D03*
D23*
X0056250Y0057781D03*
X0056250Y0064868D03*
X0056250Y0159781D03*
X0056250Y0166868D03*
X0056250Y0261781D03*
X0056250Y0268868D03*
X0056250Y0363781D03*
X0056250Y0370868D03*
X0158250Y0370868D03*
X0158250Y0363781D03*
X0158250Y0268868D03*
X0158250Y0261781D03*
X0158250Y0166868D03*
X0158250Y0159781D03*
X0158250Y0064868D03*
X0158250Y0057781D03*
X0260250Y0057781D03*
X0260250Y0064868D03*
X0260250Y0159781D03*
X0260250Y0166868D03*
X0260250Y0261781D03*
X0260250Y0268868D03*
X0260250Y0363781D03*
X0260250Y0370868D03*
X0362250Y0370868D03*
X0362250Y0363781D03*
X0362250Y0268868D03*
X0362250Y0261781D03*
X0362250Y0166868D03*
X0362250Y0159781D03*
X0362250Y0064868D03*
X0362250Y0057781D03*
M02*
